/* XPM */
static char *result[] = {
/* columns rows colors chars-per-pixel */
"48 48 126 2 ",
"   c #000000",
".  c #01070A",
"X  c #020B0E",
"o  c #030D12",
"O  c #031116",
"+  c #04151C",
"@  c #051B23",
"#  c #061E28",
"$  c #06232E",
"%  c #0C252E",
"&  c #072633",
"*  c #072C3A",
"=  c #082C3A",
"-  c #152D36",
";  c #062F40",
":  c #093242",
">  c #0A3749",
",  c #0B3A4D",
"<  c #0B3E51",
"1  c #0D4155",
"2  c #0D465C",
"3  c #0E4C64",
"4  c #184A60",
"5  c #0F526C",
"6  c #10546F",
"7  c #0F5772",
"8  c #0E5875",
"9  c #105672",
"0  c #115A77",
"q  c #1D5972",
"w  c #115D7B",
"e  c #11607F",
"r  c #126383",
"t  c #136788",
"y  c #136A8C",
"u  c #186D8D",
"i  c #176F91",
"p  c #196F92",
"a  c #137296",
"s  c #16779D",
"d  c #1F7B9F",
"f  c #3E788F",
"g  c #167EA7",
"h  c #187EA7",
"j  c #1680AA",
"k  c #1882AC",
"l  c #1987B2",
"z  c #1A8AB7",
"x  c #1B8EBB",
"c  c #1C90BE",
"v  c #2786AB",
"b  c #3386A6",
"n  c #3595B9",
"m  c #488CA7",
"M  c #4B92AE",
"N  c #439ABC",
"B  c #1C95C5",
"V  c #1C97C8",
"C  c #1C9BCC",
"Z  c #1D9ED1",
"A  c #2B99C6",
"S  c #2D9FCC",
"D  c #1EA2D6",
"F  c #1EA4DA",
"G  c #1FA9DE",
"H  c #22A4D7",
"J  c #34A6D3",
"K  c #1DADE5",
"L  c #1EAFE9",
"P  c #1CB0EA",
"I  c #20AEE6",
"U  c #20AFE8",
"Y  c #25B0E7",
"T  c #2CB2E7",
"R  c #21B2EB",
"E  c #2CB4EA",
"W  c #34B6E9",
"Q  c #33B9EF",
"!  c #3CB9E9",
"~  c #22B6F0",
"^  c #23BAF5",
"/  c #2AB9F2",
"(  c #32BCF3",
")  c #38BEF3",
"_  c #4DA6C9",
"`  c #57ADD1",
"'  c #49B9E5",
"]  c #43BCEB",
"[  c #48BDEB",
"{  c #51BCE8",
"}  c #40BFF1",
"|  c #39C0F4",
" . c #54C1EC",
".. c #5CC3EC",
"X. c #41C3F6",
"o. c #41C4F8",
"O. c #53C9F7",
"+. c #5ECAF4",
"@. c #5CCEFA",
"#. c #63C6EE",
"$. c #6CC9EF",
"%. c #74CCEF",
"&. c #7BCAE8",
"*. c #63CCF4",
"=. c #79CEF0",
"-. c #7BD0F0",
";. c #71D1F8",
":. c #80D2F2",
">. c #89D4F3",
",. c #91D7F3",
"<. c #95DAF4",
"1. c #9ADAF4",
"2. c #A3DEF5",
"3. c #94E1FE",
"4. c #9BE1FD",
"5. c #ABE1F6",
"6. c #ABE7FB",
"7. c #B3E4F7",
"8. c #BBEBFE",
"9. c #C1E7F8",
"0. c #C4ECFB",
"q. c #CDEDF9",
"w. c #D3EEFA",
"e. c #D8F0FA",
"r. c #E4F6FC",
"t. c None",
/* pixels */
"t.t.t.t.t.t.t.t.t.t.t.t.t.t.t.t.t.t.t.t.t.t.t.t.t.t.t.t.t.t.t.t.t.t.t.t.t.t.t.t.t.t.t.t.t.t.t.t.",
"t.t.t.t.t.t.t.t.t.t.t.t.t.t.t.t.t.t.t.t.t.t.t.t.t.t.t.t.t.t.t.t.t.t.t.t.t.t.t.t.t.t.t.t.t.t.t.t.",
"t.t.t.t.t.t.t.t.t.t.t.t.t.t.t.t.t.t.t.t.t.t.t.t.t.t.t.t.t.t.t.t.t.t.t.t.t.t.t.t.t.t.t.t.t.t.t.t.",
"t.t.t.t.t.t.t.t.t.t.t.t.t.t.t.t.t.t.t.t.t.t.t.t.t.t.t.t.t.t.t.t.t.t.t.t.t.t.t.t.t.t.t.t.t.t.t.t.",
"t.t.t.t.t.t.t.t.t.t.t.t.t.t.t.t.t.t.t.t.t.t.t.t.t.t.t.t.t.t.t.t.t.t.t.t.t.t.t.t.t.t.t.t.t.t.t.t.",
"t.t.t.t.t.t.t.t.t.t.t.t.t.t.t.t.t.t.t.q.9.7.2.2.2.2.2.t.t.t.t.t.t.t.t.t.t.t.t.t.t.t.t.t.t.t.t.t.",
"t.t.t.t.t.t.t.t.t.t.t.t.t.t.t.t.r.7.=. .! T T Y T W ] ..%.:.t.t.t.t.t.t.t.t.t.t.t.t.t.t.t.t.t.t.",
"t.t.t.t.t.t.t.t.t.t.t.t.t.t.r.5.#.T K K K K K K K K K K I ! +.` t.t.t.t.t.t.t.t.t.t.t.t.t.t.t.t.",
"t.t.t.t.t.t.t.t.t.t.t.t.t.w.%.Y K K I I I I I I I I I I I K I X.' t.t.t.t.t.t.t.t.t.t.t.t.t.t.t.",
"t.t.t.t.t.t.t.t.t.t.t.t.0.{ K K K U R I I I I I I I U R I I I K Q | t.t.t.t.t.t.t.t.t.t.t.t.t.t.",
"t.t.t.t.t.t.t.t.t.t.t.5.S K K I I V x K I I I I I I F k C R I I F c I t.t.t.t.t.t.t.t.t.t.t.t.t.",
"t.t.t.t.t.t.t.t.t.t.8.q p ( K I R k = B I I I I R I 5 $ J Y K Y D < r V t.t.t.t.t.t.t.t.t.t.t.t.",
"t.t.t.t.t.t.t.t.t.t.M   N ) L I R z . 0 R R K I R k   - O.Y K P H , o D 9 t.t.t.t.t.t.t.t.t.t.t.",
"t.t.t.t.t.t.t.t.t.<.;   v / R R ^ r   $ Y P I R R 3   % Q R R ^ c +   p H t.t.t.t.t.t.t.t.t.t.t.",
"t.t.t.t.t.t.t.t.8._ X   = g C Z a O   t.A E K R F &     8 c D z =   . 4 ( 5 t.t.t.t.t.t.t.t.t.t.",
"t.t.t.t.t.t.t.t.4.d     t.O @ +       t.b ) K R V @   t.t.+ @ .       t.| l t.t.t.t.t.t.t.t.t.t.",
"t.t.t.t.t.t.t.t.*.a . t.t.t.        t.t.m X.K R B #   t.t.t.        t.t.O.F < t.t.t.t.t.t.t.t.t.",
"t.t.t.t.t.t.t.1.( j O t.t.t.t.t.t.t.t.t.&.] K R Z :   t.t.t.t.t.t.t.t.t.@.K y t.t.t.t.t.t.t.t.t.",
"t.t.t.t.t.t.t.=.R C = t.t.t.t.t.t.t.t.t.3.W K R K 5   t.t.t.t.t.t.t.t.t. .P z + t.t.t.t.t.t.t.t.",
"t.t.t.t.t.t.t...K K w t.t.t.t.t.t.t.t.t.>.Y K I I k o t.t.t.t.t.t.t.t.6.! L Z : t.t.t.t.t.t.t.t.",
"t.t.t.t.t.t.,.! K R C & t.t.t.t.t.t.t.0.#.K I I I I 6 t.t.t.t.t.t.t.t.<.Y R H 3 t.t.t.t.t.t.t.t.",
"t.t.t.t.t.t.-.T K K R c t.t.t.t.t.t.t.2.T K I I I Y I 1 t.t.t.t.t.t.e.#.K R P t   t.t.t.t.t.t.t.",
"t.t.t.t.t.t.$.K K I Y / N t.t.t.t.t.2.! K I I I I I E Q f t.t.t.t.q.%.Y K K R h O t.t.t.t.t.t.t.",
"t.t.t.t.t.t...K Y I I K ( @.:.1.<.#.I K I I I I I I K Y X.;.,.1.=.! K K Y K P c $ t.t.t.t.t.t.t.",
"t.t.t.t.t.t.[ L I I I K K K I I K K K I I I I I I I I I K K I I K K K L I I R C = t.t.t.t.t.t.t.",
"t.t.t.t.t.t.! K I I I I I I I K K I I I I I I I I I I I I K K I Y K K K I I R D > t.t.t.t.t.t.t.",
"t.t.t.t.t.=.W K I I I I I I I I K I I I I I I I I K I I I I I I I I Y K K I Y F 1   t.t.t.t.t.t.",
"t.t.t.t.t.%.T K I I I I I I I I I I I I I I I I I I I I I I I I I I K I Y K L K 3   t.t.t.t.t.t.",
"t.t.t.t.t.%.Y K I I I I I I I I I I I I I I K I I I I I I I I I K Y K I Y K L K 9   t.t.t.t.t.t.",
"t.t.t.t.t.$.T K I I I I I I I I I I I I I I I I I I I I I I I I I I I I K K Y Y w   t.t.t.t.t.t.",
"t.t.t.t.t.#.U I I I I I I I I I I I I I I I I I I I I I I I I I K I I I I K K P e   t.t.t.t.t.t.",
"t.t.t.t.t.#.I I I I I I I K I I I I I I I I I I I I I I I I I I Y K I I K Y Y R r . t.t.t.t.t.t.",
"t.t.t.t.t...I I I I I I I I I I I I I I I I I I I I I I I I I I I I I I I I Y R r   t.t.t.t.t.t.",
"t.t.t.t.t...Y I I I I I I I I I I I I I I I I I I I I I I I I I I I I I I I K R r   t.t.t.t.t.t.",
"t.t.t.t.t...I I I I I I I U I I I I I I I I I I I I I I I I U I I K I I I K I R r . t.t.t.t.t.t.",
"t.t.t.t.t...T I I I I I I R ~ R R U I I I I I K I I I I R ~ R R R I I I I I I R r   t.t.t.t.t.t.",
"t.t.t.t.t.{ I I I I I R R V r 9 g K Y I I K I I I I U R I s 9 a D U I I I I I I 9   t.t.t.t.t.t.",
"t.t.t.t.t.n / K I I I R s +     o w G P I I I I I U R C <       2 C R I I I I I ,   t.t.t.t.t.t.",
"t.t.t.t.t.u / U I R ~ l X         X r H R R R R R ~ x &           3 C R I R ~ V +   t.t.t.t.t.t.",
"t.t.t.t.t.t.V I R P h @       t.t.t.X 3 z K R R F y O       t.t.t.. 3 V R R F 1     t.t.t.t.t.t.",
"t.t.t.t.t.t.# > 1 : .       t.t.t.t.t.  + = 1 < #         t.t.t.t.t.  $ < < #       t.t.t.t.t.t.",
"t.t.t.t.t.t.t.          t.t.t.t.t.t.t.t.t.              t.t.t.t.t.t.t.t.          t.t.t.t.t.t.t.",
"t.t.t.t.t.t.t.t.      t.t.t.t.t.t.t.t.t.t.t.        t.t.t.t.t.t.t.t.t.t.t.      t.t.t.t.t.t.t.t.",
"t.t.t.t.t.t.t.t.t.t.t.t.t.t.t.t.t.t.t.t.t.t.t.t.t.t.t.t.t.t.t.t.t.t.t.t.t.t.t.t.t.t.t.t.t.t.t.t.",
"t.t.t.t.t.t.t.t.t.t.t.t.t.t.t.t.t.t.t.t.t.t.t.t.t.t.t.t.t.t.t.t.t.t.t.t.t.t.t.t.t.t.t.t.t.t.t.t.",
"t.t.t.t.t.t.t.t.t.t.t.t.t.t.t.t.t.t.t.t.t.t.t.t.t.t.t.t.t.t.t.t.t.t.t.t.t.t.t.t.t.t.t.t.t.t.t.t.",
"t.t.t.t.t.t.t.t.t.t.t.t.t.t.t.t.t.t.t.t.t.t.t.t.t.t.t.t.t.t.t.t.t.t.t.t.t.t.t.t.t.t.t.t.t.t.t.t.",
"t.t.t.t.t.t.t.t.t.t.t.t.t.t.t.t.t.t.t.t.t.t.t.t.t.t.t.t.t.t.t.t.t.t.t.t.t.t.t.t.t.t.t.t.t.t.t.t."
};
