/* XPM */
static char *result[] = {
/* columns rows colors chars-per-pixel */
"48 48 131 2 ",
"   c #000001",
".  c #01060A",
"X  c #02080B",
"o  c #030E12",
"O  c #031015",
"+  c #03141B",
"@  c #051B24",
"#  c #051F29",
"$  c #06202A",
"%  c #072734",
"&  c #072936",
"*  c #082937",
"=  c #082D3C",
"-  c #102F3B",
";  c #0A3445",
":  c #0A374A",
">  c #0A3A4D",
",  c #0B3E53",
"<  c #0C4054",
"1  c #064158",
"2  c #0C4459",
"3  c #0D485F",
"4  c #37525D",
"5  c #0E4D66",
"6  c #0E4F68",
"7  c #0F556F",
"8  c #10546F",
"9  c #0C5470",
"0  c #115A77",
"q  c #115C79",
"w  c #126484",
"e  c #146A8B",
"r  c #146D90",
"t  c #157195",
"y  c #15749A",
"u  c #17799F",
"i  c #177CA3",
"p  c #177FA8",
"a  c #416C80",
"s  c #1883AE",
"d  c #1385B2",
"f  c #1986B1",
"g  c #1989B5",
"h  c #1A8CB9",
"j  c #2680A3",
"k  c #3387A8",
"l  c #2C8DB4",
"z  c #708186",
"x  c #778B95",
"c  c #4286A2",
"v  c #5EA0B9",
"b  c #1B94C4",
"n  c #1C97C8",
"m  c #1D9BCD",
"M  c #1D9ED1",
"N  c #2B9ECC",
"B  c #1EA1D5",
"V  c #1EA6DB",
"C  c #1FA9DE",
"Z  c #24A5D7",
"A  c #25A7DA",
"S  c #17ABE5",
"D  c #1DADE6",
"F  c #1EAFE8",
"G  c #1EB1EB",
"H  c #20AEE6",
"J  c #20AFE8",
"K  c #25B0E7",
"L  c #2DB3E7",
"P  c #21B1EA",
"I  c #2AB4EA",
"U  c #34B6E9",
"Y  c #3BB7E8",
"T  c #33B9ED",
"R  c #3CB9E9",
"E  c #21B6F0",
"W  c #26B8F2",
"Q  c #2DBDF6",
"!  c #33BDF3",
"~  c #3ABEF1",
"^  c #40A2C9",
"/  c #40AAD4",
"(  c #59B7DB",
")  c #5EBBDF",
"_  c #69B2CE",
"`  c #6BB5D2",
"'  c #44BCEC",
"]  c #4ABEEB",
"[  c #54BCE4",
"{  c #58BFE8",
"}  c #3FC1F5",
"|  c #54C2EC",
" . c #5DC4ED",
".. c #4BC3F2",
"X. c #50C5F4",
"o. c #59C6F1",
"O. c #5ECBF6",
"+. c #69C1E3",
"@. c #63C6EE",
"#. c #67C8EE",
"$. c #6BC9EE",
"%. c #74CDEF",
"&. c #6FCBF0",
"*. c #74CDF0",
"=. c #7ACEF0",
"-. c #6BD0F8",
";. c #7FD1F1",
":. c #71D4FB",
">. c #8EB0BD",
",. c #88C3DB",
"<. c #9DD4EA",
"1. c #81D1F1",
"2. c #89D4F2",
"3. c #80D9FA",
"4. c #90D7F2",
"5. c #9CDBF3",
"6. c #94DFFD",
"7. c #A2DDF4",
"8. c #94E4FF",
"9. c #ADE1F6",
"0. c #B2E3F6",
"q. c #B9E6F7",
"w. c #B3EBFF",
"e. c #C3E9F9",
"r. c #CDEDF9",
"t. c #D1EEFA",
"y. c #CAF1FD",
"u. c #DCF2FB",
"i. c #E3F5FC",
"p. c #EBFFFF",
"a. c None",
/* pixels */
"a.a.a.a.a.a.a.a.a.a.a.a.a.a.a.a.a.a.a.a.a.a.a.a.a.a.a.a.a.a.a.a.a.a.a.a.a.a.a.a.a.a.a.a.a.a.a.a.",
"a.a.a.a.a.a.a.a.a.a.a.a.a.a.a.a.a.a.a.a.a.a.a.a.a.a.a.a.a.a.a.a.a.a.a.a.a.a.a.a.a.a.a.a.a.a.a.a.",
"a.a.a.a.a.a.a.a.a.a.a.a.a.a.a.a.a.a.a.a.a.a.a.a.a.a.a.a.a.a.a.a.a.a.a.a.a.a.a.a.a.a.a.a.a.a.a.a.",
"a.a.a.a.a.a.a.a.a.a.a.a.a.a.a.a.a.a.a.a.a.a.a.a.a.a.a.a.a.a.a.a.a.a.a.a.a.a.a.a.a.a.a.a.a.a.a.a.",
"a.a.a.a.a.a.a.a.a.a.a.a.a.a.a.a.a.a.a.a.a.a.a.a.a.a.a.a.a.a.a.a.a.a.a.a.a.a.a.a.a.a.a.a.a.a.a.a.",
"a.a.a.a.a.a.a.a.a.a.a.a.a.a.a.a.a.a.a.u.r.e.0.0.9.9.9.a.a.a.a.a.a.a.a.a.a.a.a.a.a.a.a.a.a.a.a.a.",
"a.a.a.a.a.a.a.a.a.a.a.a.a.a.a.a.u.0.1.@.] R Y U R ' [ @.%.1.a.a.a.a.a.a.a.a.a.a.a.a.a.a.a.a.a.a.",
"a.a.a.a.a.a.a.a.a.a.a.a.a.a.i.7.| K S S D S S D D D D S H U o.( a.a.a.a.a.a.a.a.a.a.a.a.a.a.a.a.",
"a.a.a.a.a.a.a.a.a.a.a.a.a.r.#.H S D H H H H H H D D H H D D H ~ ..a.a.a.a.a.a.a.a.a.a.a.a.a.a.a.",
"a.a.a.a.a.a.a.a.a.a.a.a.q.] D D H H H H H H H H D H H H H H H H I ~ a.a.a.a.a.a.a.a.a.a.a.a.a.a.",
"a.a.a.a.a.a.a.a.a.a.a.e.' S D H H H H H H H H H H H H H H H H H D I I a.a.a.a.a.a.a.a.a.a.a.a.a.",
"a.a.a.a.a.a.a.a.a.a.t.$.D D K H H H H H H H H H H H H H H H H H H P W s a.a.a.a.a.a.a.a.a.a.a.a.",
"a.a.a.a.a.a.a.a.a.a.2.H D D H H H H H H H H H H H H H D H P H H H H K P 2 a.a.a.a.a.a.a.a.a.a.a.",
"a.a.a.a.a.a.a.a.a.7.U D P P E E P P H H H H D H H H H P P P E P P H D P m a.a.a.a.a.a.a.a.a.a.a.",
"a.a.a.a.a.a.a.a.q. .D P H g e w i B P J H H H H H H H P B i w y n H G D H 8 a.a.a.a.a.a.a.a.a.a.",
"a.a.a.a.a.a.a.a.5.L G B < X       ; b P H H H H H H H y $       @ e C K J f a.a.a.a.a.a.a.a.a.a.",
"a.a.a.a.a.a.a.a.#.G H 2             2 B P D H H H P t .           O y H P B > a.a.a.a.a.a.a.a.a.",
"a.a.a.a.a.a.a.5.R G r         a.a.a.  y P H H H P n +       a.a.a.  % B P H w a.a.a.a.a.a.a.a.a.",
"a.a.a.a.a.a.a.;.P A *     a.a.a.a.a.a.; P P H J P 0       a.a.a.a.a.a.u E P f + a.a.a.a.a.a.a.a.",
"a.a.a.a.a.a.7.| G f X   a.a.a.a.a.a.a.a.N I D P V *     a.a.a.a.a.a.a.a.! G M ; a.a.a.a.a.a.a.a.",
"a.a.a.a.a.a.4.R G y     a.a.a.a.a.a.a.a.k ! D P n @   a.a.a.a.a.a.a.a.a.} J C 6 a.a.a.a.a.a.a.a.",
"a.a.a.a.a.a.1.I G t .   a.a.a.a.a.a.a.a.k ..D P b @   a.a.a.a.a.a.a.a.a.X.P D e   a.a.a.a.a.a.a.",
"a.a.a.a.a.a.$.H P i o a.a.a.a.a.a.a.a.a.` ' D P m *   a.a.a.a.a.a.a.a.a.o.D P i O a.a.a.a.a.a.a.",
"a.a.a.a.a.a. .D G b $ a.a.p.7.*.-.l a.a.8.R F P A 2   a.a.y.;.*...a.a.a.o.D P h @ a.a.a.a.a.a.a.",
"a.a.a.a.a.a.] D J C 5 a.>.3.H D I N a.a.6.L D H G y   a.w.' D G K 6 a.a...D P n % a.a.a.a.a.a.a.",
"a.a.a.a.a.a.R D H P n = _ T D H P l o a :.D H H H D 1 a.@.G D F B 1 a.,.I F P B > a.a.a.a.a.a.a.",
"a.a.a.a.a.=.U D H H G l v T D H P f 4 <.U D H H H G Z a [ H H P M 7 x :.D D P V 2   a.a.a.a.a.a.",
"a.a.a.a.a.%.L D H J F Y ) U D J D Z +...D F H H H D I | [ K D H Z Y %.I D F J H 5   a.a.a.a.a.a.",
"a.a.a.a.a.%.L D H H H J L H H H H P I H H H H H H H H K I H H H K I K D H D H H 8   a.a.a.a.a.a.",
"a.a.a.a.a.#.P D H H H H D D H H H H D H H H H H H H H D D H H H H D D H H D K D 0   a.a.a.a.a.a.",
"a.a.a.a.a.#.L D H H H H H H H H H H H H H H H H H H H H H H H H H H H H H H K G w   a.a.a.a.a.a.",
"a.a.a.a.a.#.H D H H H H H H H H H H H H H H H H H H H H H H H H H H H H H H F P w   a.a.a.a.a.a.",
"a.a.a.a.a.@.H H H H H H H H H H H H H H H H H H H H H H H D H H H H H H H H K P w   a.a.a.a.a.a.",
"a.a.a.a.a. .H H H H H H H H H H H H H D H H H D H H H H H H H H H H H H D H F P w   a.a.a.a.a.a.",
"a.a.a.a.a. .H H H H H H H H H H H H H H H H H H H H H H H H H H H J H H H H D P w   a.a.a.a.a.a.",
"a.a.a.a.a.@.H H H H J P E E J H H H H D K G E E P H H H H H H P E E P J H D K P w   a.a.a.a.a.a.",
"a.a.a.a.a.| P D H P P f e s C H H H H K P b e t B P H H H H P M y e h H H H H P q   a.a.a.a.a.a.",
"a.a.a.a.a.^ I H H J 0 .     q C P H D P y O     2 M J H H P h @     + s P H J D 3   a.a.a.a.a.a.",
"a.a.a.a.a.j Q F E u         O f G H P b +         r P J P A &         , D G P C %   a.a.a.a.a.a.",
"a.a.a.a.a.a.P P g @     a.a.a.; b P M =       a.a.# f D P q       a.a.a.y A P r     a.a.a.a.a.a.",
"a.a.a.a.a.a., > o       a.a.a.a.* , @       a.a.a.a.# , ;       a.a.a.a.+ , ; X     a.a.a.a.a.a.",
"a.a.a.a.a.a.a.        a.a.a.a.a.a.        a.a.a.a.a.a.        a.a.a.a.a.a.        a.a.a.a.a.a.a.",
"a.a.a.a.a.a.a.      a.a.a.a.a.a.a.a.    a.a.a.a.a.a.a.a.    a.a.a.a.a.a.a.a.      a.a.a.a.a.a.a.",
"a.a.a.a.a.a.a.a.a.a.a.a.a.a.a.a.a.a.a.a.a.a.a.a.a.a.a.a.a.a.a.a.a.a.a.a.a.a.a.a.a.a.a.a.a.a.a.a.",
"a.a.a.a.a.a.a.a.a.a.a.a.a.a.a.a.a.a.a.a.a.a.a.a.a.a.a.a.a.a.a.a.a.a.a.a.a.a.a.a.a.a.a.a.a.a.a.a.",
"a.a.a.a.a.a.a.a.a.a.a.a.a.a.a.a.a.a.a.a.a.a.a.a.a.a.a.a.a.a.a.a.a.a.a.a.a.a.a.a.a.a.a.a.a.a.a.a.",
"a.a.a.a.a.a.a.a.a.a.a.a.a.a.a.a.a.a.a.a.a.a.a.a.a.a.a.a.a.a.a.a.a.a.a.a.a.a.a.a.a.a.a.a.a.a.a.a.",
"a.a.a.a.a.a.a.a.a.a.a.a.a.a.a.a.a.a.a.a.a.a.a.a.a.a.a.a.a.a.a.a.a.a.a.a.a.a.a.a.a.a.a.a.a.a.a.a."
};
