/* XPM */
static char *result[] = {
/* columns rows colors chars-per-pixel */
"48 48 130 2 ",
"   c #000000",
".  c #0C0606",
"X  c #010609",
"o  c #02090C",
"O  c #030D12",
"+  c #031015",
"@  c #03141A",
"#  c #051A23",
"$  c #061E28",
"%  c #06222C",
"&  c #072936",
"*  c #082A37",
"=  c #052939",
"-  c #082E3D",
";  c #09303F",
":  c #2B2826",
">  c #093344",
",  c #093649",
"<  c #0B3A4D",
"1  c #133C4C",
"2  c #0B3E52",
"3  c #0C4156",
"4  c #0D465C",
"5  c #0D4B63",
"6  c #0F4F68",
"7  c #0F526C",
"8  c #105673",
"9  c #115B78",
"0  c #14607E",
"q  c #126383",
"w  c #1B6886",
"e  c #136789",
"r  c #146B8E",
"t  c #146D91",
"y  c #157093",
"u  c #15749A",
"i  c #16789F",
"p  c #2E7693",
"a  c #167BA3",
"s  c #177FA8",
"d  c #1682AD",
"f  c #1883AC",
"g  c #1987B2",
"h  c #1989B6",
"j  c #1A8DBA",
"k  c #288DB5",
"l  c #7C8F96",
"z  c #679FB5",
"x  c #7BAABE",
"c  c #1B93C2",
"v  c #1C9BCD",
"b  c #1D9FD2",
"n  c #3998C0",
"m  c #379FC9",
"M  c #1EA2D5",
"N  c #1EA6DB",
"B  c #1EA8DF",
"V  c #22A4D7",
"C  c #29AADD",
"Z  c #17ABE5",
"A  c #1DADE6",
"S  c #1EAFE8",
"D  c #1FB0EA",
"F  c #20AEE6",
"G  c #20AFE8",
"H  c #25B0E7",
"J  c #2BB2E7",
"K  c #21B2EB",
"L  c #2BB4EA",
"P  c #35B4E5",
"I  c #39B6E7",
"U  c #34B5E8",
"Y  c #38B7E9",
"T  c #34BAEE",
"R  c #3DB9EA",
"E  c #21B6F1",
"W  c #26BAF4",
"Q  c #29BAF3",
"!  c #3BBEF2",
"~  c #52A7CA",
"^  c #57ACCE",
"/  c #44B3DF",
"(  c #57B3D8",
")  c #76B1C9",
"_  c #64BADC",
"`  c #70BDDC",
"'  c #43B5E1",
"]  c #42BBEC",
"[  c #4CBEEB",
"{  c #3AC3F9",
"}  c #52C1ED",
"|  c #5CC4ED",
" . c #4BC4F3",
".. c #53C7F4",
"X. c #5FCCF6",
"o. c #63C6EE",
"O. c #6CCAEE",
"+. c #74CDEF",
"@. c #64CBF4",
"#. c #6CCFF6",
"$. c #68CFF8",
"%. c #70CFF5",
"&. c #7ACEF0",
"*. c #67D1FB",
"=. c #6CD3FB",
"-. c #7DD0F0",
";. c #7CD7FC",
":. c #7EDAFF",
">. c #8C979A",
",. c #90B9C8",
"<. c #A6BDC5",
"1. c #85D3F1",
"2. c #88DCFD",
"3. c #92D7F3",
"4. c #9DDCF4",
"5. c #B2DAE9",
"6. c #ABE1F6",
"7. c #B2E2F6",
"8. c #B9E6F7",
"9. c #B8E6F8",
"0. c #BFE8F8",
"q. c #C6EAF9",
"w. c #CCECF9",
"e. c #C7F2FF",
"r. c #D2F1FD",
"t. c #D8F1FC",
"y. c #E5F6FC",
"u. c #E1FDFF",
"i. c #EBF8FB",
"p. c None",
/* pixels */
"p.p.p.p.p.p.p.p.p.p.p.p.p.p.p.p.p.p.p.p.p.p.p.p.p.p.p.p.p.p.p.p.p.p.p.p.p.p.p.p.p.p.p.p.p.p.p.p.",
"p.p.p.p.p.p.p.p.p.p.p.p.p.p.p.p.p.p.p.p.p.p.p.p.p.p.p.p.p.p.p.p.p.p.p.p.p.p.p.p.p.p.p.p.p.p.p.p.",
"p.p.p.p.p.p.p.p.p.p.p.p.p.p.p.p.p.p.p.p.p.p.p.p.p.p.p.p.p.p.p.p.p.p.p.p.p.p.p.p.p.p.p.p.p.p.p.p.",
"p.p.p.p.p.p.p.p.p.p.p.p.p.p.p.p.p.p.p.p.p.p.p.p.p.p.p.p.p.p.p.p.p.p.p.p.p.p.p.p.p.p.p.p.p.p.p.p.",
"p.p.p.p.p.p.p.p.p.p.p.p.p.p.p.p.p.p.p.p.p.p.p.p.p.p.p.p.p.p.p.p.p.p.p.p.p.p.p.p.p.p.p.p.p.p.p.p.",
"p.p.p.p.p.p.p.p.p.p.p.p.p.p.p.p.p.p.p.t.w.8.6.6.6.6.6.p.p.p.p.p.p.p.p.p.p.p.p.p.p.p.p.p.p.p.p.p.",
"p.p.p.p.p.p.p.p.p.p.p.p.p.p.p.p.y.0.1.| ] I Y Y Y R [ o.&.1.p.p.p.p.p.p.p.p.p.p.p.p.p.p.p.p.p.p.",
"p.p.p.p.p.p.p.p.p.p.p.p.p.p.i.8.O.U Z Z A Z Z A A Z A A F ] @.^ p.p.p.p.p.p.p.p.p.p.p.p.p.p.p.p.",
"p.p.p.p.p.p.p.p.p.p.p.p.p.q.O.J A A A F F F F F F F F F A A H ! ' p.p.p.p.p.p.p.p.p.p.p.p.p.p.p.",
"p.p.p.p.p.p.p.p.p.p.p.p.7.R Z A A F G F F A F F F F F F F F A F L { p.p.p.p.p.p.p.p.p.p.p.p.p.p.",
"p.p.p.p.p.p.p.p.p.p.p.0.R A F G K K K D F F F F F F F F F F F F S K Q p.p.p.p.p.p.p.p.p.p.p.p.p.",
"p.p.p.p.p.p.p.p.p.p.w.o.Z A K K F M V K K F F F F A F F F F K K B V Q j p.p.p.p.p.p.p.p.p.p.p.p.",
"p.p.p.p.p.p.p.p.p.p.1.A A K B r > $ & 7 c F G F F F F F H D f 3 % $ , s 6 p.p.p.p.p.p.p.p.p.p.p.",
"p.p.p.p.p.p.p.p.p.6.Y A K N 2           * j G F F F F F K u o         @ r p.p.p.p.p.p.p.p.p.p.p.",
"p.p.p.p.p.p.p.p.9.| A K V 2               > M K F F F K h +             % 7 p.p.p.p.p.p.p.p.p.p.",
"p.p.p.p.p.p.p.p.3.J A K a       p.p.p.p.p.p.i K F F K F <     p.p.p.p.p.p.6 p.p.p.p.p.p.p.p.p.p.",
"p.p.p.p.p.p.p.6.| A A H 4     p.p.p.p.p.p.p.3 Q F F K c @   p.p.p.p.p.p.p.p.0 p.p.p.p.p.p.p.p.p.",
"p.p.p.p.p.p.p.4.I A K A -     p.p.p.p.p.e.p.p.' K F K a X   p.p.p.p.p.u.p.p.p p.p.p.p.p.p.p.p.p.",
"p.p.p.p.p.p.p.&.F F K B &   p.p.p.p.r.1.| *.) _ D A K y X   p.p.p.p.7.#.@.` ~ = p.p.p.p.p.p.p.p.",
"p.p.p.p.p.p.p.| A F D V -   p.p.p.p.o.A A D ] ] F F K u o p.p.p.p.4.I Z A T P , p.p.p.p.p.p.p.p.",
"p.p.p.p.p.p.3.R A F G F 5   p.p.p.$.T A A F A A F A K j # p.p.p.p...A S F S B 7 p.p.p.p.p.p.p.p.",
"p.p.p.p.p.p.-.J A F F K y X p.p.p.p.K K E K F F F F K M < p.p.p.p.V G K K G G r X p.p.p.p.p.p.p.",
"p.p.p.p.p.p.O.F F F F F b ; p.p.p.p.8 u a d N F F F F F a p.p.p.p., e a s v K s O p.p.p.p.p.p.p.",
"p.p.p.p.p.p.| A F F F F K h p.p.p.p.      1 I F F F F F F 5 p.p.p.p.    @ m W j $ p.p.p.p.p.p.p.",
"p.p.p.p.p.p.[ A F F F F F W k p.p.p.p.  : ,. .A F F F F K C p.p.p.p.p.. l #.D v & p.p.p.p.p.p.p.",
"p.p.p.p.p.p.R A F F F F F F ! ( x p.p.>.5.@.F F F F F F F L } z p.p.p.<.2.J D M , p.p.p.p.p.p.p.",
"p.p.p.p.p.&.Y A F F A F F F F T ..%.:.=.Y S F F F F F F F S J  .@.;.:. .A A K V 4   p.p.p.p.p.p.",
"p.p.p.p.p.+.J A F F F F F F F A A Z Z Z A F F F F F F F F A A A A Z A A F F G F 6   p.p.p.p.p.p.",
"p.p.p.p.p.O.J A F F F F F F F F F F F F F F F F F F F F F F F F F F F F F A F F 8   p.p.p.p.p.p.",
"p.p.p.p.p.O.J A F F F F F F F F F F F F F F F A F F F F F F F F F F F F F A H F 9   p.p.p.p.p.p.",
"p.p.p.p.p.o.H A F F F F F F F F F F F F F F F F F F F F F F F F F F F F F F F K 0 X p.p.p.p.p.p.",
"p.p.p.p.p.o.H F F F F F F F F F F F F F F F F F F F F F F F F F F F F F F F F S e   p.p.p.p.p.p.",
"p.p.p.p.p.| F F F F F F F F F F A A H A A H F F F F F F F F F F F F F A F A H K q   p.p.p.p.p.p.",
"p.p.p.p.p.| H F F F F F F F F F H A A H F A A H F F F F F S F F F F A H F F A K e   p.p.p.p.p.p.",
"p.p.p.p.p.o.G F F F F F F F F F H A A A F F F A F F F F H A H S F F F F F F F K q   p.p.p.p.p.p.",
"p.p.p.p.p.| F F F F F F F K E K K S H H F F F F F F F F D D E K K F F F F F F K 0   p.p.p.p.p.p.",
"p.p.p.p.p.} K A F F F K K b t q h F H A F F F A F F H D D f 0 a N S F F F F A K 8   p.p.p.p.p.p.",
"p.p.p.p.p.n L F F F F K s $     + e A K F F F A A H E M 4 X   o 5 M K F F F H F 3   p.p.p.p.p.p.",
"p.p.p.p.p.w W K K K K f O         O 0 M K K F H K K f *         X 4 v K K F E c @   p.p.p.p.p.p.",
"p.p.p.p.p.p.g M F N r O       p.p.p.  < i M F F c 7 o       p.p.p.  < g A F c -     p.p.p.p.p.p.",
"p.p.p.p.p.p.@ & > %         p.p.p.p.p.  O % > - O         p.p.p.p.p.p.# > - +       p.p.p.p.p.p.",
"p.p.p.p.p.p.p.            p.p.p.p.p.p.p.                p.p.p.p.p.p.p.            p.p.p.p.p.p.p.",
"p.p.p.p.p.p.p.p.      p.p.p.p.p.p.p.p.p.p.p.        p.p.p.p.p.p.p.p.p.p.p.      p.p.p.p.p.p.p.p.",
"p.p.p.p.p.p.p.p.p.p.p.p.p.p.p.p.p.p.p.p.p.p.p.p.p.p.p.p.p.p.p.p.p.p.p.p.p.p.p.p.p.p.p.p.p.p.p.p.",
"p.p.p.p.p.p.p.p.p.p.p.p.p.p.p.p.p.p.p.p.p.p.p.p.p.p.p.p.p.p.p.p.p.p.p.p.p.p.p.p.p.p.p.p.p.p.p.p.",
"p.p.p.p.p.p.p.p.p.p.p.p.p.p.p.p.p.p.p.p.p.p.p.p.p.p.p.p.p.p.p.p.p.p.p.p.p.p.p.p.p.p.p.p.p.p.p.p.",
"p.p.p.p.p.p.p.p.p.p.p.p.p.p.p.p.p.p.p.p.p.p.p.p.p.p.p.p.p.p.p.p.p.p.p.p.p.p.p.p.p.p.p.p.p.p.p.p.",
"p.p.p.p.p.p.p.p.p.p.p.p.p.p.p.p.p.p.p.p.p.p.p.p.p.p.p.p.p.p.p.p.p.p.p.p.p.p.p.p.p.p.p.p.p.p.p.p."
};
