/* XPM */
static char *result[] = {
/* columns rows colors chars-per-pixel */
"48 48 137 2 ",
"   c #000000",
".  c #01060A",
"X  c #020A0D",
"o  c #030F12",
"O  c #031116",
"+  c #04151B",
"@  c #04181F",
"#  c #051C24",
"$  c #061F29",
"%  c #06212C",
"&  c #072733",
"*  c #082735",
"=  c #072834",
"-  c #082A37",
";  c #082B39",
":  c #10303C",
">  c #093343",
",  c #0B3A4C",
"<  c #0B3E52",
"1  c #0C4156",
"2  c #074158",
"3  c #0C455B",
"4  c #36525D",
"5  c #0E4C65",
"6  c #0F4F68",
"7  c #0E526D",
"8  c #10546F",
"9  c #0F5471",
"0  c #105570",
"q  c #115A76",
"w  c #115D7B",
"e  c #12607F",
"r  c #426B7F",
"t  c #126383",
"y  c #196684",
"u  c #136788",
"i  c #146B8D",
"p  c #156E91",
"a  c #157196",
"s  c #157398",
"d  c #16789F",
"f  c #177CA4",
"g  c #1780A9",
"h  c #1880AA",
"j  c #1486B3",
"k  c #1986B2",
"l  c #198AB6",
"z  c #1A8FBD",
"x  c #3387A8",
"c  c #2A8DB4",
"v  c #2A92B9",
"b  c #3595BC",
"n  c #73858C",
"m  c #778B94",
"M  c #4286A2",
"N  c #5E9FB8",
"B  c #77A2B4",
"V  c #1B94C4",
"C  c #1B97C8",
"Z  c #1C9ACB",
"A  c #1D9FD2",
"S  c #2B9ECC",
"D  c #1DA1D5",
"F  c #1FA6DB",
"G  c #1FA9DF",
"H  c #24A6DA",
"J  c #15AAE5",
"K  c #1DADE5",
"L  c #1DAFE9",
"P  c #1EB1EB",
"I  c #20AEE6",
"U  c #20AFE8",
"Y  c #25B0E7",
"T  c #2CB2E7",
"R  c #21B2EB",
"E  c #2AB4EA",
"W  c #34B6E9",
"Q  c #39B7E9",
"!  c #32B9EF",
"~  c #3CB8E9",
"^  c #22B6F0",
"/  c #24B8F3",
"(  c #2CBBF3",
")  c #26BDF8",
"_  c #32BDF3",
"`  c #3DBFF3",
"'  c #40A9D2",
"]  c #57B0D4",
"[  c #5EBBDF",
"{  c #67B0CD",
"}  c #6DB7D6",
"|  c #49BAE7",
" . c #42BCED",
".. c #4BBEEB",
"X. c #55BCE4",
"o. c #51BFEA",
"O. c #41BFF0",
"+. c #3FC2F5",
"@. c #57C2EC",
"#. c #5BC3ED",
"$. c #4AC3F3",
"%. c #54C5F2",
"&. c #59C6F1",
"*. c #57C8F5",
"=. c #5ECBF6",
"-. c #69C1E4",
";. c #63C6EE",
":. c #67C8EE",
">. c #6CCAEF",
",. c #72CCEF",
"<. c #67CFF8",
"1. c #74CDF0",
"2. c #7BCFF0",
"3. c #7ED1F1",
"4. c #71D5FB",
"5. c #88B0C0",
"6. c #88C4DC",
"7. c #9DD5EB",
"8. c #80D2F2",
"9. c #91D8F3",
"0. c #9BDBF4",
"q. c #91DEFC",
"w. c #A4DEF5",
"e. c #96E4FF",
"r. c #ACE2F6",
"t. c #A2E6FF",
"y. c #ABE4F9",
"u. c #B1E3F6",
"i. c #BBE5F6",
"p. c #BEE7F8",
"a. c #C6E9F9",
"s. c #C8EBF8",
"d. c #D0EEFB",
"f. c #DFF3FB",
"g. c #DAFDFF",
"h. c #E4F6FC",
"j. c None",
/* pixels */
"j.j.j.j.j.j.j.j.j.j.j.j.j.j.j.j.j.j.j.j.j.j.j.j.j.j.j.j.j.j.j.j.j.j.j.j.j.j.j.j.j.j.j.j.j.j.j.j.",
"j.j.j.j.j.j.j.j.j.j.j.j.j.j.j.j.j.j.j.j.j.j.j.j.j.j.j.j.j.j.j.j.j.j.j.j.j.j.j.j.j.j.j.j.j.j.j.j.",
"j.j.j.j.j.j.j.j.j.j.j.j.j.j.j.j.j.j.j.j.j.j.j.j.j.j.j.j.j.j.j.j.j.j.j.j.j.j.j.j.j.j.j.j.j.j.j.j.",
"j.j.j.j.j.j.j.j.j.j.j.j.j.j.j.j.j.j.j.j.j.j.j.j.j.j.j.j.j.j.j.j.j.j.j.j.j.j.j.j.j.j.j.j.j.j.j.j.",
"j.j.j.j.j.j.j.j.j.j.j.j.j.j.j.j.j.j.j.j.j.j.j.j.j.j.j.j.j.j.j.j.j.j.j.j.j.j.j.j.j.j.j.j.j.j.j.j.",
"j.j.j.j.j.j.j.j.j.j.j.j.j.j.j.j.j.j.j.d.p.r.r.0.0.w.w.j.j.j.j.j.j.j.j.j.j.j.j.j.j.j.j.j.j.j.j.j.",
"j.j.j.j.j.j.j.j.j.j.j.j.j.j.j.j.f.u.,...~ T E Y T W ~ @.,.3.j.j.j.j.j.j.j.j.j.j.j.j.j.j.j.j.j.j.",
"j.j.j.j.j.j.j.j.j.j.j.j.j.j.h.r.#.E K J K K K K K K K K R ~ #.] j.j.j.j.j.j.j.j.j.j.j.j.j.j.j.j.",
"j.j.j.j.j.j.j.j.j.j.j.j.j.s.1.Y K K I I K I I I I I I I I K I O...j.j.j.j.j.j.j.j.j.j.j.j.j.j.j.",
"j.j.j.j.j.j.j.j.j.j.j.j.p...K K K I I I I I I I I I I I I I K K E ` j.j.j.j.j.j.j.j.j.j.j.j.j.j.",
"j.j.j.j.j.j.j.j.j.j.j.a.| K K I K I I I I I I I I I I I I I I I I E E j.j.j.j.j.j.j.j.j.j.j.j.j.",
"j.j.j.j.j.j.j.j.j.j.s.#.K K I I I I I I I I I I I I I I I I I I I I ^ V j.j.j.j.j.j.j.j.j.j.j.j.",
"j.j.j.j.j.j.j.j.j.j.2.K K K K R I I I I I I I I I I I I I R I I I I I R 8 j.j.j.j.j.j.j.j.j.j.j.",
"j.j.j.j.j.j.j.j.j.w.W K R R / R R R I I I I I I I I I I R R / R R I I R C j.j.j.j.j.j.j.j.j.j.j.",
"j.j.j.j.j.j.j.j.i.;.K P I l i u f D R I I I I I I I K R D d u s V I R I I 8 j.j.j.j.j.j.j.j.j.j.",
"j.j.j.j.j.j.j.j.0.T P D < .       > V R I I I I I U R s $       # i F U R k j.j.j.j.j.j.j.j.j.j.",
"j.j.j.j.j.j.j.j.:.L K 1             1 A R I I I I R p .           o s I U D , j.j.j.j.j.j.j.j.j.",
"j.j.j.j.j.j.j.0.W P w       j.j.j.j.  u R U I I R l X       j.j.j.j.# Z R I i j.j.j.j.j.j.j.j.j.",
"j.j.j.j.j.j.j.2.R D $     j.j.j.j.j.j.* Y R I U R 5     j.j.j.j.j.j.j.p / R l # j.j.j.j.j.j.j.j.",
"j.j.j.j.j.j.j.@.P k X   j.j.j.j.j.j.j.j.S E I R F *     j.j.j.j.j.j.j.j._ R A > j.j.j.j.j.j.j.j.",
"j.j.j.j.j.j.9.~ P s     j.j.j.j.j.j.j.j.x _ K R V #   j.j.j.j.j.j.j.j.j.+.R H 6 j.j.j.j.j.j.j.j.",
"j.j.j.j.j.j.3.T P s .   j.j.j.j.j.j.j.j.x $.K R V $   j.j.j.j.j.j.j.j.j.%.K P u   j.j.j.j.j.j.j.",
"j.j.j.j.j.j.>.R R f o j.j.j.j.j.j.j.j.j.}  .K R Z -   j.j.j.j.j.j.j.j.j.&.K R f O j.j.j.j.j.j.j.",
"j.j.j.j.j.j.@.K R C * j.j.g.3.@.*.v j.j.e.Q K R K 5   j.j.y.#.#.O.j.j.j.&.K R z $ j.j.j.j.j.j.j.",
"j.j.j.j.j.j...K U I q j.5.<.K J P C j.j.q.Y K I U g . j.t.W J L K 7 j.B $.K R Z ; j.j.j.j.j.j.j.",
"j.j.j.j.j.j.~ K I U V : { ! K I R l . n 4.K I I P H 3 j.=.K I L D 2 j.6.E K R D , j.j.j.j.j.j.j.",
"j.j.j.j.j.2.W K I U P c N ! K I R j 4 7.W K I I K P H r X.I K R D 7 m 4.K K R F 1   j.j.j.j.j.j.",
"j.j.j.j.j.,.T K I I L ~ [ W K I K H -.$.K U I I I I E X.X.Y K I K ' ,.T L K R I 5   j.j.j.j.j.j.",
"j.j.j.j.j.,.Y I I I I I T I I I I Y E K I I I I I I I Y Y I I I R T Y K I I I I q   j.j.j.j.j.j.",
"j.j.j.j.j.:.Y I I I I I K I I I I K K I I I I I I I I K I I I I I K K I I I I R q   j.j.j.j.j.j.",
"j.j.j.j.j.:.U U I I I I U I I I I I I I I I I I I I I I I I I I I I I I I I R K e . j.j.j.j.j.j.",
"j.j.j.j.j.:.U I I I I I I I I I I I I I I I I I I I I I I I I I I I I I I I I R t   j.j.j.j.j.j.",
"j.j.j.j.j.;.U I I I I I I I I I I I I I I I I I I I I I I I I I I I I I I I R R t   j.j.j.j.j.j.",
"j.j.j.j.j.#.U U I I I I I I I I I I I I I I I I I I I I I I I K I I I I I I I R t   j.j.j.j.j.j.",
"j.j.j.j.j.#.Y I I I I I U U I I I I I I K I I I I I I I I I U I I I I I I I I R t   j.j.j.j.j.j.",
"j.j.j.j.j.#.U K I I I I U R R Y R I I I I I I I I I I I R ^ R R R I I I I I I R t   j.j.j.j.j.j.",
"j.j.j.j.j.o.Y K I I I R R V w 7 f H P I I I I I I I R R K s 6 p A R I I I I I I q   j.j.j.j.j.j.",
"j.j.j.j.j.b ( K I I I R s +     X q K U I I I I I I R Z ,       1 Z R U I I I I ,   j.j.j.j.j.j.",
"j.j.j.j.j.y ) R I R ^ g .         X e D R R R I R ^ l %           3 Z R U R R C +   j.j.j.j.j.j.",
"j.j.j.j.j.j.V H R R f +       j.j.j.X 5 k G R R D u O       j.j.j.  3 C R R F <     j.j.j.j.j.j.",
"j.j.j.j.j.j.% , 3 > .       j.j.j.j.j.  + > 3 1 $         j.j.j.j.j.  & 1 1 $       j.j.j.j.j.j.",
"j.j.j.j.j.j.j.          j.j.j.j.j.j.j.j.                j.j.j.j.j.j.j.j.          j.j.j.j.j.j.j.",
"j.j.j.j.j.j.j.j.      j.j.j.j.j.j.j.j.j.j.j.        j.j.j.j.j.j.j.j.j.j.j.      j.j.j.j.j.j.j.j.",
"j.j.j.j.j.j.j.j.j.j.j.j.j.j.j.j.j.j.j.j.j.j.j.j.j.j.j.j.j.j.j.j.j.j.j.j.j.j.j.j.j.j.j.j.j.j.j.j.",
"j.j.j.j.j.j.j.j.j.j.j.j.j.j.j.j.j.j.j.j.j.j.j.j.j.j.j.j.j.j.j.j.j.j.j.j.j.j.j.j.j.j.j.j.j.j.j.j.",
"j.j.j.j.j.j.j.j.j.j.j.j.j.j.j.j.j.j.j.j.j.j.j.j.j.j.j.j.j.j.j.j.j.j.j.j.j.j.j.j.j.j.j.j.j.j.j.j.",
"j.j.j.j.j.j.j.j.j.j.j.j.j.j.j.j.j.j.j.j.j.j.j.j.j.j.j.j.j.j.j.j.j.j.j.j.j.j.j.j.j.j.j.j.j.j.j.j.",
"j.j.j.j.j.j.j.j.j.j.j.j.j.j.j.j.j.j.j.j.j.j.j.j.j.j.j.j.j.j.j.j.j.j.j.j.j.j.j.j.j.j.j.j.j.j.j.j."
};
