/* XPM */
static char *result[] = {
/* columns rows colors chars-per-pixel */
"48 48 128 2 ",
"   c #000101",
".  c #01070A",
"X  c #02090C",
"o  c #030E12",
"O  c #031116",
"+  c #04151B",
"@  c #04181F",
"#  c #051B24",
"$  c #061E29",
"%  c #05222D",
"&  c #0C252F",
"*  c #072734",
"=  c #082936",
"-  c #062D3D",
";  c #082C3B",
":  c #132A33",
">  c #0A3444",
",  c #0B3749",
"<  c #0A394B",
"1  c #0C3E53",
"2  c #0C4256",
"3  c #0C445B",
"4  c #104054",
"5  c #0E4C63",
"6  c #164C60",
"7  c #0F526D",
"8  c #0F5772",
"9  c #0E5876",
"0  c #105571",
"q  c #115A77",
"w  c #115D7B",
"e  c #12607F",
"r  c #386B7F",
"t  c #126484",
"y  c #136788",
"u  c #136A8B",
"i  c #146F93",
"p  c #127095",
"a  c #187093",
"s  c #15759B",
"d  c #16799F",
"f  c #1E7A9F",
"g  c #387E9A",
"h  c #167BA3",
"j  c #177FA8",
"k  c #1883AD",
"l  c #1786B2",
"z  c #1986B2",
"x  c #1989B6",
"c  c #1B8EBB",
"v  c #2882A6",
"b  c #2887AD",
"n  c #3587A7",
"m  c #4488A3",
"M  c #4D93AF",
"N  c #4296B7",
"B  c #4299BA",
"V  c #1B94C4",
"C  c #1C97C8",
"Z  c #1C9ACC",
"A  c #1D9ED1",
"S  c #2B9AC5",
"D  c #2A9ECB",
"F  c #1DA1D5",
"G  c #1EA5DA",
"H  c #1FA8DE",
"J  c #20A2D4",
"K  c #22A5D8",
"L  c #37ADDC",
"P  c #1DADE6",
"I  c #1EAFE9",
"U  c #1CB0EA",
"Y  c #20AEE6",
"T  c #20AFE8",
"R  c #25B0E7",
"E  c #2BB2E7",
"W  c #21B1EA",
"Q  c #2BB5EB",
"!  c #34B6E9",
"~  c #38B7E9",
"^  c #3DBAEB",
"/  c #21B6F0",
"(  c #22B9F4",
")  c #2BBBF4",
"_  c #32BEF5",
"`  c #3BBFF2",
"'  c #409FC5",
"]  c #4BA5C8",
"[  c #54A9CB",
"{  c #6EB9D4",
"}  c #41BCEC",
"|  c #4BBDEA",
" . c #39C2F7",
".. c #56C2ED",
"X. c #5DC3EC",
"o. c #40C2F5",
"O. c #41C4F8",
"+. c #52C6F4",
"@. c #59C6F1",
"#. c #52C9F7",
"$. c #5BCBF7",
"%. c #63C6EE",
"&. c #6CCAEF",
"*. c #71CBEF",
"=. c #69CDF5",
"-. c #78CEF0",
";. c #6DD1F7",
":. c #7DD1F1",
">. c #83D2F2",
",. c #8CD5F2",
"<. c #95DAF4",
"1. c #9EDCF4",
"2. c #A3DEF5",
"3. c #A8DFF5",
"4. c #96E0FF",
"5. c #98E0FD",
"6. c #ACE1F6",
"7. c #ACE6FD",
"8. c #B3E3F7",
"9. c #BCE6F8",
"0. c #BDEBFC",
"q. c #C6EBF9",
"w. c #CCECFA",
"e. c #C6F0FF",
"r. c #D7F0FA",
"t. c #DDF2FB",
"y. c #E3F4FC",
"u. c None",
/* pixels */
"u.u.u.u.u.u.u.u.u.u.u.u.u.u.u.u.u.u.u.u.u.u.u.u.u.u.u.u.u.u.u.u.u.u.u.u.u.u.u.u.u.u.u.u.u.u.u.u.",
"u.u.u.u.u.u.u.u.u.u.u.u.u.u.u.u.u.u.u.u.u.u.u.u.u.u.u.u.u.u.u.u.u.u.u.u.u.u.u.u.u.u.u.u.u.u.u.u.",
"u.u.u.u.u.u.u.u.u.u.u.u.u.u.u.u.u.u.u.u.u.u.u.u.u.u.u.u.u.u.u.u.u.u.u.u.u.u.u.u.u.u.u.u.u.u.u.u.",
"u.u.u.u.u.u.u.u.u.u.u.u.u.u.u.u.u.u.u.u.u.u.u.u.u.u.u.u.u.u.u.u.u.u.u.u.u.u.u.u.u.u.u.u.u.u.u.u.",
"u.u.u.u.u.u.u.u.u.u.u.u.u.u.u.u.u.u.u.u.w.9.8.8.3.3.u.u.u.u.u.u.u.u.u.u.u.u.u.u.u.u.u.u.u.u.u.u.",
"u.u.u.u.u.u.u.u.u.u.u.u.u.u.u.u.t.6.&.| ~ ! E E ! ~ } | &.:.u.u.u.u.u.u.u.u.u.u.u.u.u.u.u.u.u.u.",
"u.u.u.u.u.u.u.u.u.u.u.u.u.u.y.3...T P P P P P P P P P P T ~ @.[ u.u.u.u.u.u.u.u.u.u.u.u.u.u.u.u.",
"u.u.u.u.u.u.u.u.u.u.u.u.u.w.=.R P P T T P P T T Y T Y Y Y T T ` | u.u.u.u.u.u.u.u.u.u.u.u.u.u.u.",
"u.u.u.u.u.u.u.u.u.u.u.u.9.| P P Y W W W Y Y Y Y Y Y T T T T P P Q  .u.u.u.u.u.u.u.u.u.u.u.u.u.u.",
"u.u.u.u.u.u.u.u.u.u.u.0.L P P P Y A Z W Y Y Y Y Y T Y C A T Y T G J W u.u.u.u.u.u.u.u.u.u.u.u.u.",
"u.u.u.u.u.u.u.u.u.u.e.g p Q P T W k 3 Z T Y Y Y T T u > D R Y T F 5 h x u.u.u.u.u.u.u.u.u.u.u.u.",
"u.u.u.u.u.u.u.u.u.u.M   N ` P T W z   q W T Y Y W k . : +.R P W K , O J q u.u.u.u.u.u.u.u.u.u.u.",
"u.u.u.u.u.u.u.u.u.<.-   b ) W W ( y   % T W T T W 5   & ! U W ( c @   a K u.u.u.u.u.u.u.u.u.u.u.",
"u.u.u.u.u.u.u.u.0.] .   ; k C F s O   u.S Q T T G *     9 c G c -     6 _ 7 u.u.u.u.u.u.u.u.u.u.",
"u.u.u.u.u.u.u.u.4.h     u.o # @       u.n _ I W V #   u.u.@ # X       u.O.l u.u.u.u.u.u.u.u.u.u.",
"u.u.u.u.u.u.u.u.=.p .   u.u.          u.m o.P W V #   u.u.          u.u.+.G , u.u.u.u.u.u.u.u.u.",
"u.u.u.u.u.u.u.1.^ j o u.u.u.u.    u.u.u.{ } I W Z -   u.u.u.u.    u.u.u.$.T t u.u.u.u.u.u.u.u.u.",
"u.u.u.u.u.u.u.-.W C = u.u.u.u.u.u.u.u.u.<.~ I W Y 7   u.u.u.u.u.u.u.u.u...U x @ u.u.u.u.u.u.u.u.",
"u.u.u.u.u.u.u...U T w u.u.u.u.u.u.u.u.u.>.R P Y T z o u.u.u.u.u.u.u.u.7.^ U Z > u.u.u.u.u.u.u.u.",
"u.u.u.u.u.u.<.^ P T A * u.u.u.u.u.u.u.q.%.P Y Y T K 7 u.u.u.u.u.u.u.u.<.R I K 7 u.u.u.u.u.u.u.u.",
"u.u.u.u.u.u.>.E P T W c u.u.u.u.u.u.u.2.E P Y Y T W T 4 u.u.u.u.u.u.r.X.P Y W y   u.u.u.u.u.u.u.",
"u.u.u.u.u.u.&.T P T Y _ B u.u.u.u.u.8.} P T P Y Y W R ^ r u.u.u.u.y.>.R P Y W h o u.u.u.u.u.u.u.",
"u.u.u.u.u.u.X.P Y Y Y Y ^ ;.<.6.8.,.~ P T T Y Y Y Y T E +.>.3.8.2.X.R P P P W c # u.u.u.u.u.u.u.",
"u.u.u.u.u.u.} P Y Y Y Y Y Y R R R P P P T T Y Y Y Y T P I T E E P P P Y Y Y W C ; u.u.u.u.u.u.u.",
"u.u.u.u.u.u.^ P Y Y Y Y Y Y P P P Y Y Y Y Y Y Y Y Y Y Y Y P P P Y Y Y Y Y Y W F , u.u.u.u.u.u.u.",
"u.u.u.u.u.:.~ P Y P Y Y Y Y Y Y Y Y Y Y Y Y Y Y Y Y Y Y Y Y Y Y Y Y Y Y Y Y W G 2   u.u.u.u.u.u.",
"u.u.u.u.u.*.E P Y Y Y Y Y Y Y Y Y Y P Y Y Y Y Y Y Y P Y Y Y Y Y Y Y Y Y Y Y T H 5   u.u.u.u.u.u.",
"u.u.u.u.u.&.E P Y Y Y Y Y Y Y Y Y Y Y Y Y Y Y Y Y Y Y Y Y Y Y Y P Y Y Y Y Y T Y 0   u.u.u.u.u.u.",
"u.u.u.u.u.&.E P Y Y Y Y Y Y Y Y Y Y Y Y Y Y Y Y Y Y Y Y Y Y Y Y Y Y Y Y Y Y T P q   u.u.u.u.u.u.",
"u.u.u.u.u.%.T T Y Y Y Y Y Y Y Y Y Y Y Y Y Y Y Y Y Y Y Y Y Y Y Y Y Y Y Y Y Y T W e   u.u.u.u.u.u.",
"u.u.u.u.u.%.T T Y Y Y Y Y Y Y P Y Y Y Y Y Y Y Y Y P Y Y Y Y Y Y Y Y Y Y Y Y T W t   u.u.u.u.u.u.",
"u.u.u.u.u.%.R Y Y Y Y Y Y Y Y Y Y Y Y Y Y Y Y Y Y Y Y Y Y Y Y Y Y Y Y Y Y Y T W t . u.u.u.u.u.u.",
"u.u.u.u.u.X.T T T Y T Y Y Y Y Y Y Y Y Y Y Y Y Y Y Y P Y P Y Y Y Y Y Y Y Y Y T W e   u.u.u.u.u.u.",
"u.u.u.u.u.X.T T Y Y T T Y Y Y Y Y Y Y P Y Y T W Y Y Y Y Y Y Y Y Y Y Y Y Y Y Y W t   u.u.u.u.u.u.",
"u.u.u.u.u.X.R P Y Y T W / W T Y Y Y Y Y T W W / W Y Y Y T Y T W / / W T Y Y T W t   u.u.u.u.u.u.",
"u.u.u.u.u...R P Y T Y d 7 a J T Y Y Y W W x 0 w C W Y Y T T W C e 7 z K T T T W q   u.u.u.u.u.u.",
"u.u.u.u.u.' Q I T T w .   . w H T T T W d o     2 F T T Y W c $     @ k W T U T 5   u.u.u.u.u.u.",
"u.u.u.u.u.v ) T W d .       O z W W W V +       . a T T W H ;         1 P W W G *   u.u.u.u.u.u.",
"u.u.u.u.u.u.W W c #     u.u.u., C U A >       u.u.$ x T W w       u.u.u.s H W a .   u.u.u.u.u.u.",
"u.u.u.u.u.u.2 1 +       u.u.u.u.; 2 #       u.u.u.u.% 2 > .     u.u.u.u.+ 1 < X     u.u.u.u.u.u.",
"u.u.u.u.u.u.u.        u.u.u.u.u.u.        u.u.u.u.u.u.        u.u.u.u.u.u.        u.u.u.u.u.u.u.",
"u.u.u.u.u.u.u.u.    u.u.u.u.u.u.u.u.    u.u.u.u.u.u.u.u.    u.u.u.u.u.u.u.u.    u.u.u.u.u.u.u.u.",
"u.u.u.u.u.u.u.u.u.u.u.u.u.u.u.u.u.u.u.u.u.u.u.u.u.u.u.u.u.u.u.u.u.u.u.u.u.u.u.u.u.u.u.u.u.u.u.u.",
"u.u.u.u.u.u.u.u.u.u.u.u.u.u.u.u.u.u.u.u.u.u.u.u.u.u.u.u.u.u.u.u.u.u.u.u.u.u.u.u.u.u.u.u.u.u.u.u.",
"u.u.u.u.u.u.u.u.u.u.u.u.u.u.u.u.u.u.u.u.u.u.u.u.u.u.u.u.u.u.u.u.u.u.u.u.u.u.u.u.u.u.u.u.u.u.u.u.",
"u.u.u.u.u.u.u.u.u.u.u.u.u.u.u.u.u.u.u.u.u.u.u.u.u.u.u.u.u.u.u.u.u.u.u.u.u.u.u.u.u.u.u.u.u.u.u.u.",
"u.u.u.u.u.u.u.u.u.u.u.u.u.u.u.u.u.u.u.u.u.u.u.u.u.u.u.u.u.u.u.u.u.u.u.u.u.u.u.u.u.u.u.u.u.u.u.u.",
"u.u.u.u.u.u.u.u.u.u.u.u.u.u.u.u.u.u.u.u.u.u.u.u.u.u.u.u.u.u.u.u.u.u.u.u.u.u.u.u.u.u.u.u.u.u.u.u."
};
