/* XPM */
static char *result[] = {
/* columns rows colors chars-per-pixel */
"48 48 132 2 ",
"   c #000000",
".  c #020609",
"X  c #01090C",
"o  c #020D13",
"O  c #031116",
"+  c #04151D",
"@  c #04181F",
"#  c #051C25",
"$  c #0D1F26",
"%  c #051F29",
"&  c #06232E",
"*  c #072531",
"=  c #082A37",
"-  c #082E3D",
";  c #093343",
":  c #0A3749",
">  c #06394D",
",  c #0B3C4F",
"<  c #0B3D51",
"1  c #0C4257",
"2  c #0D455C",
"3  c #3F4F55",
"4  c #0E4B63",
"5  c #0F526C",
"6  c #115671",
"7  c #105975",
"8  c #1B5871",
"9  c #115D7B",
"0  c gray27",
"q  c #425056",
"w  c #456571",
"e  c #666B6B",
"r  c #126383",
"t  c #1D6784",
"y  c #136789",
"u  c #13698B",
"i  c #146E93",
"p  c #157296",
"a  c #16779D",
"s  c #15789F",
"d  c #177DA4",
"f  c #187FA8",
"g  c #4A798A",
"h  c #1881AA",
"j  c #1986B1",
"k  c #1989B5",
"l  c #1A8DBB",
"z  c #1A90BE",
"x  c #3F8FAF",
"c  c #228AB3",
"v  c #4F8295",
"b  c #7A8A90",
"n  c #7B909A",
"m  c #4E93AE",
"M  c #5297B2",
"N  c #1B93C3",
"B  c #1A97C8",
"V  c #1C9BCC",
"C  c #1D9FD2",
"Z  c #399EC4",
"A  c #1EA2D6",
"S  c #1DA5DA",
"D  c #1FA8DE",
"F  c #35A2CD",
"G  c #17ABE5",
"H  c #1DADE6",
"J  c #1CAFE9",
"K  c #20AEE6",
"L  c #20AFE8",
"P  c #26B0E7",
"I  c #2AB2E7",
"U  c #21B2EA",
"Y  c #2BB5EC",
"T  c #2CB8EF",
"R  c #34B6E8",
"E  c #38B7E9",
"W  c #3DBAEA",
"Q  c #22B6F1",
"!  c #24BBF6",
"~  c #29B9F3",
"^  c #33BCF2",
"/  c #39BEF3",
"(  c #54A6C6",
")  c #5AA6C5",
"_  c #53A9C9",
"`  c #58B1D4",
"'  c #4EB7E0",
"]  c #43BBEB",
"[  c #4ABDEB",
"{  c #50BDE7",
"}  c #3CC1F5",
"|  c #49C0EF",
" . c #52C0EB",
".. c #5BC3EC",
"X. c #43C2F4",
"o. c #4CC3F2",
"O. c #4CC7F8",
"+. c #5ECDF9",
"@. c #63C6EE",
"#. c #67C8EE",
"$. c #6CCAEF",
"%. c #7BC8E6",
"&. c #73CCEF",
"*. c #60C9F2",
"=. c #71CCF1",
"-. c #7BCFF0",
";. c #61D3FF",
":. c #6BD2FB",
">. c #7BD0F2",
",. c #71D5FD",
"<. c #7ADAFF",
"1. c #9CB1B8",
"2. c #87B8CD",
"3. c #95BACA",
"4. c #83D3F1",
"5. c #8BD5F3",
"6. c #94DBF7",
"7. c #9FE8FF",
"8. c #ABE1F6",
"9. c #ACE3F9",
"0. c #B2E3F6",
"q. c #BDE7F8",
"w. c #B1ECFF",
"e. c #BBEFFF",
"r. c #C3ECFA",
"t. c #CBEDF9",
"y. c #CFF4FF",
"u. c #D9F2FB",
"i. c #E2F5FB",
"p. c #E8F6FB",
"a. c #E8FDFF",
"s. c None",
/* pixels */
"s.s.s.s.s.s.s.s.s.s.s.s.s.s.s.s.s.s.s.s.s.s.s.s.s.s.s.s.s.s.s.s.s.s.s.s.s.s.s.s.s.s.s.s.s.s.s.s.",
"s.s.s.s.s.s.s.s.s.s.s.s.s.s.s.s.s.s.s.s.s.s.s.s.s.s.s.s.s.s.s.s.s.s.s.s.s.s.s.s.s.s.s.s.s.s.s.s.",
"s.s.s.s.s.s.s.s.s.s.s.s.s.s.s.s.s.s.s.s.s.s.s.s.s.s.s.s.s.s.s.s.s.s.s.s.s.s.s.s.s.s.s.s.s.s.s.s.",
"s.s.s.s.s.s.s.s.s.s.s.s.s.s.s.s.s.s.s.s.s.s.s.s.s.s.s.s.s.s.s.s.s.s.s.s.s.s.s.s.s.s.s.s.s.s.s.s.",
"s.s.s.s.s.s.s.s.s.s.s.s.s.s.s.s.s.s.s.s.s.s.s.s.s.s.s.s.s.s.s.s.s.s.s.s.s.s.s.s.s.s.s.s.s.s.s.s.",
"s.s.s.s.s.s.s.s.s.s.s.s.s.s.s.s.s.s.s.u.t.q.0.8.8.8.8.s.s.s.s.s.s.s.s.s.s.s.s.s.s.s.s.s.s.s.s.s.",
"s.s.s.s.s.s.s.s.s.s.s.s.s.s.s.s.p.r.5.@.[ E R R R ]  .#.-.4.s.s.s.s.s.s.s.s.s.s.s.s.s.s.s.s.s.s.",
"s.s.s.s.s.s.s.s.s.s.s.s.s.s.i.0.$.R H G G H H H H G H H P ] *._ s.s.s.s.s.s.s.s.s.s.s.s.s.s.s.s.",
"s.s.s.s.s.s.s.s.s.s.s.s.s.r.@.K G H H K K K K K K K K K H H K W [ s.s.s.s.s.s.s.s.s.s.s.s.s.s.s.",
"s.s.s.s.s.s.s.s.s.s.s.s.0.] G H K K K K K K K K K K K K K K J H T / s.s.s.s.s.s.s.s.s.s.s.s.s.s.",
"s.s.s.s.s.s.s.s.s.s.s.r.W J L K K K K K K K K K K L L U U L K K H I ~ s.s.s.s.s.s.s.s.s.s.s.s.s.",
"s.s.s.s.s.s.s.s.s.s.y...A K U U K K K K K K K K L U U D S U U K K H ~ l s.s.s.s.s.s.s.s.s.s.s.s.",
"s.s.s.s.s.s.s.s.s.s.) > % - 9 V L K K H K K K L U h 1 & & 2 k K K K K P 4 s.s.s.s.s.s.s.s.s.s.s.",
"s.s.s.s.s.s.s.s.s.M o         ; l U K K K K L K 6 .         # a K L K U N s.s.s.s.s.s.s.s.s.s.s.",
"s.s.s.s.s.s.s.s.` s.      s.    , S U K K K U p           s.  @ l U K K K 7 s.s.s.s.s.s.s.s.s.s.",
"s.s.s.s.s.s.s.s.8 s.  s.s.s.s.s.s.k U K K K H -     s.s.s.s.s.s.7 U K K U l s.s.s.s.s.s.s.s.s.s.",
"s.s.s.s.s.s.s.s.s.s.s.s.s.s.s.s.s.6 ~ U K U k X   s.s.s.s.s.s.s.s.P U K L S , s.s.s.s.s.s.s.s.s.",
"s.s.s.s.s.s.s.( s.e n s.s.s.s.s.s.s.^ K U U s X 0 b s.s.s.s.s.s.s.F T H K K y s.s.s.s.s.s.s.s.s.",
"s.s.s.s.s.s.s.2.3.9.,.;.s.s.s.s.s.s.] K H K B v 9.<.:.] s.s.s.s.s.m ^ J K U j + s.s.s.s.s.s.s.s.",
"s.s.s.s.s.s.s.-.X.J G U l s.s.s.s.s.{ U K H P o.Y G H P 7 s.s.s.s.m } H K U V ; s.s.s.s.s.s.s.s.",
"s.s.s.s.s.s.5.R G J U U p X s.s.s.s...H K K K H H K L D < s.s.s.s.%.R H K U K 5 s.s.s.s.s.s.s.s.",
"s.s.s.s.s.s.4.I J U Q U ;   s.s.s.s.[ H K K K K L Q ! d X   s.s.s.5.I H K K K u   s.s.s.s.s.s.s.",
"s.s.s.s.s.s.$.K N h h 2     s.s.s.w.R H K K L A h h r @     s.s.s.&.H H K K U d O s.s.s.s.s.s.s.",
"s.s.s.s.s.s...H i X         s.s.s.6.K K K K U V *           s.s.r.] H K K K U l # s.s.s.s.s.s.s.",
"s.s.s.s.s.s.[ H D t .     s.s.s.y.[ G K K K K U c $       s.s.a.&.H H K K K U V = s.s.s.s.s.s.s.",
"s.s.s.s.s.s.W H U } ( w q s.1.e. .H K K K K K K ^ ' g 3 s.s.t.=.P H K K K K U A : s.s.s.s.s.s.s.",
"s.s.s.s.s.-.R H K K T o.:.:.o.P G K K K K K K K H P X.+.:.*.Y G H K K K K K U S 2   s.s.s.s.s.s.",
"s.s.s.s.s.&.I H K K K G H G H H K K K K K K K K H K J G J G H U K K K K K K K K 4   s.s.s.s.s.s.",
"s.s.s.s.s.$.I K K K K K K K K K K K K K K K K K K H K K U K K K K K H K K K K K 6   s.s.s.s.s.s.",
"s.s.s.s.s.$.P H K K K K K K K K K K K K K K K K K K K K K K K K K K K K K K K K 9   s.s.s.s.s.s.",
"s.s.s.s.s.#.L K K K K K K K K K K K K K K K K K K K K K K K K K K K K K K K U U 9 . s.s.s.s.s.s.",
"s.s.s.s.s.#.L K K K K K K K K K K K K K K K K K K K K K K K K K K K K K K K U J r   s.s.s.s.s.s.",
"s.s.s.s.s.@.L K K K K K K K K K K K K K K K K K K K K K K K K K K K K K K K U U r   s.s.s.s.s.s.",
"s.s.s.s.s...L K K K K K K K K K K K K K U H K K K K K K K K K K K K K K K K K U r   s.s.s.s.s.s.",
"s.s.s.s.s...L K K K K K K K K K K K K K K K K K K K K K H K K K K K K K K K K U r   s.s.s.s.s.s.",
"s.s.s.s.s.@.L K K K K K K U Q U U K K K K K K K K K K K U U Q U U K K K K K K J r   s.s.s.s.s.s.",
"s.s.s.s.s. .L K K K K U U C p y k K U K H K K K K H K U U j r h D U H K K K K U 7   s.s.s.s.s.s.",
"s.s.s.s.s.Z T K K K K U d &     + r D U U K K K K K U V 4 X   X 4 V U U K K U K <   s.s.s.s.s.s.",
"s.s.s.s.s.s.! U L U U s .         . 6 V U U L L U U d @           < B U U K U l O   s.s.s.s.s.s.",
"s.s.s.s.s.s.k A K K i o       s.s.s.. , d A K K V 6 X       s.s.s.  , k K K V ;     s.s.s.s.s.s.",
"s.s.s.s.s.s.@ - ; *         s.s.s.s.s.  o * : ; O         s.s.s.s.s.  # ; ; O       s.s.s.s.s.s.",
"s.s.s.s.s.s.s.            s.s.s.s.s.s.s.                s.s.s.s.s.s.s.            s.s.s.s.s.s.s.",
"s.s.s.s.s.s.s.s.      s.s.s.s.s.s.s.s.s.s.s.        s.s.s.s.s.s.s.s.s.s.s.      s.s.s.s.s.s.s.s.",
"s.s.s.s.s.s.s.s.s.s.s.s.s.s.s.s.s.s.s.s.s.s.s.s.s.s.s.s.s.s.s.s.s.s.s.s.s.s.s.s.s.s.s.s.s.s.s.s.",
"s.s.s.s.s.s.s.s.s.s.s.s.s.s.s.s.s.s.s.s.s.s.s.s.s.s.s.s.s.s.s.s.s.s.s.s.s.s.s.s.s.s.s.s.s.s.s.s.",
"s.s.s.s.s.s.s.s.s.s.s.s.s.s.s.s.s.s.s.s.s.s.s.s.s.s.s.s.s.s.s.s.s.s.s.s.s.s.s.s.s.s.s.s.s.s.s.s.",
"s.s.s.s.s.s.s.s.s.s.s.s.s.s.s.s.s.s.s.s.s.s.s.s.s.s.s.s.s.s.s.s.s.s.s.s.s.s.s.s.s.s.s.s.s.s.s.s.",
"s.s.s.s.s.s.s.s.s.s.s.s.s.s.s.s.s.s.s.s.s.s.s.s.s.s.s.s.s.s.s.s.s.s.s.s.s.s.s.s.s.s.s.s.s.s.s.s."
};
