/* XPM */
static char *result[] = {
/* columns rows colors chars-per-pixel */
"48 48 140 2 ",
"   c #000000",
".  c #01070A",
"X  c #020A0D",
"o  c #030D12",
"O  c #031013",
"+  c #04141B",
"@  c #041A23",
"#  c #0B1D24",
"$  c #061E28",
"%  c #06212D",
"&  c #072531",
"*  c #072937",
"=  c #082937",
"-  c #092E3D",
";  c #0A3344",
":  c #0B3749",
">  c #06394E",
",  c #0B394B",
"<  c #0B3D50",
"1  c #0C4156",
"2  c #0D465C",
"3  c #0D485F",
"4  c #3E4B50",
"5  c #0E4B64",
"6  c #0E4E68",
"7  c #0F5069",
"8  c #125671",
"9  c #105975",
"0  c #1D5F77",
"q  c #115D7B",
"w  c #11607F",
"e  c gray27",
"r  c #496570",
"t  c #646969",
"y  c #126484",
"u  c #1C6785",
"i  c #136789",
"p  c #136A8C",
"a  c #146F93",
"s  c #15759B",
"d  c #16789E",
"f  c #167CA3",
"g  c #187FA7",
"h  c #51798A",
"j  c #4E7F93",
"k  c #1883AD",
"l  c #1986B1",
"z  c #1989B5",
"x  c #1B8DBB",
"c  c #2A86AB",
"v  c #3E8DAF",
"b  c #218AB4",
"n  c #79888D",
"m  c #788D97",
"M  c #4B90AB",
"N  c #57A0BD",
"B  c #1B94C4",
"V  c #1C9ACC",
"C  c #1D9FD2",
"Z  c #1EA2D5",
"A  c #1EA6DB",
"S  c #1FA9DF",
"D  c #33A0CC",
"F  c #1DADE5",
"G  c #1BAEE9",
"H  c #1FB0E9",
"J  c #20AEE6",
"K  c #20AFE8",
"L  c #26B0E7",
"P  c #2CB3E7",
"I  c #21B2EB",
"U  c #2DB4E9",
"Y  c #2EB8EF",
"T  c #33B5E8",
"R  c #37B9EC",
"E  c #3CB9EA",
"W  c #23B7F1",
"Q  c #22B9F4",
"!  c #29BBF4",
"~  c #33BCF2",
"^  c #38BCF0",
"/  c #57A6C6",
"(  c #59A5C3",
")  c #56A9CB",
"_  c #46ACD4",
"`  c #47B4DE",
"'  c #70BAD5",
"]  c #4FBCE7",
"[  c #43BBEB",
"{  c #4ABDEB",
"}  c #53B8E0",
"|  c #3CC1F6",
" . c #53C1EC",
".. c #5CC3EC",
"X. c #45C1F2",
"o. c #4DC2F0",
"O. c #5DC7F1",
"+. c #55CAF8",
"@. c #6CC4E6",
"#. c #65C7EE",
"$. c #67C8EE",
"%. c #6CCAEF",
"&. c #73CDEF",
"*. c #62C9F2",
"=. c #74CDF0",
"-. c #7CCFF0",
";. c #64D2FD",
":. c #6AD2FC",
">. c #7CD1F2",
",. c #71D4FB",
"<. c #7CD7FB",
"1. c #7ADAFF",
"2. c #AAB7BC",
"3. c #86B8CD",
"4. c #95BACA",
"5. c #81D1F1",
"6. c #88D7F6",
"7. c #83DAFC",
"8. c #8BDCFC",
"9. c #93DAF5",
"0. c #93DFFE",
"q. c #A6DFF5",
"w. c #A8DFF5",
"e. c #91E0FF",
"r. c #A7E0F5",
"t. c #AAE0F5",
"y. c #ADE3F8",
"u. c #A0E8FF",
"i. c #B4E4F7",
"p. c #BBE6F7",
"a. c #B3ECFF",
"s. c #BEE8F9",
"d. c #C5EAF9",
"f. c #C4F2FF",
"g. c #CDF3FF",
"h. c #D5F2FC",
"j. c #E5F5FC",
"k. c #E6FDFF",
"l. c #E9F8FB",
"z. c None",
/* pixels */
"z.z.z.z.z.z.z.z.z.z.z.z.z.z.z.z.z.z.z.z.z.z.z.z.z.z.z.z.z.z.z.z.z.z.z.z.z.z.z.z.z.z.z.z.z.z.z.z.",
"z.z.z.z.z.z.z.z.z.z.z.z.z.z.z.z.z.z.z.z.z.z.z.z.z.z.z.z.z.z.z.z.z.z.z.z.z.z.z.z.z.z.z.z.z.z.z.z.",
"z.z.z.z.z.z.z.z.z.z.z.z.z.z.z.z.z.z.z.z.z.z.z.z.z.z.z.z.z.z.z.z.z.z.z.z.z.z.z.z.z.z.z.z.z.z.z.z.",
"z.z.z.z.z.z.z.z.z.z.z.z.z.z.z.z.z.z.z.z.z.z.z.z.z.z.z.z.z.z.z.z.z.z.z.z.z.z.z.z.z.z.z.z.z.z.z.z.",
"z.z.z.z.z.z.z.z.z.z.z.z.z.z.z.z.z.z.z.z.z.z.z.z.z.z.z.z.z.z.z.z.z.z.z.z.z.z.z.z.z.z.z.z.z.z.z.z.",
"z.z.z.z.z.z.z.z.z.z.z.z.z.z.z.z.z.z.z.h.d.i.w.w.w.w.w.z.z.z.z.z.z.z.z.z.z.z.z.z.z.z.z.z.z.z.z.z.",
"z.z.z.z.z.z.z.z.z.z.z.z.z.z.z.z.j.p.>. .[ T P U U E { #.&.5.z.z.z.z.z.z.z.z.z.z.z.z.z.z.z.z.z.z.",
"z.z.z.z.z.z.z.z.z.z.z.z.z.z.l.i.$.T F F F F F F F F F F J [ *.) z.z.z.z.z.z.z.z.z.z.z.z.z.z.z.z.",
"z.z.z.z.z.z.z.z.z.z.z.z.z.h.-.P F F F J J J J J F F J J F F L X.` z.z.z.z.z.z.z.z.z.z.z.z.z.z.z.",
"z.z.z.z.z.z.z.z.z.z.z.z.y.{ F F F J J J J J F J J J J F J J F F ! R z.z.z.z.z.z.z.z.z.z.z.z.z.z.",
"z.z.z.z.z.z.z.z.z.z.z.s.R G F J F I J J J J J J J I J I I J J J J U ! z.z.z.z.z.z.z.z.z.z.z.z.z.",
"z.z.z.z.z.z.z.z.z.z.g.O.A J I I J J J J J J J J J I I S A I I J J J I x z.z.z.z.z.z.z.z.z.z.z.z.",
"z.z.z.z.z.z.z.z.z.z.( > $ ; q V I J J J J J J J J k 1 & % 2 z J J J J I 5 z.z.z.z.z.z.z.z.z.z.z.",
"z.z.z.z.z.z.z.z.z.N o         , B J J J J J J I q .         $ g J J J I x z.z.z.z.z.z.z.z.z.z.z.",
"z.z.z.z.z.z.z.z.@.@ z.          7 F J J J J I k               = V J J J J 5 z.z.z.z.z.z.z.z.z.z.",
"z.z.z.z.z.z.z.z.0 z.  z.z.z.z.z.z.z I J J K J ;     z.z.z.z.z.z.y I J J I z z.z.z.z.z.z.z.z.z.z.",
"z.z.z.z.z.z.z.z.z.z.z.z.z.z.z.z.z.8 ! J J I l .   z.z.z.z.z.z.z.z.U H F H A , z.z.z.z.z.z.z.z.z.",
"z.z.z.z.z.z.z./ z.t m z.z.z.z.z.z.z.~ J J I d . e n z.z.z.z.z.z.z.D Y F I J p z.z.z.z.z.z.z.z.z.",
"z.z.z.z.z.z.z.3.4.u.,.;.z.z.z.z.z.z.[ J J J x M y.1.:.[ z.z.z.z.z.v ~ F F I l + z.z.z.z.z.z.z.z.",
"z.z.z.z.z.z.z.>.X.J F I x z.z.z.z.z.} I J J L o.T G F K 9 z.z.z.z.M | F J I V - z.z.z.z.z.z.z.z.",
"z.z.z.z.z.z.9.E F H F W f o z.z.z.z. .F J J J F F I I F 3 z.z.z.z.' R F J I S 5 z.z.z.z.z.z.z.z.",
"z.z.z.z.z.z.5.P F I Q F <   z.z.z.z. .F J J J F I I W k +   z.z.z.6.U F J J J i . z.z.z.z.z.z.z.",
"z.z.z.z.z.z.%.F x k k 3     z.z.z.a.T F J J J Z k k y +     z.z.z.=.F F J J I g O z.z.z.z.z.z.z.",
"z.z.z.z.z.z...F a .         z.z.z.0.J F J J I V %           z.z.d.[ F J J J I z $ z.z.z.z.z.z.z.",
"z.z.z.z.z.z.{ F J u .     z.z.z.g.{ F J J J J I b #       z.z.k.&.J J J J J I V = z.z.z.z.z.z.z.",
"z.z.z.z.z.z.E F L | ( r z.z.2.f. .F F J J J J J ~ } h 4 z.z.h.>.J F J J J J I Z : z.z.z.z.z.z.z.",
"z.z.z.z.z.>.T F F J R ;.8.e.,.U F F J J J J J J F Y +.<.e.7.[ F F J J J J J K A 1   z.z.z.z.z.z.",
"z.z.z.z.z.&.U F J J F F J F F F J J J J J J J J F F F F F F F F J J J J J J J J 6   z.z.z.z.z.z.",
"z.z.z.z.z.&.P F J J J J J F J J J J J J J J J F J J J F F J J J J J J J J J J J 8   z.z.z.z.z.z.",
"z.z.z.z.z.$.P F J J J J J J J J J J J J J J J J J J J J F I J J J J J J J F I J 9   z.z.z.z.z.z.",
"z.z.z.z.z.#.J J J J J J J J J J J J J J J J J J J J J J J J J J J J J J J J F I q . z.z.z.z.z.z.",
"z.z.z.z.z.#.L F J J J J J J J J J J J J J J J J J J J J J J J J J J J J J J I I y   z.z.z.z.z.z.",
"z.z.z.z.z...J J J J J J J J J J J J J J J J J J J F J J J J J J J J J J J J I I y   z.z.z.z.z.z.",
"z.z.z.z.z.#.J J J J J J J J J J J J J F J J J J J J J J J J J J J J J J J F J I y   z.z.z.z.z.z.",
"z.z.z.z.z...L J J J J J J J J J J J J J J J J J J J J J J J J J J J J J J J J K y   z.z.z.z.z.z.",
"z.z.z.z.z...K F J J K I W I I J J J J J J I I W I J J J J J J K I W I J J J J I y   z.z.z.z.z.z.",
"z.z.z.z.z. .L J J K I l q f S J J J J I I B y i Z J J J J J I C a q x J J J K I q   z.z.z.z.z.z.",
"z.z.z.z.z._ L J J I p X   X y J K J J I k @     6 A K J J I V =     $ z I J K J 5   z.z.z.z.z.z.",
"z.z.z.z.z.c ! J Q l X       @ x I I W V $       . d I I I J ;         3 J I I S -   z.z.z.z.z.z.",
"z.z.z.z.z.z.J J l $     z.z.z.: x F B ;       z.z.% k S F 9       z.z.z.s Z J p .   z.z.z.z.z.z.",
"z.z.z.z.z.z.; = .     z.z.z.z.z.$ - +       z.z.z.z.+ - %       z.z.z.z.o - &       z.z.z.z.z.z.",
"z.z.z.z.z.z.z.        z.z.z.z.z.z.        z.z.z.z.z.z.        z.z.z.z.z.z.        z.z.z.z.z.z.z.",
"z.z.z.z.z.z.z.z.    z.z.z.z.z.z.z.z.    z.z.z.z.z.z.z.z.    z.z.z.z.z.z.z.z.      z.z.z.z.z.z.z.",
"z.z.z.z.z.z.z.z.z.z.z.z.z.z.z.z.z.z.z.z.z.z.z.z.z.z.z.z.z.z.z.z.z.z.z.z.z.z.z.z.z.z.z.z.z.z.z.z.",
"z.z.z.z.z.z.z.z.z.z.z.z.z.z.z.z.z.z.z.z.z.z.z.z.z.z.z.z.z.z.z.z.z.z.z.z.z.z.z.z.z.z.z.z.z.z.z.z.",
"z.z.z.z.z.z.z.z.z.z.z.z.z.z.z.z.z.z.z.z.z.z.z.z.z.z.z.z.z.z.z.z.z.z.z.z.z.z.z.z.z.z.z.z.z.z.z.z.",
"z.z.z.z.z.z.z.z.z.z.z.z.z.z.z.z.z.z.z.z.z.z.z.z.z.z.z.z.z.z.z.z.z.z.z.z.z.z.z.z.z.z.z.z.z.z.z.z.",
"z.z.z.z.z.z.z.z.z.z.z.z.z.z.z.z.z.z.z.z.z.z.z.z.z.z.z.z.z.z.z.z.z.z.z.z.z.z.z.z.z.z.z.z.z.z.z.z."
};
