/* XPM */
static char *result[] = {
/* columns rows colors chars-per-pixel */
"48 48 130 2 ",
"   c #000000",
".  c #0A0604",
"X  c #010609",
"o  c #02090B",
"O  c #030F13",
"+  c #031014",
"@  c #04151C",
"#  c #051C25",
"$  c #061F2A",
"%  c #06212B",
"&  c #072532",
"*  c #072A36",
"=  c #082937",
"-  c #052A39",
";  c #082C3B",
":  c #14323E",
">  c #2A2726",
",  c #0A3344",
"<  c #093749",
"1  c #0A394C",
"2  c #0B3E52",
"3  c #0C4256",
"4  c #0C445A",
"5  c #0C485E",
"6  c #0E4B64",
"7  c #0F526D",
"8  c #105672",
"9  c #105A76",
"0  c #115C7A",
"q  c #18607B",
"w  c #126484",
"e  c #136788",
"r  c #14698B",
"t  c #146E91",
"y  c #157094",
"u  c #15759C",
"i  c #16789F",
"p  c #2E7894",
"a  c #167CA4",
"s  c #177FA8",
"d  c #1882AC",
"f  c #1885B1",
"g  c #1989B5",
"h  c #1A8DBA",
"j  c #2983A4",
"k  c #268CB4",
"l  c #568A9E",
"z  c #7A8C93",
"x  c #659CB3",
"c  c #1B94C4",
"v  c #1C9BCD",
"b  c #1D9ED1",
"n  c #379EC7",
"m  c #1DA2D6",
"M  c #1EA6DB",
"N  c #1FA9DF",
"B  c #29A9DB",
"V  c #17ABE5",
"C  c #1DADE6",
"Z  c #1EAFE9",
"A  c #1FB0EA",
"S  c #20AEE6",
"D  c #20AFE8",
"F  c #25B0E7",
"G  c #2BB2E7",
"H  c #21B2EB",
"J  c #2CB4EA",
"K  c #36B5E6",
"L  c #3DB4E3",
"P  c #35B6E8",
"I  c #3AB7E9",
"U  c #31B9EE",
"Y  c #3CB9EB",
"T  c #22B6F1",
"R  c #28B7F0",
"E  c #25B8F2",
"W  c #2ABAF3",
"Q  c #37BBF0",
"!  c #39BFF3",
"~  c #42A5CB",
"^  c #51A6C8",
"/  c #55ADCF",
"(  c #58B3D7",
")  c #60B3D4",
"_  c #6EBBDA",
"`  c #45B5E2",
"'  c #44BBEA",
"]  c #4ABDEB",
"[  c #52BFEB",
"{  c #55C2ED",
"}  c #5CC4ED",
"|  c #42C1F3",
" . c #4DC5F5",
".. c #51C5F3",
"X. c #56C8F4",
"o. c #59C9F5",
"O. c #63C7EE",
"+. c #67C8EE",
"@. c #6CCAEF",
"#. c #75CCEF",
"$. c #63CDF7",
"%. c #6FCEF3",
"&. c #7ACFF0",
"*. c #6ED0F6",
"=. c #63D0FB",
"-. c #6DD0F8",
";. c #7DD4F7",
":. c #73D5FC",
">. c #899498",
",. c #94BBC9",
"<. c #A3B9C2",
"1. c #82D2F1",
"2. c #8BDEFE",
"3. c #92D7F3",
"4. c #9CDBF4",
"5. c #B2DAE9",
"6. c #A3DDF4",
"7. c #A5E0F5",
"8. c #A8E0F5",
"9. c #B5E4F7",
"0. c #BDE7F8",
"q. c #B6ECFF",
"w. c #BFECFC",
"e. c #C2EAF7",
"r. c #C4E9F8",
"t. c #C9ECFA",
"y. c #D3EFFA",
"u. c #D5F0FA",
"i. c #E5F5FC",
"p. c None",
/* pixels */
"p.p.p.p.p.p.p.p.p.p.p.p.p.p.p.p.p.p.p.p.p.p.p.p.p.p.p.p.p.p.p.p.p.p.p.p.p.p.p.p.p.p.p.p.p.p.p.p.",
"p.p.p.p.p.p.p.p.p.p.p.p.p.p.p.p.p.p.p.p.p.p.p.p.p.p.p.p.p.p.p.p.p.p.p.p.p.p.p.p.p.p.p.p.p.p.p.p.",
"p.p.p.p.p.p.p.p.p.p.p.p.p.p.p.p.p.p.p.p.p.p.p.p.p.p.p.p.p.p.p.p.p.p.p.p.p.p.p.p.p.p.p.p.p.p.p.p.",
"p.p.p.p.p.p.p.p.p.p.p.p.p.p.p.p.p.p.p.p.p.p.p.p.p.p.p.p.p.p.p.p.p.p.p.p.p.p.p.p.p.p.p.p.p.p.p.p.",
"p.p.p.p.p.p.p.p.p.p.p.p.p.p.p.p.p.p.p.p.p.p.p.p.p.p.p.p.p.p.p.p.p.p.p.p.p.p.p.p.p.p.p.p.p.p.p.p.",
"p.p.p.p.p.p.p.p.p.p.p.p.p.p.p.p.p.p.p.y.e.9.6.4.6.8.6.p.p.p.p.p.p.p.p.p.p.p.p.p.p.p.p.p.p.p.p.p.",
"p.p.p.p.p.p.p.p.p.p.p.p.p.p.p.p.i.9.&.{ I P F G G I ' } #.1.p.p.p.p.p.p.p.p.p.p.p.p.p.p.p.p.p.p.",
"p.p.p.p.p.p.p.p.p.p.p.p.p.p.i.9.O.G C V C C C C C C C C D Y O./ p.p.p.p.p.p.p.p.p.p.p.p.p.p.p.p.",
"p.p.p.p.p.p.p.p.p.p.p.p.p.u.&.G V C S S S S S S C F S S C C F | ` p.p.p.p.p.p.p.p.p.p.p.p.p.p.p.",
"p.p.p.p.p.p.p.p.p.p.p.p.r.{ C C S S S C S S S S S C S S S S C C U U p.p.p.p.p.p.p.p.p.p.p.p.p.p.",
"p.p.p.p.p.p.p.p.p.p.p.0.' V C H H H Z C S S S C S S S S C S F C A E R p.p.p.p.p.p.p.p.p.p.p.p.p.",
"p.p.p.p.p.p.p.p.p.p.t.} V S H H S m B H H S S S S C S S S H H H M B H c p.p.p.p.p.p.p.p.p.p.p.p.",
"p.p.p.p.p.p.p.p.p.p.1.S C H S r , % * 7 c S S S C S C F F A d 4 % % < s 7 p.p.p.p.p.p.p.p.p.p.p.",
"p.p.p.p.p.p.p.p.p.8.P C H m 2           ; h S S S S S C A u o         @ r p.p.p.p.p.p.p.p.p.p.p.",
"p.p.p.p.p.p.p.p.0.+.C A S 6               3 M H S S C H c @             = 7 p.p.p.p.p.p.p.p.p.p.",
"p.p.p.p.p.p.p.p.4.P C H f o     p.p.p.p.p.X d H S S F H 6       p.p.p.p.p.9 p.p.p.p.p.p.p.p.p.p.",
"p.p.p.p.p.p.p.p.O.V S H 6     p.p.p.p.p.p.p.4 W D S H c @   p.p.p.p.p.p.p.p.q p.p.p.p.p.p.p.p.p.",
"p.p.p.p.p.p.p.4.K C H C ;     p.p.p.p.p.w.p.p.L H S H a X   p.p.p.p.p.p.p.p.p p.p.p.p.p.p.p.p.p.",
"p.p.p.p.p.p.p.&.S S A M =   p.p.p.p.t.&.O.=.l ) H S H y X   p.p.p.p.9.%.$._ ^ - p.p.p.p.p.p.p.p.",
"p.p.p.p.p.p.p.} C S A B ;   p.p.p.q.[ V C S ..[ S S H u o p.p.p.p.6.I V V Q K < p.p.p.p.p.p.p.p.",
"p.p.p.p.p.p.3.Y C S D C 3   p.p.p.-.F Z C F S S S S H f @ p.p.p.p.} Z C S Z N 6 p.p.p.p.p.p.p.p.",
"p.p.p.p.p.p.1.G C S S S r   p.p.p.k E H T A S S S S H b , p.p.p.p.G A T H S S w   p.p.p.p.p.p.p.",
"p.p.p.p.p.p.@.S C S S H v ; p.p.p.p.w a u u m H S S S H u p.p.p.p.2 r i s v H s + p.p.p.p.p.p.p.",
"p.p.p.p.p.p.} C S S S S H g p.p.p.p.      : L H C S S D S 5 p.p.p.p.    @ n R h $ p.p.p.p.p.p.p.",
"p.p.p.p.p.p.] C S S S S S E k p.p.p.p.  > ,...C S S S S H B p.p.p.p.p.. z *.H v ; p.p.p.p.p.p.p.",
"p.p.p.p.p.p.Y C S S S S S S ! ( p.p.p.>.5.$.S S S S S S S J { x p.p.p.<.2.F Z m < p.p.p.p.p.p.p.",
"p.p.p.p.p.&.P C S S S S S S C U o.;.2.:.Y C C S S S S S S S F  .%.2.2.X.S C H M 3   p.p.p.p.p.p.",
"p.p.p.p.p.&.J C S S S S S S S C C C C C C C S S S S S S S D C C C C V C S S F C 6   p.p.p.p.p.p.",
"p.p.p.p.p.#.G C S S S S S S S S C C S S S S S S S S S S S S S S S S S S S S H C 8   p.p.p.p.p.p.",
"p.p.p.p.p.+.F C S S S S S S S S D S S S S S S S S S S S S S S S C S S S S S S C 9   p.p.p.p.p.p.",
"p.p.p.p.p.O.F C S S S S S S S S S S S S S S S S S C S S S S S S S S S S S S F A q   p.p.p.p.p.p.",
"p.p.p.p.p.O.F S C S S S S S S S S S S S S S S S S S S S S S S S S S S S S S A A w X p.p.p.p.p.p.",
"p.p.p.p.p.} S S S S S S S S S S S S S S S S S S S S C S S S S S S S S S S S F H w   p.p.p.p.p.p.",
"p.p.p.p.p.} F S S S S S S S S S S S S S S S S S S S S S S S S S S S S S S S C H w   p.p.p.p.p.p.",
"p.p.p.p.p.} F C S S S S D D S S S S S S S S S S S S S S S S S S S D S S S S S H w   p.p.p.p.p.p.",
"p.p.p.p.p.} F C S S S H H H D S S S S S S H H T H S S S S S S H T H H S C C F A w   p.p.p.p.p.p.",
"p.p.p.p.p.{ F C S S H d 9 u M D C C S D H c 0 w b F S S S S H b w 0 g S S C C H 0   p.p.p.p.p.p.",
"p.p.p.p.p.~ J C S H r o   o w S F C S H s @     6 m D S S H c &     # g H S Z Z 6   p.p.p.p.p.p.",
"p.p.p.p.p.j W H T d o       @ h A H H v #       o u D Z H C ,         4 S H H B ;   p.p.p.p.p.p.",
"p.p.p.p.p.p.E T c %     p.p.p.2 b A B <       p.p.& h H T e       p.p.O s S H i X   p.p.p.p.p.p.",
"p.p.p.p.p.p.2 < @       p.p.p.p.= 1 %       p.p.p.p.% 1 , o     p.p.p.p.@ < , O     p.p.p.p.p.p.",
"p.p.p.p.p.p.p.        p.p.p.p.p.p.        p.p.p.p.p.p.        p.p.p.p.p.p.        p.p.p.p.p.p.p.",
"p.p.p.p.p.p.p.p.    p.p.p.p.p.p.p.p.    p.p.p.p.p.p.p.p.    p.p.p.p.p.p.p.p.    p.p.p.p.p.p.p.p.",
"p.p.p.p.p.p.p.p.p.p.p.p.p.p.p.p.p.p.p.p.p.p.p.p.p.p.p.p.p.p.p.p.p.p.p.p.p.p.p.p.p.p.p.p.p.p.p.p.",
"p.p.p.p.p.p.p.p.p.p.p.p.p.p.p.p.p.p.p.p.p.p.p.p.p.p.p.p.p.p.p.p.p.p.p.p.p.p.p.p.p.p.p.p.p.p.p.p.",
"p.p.p.p.p.p.p.p.p.p.p.p.p.p.p.p.p.p.p.p.p.p.p.p.p.p.p.p.p.p.p.p.p.p.p.p.p.p.p.p.p.p.p.p.p.p.p.p.",
"p.p.p.p.p.p.p.p.p.p.p.p.p.p.p.p.p.p.p.p.p.p.p.p.p.p.p.p.p.p.p.p.p.p.p.p.p.p.p.p.p.p.p.p.p.p.p.p.",
"p.p.p.p.p.p.p.p.p.p.p.p.p.p.p.p.p.p.p.p.p.p.p.p.p.p.p.p.p.p.p.p.p.p.p.p.p.p.p.p.p.p.p.p.p.p.p.p."
};
