/* XPM */
static char *_98bb0d8f7e24fc7bb72568b2ff692323S8fTtoN155SXiK3[] = {
/* columns rows colors chars-per-pixel */
"48 48 240 2 ",
"   c None",
".  c #19280B",
"X  c #6F2E14",
"o  c #3B5C09",
"O  c #385809",
"+  c #344915",
"@  c #2C430C",
"#  c #3F6116",
"$  c #4B5F17",
"%  c #405E07",
"&  c #7D4413",
"*  c #47660A",
"=  c #536A0C",
"-  c #4B720A",
";  c #4E790D",
":  c #55780C",
">  c #476A13",
",  c #4F7215",
"<  c #69790B",
"1  c #797B0A",
"2  c #697516",
"3  c #556E24",
"4  c #577728",
"5  c #536D2C",
"6  c #677A2C",
"7  c #617040",
"8  c #911C19",
"9  c #93291C",
"0  c #843116",
"q  c #892415",
"w  c #BD3F11",
"e  c #B82927",
"r  c #A83A29",
"t  c #B7352B",
"y  c #B93A30",
"u  c #DB1E0F",
"i  c #DC200E",
"p  c #DC2115",
"a  c #D82619",
"s  c #C83818",
"d  c #DA3719",
"f  c #CE2619",
"g  c #E4210E",
"h  c #E32214",
"j  c #E6281A",
"k  c #F22718",
"l  c #F13616",
"z  c #E0361E",
"x  c #D92B28",
"c  c #CC352B",
"v  c #C63928",
"b  c #D83428",
"n  c #C92B31",
"m  c #CA3B34",
"M  c #CB3C3C",
"N  c #C73635",
"B  c #DB3234",
"V  c #D5353D",
"C  c #DC353C",
"Z  c #D43A3B",
"A  c #DB393C",
"S  c #D63835",
"D  c #D42B34",
"F  c #E52A24",
"G  c #E82C28",
"H  c #F12E24",
"J  c #E83429",
"K  c #F23225",
"L  c #F33729",
"P  c #E63837",
"I  c #F23B39",
"U  c #E61C0F",
"Y  c #BB491D",
"T  c #AA5715",
"R  c #B75819",
"E  c #B44E0F",
"W  c #8A6B13",
"Q  c #A96617",
"!  c #B86C1B",
"~  c #BD7E1E",
"^  c #964D22",
"/  c #A74625",
"(  c #B84526",
")  c #A65825",
"_  c #B85623",
"`  c #B74933",
"'  c #B77326",
"]  c #844613",
"[  c #C74817",
"{  c #C7591C",
"}  c #D8531C",
"|  c #EC4413",
" . c #F2461B",
".. c #CD6B1C",
"X. c #C74526",
"o. c #D6472A",
"O. c #C4582B",
"+. c #D75427",
"@. c #CA4737",
"#. c #D64538",
"$. c #D65738",
"%. c #CF5E38",
"&. c #EA4427",
"*. c #E3552B",
"=. c #E84A37",
"-. c #F24739",
";. c #E7583A",
":. c #F45838",
">. c #F34727",
",. c #C96425",
"<. c #D4662B",
"1. c #DB6833",
"2. c #D6753B",
"3. c #CD752E",
"4. c #E6683B",
"5. c #F3693A",
"6. c #DB3643",
"7. c #D63941",
"8. c #DB3B45",
"9. c #D83743",
"0. c #CD3E40",
"q. c #E23B44",
"w. c #E23A47",
"e. c #DA4346",
"r. c #DA5747",
"t. c #EC4544",
"y. c #E4444B",
"u. c #E84647",
"i. c #F24848",
"p. c #ED544A",
"a. c #E75845",
"s. c #F25647",
"d. c #ED5254",
"f. c #EC5A57",
"g. c #F25658",
"h. c #EA4C51",
"j. c #D96344",
"k. c #D96355",
"l. c #DB7959",
"z. c #D66F46",
"x. c #E46749",
"c. c #E2774B",
"v. c #E96A5B",
"b. c #E6685A",
"n. c #EC7258",
"m. c #F46354",
"M. c #F35B62",
"N. c #E95B62",
"B. c #EB6766",
"V. c #F16365",
"C. c #F46A6E",
"Z. c #F2666A",
"A. c #E87767",
"S. c #ED6D73",
"D. c #F46C74",
"F. c #F46D7A",
"G. c #EB7879",
"H. c #F37473",
"J. c #F47B7D",
"K. c #F4787A",
"L. c #F27967",
"P. c #5A850E",
"I. c #5C8B14",
"U. c #648A0D",
"Y. c #7A850C",
"T. c #62871A",
"R. c #6B9511",
"E. c #6D9618",
"W. c #799D18",
"Q. c #759210",
"!. c #7AA415",
"~. c #5B872D",
"^. c #6A8A29",
"/. c #6A9A27",
"(. c #749926",
"). c #658B39",
"_. c #69943B",
"`. c #719938",
"'. c #788A34",
"]. c #7AA628",
"[. c #6C9445",
"{. c #759C4B",
"}. c #739A47",
"|. c #789C53",
" X c #7CA24C",
".X c #76A247",
"XX c #7BA154",
"oX c #7DA25B",
"OX c #85900F",
"+X c #BC811C",
"@X c #83A514",
"#X c #8F9735",
"$X c #96A92D",
"%X c #85AA39",
"&X c #93B83B",
"*X c #8BAC2F",
"=X c #B7B22E",
"-X c #AFAA36",
";X c #BBA525",
":X c #D28837",
">X c #CFB13A",
",X c #CAC933",
"<X c #85924F",
"1X c #BB8D42",
"2X c #84A748",
"3X c #94B548",
"4X c #84A95B",
"5X c #84A657",
"6X c #96BB50",
"7X c #97AD51",
"8X c #A6BF46",
"9X c #89AC63",
"0X c #9EAC69",
"qX c #CD894A",
"wX c #D78A52",
"eX c #E78F56",
"rX c #E88C6F",
"tX c #DBAE64",
"yX c #9AC14F",
"uX c #A8C456",
"iX c #B0C955",
"pX c #A7C667",
"aX c #B8C963",
"sX c #B3D373",
"dX c #CDD24F",
"fX c #F47B84",
"gX c #F37987",
"hX c #EF7986",
"jX c #EE8683",
"kX c #F5848C",
"lX c #F48688",
"zX c #F68693",
"xX c #F58A95",
"cX c #F58C9C",
"vX c #F98594",
"bX c #F7959E",
"nX c #EF8896",
"mX c #F695A2",
"MX c #F698A4",
"NX c #F5A5AB",
/* pixels */
"                                                                                                ",
"                                                                                                ",
"                                                                  yX                            ",
"                                                              sXsX            3X                ",
"                                                            3XsX            3X%X                ",
"                                                          6XpXpX          yX].                  ",
"                                                        yX3XpX          6X].                    ",
"                                                        %X3X5X        6X].  %X                  ",
"                                                      '.%X8X7       7X3XyX&X].                  ",
"                                                        %XpX+       aXiX&X]./.                  ",
"                                                        #X0X.     E.E.W.*X/.                    ",
"                                                        $X<X.   E.: P.@X*X].                    ",
"                                                        -X6 .   T.: (.&X].@X                    ",
"                                                        =X6     (.W.iX&X&X*X                    ",
"                                                          '.  3X$XaXuX5X&X      ~.              ",
"                                  n.M.eXV.-.x.g.p.        -X  dXaXuX X`.].~.~.XX X.X`.).        ",
"                              x.s.&.I a.-.=.+.K ;.O.>.    =X  dXiX`.)./.^.3 [.|.|.oXXX`.`.).    ",
"                            ;.;.rXC.rXB.*.l.K K z.%. . .  =X>X,X%X(.].^.# 4 [.XXoXoX4XXX{.[.[.  ",
"                          %.1.p.x.g.B.jXG.G.d.S.u.H =.a.5.>X>X,X$X  + @ , _. XXX9X9X9X5X{._.[.  ",
"                        j.;.-.S.D.rXkXfX&.B.u.;.,.H >.3.5.eX1X;X  + % * `..XXXXX9X4XXX{.{.|.|.).",
"                        a.x.r.1.lXr.bXMXfXbXg.-.h.I wXb.:.:XeXwX-X$ = @X*X.X.XXXXXXX.X}.{.{.{.  ",
"                      =.=.M.F.zXmXx.v.v...lXf.<.i.L d.L >.s.m.:XqX< < @X].5XoX9X9X4X X}.[.      ",
"                    2.x.f.a.rXx.MXa.jXbXnXNXmXB.nXh.l.z.g.-.:.5.5.! < E.].5X4X4X.X_.).          ",
"                    L r.N.hXgXS.mXfXf.bX3.rXM.,.gXi.L g.n.H.rXbXL.:X#X4   > 4                   ",
"                  <.;.I fXZ.xX+.kXa.j.NXlXMXbXkXg.M.q.A.:XS.s.:XjX:.qX2X4                       ",
"                4.L L.a.l.B.cXB.mXMXV.C.rX+.J.M.' G.I h.K H.kXa.Z.-.:.2 #X2X                    ",
"                =.4.fXzXzXF.cXb.Z.kX+.B.F.o.kXg.=.Z.k t.I l J.NX-.;X1.W < *                     ",
"              4.-.q.zXs.J.,.cX1.kXMXvXvXmXvXF.gXI j k f.k.O.Z.G.l >.} W 1 Y.= * * - - P.I.I.I.^.",
"              >.A.1.K.x.kXS.mXB.p.kX=.+.gX&.+.C.J ~ f.G mXZ.t.K k l | E < OXOXQ.I.: - - ; P.;   ",
"            =.+.gXgXcXD.mX*.vXx.r.xXa.k.kXa.b.f.k u.J U j J [ ,.K t.| E W Y.OXQ.W.U.; <         ",
"            ;.u.rXa.c.%.xX%.zXmXvXg.C.kXf.d.N.h p h g z z F B.G.{ <.| E < OX< U.R.R.U.!.        ",
"          =.1.n.b.fXfXD.kXD.H -.i.o.d P a { i u ' p h R { U j k d rX} T W < Y.R.!.R.R.!.$X      ",
"          &.g.xXlXa.vX+.f.D.3.d i.$.r.F b k.x p v C i e.x F t.P k i.=.[ T < - = 6 7X            ",
"        4.v.qXA.A.b.MX$.H.gXfXi.F y.J a x x p x a a B B x P Q b w.d.J s E W.o o O O             ",
"      L -.kXb.vXF.zXi.F.d.G F h #.b u a ' b B w B D ( R B B r.B _ =.O.T T P., O o O O           ",
"      4.wXxXg.C.,.p.<.s j ,.s i ! s J x f D c R B B f f A 8.6.y.@.P Q s { 3 4 > % o O           ",
"    :.B.b.L.~ K.O.S.B.h.i #.Z j x x S v q.q.B D 9.t 9.6.N m 8.y.h.P a d z.    '.* * o >         ",
"    z.G.C.zXb.fXy.G h F B F j C C 6.c E B m m 8.b Q c 8.R v e.( P y.A x.        2 * * -         ",
"  3.x.D...V.G j p X.B a ' x x X.T P B D 9.Y Y 9.6.m V 8.P e.Z O.A @.t.1X          - * - ,       ",
"  c.hXB.l.-...Y i R s a c P P x x 9.v m 8.C S 9.t Y C M m 8.6.A e.T a.wX          3 * - T.).    ",
"  qXj.J J j =.A P B B P u.w.( @.w.6.[ X.8.r M 6.c c Z t X.9.( m Z e.A.            7 $ 5 5 3     ",
"  tX=.+Xx o.b J s _ y.Y _ 8.o.S w.m Z 8.8.v 7.0.r 9.Z 9.V M ( V @.=.                            ",
"  tXa.=.P { X.w.b v q.c c e.S 7.6.R @.7.y 9.8.N X.Z / y V M 0.e.) ;.                            ",
"    qX%.u.P 8.X.@.q.A / 8.8.O.@.6.9.Z @._ 7.r N V 7.m D N ) N e.M                               ",
"        a.Q e.#.#.Z V @.Z / N 7.c ) N Z N N ` n N ^ N M 0.0.`                                   ",
"          u.e.` Z ) c c n v n t ^ D n y / N ^ r t y t ^ /                                       ",
"                    e & q 0 & 8 0 9 9 ] 9 9 9 8 X X                                             ",
"                                                                                                "
};
