/* XPM */
static char *a4a71767130a4f8f8166b5218c2b3f6cW2jzG0eJl66nPZHS[] = {
/* columns rows colors chars-per-pixel */
"48 48 2 1 ",
"  c None",
". c white",
/* pixels */
"                      ....                      ",
"                      ....                      ",
"                     ......                     ",
"                    ........                    ",
"                   ..........                   ",
"                   ..........                   ",
"                  ............                  ",
"                   ..........                   ",
"        .......     ........     .......        ",
"      ..........      ....      ..........      ",
"     ...........      ....      ...........     ",
"     ...........      ....       ..........     ",
"    .....             ....             .....    ",
"    ....              ....              ....    ",
"    ....              ....              ....    ",
"    ....              ....              ....    ",
"    ....                                ....    ",
"    ....                                ....    ",
"    ....                                ....    ",
"    ....                                ....    ",
"    ....                                ....    ",
"    .....                              .....    ",
"  ............................................  ",
" .............................................. ",
"................................................",
"................................................",
"................................................",
".......................  .......................",
"......................    ......................",
".....................      .....................",
" ....................      .................... ",
" .....................    ..................... ",
" ......................  ...................... ",
" .............................................. ",
"  ............................................  ",
"  ............................................  ",
"  ............................................  ",
"  ............................................  ",
"   ..........................................   ",
"   ..........................................   ",
"   ..........................................   ",
"   ..........................................   ",
"   ..........................................   ",
"    ........................................    ",
"    ........................................    ",
"    ........................................    ",
"     ......................................     ",
"      ....................................      "
};
