/* XPM */
static char *result[] = {
/* columns rows colors chars-per-pixel */
"48 48 120 2 ",
"   c #000000",
".  c #0B0600",
"X  c #0E0800",
"o  c #130A00",
"O  c #1C0F00",
"+  c #1E1100",
"@  c #240F00",
"#  c #251400",
"$  c #281600",
"%  c #2D1900",
"&  c #341C00",
"*  c #3D2100",
"=  c #432401",
"-  c #4C2900",
";  c #492B08",
":  c #532D00",
">  c #5B3101",
",  c #4D3517",
"<  c #643600",
"1  c #6A3900",
"2  c #774000",
"3  c #7B4200",
"4  c #77460B",
"5  c #824600",
"6  c #8A4B01",
"7  c #904E00",
"8  c #965100",
"9  c #9B5400",
"0  c #9F5E12",
"q  c #A55900",
"w  c #AC5C00",
"e  c #A05E0F",
"r  c #B56302",
"t  c #BC6601",
"y  c #B46509",
"u  c #BE7011",
"i  c #905E22",
"p  c #9B6320",
"a  c #866132",
"s  c #B37730",
"d  c #C46A00",
"f  c #CC6E00",
"g  c #CF7000",
"h  c #D47300",
"j  c #DA7600",
"k  c #DE7800",
"l  c #D17B1A",
"z  c #E47C00",
"x  c #EA7E00",
"c  c #F07F00",
"v  c #EE8101",
"b  c #F18200",
"n  c #F98700",
"m  c #F68807",
"M  c #FD8A02",
"N  c #F18609",
"B  c #F2890D",
"V  c #FC8E0C",
"C  c #FD900F",
"Z  c #EC8E1D",
"A  c #F18C14",
"S  c #F88E10",
"D  c #F18E18",
"F  c #FD9415",
"G  c #F4901C",
"H  c #FE9518",
"J  c #FF981F",
"K  c #CD832C",
"L  c #E18B26",
"P  c #F29322",
"I  c #FA9621",
"U  c #FF9D26",
"Y  c #F29629",
"T  c #F89B2B",
"R  c #E19235",
"E  c #EC9C3C",
"W  c #F39C35",
"Q  c #F49F3B",
"!  c #FFA02D",
"~  c #FFA334",
"^  c #F4A03C",
"/  c #FEA53D",
"(  c #FFA83F",
")  c #BD8543",
"_  c #DB9745",
"`  c #CB995E",
"'  c #F4A343",
"]  c #F9A643",
"[  c #F4A649",
"{  c #F4A84E",
"}  c #FDAD4F",
"|  c #F5AC53",
" . c #F5AE59",
".. c #FEB257",
"X. c #F6B05F",
"o. c #FDB55F",
"O. c #F6B261",
"+. c #F6B669",
"@. c #F7B86E",
"#. c #FAB86B",
"$. c #EDB97B",
"%. c #F7BA73",
"&. c #F7C283",
"*. c #F8C281",
"=. c #F7C68D",
"-. c #F8C58A",
";. c #FFCF8A",
":. c #F8CB95",
">. c #F9CE9B",
",. c #FFD194",
"<. c #FCD19E",
"1. c #FAD2A2",
"2. c #FBDDBA",
"3. c #FFE2BE",
"4. c #FBE2C4",
"5. c #FCE8CF",
"6. c #FDEAD4",
"7. c #FDF0DE",
"8. c #FDF3E8",
"9. c None",
/* pixels */
"9.9.9.9.9.9.9.9.9.9.9.9.9.9.9.9.9.9.9.9.9.9.9.9.9.9.9.9.9.9.9.9.9.9.9.9.9.9.9.9.9.9.9.9.9.9.9.9.",
"9.9.9.9.9.9.9.9.9.9.9.9.9.9.9.9.9.9.9.9.9.9.9.9.9.9.9.9.9.9.9.9.9.9.9.9.9.9.9.9.9.9.9.9.9.9.9.9.",
"9.9.9.9.9.9.9.9.9.9.9.9.9.9.9.9.9.9.9.9.9.9.9.9.9.9.9.9.9.9.9.9.9.9.9.9.9.9.9.9.9.9.9.9.9.9.9.9.",
"9.9.9.9.9.9.9.9.9.9.9.9.9.9.9.9.9.9.9.9.9.9.9.9.9.9.9.9.9.9.9.9.9.9.9.9.9.9.9.9.9.9.9.9.9.9.9.9.",
"9.9.9.9.9.9.9.9.9.9.9.9.9.9.9.9.9.9.9.9.9.9.9.9.9.9.9.9.9.9.9.9.9.9.9.9.9.9.9.9.9.9.9.9.9.9.9.9.",
"9.9.9.9.9.9.9.9.9.9.9.9.9.9.9.9.9.9.9.6.2.1.:.:.:.:.>.9.9.9.9.9.9.9.9.9.9.9.9.9.9.9.9.9.9.9.9.9.",
"9.9.9.9.9.9.9.9.9.9.9.9.9.9.9.9.6.1.+.^ P A B B B D Y ' O.@.9.9.9.9.9.9.9.9.9.9.9.9.9.9.9.9.9.9.",
"9.9.9.9.9.9.9.9.9.9.9.9.9.9.8.<.Q N c c b c c b c b c c N P ] _ 9.9.9.9.9.9.9.9.9.9.9.9.9.9.9.9.",
"9.9.9.9.9.9.9.9.9.9.9.9.9.6.+.B c v b v b v b b b b b v b c v I W 9.9.9.9.9.9.9.9.9.9.9.9.9.9.9.",
"9.9.9.9.9.9.9.9.9.9.9.9.4.' c b b b n b b b b v b v b n b b b v S D 9.9.9.9.9.9.9.9.9.9.9.9.9.9.",
"9.9.9.9.9.9.9.9.9.9.9.-.l x b b b f d x b b b b b b x r z b b b z f x 9.9.9.9.9.9.9.9.9.9.9.9.9.",
"9.9.9.9.9.9.9.9.9.9.>.> 6 F c b b q * t b b b b b b 3 = Z m b b x > q j 9.9.9.9.9.9.9.9.9.9.9.9.",
"9.9.9.9.9.9.9.9.9.9.i   s J b b n r . 1 n b b b n f . , ~ v v b b : $ m 6 9.9.9.9.9.9.9.9.9.9.9.",
"9.9.9.9.9.9.9.9.9.$.#   e V b n n 1   + z b v b n 1   ; V n n M h #   y x 9.9.9.9.9.9.9.9.9.9.9.",
"9.9.9.9.9.9.9.9.9.)     & w f j 6 .   9.u V b b x =   o 6 d j d -     4 H 5 9.9.9.9.9.9.9.9.9.9.",
"9.9.9.9.9.9.9.9.,.0     9.o # O       9.p H b b j &   9.9.+ # X     9.9.U d 9.9.9.9.9.9.9.9.9.9.",
"9.9.9.9.9.9.9.9...8   9.9.9.          9.9.U b n j &   9.9.          9.9./ x < 9.9.9.9.9.9.9.9.9.",
"9.9.9.9.9.9.9.=.I w . 9.9.9.9.9.9.9.9.9.` T x b z :   9.9.9.9.9.9.9.9.9.} b q 9.9.9.9.9.9.9.9.9.",
"9.9.9.9.9.9.9.@.m f # 9.9.9.9.9.9.9.9.9.;.P c b v 5   9.9.9.9.9.9.9.9.9.' b f % 9.9.9.9.9.9.9.9.",
"9.9.9.9.9.9.9.{ b x < 9.9.9.9.9.9.9.9.9.*.B b b b d + 9.9.9.9.9.9.9.9.1.Y b z - 9.9.9.9.9.9.9.9.",
"9.9.9.9.9.9.&.Y c b f O 9.9.9.9.9.9.9.9. .b b b b b 5 9.9.9.9.9.9.9.9.&.N b v < 9.9.9.9.9.9.9.9.",
"9.9.9.9.9.9.%.D b b n r 9.9.9.9.9.9.9.<.A c v b b b N > 9.9.9.9.9.9.4.^ c b n 6 9.9.9.9.9.9.9.9.",
"9.9.9.9.9.9.X.N b b b S K 9.9.9.9.7.>.Y b b v b b b n Z a 9.9.9.9.4.[ b b b n q . 9.9.9.9.9.9.9.",
"9.9.9.9.9.9.' c b b b b S ( #.-.*.[ N x b b b b b b b N ! o.*.=.%.P c b b v n t o 9.9.9.9.9.9.9.",
"9.9.9.9.9.9.Q b b b b v b b b v b c v b b b v b b b b b c v b b b c b b b b n f $ 9.9.9.9.9.9.9.",
"9.9.9.9.9.@.Y c v b b b b b c b b b b b v b b b b v b v b b c b b v b v v b n h & 9.9.9.9.9.9.9.",
"9.9.9.9.9.+.D b b b b b v b b b v b b b b b b b b v b b v b b v b b b b b b b j = 9.9.9.9.9.9.9.",
"9.9.9.9.9.O.A c b v b b b b v b b b v b b b v b b b b b b b b b b b v b b b n z -   9.9.9.9.9.9.",
"9.9.9.9.9. .A b v b b v b b v b b b b b b b v b b b b b b v b b b b b b b v b x >   9.9.9.9.9.9.",
"9.9.9.9.9.| N b b b b b v b b b v b b v b b b b b v b b b b b b v b b v b b b v <   9.9.9.9.9.9.",
"9.9.9.9.9.{ N b b b b b b b b b b b b b b v v b b v v b b v v b b b b b b b b v 1   9.9.9.9.9.9.",
"9.9.9.9.9.[ N c v b b v b b b v b b v b b b b b b b b b b b b b b b v b b v b v 1   9.9.9.9.9.9.",
"9.9.9.9.9.[ N v b b v b b v b b b b v b b v b b b b b b v b b v b b v b b b b v <   9.9.9.9.9.9.",
"9.9.9.9.9.' b b b b b b b b b b b b b b b b b b v b b v b b b b b b b b b b b v 1   9.9.9.9.9.9.",
"9.9.9.9.9.' N b v b b b b v v b b v v b b b b v b b b b v v b v b b b b b b b v <   9.9.9.9.9.9.",
"9.9.9.9.9.E m b b b v b v n n n n b b v b v b b b b v b n n n n b b b v b b b v <   9.9.9.9.9.9.",
"9.9.9.9.9.R m b b v b v n h 6 3 t v b v b b v b v b v n z 9 2 8 j n v v b v b v >   9.9.9.9.9.9.",
"9.9.9.9.9.L B v b b b n w $     + 7 x n v b b b b b n h =       : g n v b b b z &   9.9.9.9.9.9.",
"9.9.9.9.9.y M b b b n w o         o 5 k n b v b n M f &           < x n b b n d X   9.9.9.9.9.9.",
"9.9.9.9.9.9.g v n n 8 o       9.9.9.X > t x n n z 8 #       9.9.9.. 3 h n n x >     9.9.9.9.9.9.",
"9.9.9.9.9.9.$ - > *         9.9.9.9.9.  O = > : %         9.9.9.9.9.. & : : %       9.9.9.9.9.9.",
"9.9.9.9.9.9.9.          9.9.9.9.9.9.9.9.9.              9.9.9.9.9.9.9.            9.9.9.9.9.9.9.",
"9.9.9.9.9.9.9.9.      9.9.9.9.9.9.9.9.9.9.9.        9.9.9.9.9.9.9.9.9.9.9.      9.9.9.9.9.9.9.9.",
"9.9.9.9.9.9.9.9.9.9.9.9.9.9.9.9.9.9.9.9.9.9.9.9.9.9.9.9.9.9.9.9.9.9.9.9.9.9.9.9.9.9.9.9.9.9.9.9.",
"9.9.9.9.9.9.9.9.9.9.9.9.9.9.9.9.9.9.9.9.9.9.9.9.9.9.9.9.9.9.9.9.9.9.9.9.9.9.9.9.9.9.9.9.9.9.9.9.",
"9.9.9.9.9.9.9.9.9.9.9.9.9.9.9.9.9.9.9.9.9.9.9.9.9.9.9.9.9.9.9.9.9.9.9.9.9.9.9.9.9.9.9.9.9.9.9.9.",
"9.9.9.9.9.9.9.9.9.9.9.9.9.9.9.9.9.9.9.9.9.9.9.9.9.9.9.9.9.9.9.9.9.9.9.9.9.9.9.9.9.9.9.9.9.9.9.9.",
"9.9.9.9.9.9.9.9.9.9.9.9.9.9.9.9.9.9.9.9.9.9.9.9.9.9.9.9.9.9.9.9.9.9.9.9.9.9.9.9.9.9.9.9.9.9.9.9."
};
