/* XPM */
static char *result[] = {
/* columns rows colors chars-per-pixel */
"48 48 120 2 ",
"   c #000000",
".  c #0C0600",
"X  c #0F0800",
"o  c #04070B",
"O  c #100600",
"+  c #140B00",
"@  c #1A0E00",
"#  c #251400",
"$  c #2A1700",
"%  c #2D1900",
"&  c #331B00",
"*  c #3A1F00",
"=  c #3D2100",
"-  c #1E2225",
";  c #442500",
":  c #482600",
">  c #4D2A01",
",  c #522C00",
"<  c #5B3100",
"1  c #5A360B",
"2  c #643600",
"3  c #663800",
"4  c #6A3900",
"5  c #733F00",
"6  c #764000",
"7  c #7B4300",
"8  c #854800",
"9  c #8C4D02",
"0  c #914F00",
"q  c #965100",
"w  c #9D5500",
"e  c #A25700",
"r  c #A35900",
"t  c #AA5C00",
"y  c #AE640A",
"u  c #B66200",
"i  c #BB6500",
"p  c #996322",
"a  c #C36A01",
"s  c #CA6D00",
"d  c #CC7000",
"f  c #D47300",
"g  c #DA7601",
"h  c #DE7800",
"j  c #C77310",
"k  c #C2771F",
"l  c #E37B00",
"z  c #ED7E00",
"x  c #F07F00",
"c  c #857B6F",
"v  c #EE8100",
"b  c #EB850C",
"n  c #F18200",
"m  c #F98700",
"M  c #F68806",
"N  c #FC8903",
"B  c #F18609",
"V  c #F3890C",
"C  c #FF8F0A",
"Z  c #F28C13",
"A  c #F28F1B",
"S  c #FC9317",
"D  c #F4911E",
"F  c #FA931A",
"G  c #E38E29",
"H  c #EC952C",
"J  c #F29424",
"K  c #FA9621",
"L  c #F29529",
"P  c #F3982D",
"I  c #FA9B2A",
"U  c #E29235",
"Y  c #EE9D3C",
"T  c #F49C34",
"R  c #F39E38",
"E  c #FBA035",
"W  c #B1854F",
"Q  c #C58840",
"!  c #DC9541",
"~  c #D4954A",
"^  c #EEA44C",
"/  c #F5A343",
"(  c #FBA540",
")  c #FBA845",
"_  c #F4A649",
"`  c #F4A84E",
"'  c #FBAB4D",
"]  c #EAA95D",
"[  c #F5AB54",
"{  c #F5AE5B",
"}  c #FFB151",
"|  c #F6B15F",
" . c #FEB45A",
".. c #C29868",
"X. c #C3A27A",
"o. c #FAB561",
"O. c #FFBB65",
"+. c #F6B669",
"@. c #FFBF6C",
"#. c #F7BA73",
"$. c #F7BF7C",
"%. c #FFC77F",
"&. c #979088",
"*. c #CCB9A5",
"=. c #F8C482",
"-. c #F8C58A",
";. c #F9CB95",
":. c #F9CF9D",
">. c #E7CBAA",
",. c #F9D2A1",
"<. c #FAD7AD",
"1. c #FDD9AC",
"2. c #FBD9B1",
"3. c #FBDDBB",
"4. c #FBE1C3",
"5. c #FFEBCC",
"6. c #FDEAD4",
"7. c #FDEEDD",
"8. c #FFF5D9",
"9. c None",
/* pixels */
"9.9.9.9.9.9.9.9.9.9.9.9.9.9.9.9.9.9.9.9.9.9.9.9.9.9.9.9.9.9.9.9.9.9.9.9.9.9.9.9.9.9.9.9.9.9.9.9.",
"9.9.9.9.9.9.9.9.9.9.9.9.9.9.9.9.9.9.9.9.9.9.9.9.9.9.9.9.9.9.9.9.9.9.9.9.9.9.9.9.9.9.9.9.9.9.9.9.",
"9.9.9.9.9.9.9.9.9.9.9.9.9.9.9.9.9.9.9.9.9.9.9.9.9.9.9.9.9.9.9.9.9.9.9.9.9.9.9.9.9.9.9.9.9.9.9.9.",
"9.9.9.9.9.9.9.9.9.9.9.9.9.9.9.9.9.9.9.9.9.9.9.9.9.9.9.9.9.9.9.9.9.9.9.9.9.9.9.9.9.9.9.9.9.9.9.9.",
"9.9.9.9.9.9.9.9.9.9.9.9.9.9.9.9.9.9.9.9.9.9.9.9.9.9.9.9.9.9.9.9.9.9.9.9.9.9.9.9.9.9.9.9.9.9.9.9.",
"9.9.9.9.9.9.9.9.9.9.9.9.9.9.9.9.9.9.9.6.4.<.,.,.:.:.:.9.9.9.9.9.9.9.9.9.9.9.9.9.9.9.9.9.9.9.9.9.",
"9.9.9.9.9.9.9.9.9.9.9.9.9.9.9.9.7.2.#.` P A Z Z A D T ` +.#.9.9.9.9.9.9.9.9.9.9.9.9.9.9.9.9.9.9.",
"9.9.9.9.9.9.9.9.9.9.9.9.9.9.9.<._ V v x x n z n n z x n b L ' Q 9.9.9.9.9.9.9.9.9.9.9.9.9.9.9.9.",
"9.9.9.9.9.9.9.9.9.9.9.9.9.4.| Z z n n v n n n n n n v n n n n K H 9.9.9.9.9.9.9.9.9.9.9.9.9.9.9.",
"9.9.9.9.9.9.9.9.9.9.9.9.<.P x x n n n n n v n v n n n n n v n v M F 9.9.9.9.9.9.9.9.9.9.9.9.9.9.",
"9.9.9.9.9.9.9.9.9.9.9.<.L x v v n m m v n v n n v n n n n v n n n M B 9.9.9.9.9.9.9.9.9.9.9.9.9.",
"9.9.9.9.9.9.9.9.9.9.3.T x n n m v h l n m n n n n n v n n v m m z l M d 9.9.9.9.9.9.9.9.9.9.9.9.",
"9.9.9.9.9.9.9.9.9.9.{ z n n v q = $ & 4 a v n n n n n v n n i 3 & $ , i 7 9.9.9.9.9.9.9.9.9.9.9.",
"9.9.9.9.9.9.9.9.9.;.V x n z 3           & i n n n v n n m q +         @ q 9.9.9.9.9.9.9.9.9.9.9.",
"9.9.9.9.9.9.9.9.2.` x n v 3               , l n v n n m e .             # 6 9.9.9.9.9.9.9.9.9.9.",
"9.9.9.9.9.9.9.9.-.Z n m u .     9.9.9.9.9.9.a m n n n l &     9.9.9.9.9.9.2 > 9.9.9.9.9.9.9.9.9.",
"9.9.9.9.9.9.9.9.[ n n n 6     9.9.9.9.9.9.9.7 C n n m i .     9.9.9.9.9.9.9.9 9.9.9.9.9.9.9.9.9.",
"9.9.9.9.9.9.9.;.J n n v >     9.9.9.9.9.5.9.9.I n n m w     9.9.9.9.9.8.9.9.p 9.9.9.9.9.9.9.9.9.",
"9.9.9.9.9.9.9.#.B n m h =   9.9.9.9.5.$._ ' ..^ n n m q     9.9.9.9.:.[ ) ] ~ > 9.9.9.9.9.9.9.9.",
"9.9.9.9.9.9.9.` x n n l >   9.9.9.1.{ x z n I A n n m w   9.9.9.9.-.V x z S A , 9.9.9.9.9.9.9.9.",
"9.9.9.9.9.9.=.J x v n v 5   9.9.9.} A n n n n n v v m i + 9.9.9.9.T n n n n n 4 9.9.9.9.9.9.9.9.",
"9.9.9.9.9.9.#.Z n n n n t X 9.9.9.a v m m m v v n v m g * 9.9.9.9.h m m m n m 9   9.9.9.9.9.9.9.",
"9.9.9.9.9.9.{ n n n n m l , 9.9.9.9.6 e r i z n n n n v 9 9.9.9.9.: 0 t t f m t   9.9.9.9.9.9.9.",
"9.9.9.9.9.9.` v n n v v n s 9.9.9.9.9.    1 F v v n v m l , 9.9.9.9.    O k C i + 9.9.9.9.9.9.9.",
"9.9.9.9.9.9.R n n n v n n N j 9.9.9.9.  - X.K n n n n n m b 9.9.9.9.9.o c o.M s # 9.9.9.9.9.9.9.",
"9.9.9.9.9.#.L z n v n n n v S ! 9.9.9.&.>.' v n v n n v v V E W 9.9.9.*.=.Z n f * 9.9.9.9.9.9.9.",
"9.9.9.9.9.+.D x n n n n n n v F (  .@. .K v v n n n v n n n B I ' O.O.E m x m h ; 9.9.9.9.9.9.9.",
"9.9.9.9.9.| Z n n n v n n v n n x z x z x n n n n n n n v n n n x x v n v n n l >   9.9.9.9.9.9.",
"9.9.9.9.9.{ V v v n n v n n n n n n n v n n n n n n v n n n v n v n n n n n n z <   9.9.9.9.9.9.",
"9.9.9.9.9.[ V n n n n n n v n n n n n n v n v n v n n n n n n n n n n v n v n z 2   9.9.9.9.9.9.",
"9.9.9.9.9.` b n n n n v v n n v v n n n n n n n n n v n n v v n n n n n v n n v 4   9.9.9.9.9.9.",
"9.9.9.9.9._ B x v n n n n n n n n n n v n v n n v n n n n n n n v n n v n n n v 4   9.9.9.9.9.9.",
"9.9.9.9.9.` B n n n n v n n v n v n n v n n n n n n n n n n n n n n n n v n n n 3   9.9.9.9.9.9.",
"9.9.9.9.9./ n n n v n n n n n n n n n n v n n v v n n v v n n v n v v n n n n v 3   9.9.9.9.9.9.",
"9.9.9.9.9./ n n n n n v n v n v v n n n n n v n n n n n v v n v n n n n n n n v 3   9.9.9.9.9.9.",
"9.9.9.9.9.Y B n n v n n n m m m m n v v n n n n v n n v m m m m n v n n v n n v 3   9.9.9.9.9.9.",
"9.9.9.9.9.U M n n n n n m h w 8 s n n v n n n v n n v m v y 8 t l n v v v n v v <   9.9.9.9.9.9.",
"9.9.9.9.9.G M n n n n N i &     # w v m n v n v n n m g >       2 g m v n n m l =   9.9.9.9.9.9.",
"9.9.9.9.9.y C n n m m r @         @ 7 f m n n m m m i =           3 h m n n N i .   9.9.9.9.9.9.",
"9.9.9.9.9.9.u g v l 7         9.9.9.  > w g v v f 6 +       9.9.9.  2 a v v f :     9.9.9.9.9.9.",
"9.9.9.9.9.9.@ * : $         9.9.9.9.9.  X % : = +         9.9.9.9.9.  # ; ; @       9.9.9.9.9.9.",
"9.9.9.9.9.9.9.            9.9.9.9.9.9.9.                9.9.9.9.9.9.9.            9.9.9.9.9.9.9.",
"9.9.9.9.9.9.9.9.      9.9.9.9.9.9.9.9.9.9.9.        9.9.9.9.9.9.9.9.9.9.9.      9.9.9.9.9.9.9.9.",
"9.9.9.9.9.9.9.9.9.9.9.9.9.9.9.9.9.9.9.9.9.9.9.9.9.9.9.9.9.9.9.9.9.9.9.9.9.9.9.9.9.9.9.9.9.9.9.9.",
"9.9.9.9.9.9.9.9.9.9.9.9.9.9.9.9.9.9.9.9.9.9.9.9.9.9.9.9.9.9.9.9.9.9.9.9.9.9.9.9.9.9.9.9.9.9.9.9.",
"9.9.9.9.9.9.9.9.9.9.9.9.9.9.9.9.9.9.9.9.9.9.9.9.9.9.9.9.9.9.9.9.9.9.9.9.9.9.9.9.9.9.9.9.9.9.9.9.",
"9.9.9.9.9.9.9.9.9.9.9.9.9.9.9.9.9.9.9.9.9.9.9.9.9.9.9.9.9.9.9.9.9.9.9.9.9.9.9.9.9.9.9.9.9.9.9.9.",
"9.9.9.9.9.9.9.9.9.9.9.9.9.9.9.9.9.9.9.9.9.9.9.9.9.9.9.9.9.9.9.9.9.9.9.9.9.9.9.9.9.9.9.9.9.9.9.9."
};
