/* XPM */
static char *result[] = {
/* columns rows colors chars-per-pixel */
"48 48 121 2 ",
"   c #000000",
".  c #0B0500",
"X  c #0F0800",
"o  c #140600",
"O  c #140A00",
"+  c #1A0E00",
"@  c #1E1100",
"#  c #241300",
"$  c #2A1700",
"%  c #331C00",
"&  c #391F00",
"*  c #452600",
"=  c #482700",
"-  c #4D2A00",
";  c #532D00",
":  c #582E00",
">  c #5C3200",
",  c #633600",
"<  c #6A3900",
"1  c #713E00",
"2  c #723F08",
"3  c #7D4300",
"4  c #7F4909",
"5  c #594124",
"6  c #55422B",
"7  c #71675D",
"8  c #854800",
"9  c #8C4C00",
"0  c #914E00",
"q  c #965100",
"w  c #9E5500",
"e  c #A45900",
"r  c #AC5D00",
"t  c #B15F00",
"y  c #B36100",
"u  c #BA6501",
"i  c #BF6800",
"p  c #A66417",
"a  c #9E6520",
"s  c #A2733B",
"d  c #C46A00",
"f  c #CC6E00",
"g  c #CD7002",
"h  c #C3710F",
"j  c #D67400",
"k  c #DA7600",
"l  c #DE7800",
"z  c #E47B00",
"x  c #EB7E00",
"c  c #E17D09",
"v  c #F07F00",
"b  c #AB7F4A",
"n  c #D8821B",
"m  c #EE8100",
"M  c #F18200",
"N  c #F98600",
"B  c #F68807",
"V  c #FB8800",
"C  c #F18609",
"Z  c #F4890B",
"A  c #F98B09",
"S  c #F18C14",
"D  c #F28F1A",
"F  c #FF9314",
"G  c #F2901C",
"H  c #FA941A",
"J  c #E3902D",
"K  c #F39423",
"L  c #F89521",
"P  c #FE9B24",
"I  c #F39629",
"U  c #F3982D",
"Y  c #FB9E2C",
"T  c #E49130",
"R  c #EE9933",
"E  c #E39438",
"W  c #EF9E3D",
"Q  c #F39B34",
"!  c #F49E39",
"~  c #FCA134",
"^  c #F4A13E",
"/  c #FAA139",
"(  c #B08249",
")  c #E29A44",
"_  c #E5A04C",
"`  c #F4A343",
"'  c #F5A64A",
"]  c #F5A94F",
"[  c #FCAD4C",
"{  c #E4A151",
"}  c #F5AC55",
"|  c #F9AD53",
" . c #F6AF5C",
".. c #F6B261",
"X. c #F6B568",
"o. c #F6B86D",
"O. c #FFBC68",
"+. c #F7BA72",
"@. c #FFC377",
"#. c #B29E84",
"$. c #D7B183",
"%. c #E5BF93",
"&. c #F7C385",
"*. c #FFCE86",
"=. c #F3C489",
"-. c #F8C68D",
";. c #FFCC8A",
":. c #F9CB94",
">. c #FACF9C",
",. c #FFD499",
"<. c #FAD1A2",
"1. c #FAD6AA",
"2. c #FADBB6",
"3. c #FBDEB9",
"4. c #FCE0B9",
"5. c #FBE1C0",
"6. c #FCE5C9",
"7. c #FCE7D1",
"8. c #FDF1E3",
"9. c #FFFCE6",
"0. c None",
/* pixels */
"0.0.0.0.0.0.0.0.0.0.0.0.0.0.0.0.0.0.0.0.0.0.0.0.0.0.0.0.0.0.0.0.0.0.0.0.0.0.0.0.0.0.0.0.0.0.0.0.",
"0.0.0.0.0.0.0.0.0.0.0.0.0.0.0.0.0.0.0.0.0.0.0.0.0.0.0.0.0.0.0.0.0.0.0.0.0.0.0.0.0.0.0.0.0.0.0.0.",
"0.0.0.0.0.0.0.0.0.0.0.0.0.0.0.0.0.0.0.0.0.0.0.0.0.0.0.0.0.0.0.0.0.0.0.0.0.0.0.0.0.0.0.0.0.0.0.0.",
"0.0.0.0.0.0.0.0.0.0.0.0.0.0.0.0.0.0.0.0.0.0.0.0.0.0.0.0.0.0.0.0.0.0.0.0.0.0.0.0.0.0.0.0.0.0.0.0.",
"0.0.0.0.0.0.0.0.0.0.0.0.0.0.0.0.0.0.0.0.0.0.0.0.0.0.0.0.0.0.0.0.0.0.0.0.0.0.0.0.0.0.0.0.0.0.0.0.",
"0.0.0.0.0.0.0.0.0.0.0.0.0.0.0.0.0.0.0.0.6.2.1.<.<.<.<.0.0.0.0.0.0.0.0.0.0.0.0.0.0.0.0.0.0.0.0.0.",
"0.0.0.0.0.0.0.0.0.0.0.0.0.0.0.0.7.<.+.] Q K D D G I Q ] ..o.0.0.0.0.0.0.0.0.0.0.0.0.0.0.0.0.0.0.",
"0.0.0.0.0.0.0.0.0.0.0.0.0.0.8.:.Q M v v v v M v v v v M M D ^ ) 0.0.0.0.0.0.0.0.0.0.0.0.0.0.0.0.",
"0.0.0.0.0.0.0.0.0.0.0.0.0.6. .m v m M m M M m M M m M m M v m H ~ 0.0.0.0.0.0.0.0.0.0.0.0.0.0.0.",
"0.0.0.0.0.0.0.0.0.0.0.0.3.! v M M M M M m M M M M M M M M M M m A G 0.0.0.0.0.0.0.0.0.0.0.0.0.0.",
"0.0.0.0.0.0.0.0.0.0.0.2.Q v m M M M M M M M M M M M M M M M M M m A m 0.0.0.0.0.0.0.0.0.0.0.0.0.",
"0.0.0.0.0.0.0.0.0.0.4.` v M M M m M M m M M m M M m M m m M M m m m A u 0.0.0.0.0.0.0.0.0.0.0.0.",
"0.0.0.0.0.0.0.0.0.0...v M M M M M M M M M M M M M M M M M m M M m M M M 1 0.0.0.0.0.0.0.0.0.0.0.",
"0.0.0.0.0.0.0.0.0.-.C x M N V N N M M M M m m M m M m m N N V V N M M N k 0.0.0.0.0.0.0.0.0.0.0.",
"0.0.0.0.0.0.0.0.2.' x N M d 0 0 y z M M M M m M M M m N j e 9 w f m M M M 8 0.0.0.0.0.0.0.0.0.0.",
"0.0.0.0.0.0.0.0.:.D N j , X     X ; d M M M M M M M N w @       @ 0 m M N d 0.0.0.0.0.0.0.0.0.0.",
"0.0.0.0.0.0.0.0. .M l *             - j N x M M m N r .           @ y N M z > 0.0.0.0.0.0.0.0.0.",
"0.0.0.0.0.0.0.:.U N 3         0.0.0.  0 M M M M N k $       0.0.0.  ; c N M q 0.0.0.0.0.0.0.0.0.",
"0.0.0.0.0.0.0.+.B j #     0.0.0.0.0.0.& m C M M N 9     0.0.0.0.0.0.0.d N N d # 0.0.0.0.0.0.0.0.",
"0.0.0.0.0.0.0.' V r     0.0.0.0.0.0.0.0.h A M M x *     0.0.0.0.0.0.0.8 F M z = 0.0.0.0.0.0.0.0.",
"0.0.0.0.0.0.&.I N w     0.0.0.0.0.0.0.0.a F m N k %   0.0.0.0.0.0.0.0.0.P M m < 0.0.0.0.0.0.0.0.",
"0.0.0.0.0.0.+.S N 0   0.0.0.0.0.0.0.0.0.0.P x N j %   0.0.0.0.0.0.0.0.0./ m N 9 0.0.0.0.0.0.0.0.",
"0.0.0.0.0.0...C N e   0.0.0.0.0.0.0.0.0.0.Y M N l =   0.0.0.0.0.0.0.0.0.[ M N e . 0.0.0.0.0.0.0.",
"0.0.0.0.0.0.' M N d + 0.0.9.>...[ 0.0.0.*.K m M m <   0.0.3.+. .~ 0.0.0.' x N u O 0.0.0.0.0.0.0.",
"0.0.0.0.0.0.! M N z - 0.0.@.C v B f 0.0.;.S v M M y . 0.,.K v M B 1 0.$./ v N d # 0.0.0.0.0.0.0.",
"0.0.0.0.0.+.I v M M i 0.( H x M N y o 7 O.M M M M m < 6 ~ v M M x ; 0.=.Z M N j % 0.0.0.0.0.0.0.",
"0.0.0.0.0.X.D M M M N p ( H m M m t 5 %.K v m M M M m s Q M M M z 2 #.[ x M N l * 0.0.0.0.0.0.0.",
"0.0.0.0.0...S x m M M L ) K M M m c { / v M M M m M C W R M M M x J | C M M M z -   0.0.0.0.0.0.",
"0.0.0.0.0. .S M M m M M Z m M M M C Z M M M M M m M M C C M M M M B m M M m M z >   0.0.0.0.0.0.",
"0.0.0.0.0.} Z v M M M M M M M m M M M M M m m M M M M M x M M M M m M M M m N x ,   0.0.0.0.0.0.",
"0.0.0.0.0.} C m m M M m M m M M M M M M M M M M M M m M m M M m M M M M M M M m <   0.0.0.0.0.0.",
"0.0.0.0.0.` C M M M M M M M M M M x M M M M m M M m M M M M M M M M m M M m M m <   0.0.0.0.0.0.",
"0.0.0.0.0.] m M m M m M M m M M M M M M M M M M m M m M M M m M m M M m M M M m <   0.0.0.0.0.0.",
"0.0.0.0.0.` C M M M M M M M M M m M m M M m M M M M M M M M M M M M M M M M M m <   0.0.0.0.0.0.",
"0.0.0.0.0.` C M M M M M M M m M M M M M M m M m m M M m M m m M m m M M M M M m ,   0.0.0.0.0.0.",
"0.0.0.0.0.! C m m M M N V V M M M m M m M N V V N M M M M M M M V V N M M M M M <   0.0.0.0.0.0.",
"0.0.0.0.0.E B M M M m y 0 r z M M M M M M f q w k m M M M M N l e q g M M M M m ,   0.0.0.0.0.0.",
"0.0.0.0.0.T B m M m ,       1 z M m M N t +     - j M M m N g %     $ d M M M z *   0.0.0.0.0.0.",
"0.0.0.0.0.n A M V e         X t N M N j $         9 m M N z =         , z N N j +   0.0.0.0.0.0.",
"0.0.0.0.0.3 M N f $     0.0.0.= j N l -       0.0.@ t m m 3       0.0.0.q z V 9     0.0.0.0.0.0.",
"0.0.0.0.0.0.; ; +     0.0.0.0.0.* ; $       0.0.0.0.$ ; &       0.0.0.0.O ; - O     0.0.0.0.0.0.",
"0.0.0.0.0.0.0.        0.0.0.0.0.0.        0.0.0.0.0.0.        0.0.0.0.0.0.        0.0.0.0.0.0.0.",
"0.0.0.0.0.0.0.0.    0.0.0.0.0.0.0.0.    0.0.0.0.0.0.0.0.    0.0.0.0.0.0.0.0.    0.0.0.0.0.0.0.0.",
"0.0.0.0.0.0.0.0.0.0.0.0.0.0.0.0.0.0.0.0.0.0.0.0.0.0.0.0.0.0.0.0.0.0.0.0.0.0.0.0.0.0.0.0.0.0.0.0.",
"0.0.0.0.0.0.0.0.0.0.0.0.0.0.0.0.0.0.0.0.0.0.0.0.0.0.0.0.0.0.0.0.0.0.0.0.0.0.0.0.0.0.0.0.0.0.0.0.",
"0.0.0.0.0.0.0.0.0.0.0.0.0.0.0.0.0.0.0.0.0.0.0.0.0.0.0.0.0.0.0.0.0.0.0.0.0.0.0.0.0.0.0.0.0.0.0.0.",
"0.0.0.0.0.0.0.0.0.0.0.0.0.0.0.0.0.0.0.0.0.0.0.0.0.0.0.0.0.0.0.0.0.0.0.0.0.0.0.0.0.0.0.0.0.0.0.0.",
"0.0.0.0.0.0.0.0.0.0.0.0.0.0.0.0.0.0.0.0.0.0.0.0.0.0.0.0.0.0.0.0.0.0.0.0.0.0.0.0.0.0.0.0.0.0.0.0."
};
