/* XPM */
static char *result[] = {
/* columns rows colors chars-per-pixel */
"48 48 126 2 ",
"   c #000000",
".  c #0B0600",
"X  c #160600",
"o  c #130A00",
"O  c #1B0F00",
"+  c #1F1000",
"@  c #231300",
"#  c #291600",
"$  c #2C1800",
"%  c #341C00",
"&  c #391F00",
"*  c #3D2100",
"=  c #452500",
"-  c #4E2A00",
";  c #542C00",
":  c #5B3100",
">  c #643600",
",  c #6B3900",
"<  c #723D00",
"1  c #764000",
"2  c #7C4300",
"3  c #724009",
"4  c #7E480A",
"5  c #5A4125",
"6  c #55422B",
"7  c #756B60",
"8  c #834700",
"9  c #864900",
"0  c #8C4C00",
"q  c #904E00",
"w  c #965100",
"e  c #9A5300",
"r  c #A25700",
"t  c #A55A00",
"y  c #AC5D00",
"u  c #B35E00",
"i  c #B26101",
"p  c #BB6601",
"a  c #BE6D0A",
"s  c #A96719",
"d  c #9F6421",
"f  c #A3743B",
"g  c #C36A00",
"h  c #CB6E00",
"j  c #C3710F",
"k  c #D37200",
"l  c #DA7600",
"z  c #DE7800",
"x  c #E47B00",
"c  c #EB7E00",
"v  c #E27D09",
"b  c #F07E00",
"n  c #E78005",
"m  c #EE8100",
"M  c #F18200",
"N  c #F98600",
"B  c #F68806",
"V  c #FB8902",
"C  c #F08609",
"Z  c #F3890C",
"A  c #F98C0B",
"S  c #EC8B18",
"D  c #F18B13",
"F  c #F28F1B",
"G  c #FF9314",
"H  c #F2911E",
"J  c #FA941C",
"K  c #E18C25",
"L  c #E4902D",
"P  c #F49322",
"I  c #F89521",
"U  c #FE9B24",
"Y  c #F39629",
"T  c #FC9C2A",
"R  c #E19234",
"E  c #EE9832",
"W  c #EE9D3C",
"Q  c #F39C33",
"!  c #F89D32",
"~  c #F29D3A",
"^  c #FFA337",
"/  c #F4A13F",
"(  c #FAA239",
")  c #AF814C",
"_  c #BFA17F",
"`  c #DE9846",
"'  c #E8A04B",
"]  c #F4A242",
"[  c #F8A542",
"{  c #F4A64A",
"}  c #F8A749",
"|  c #F5A94E",
" . c #FCAC4C",
".. c #E5A151",
"X. c #F5AB54",
"o. c #F9AD53",
"O. c #F5AF5B",
"+. c #F6B15F",
"@. c #FFB55B",
"#. c #F6B263",
"$. c #F6B66C",
"%. c #F6B96E",
"&. c #FFBC68",
"*. c #F7BA73",
"=. c #B39E84",
"-. c #E5BD8E",
";. c #F8C386",
":. c #FFC983",
">. c #F7C68A",
",. c #F8C68D",
"<. c #F7C88F",
"1. c #FCC98B",
"2. c #FFD08A",
"3. c #E6C093",
"4. c #F9CA93",
"5. c #F9CE9B",
"6. c #FAD2A2",
"7. c #FBDBB5",
"8. c #FBDEBC",
"9. c #FCE6CE",
"0. c #FDE8CF",
"q. c #FCEAD4",
"w. c #FFEFD8",
"e. c #FFF4D7",
"r. c #FDF3E5",
"t. c None",
/* pixels */
"t.t.t.t.t.t.t.t.t.t.t.t.t.t.t.t.t.t.t.t.t.t.t.t.t.t.t.t.t.t.t.t.t.t.t.t.t.t.t.t.t.t.t.t.t.t.t.t.",
"t.t.t.t.t.t.t.t.t.t.t.t.t.t.t.t.t.t.t.t.t.t.t.t.t.t.t.t.t.t.t.t.t.t.t.t.t.t.t.t.t.t.t.t.t.t.t.t.",
"t.t.t.t.t.t.t.t.t.t.t.t.t.t.t.t.t.t.t.t.t.t.t.t.t.t.t.t.t.t.t.t.t.t.t.t.t.t.t.t.t.t.t.t.t.t.t.t.",
"t.t.t.t.t.t.t.t.t.t.t.t.t.t.t.t.t.t.t.t.t.t.t.t.t.t.t.t.t.t.t.t.t.t.t.t.t.t.t.t.t.t.t.t.t.t.t.t.",
"t.t.t.t.t.t.t.t.t.t.t.t.t.t.t.t.t.t.t.t.t.t.t.t.t.t.t.t.t.t.t.t.t.t.t.t.t.t.t.t.t.t.t.t.t.t.t.t.",
"t.t.t.t.t.t.t.t.t.t.t.t.t.t.t.t.t.t.t.0.7.6.4.,.4.4.5.t.t.t.t.t.t.t.t.t.t.t.t.t.t.t.t.t.t.t.t.t.",
"t.t.t.t.t.t.t.t.t.t.t.t.t.t.t.t.q.5.#.~ H D C C C D Y ] #.%.t.t.t.t.t.t.t.t.t.t.t.t.t.t.t.t.t.t.",
"t.t.t.t.t.t.t.t.t.t.t.t.t.t.r.5.~ C b b M b M b b M b b M H [ ` t.t.t.t.t.t.t.t.t.t.t.t.t.t.t.t.",
"t.t.t.t.t.t.t.t.t.t.t.t.t.0.#.Z M m m M m M m M M m M M M M m I ( t.t.t.t.t.t.t.t.t.t.t.t.t.t.t.",
"t.t.t.t.t.t.t.t.t.t.t.t.8.] b M M M M M M M M M M M m M m M M M A S t.t.t.t.t.t.t.t.t.t.t.t.t.t.",
"t.t.t.t.t.t.t.t.t.t.t.8.~ b M M M m m M M M M m M M M M M M m M m A v t.t.t.t.t.t.t.t.t.t.t.t.t.",
"t.t.t.t.t.t.t.t.t.t.7.Q b M m M M M M M M m M M m M m M m m M M M m V h t.t.t.t.t.t.t.t.t.t.t.t.",
"t.t.t.t.t.t.t.t.t.t.X.b M M M M M M M m M m M m M m M m M m M m m M M V 9 t.t.t.t.t.t.t.t.t.t.t.",
"t.t.t.t.t.t.t.t.t.<.C b M N V V N M M M M M M M M M M M N N V N N M M M l t.t.t.t.t.t.t.t.t.t.t.",
"t.t.t.t.t.t.t.t.t.| b M m g e 0 i x N m M m m M M m M N k r 0 e h m M M M 9 t.t.t.t.t.t.t.t.t.t.",
"t.t.t.t.t.t.t.t.4.D N l : .     . ; g M M M M M M M N e @       + q m M N g t.t.t.t.t.t.t.t.t.t.",
"t.t.t.t.t.t.t.t.O.N z =             - l M m M M M N t .           O i M N x : t.t.t.t.t.t.t.t.t.",
"t.t.t.t.t.t.t.<.P M >       t.t.t.t.  1 N M M m N h O       t.t.t.t.* x M M r t.t.t.t.t.t.t.t.t.",
"t.t.t.t.t.t.t.%.B h o     t.t.t.t.t.t.t.c M m M N 2     t.t.t.t.t.t.t.p V M h # t.t.t.t.t.t.t.t.",
"t.t.t.t.t.t.t.{ N y     t.t.t.t.t.t.t.t.j A M M x =     t.t.t.t.t.t.t.4 G N x - t.t.t.t.t.t.t.t.",
"t.t.t.t.t.t.;.Y N w     t.t.t.t.t.t.t.t.d G M N l %   t.t.t.t.t.t.t.t.t.U M m , t.t.t.t.t.t.t.t.",
"t.t.t.t.t.t.*.D N w   t.t.t.t.t.t.t.t.t.t.T M M k %   t.t.t.t.t.t.t.t.t.( M N 9 t.t.t.t.t.t.t.t.",
"t.t.t.t.t.t.#.m N t . t.t.t.t.t.t.t.t.t.t.T M N z =   t.t.t.t.t.t.t.t.t. .m N t   t.t.t.t.t.t.t.",
"t.t.t.t.t.t.{ m N h @ t.t.e.*.] ( a t.t.2.P m M m 2   t.w.4.{ ] T t.t.t.} M N p O t.t.t.t.t.t.t.",
"t.t.t.t.t.t.Q M N x : t._ @.b b N h t.t.1.Z M M N p . t.:.Z c b B < t.-.! b N h # t.t.t.t.t.t.t.",
"t.t.t.t.t.%.Y b M M g t.) J b M M i X 7 &.M m M M m , 6 ^ M c N c ; t.>.Z b M l * t.t.t.t.t.t.t.",
"t.t.t.t.t.$.P c m M N s ) J M M M u 5 -.I M M m m M n f Q M M N x < =. .M M N z * t.t.t.t.t.t.t.",
"t.t.t.t.t.#.D b M M m I ' H M M m v ..( m m M m M m B ~ E M M c c L o.C m M M x -   t.t.t.t.t.t.",
"t.t.t.t.t.O.Z M M M M M Z m M m M C Z M M M m M M m M C m M M M M Z M M M M M x :   t.t.t.t.t.t.",
"t.t.t.t.t.X.Z M m M m M M M M M M m M M M m M M M M M M M m M m M M m M M M M m >   t.t.t.t.t.t.",
"t.t.t.t.t.{ C c M M M m M m M M M m M M M M M M m M m M m M M M m M m M M M M m ,   t.t.t.t.t.t.",
"t.t.t.t.t.{ C M m M M M M M m M M M M M M m M m M M M M M M M m M M M M M m M m ,   t.t.t.t.t.t.",
"t.t.t.t.t.{ C M M M M m M m M M m M M M M M m M M M M m M m M m M M M M M M M m ,   t.t.t.t.t.t.",
"t.t.t.t.t.{ C b M M M m M M m M M M M m M m M M m M M M M M M M M m M m m M M m ,   t.t.t.t.t.t.",
"t.t.t.t.t.] M M m M m M m m M M M m M m M M M M M m M m M M M M m M M M M M M m >   t.t.t.t.t.t.",
"t.t.t.t.t.W C M M M M M M N N N N M m m M m M m M M M M M N N V N M M m M M M m ,   t.t.t.t.t.t.",
"t.t.t.t.t.R B M M M m M N k 8 < p m M m M M M M M m m N x w , 0 k M m m M M M m :   t.t.t.t.t.t.",
"t.t.t.t.t.K Z M M M M N y @     O 0 x N M M m m M M V h *       ; k N M M m M x %   t.t.t.t.t.t.",
"t.t.t.t.t.i A M M N N t o         o 2 l N M m M N V h %           > x M M m V p .   t.t.t.t.t.t.",
"t.t.t.t.t.t.h c N m w o       t.t.t.. : i m N N x w +       t.t.t.. 1 k N N n :     t.t.t.t.t.t.",
"t.t.t.t.t.t.# - : =         t.t.t.t.t.  O = > ; $         t.t.t.t.t.  * : : $       t.t.t.t.t.t.",
"t.t.t.t.t.t.t.            t.t.t.t.t.t.t.t.              t.t.t.t.t.t.t.            t.t.t.t.t.t.t.",
"t.t.t.t.t.t.t.t.      t.t.t.t.t.t.t.t.t.t.t.        t.t.t.t.t.t.t.t.t.t.t.      t.t.t.t.t.t.t.t.",
"t.t.t.t.t.t.t.t.t.t.t.t.t.t.t.t.t.t.t.t.t.t.t.t.t.t.t.t.t.t.t.t.t.t.t.t.t.t.t.t.t.t.t.t.t.t.t.t.",
"t.t.t.t.t.t.t.t.t.t.t.t.t.t.t.t.t.t.t.t.t.t.t.t.t.t.t.t.t.t.t.t.t.t.t.t.t.t.t.t.t.t.t.t.t.t.t.t.",
"t.t.t.t.t.t.t.t.t.t.t.t.t.t.t.t.t.t.t.t.t.t.t.t.t.t.t.t.t.t.t.t.t.t.t.t.t.t.t.t.t.t.t.t.t.t.t.t.",
"t.t.t.t.t.t.t.t.t.t.t.t.t.t.t.t.t.t.t.t.t.t.t.t.t.t.t.t.t.t.t.t.t.t.t.t.t.t.t.t.t.t.t.t.t.t.t.t.",
"t.t.t.t.t.t.t.t.t.t.t.t.t.t.t.t.t.t.t.t.t.t.t.t.t.t.t.t.t.t.t.t.t.t.t.t.t.t.t.t.t.t.t.t.t.t.t.t."
};
