/* XPM */
static char *result[] = {
/* columns rows colors chars-per-pixel */
"48 48 123 2 ",
"   c #000000",
".  c #0B0600",
"X  c #0E0800",
"o  c #02060A",
"O  c #140B00",
"+  c #1B0F00",
"@  c #241400",
"#  c #2A1700",
"$  c #2D1800",
"%  c #331C00",
"&  c #3D2100",
"*  c #1C2023",
"=  c #422400",
"-  c #492700",
";  c #4D2A00",
":  c #4A2F0F",
">  c #532C00",
",  c #582F00",
"<  c #5B3100",
"1  c #643600",
"2  c #6C3A00",
"3  c #733E00",
"4  c #774100",
"5  c #7B4300",
"6  c #824601",
"7  c #864800",
"8  c #8B4C02",
"9  c #924F00",
"0  c #965100",
"q  c #9B5400",
"w  c #A05700",
"e  c #A45900",
"r  c #A95C00",
"t  c #B46200",
"y  c #BC6600",
"u  c #BF6800",
"i  c #996321",
"p  c #C66C00",
"a  c #C96D00",
"s  c #CF7100",
"d  c #D57300",
"f  c #D97600",
"g  c #DE7800",
"h  c #C67310",
"j  c #C2771E",
"k  c #E47B00",
"l  c #EC7F00",
"z  c #F07F00",
"x  c #867C70",
"c  c #DD851E",
"v  c #EE8100",
"b  c #EB850C",
"n  c #F18200",
"m  c #F98700",
"M  c #F58807",
"N  c #FB8902",
"B  c #F1870A",
"V  c #F3890B",
"C  c #FC8D0A",
"Z  c #E78612",
"A  c #E78919",
"S  c #F28B13",
"D  c #F98F11",
"F  c #F28F1B",
"G  c #F79015",
"H  c #FC9317",
"J  c #F3911D",
"K  c #F49423",
"L  c #F99723",
"P  c #FA9A27",
"I  c #F3972A",
"U  c #FE9E2E",
"Y  c #E49331",
"T  c #E19438",
"R  c #EE9D3D",
"E  c #F39B32",
"W  c #F39E38",
"Q  c #FBA137",
"!  c #F4A03D",
"~  c #AF834D",
"^  c #B28B5E",
"/  c #DB9543",
"(  c #D4954B",
")  c #ECA34D",
"_  c #F5A444",
"`  c #F9A643",
"'  c #FDAA47",
"]  c #F4A64A",
"[  c #F4A84E",
"{  c #FCAB4B",
"}  c #E9AA5F",
"|  c #F5AB54",
" . c #FBAF53",
".. c #F5AE59",
"X. c #F6B05E",
"o. c #FBB058",
"O. c #C3A47F",
"+. c #F6B363",
"@. c #FAB460",
"#. c #FFB962",
"$. c #F6B66B",
"%. c #F7B96F",
"&. c #FFBD6E",
"*. c #F7BA72",
"=. c #FFC170",
"-. c #FFC57B",
";. c #948C83",
":. c #CBB9A4",
">. c #F9C487",
",. c #FAC588",
"<. c #F9CA93",
"1. c #F9CD9A",
"2. c #E5CBAA",
"3. c #FBD4A6",
"4. c #FAD5AA",
"5. c #FCDCB7",
"6. c #FBDEBB",
"7. c #FFE9BE",
"8. c #FCE2C4",
"9. c #FDEBD4",
"0. c #FFF3D7",
"q. c #FDF4E9",
"w. c None",
/* pixels */
"w.w.w.w.w.w.w.w.w.w.w.w.w.w.w.w.w.w.w.w.w.w.w.w.w.w.w.w.w.w.w.w.w.w.w.w.w.w.w.w.w.w.w.w.w.w.w.w.",
"w.w.w.w.w.w.w.w.w.w.w.w.w.w.w.w.w.w.w.w.w.w.w.w.w.w.w.w.w.w.w.w.w.w.w.w.w.w.w.w.w.w.w.w.w.w.w.w.",
"w.w.w.w.w.w.w.w.w.w.w.w.w.w.w.w.w.w.w.w.w.w.w.w.w.w.w.w.w.w.w.w.w.w.w.w.w.w.w.w.w.w.w.w.w.w.w.w.",
"w.w.w.w.w.w.w.w.w.w.w.w.w.w.w.w.w.w.w.w.w.w.w.w.w.w.w.w.w.w.w.w.w.w.w.w.w.w.w.w.w.w.w.w.w.w.w.w.",
"w.w.w.w.w.w.w.w.w.w.w.w.w.w.w.w.w.w.w.w.w.w.w.w.w.w.w.w.w.w.w.w.w.w.w.w.w.w.w.w.w.w.w.w.w.w.w.w.",
"w.w.w.w.w.w.w.w.w.w.w.w.w.w.w.w.w.w.w.9.6.4.1.<.<.1.1.w.w.w.w.w.w.w.w.w.w.w.w.w.w.w.w.w.w.w.w.w.",
"w.w.w.w.w.w.w.w.w.w.w.w.w.w.w.w.9.3.$.W K S V B S F I _ +.*.w.w.w.w.w.w.w.w.w.w.w.w.w.w.w.w.w.w.",
"w.w.w.w.w.w.w.w.w.w.w.w.w.w.q.3._ B l z z z v n n z z n b K ` / w.w.w.w.w.w.w.w.w.w.w.w.w.w.w.w.",
"w.w.w.w.w.w.w.w.w.w.w.w.w.9.%.S z n n n v n v n n n n n n z n L E w.w.w.w.w.w.w.w.w.w.w.w.w.w.w.",
"w.w.w.w.w.w.w.w.w.w.w.w.8.] z n n n n n n n n n v n n v v n n n D A w.w.w.w.w.w.w.w.w.w.w.w.w.w.",
"w.w.w.w.w.w.w.w.w.w.w.4.I z n n n m n n n n n n n v n n v n v n n C b w.w.w.w.w.w.w.w.w.w.w.w.w.",
"w.w.w.w.w.w.w.w.w.w.5.E z n n m v g k n m n v n n n n n n v m m k k N s w.w.w.w.w.w.w.w.w.w.w.w.",
"w.w.w.w.w.w.w.w.w.w...z z m v 0 & # % 2 p v n v v n n v n m y 1 % # , y 5 w.w.w.w.w.w.w.w.w.w.w.",
"w.w.w.w.w.w.w.w.w.<.B l m k 1           % y m v n n n n m 0 O         + 0 w.w.w.w.w.w.w.w.w.w.w.",
"w.w.w.w.w.w.w.w.w.| z n n 5               < v n n n v m t X             % 5 w.w.w.w.w.w.w.w.w.w.",
"w.w.w.w.w.w.w.w.1.F n m p O     w.w.w.w.w.O s m v n n v -       w.w.w.w.w.2 w.w.w.w.w.w.w.w.w.w.",
"w.w.w.w.w.w.w.w.| z v m 5     w.w.w.w.w.w.w.6 C n n m p       w.w.w.w.w.w.w.8 w.w.w.w.w.w.w.w.w.",
"w.w.w.w.w.w.w.,.K n n v -     w.w.w.w.w.7.w.w.L n n m w     w.w.w.w.w.0.w.w.i w.w.w.w.w.w.w.w.w.",
"w.w.w.w.w.w.w.*.b n m g &   w.w.w.w.8.%._ { ^ ) n n m 0     w.w.w.w.1.| ' } ( ; w.w.w.w.w.w.w.w.",
"w.w.w.w.w.w.w.| n n n k ;   w.w.w.3._ n l B ` E n n m q   w.w.w.w.,.V l l G J > w.w.w.w.w.w.w.w.",
"w.w.w.w.w.w.>.I z n n l 2   w.w.w. .V z n n n n v v m t . w.w.w.w.! z m n n l 1 w.w.w.w.w.w.w.w.",
"w.w.w.w.w.w.*.S z n v m q . w.w.w.Z M m m m n n n v m d $ w.w.w.w.b m m m n m 7 w.w.w.w.w.w.w.w.",
"w.w.w.w.w.w.+.n n n v n g ; w.w.w.w.7 r q r k n n n n v 7 w.w.w.w.> 0 r r d m r . w.w.w.w.w.w.w.",
"w.w.w.w.w.w.] n n n n n m a w.w.w.w.      : L n n v n n l > w.w.w.w.    O j C y O w.w.w.w.w.w.w.",
"w.w.w.w.w.w.W n n v n n v N h w.w.w.w.  * O.P n n n n n m b w.w.w.w.w.o x @.M a @ w.w.w.w.w.w.w.",
"w.w.w.w.w.*.I z n n n n v n H / w.w.w.;.2. .l n v n v n v V Q ~ w.w.w.:.-.S m d % w.w.w.w.w.w.w.",
"w.w.w.w.w.$.K l v n n v n n v G ' &.-.#.L n n v n n v n n z B U o.-.=.Q n n m g = w.w.w.w.w.w.w.",
"w.w.w.w.w.+.S z n n n n n n n n z n z z z n n n n n n n v n n n n n z n n v n k ;   w.w.w.w.w.w.",
"w.w.w.w.w...S n n n v n n v n v n n n n v n n v n n n n n n v n n v n v n n n k <   w.w.w.w.w.w.",
"w.w.w.w.w.| B v n v n n n n n n v n n v n n n n n n v n n n n n n n n n n n n l 1   w.w.w.w.w.w.",
"w.w.w.w.w.[ B n n n n n n n n n n n n n n n n n v n v n n v v n v n n v n n m v 2   w.w.w.w.w.w.",
"w.w.w.w.w._ B z n n v n n v n v n n v n v n n v n n n n n n n n n n n n n n n v 1   w.w.w.w.w.w.",
"w.w.w.w.w.] B v n n n n v n n v n n v n n v n n n n n n n n n n n n n n n v n v 1   w.w.w.w.w.w.",
"w.w.w.w.w._ n n n n n v n n n n n n n n n n v n n v v n n v v n v n n v n n n n 1   w.w.w.w.w.w.",
"w.w.w.w.w._ B n v n n n v v n n n v n n n v v n n n n n n n n n n v n n v n n v 2   w.w.w.w.w.w.",
"w.w.w.w.w.R B n n n n m m m m v n n v n n m m m m n v n n n v n m m m n n n n v 1   w.w.w.w.w.w.",
"w.w.w.w.w.T M v n n v r 4 q k v n n n v m a 5 8 d n v n v n m g 9 5 a n n n n v 1   w.w.w.w.w.w.",
"w.w.w.w.w.Y M n n n 3     . 5 l n v n m y @     < g m n v m d =     & a n n m k -   w.w.w.w.w.w.",
"w.w.w.w.w.c M n N r         O y m n m f %       . 0 v n m v <         2 v m m f @   w.w.w.w.w.w.",
"w.w.w.w.w.8 N m g %       w.w.> g m l 1       w.w.@ y n n 7       w.w.X w l m q     w.w.w.w.w.w.",
"w.w.w.w.w.w.> ; @     w.w.w.w.w.= > %       w.w.w.w.# > &       w.w.w.w.O ; ; O     w.w.w.w.w.w.",
"w.w.w.w.w.w.w.        w.w.w.w.w.w.        w.w.w.w.w.w.        w.w.w.w.w.w.        w.w.w.w.w.w.w.",
"w.w.w.w.w.w.w.w.    w.w.w.w.w.w.w.w.    w.w.w.w.w.w.w.w.    w.w.w.w.w.w.w.w.    w.w.w.w.w.w.w.w.",
"w.w.w.w.w.w.w.w.w.w.w.w.w.w.w.w.w.w.w.w.w.w.w.w.w.w.w.w.w.w.w.w.w.w.w.w.w.w.w.w.w.w.w.w.w.w.w.w.",
"w.w.w.w.w.w.w.w.w.w.w.w.w.w.w.w.w.w.w.w.w.w.w.w.w.w.w.w.w.w.w.w.w.w.w.w.w.w.w.w.w.w.w.w.w.w.w.w.",
"w.w.w.w.w.w.w.w.w.w.w.w.w.w.w.w.w.w.w.w.w.w.w.w.w.w.w.w.w.w.w.w.w.w.w.w.w.w.w.w.w.w.w.w.w.w.w.w.",
"w.w.w.w.w.w.w.w.w.w.w.w.w.w.w.w.w.w.w.w.w.w.w.w.w.w.w.w.w.w.w.w.w.w.w.w.w.w.w.w.w.w.w.w.w.w.w.w.",
"w.w.w.w.w.w.w.w.w.w.w.w.w.w.w.w.w.w.w.w.w.w.w.w.w.w.w.w.w.w.w.w.w.w.w.w.w.w.w.w.w.w.w.w.w.w.w.w."
};
