/* XPM */
static char *result[] = {
/* columns rows colors chars-per-pixel */
"48 48 119 2 ",
"   c #000000",
".  c #0B0500",
"X  c #0E0800",
"o  c #120A00",
"O  c #190D00",
"+  c #1E1100",
"@  c #230E00",
"#  c #241300",
"$  c #2A1700",
"%  c #2E1900",
"&  c #331B00",
"*  c #3D2100",
"=  c #452600",
"-  c #4D2900",
";  c #492B08",
":  c #532D00",
">  c #5B3100",
",  c #4A3216",
"<  c #653600",
"1  c #6B3A00",
"2  c #723E00",
"3  c #764000",
"4  c #7B4300",
"5  c #78460A",
"6  c #824600",
"7  c #864800",
"8  c #894A00",
"9  c #924D00",
"0  c #945000",
"q  c #9B5400",
"w  c #8B5517",
"e  c #9E5E11",
"r  c #A05700",
"t  c #A45900",
"y  c #AB5C00",
"u  c #A15F10",
"i  c #B46201",
"p  c #BC6601",
"a  c #BF7011",
"s  c #936025",
"d  c #9A6220",
"f  c #B0742E",
"g  c #C46A00",
"h  c #CA6D00",
"j  c #CF7000",
"k  c #D47300",
"l  c #DB7600",
"z  c #DE7800",
"x  c #E57C01",
"c  c #EB7E00",
"v  c #F07F00",
"b  c #D9811A",
"n  c #EE8100",
"m  c #F18200",
"M  c #F98600",
"N  c #F58807",
"B  c #FC8800",
"V  c #F18709",
"C  c #F3890D",
"Z  c #FB8D0A",
"A  c #FD900F",
"S  c #E48311",
"D  c #F28C14",
"F  c #F28F1C",
"G  c #FE9413",
"H  c #F4921D",
"J  c #FC951B",
"K  c #FF981F",
"L  c #CC8430",
"P  c #E38A23",
"I  c #EE9123",
"U  c #F29222",
"Y  c #FF9D26",
"T  c #F29629",
"R  c #F3982D",
"E  c #FB9C2C",
"W  c #E49231",
"Q  c #E49639",
"!  c #F39C34",
"~  c #FA9E31",
"^  c #FFA132",
"/  c #F4A03D",
"(  c #FDA43A",
")  c #A9804C",
"_  c #BC8442",
"`  c #E99F48",
"'  c #F5A443",
"]  c #FFA840",
"[  c #F4A64A",
"{  c #F4A84E",
"}  c #FDAC4D",
"|  c #F5AC55",
" . c #FDAF52",
".. c #F5AE5A",
"X. c #FFB55D",
"o. c #F6B161",
"O. c #F6B66A",
"+. c #F6B96F",
"@. c #EDB979",
"#. c #F7BB73",
"$. c #F7C283",
"%. c #F8C384",
"&. c #FFCF8A",
"*. c #F9CB95",
"=. c #F9CD99",
"-. c #FFD092",
";. c #FCD29E",
":. c #FACFA0",
">. c #FAD2A4",
",. c #FAD5A8",
"<. c #FFD8AB",
"1. c #FBDAB3",
"2. c #FDDFBB",
"3. c #FBE2C4",
"4. c #FBE6CD",
"5. c #FCE9D2",
"6. c #FCEBD8",
"7. c #FDF2E5",
"8. c None",
/* pixels */
"8.8.8.8.8.8.8.8.8.8.8.8.8.8.8.8.8.8.8.8.8.8.8.8.8.8.8.8.8.8.8.8.8.8.8.8.8.8.8.8.8.8.8.8.8.8.8.8.",
"8.8.8.8.8.8.8.8.8.8.8.8.8.8.8.8.8.8.8.8.8.8.8.8.8.8.8.8.8.8.8.8.8.8.8.8.8.8.8.8.8.8.8.8.8.8.8.8.",
"8.8.8.8.8.8.8.8.8.8.8.8.8.8.8.8.8.8.8.8.8.8.8.8.8.8.8.8.8.8.8.8.8.8.8.8.8.8.8.8.8.8.8.8.8.8.8.8.",
"8.8.8.8.8.8.8.8.8.8.8.8.8.8.8.8.8.8.8.8.8.8.8.8.8.8.8.8.8.8.8.8.8.8.8.8.8.8.8.8.8.8.8.8.8.8.8.8.",
"8.8.8.8.8.8.8.8.8.8.8.8.8.8.8.8.8.8.8.8.3.1.,.>.:.=.>.8.8.8.8.8.8.8.8.8.8.8.8.8.8.8.8.8.8.8.8.8.",
"8.8.8.8.8.8.8.8.8.8.8.8.8.8.8.8.5.=.o.! U D V D D D T ! ..+.8.8.8.8.8.8.8.8.8.8.8.8.8.8.8.8.8.8.",
"8.8.8.8.8.8.8.8.8.8.8.8.8.8.7.=.! m v c v v v m v v v v m F ' ` 8.8.8.8.8.8.8.8.8.8.8.8.8.8.8.8.",
"8.8.8.8.8.8.8.8.8.8.8.8.8.4.o.V v m m m m m m m m m m m m m m H ~ 8.8.8.8.8.8.8.8.8.8.8.8.8.8.8.",
"8.8.8.8.8.8.8.8.8.8.8.8.2.! v m n m m m m m n m m n m m m n m n Z F 8.8.8.8.8.8.8.8.8.8.8.8.8.8.",
"8.8.8.8.8.8.8.8.8.8.8.<.P c m m m l k n m m m m m m c k x m m m x x x 8.8.8.8.8.8.8.8.8.8.8.8.8.",
"8.8.8.8.8.8.8.8.8.8.<.w 9 D n m m y > h m m m m m M q > S N m m x 2 p p 8.8.8.8.8.8.8.8.8.8.8.8.",
"8.8.8.8.8.8.8.8.8.8.s   f K m m B y . 1 M m m m M g . , ^ m m m n : % N 7 8.8.8.8.8.8.8.8.8.8.8.",
"8.8.8.8.8.8.8.8.8.@.@   u Z m M M 2   # x N m m M 3   ; Z M M B k #   p n 8.8.8.8.8.8.8.8.8.8.8.",
"8.8.8.8.8.8.8.8.8._     & y k l 8 .   8.a Z m m c =   X 9 g z g -     5 J 8 8.8.8.8.8.8.8.8.8.8.",
"8.8.8.8.8.8.8.8.-.u     8.O # +       8.d J n M l %   8.8.# # X     8.8.Y g 8.8.8.8.8.8.8.8.8.8.",
"8.8.8.8.8.8.8.8.X.9   8.8.8.          8.8.Y n M k &   8.8.          8.8.( x > 8.8.8.8.8.8.8.8.8.",
"8.8.8.8.8.8.8.*.E t . 8.8.8.8.    8.8.8.) E v m x =   8.8.8.8.    8.8.8.} M q 8.8.8.8.8.8.8.8.8.",
"8.8.8.8.8.8.8.#.N h # 8.8.8.8.8.8.8.8.8.&.H m m n 6   8.8.8.8.8.8.8.8.8.' m h % 8.8.8.8.8.8.8.8.",
"8.8.8.8.8.8.8.[ m c < 8.8.8.8.8.8.8.8.8.$.C v m m g + 8.8.8.8.8.8.8.8.>.R m x = 8.8.8.8.8.8.8.8.",
"8.8.8.8.8.8.%.T v m g + 8.8.8.8.8.8.8.8...c m m m m 6 8.8.8.8.8.8.8.8.%.V m m 1 8.8.8.8.8.8.8.8.",
"8.8.8.8.8.8.#.D m m M i 8.8.8.8.8.8.8.>.D m n m m m V > 8.8.8.8.8.8.3./ m n M 8 8.8.8.8.8.8.8.8.",
"8.8.8.8.8.8.o.V m m m G L 8.8.8.8.8.1.! v m m m m n M U 8.8.8.8.8.6...m n n M r   8.8.8.8.8.8.8.",
"8.8.8.8.8.8.{ m m m m m J  .$.>.>.#.U c m m n m m m n C ( #.=.,.=.[ m m m m B p o 8.8.8.8.8.8.8.",
"8.8.8.8.8.8.! v n v m m n m V C V v m m m m m m n m m m m V V V m v m n m m m j # 8.8.8.8.8.8.8.",
"8.8.8.8.8.+.T v m m m m m m n m m m n m m m n m m m n m m n m m m n m m n m M k & 8.8.8.8.8.8.8.",
"8.8.8.8.8.O.H m n m m n n m m m n m m m m m m m m m m m m m m m m m m m m m m z = 8.8.8.8.8.8.8.",
"8.8.8.8.8.o.D c m m m m m m m m m m m m n m m m n m m m n m n m n m m n m m M x -   8.8.8.8.8.8.",
"8.8.8.8.8...D m m n m m m m n m m m n m m m n m m m n m m m m m m m m m n m m x >   8.8.8.8.8.8.",
"8.8.8.8.8.| C n n m m n n m m n n m m n m m n m m m m m m n m m m n m m m m m c <   8.8.8.8.8.8.",
"8.8.8.8.8.{ V m m m m m m m m m m m m m m m m m m m n m m m m m m m m m m m m n <   8.8.8.8.8.8.",
"8.8.8.8.8.[ m m m m m m m m m m m m m m m n n m m n n m m n n m n m m n m m m n 1   8.8.8.8.8.8.",
"8.8.8.8.8.{ n m m n m m n m m n m m n m m m m m m m m m m m m m m m m m m m m n <   8.8.8.8.8.8.",
"8.8.8.8.8.' n m n m m m m m m m m m m m m m m m m m m m m m m m m n m m m m m n 1   8.8.8.8.8.8.",
"8.8.8.8.8.' V m m m m m m n n m m n n m m n n m m n n m n m m n m m m m m m m n <   8.8.8.8.8.8.",
"8.8.8.8.8./ V v m n m M B M M n m m m m m M B M M m m m m m n M B B M n m m m n <   8.8.8.8.8.8.",
"8.8.8.8.8.Q N m n M c q 1 0 z m m m m m M p 2 6 j m m m n n M k 7 2 g m m m m c <   8.8.8.8.8.8.",
"8.8.8.8.8.W V m m n <       3 x m m m M i O     : k m m m M k &     & g m m M x =   8.8.8.8.8.8.",
"8.8.8.8.8.b Z m B r         X i M n M k $         8 n M M c -         < c m M k #   8.8.8.8.8.8.",
"8.8.8.8.8.6 m M k %     8.8.8.- l M x :       8.8.# i c n 3       8.8.8.q x B 0     8.8.8.8.8.8.",
"8.8.8.8.8.8.> > +     8.8.8.8.8.= > %       8.8.8.8.# > *       8.8.8.8.O : : o     8.8.8.8.8.8.",
"8.8.8.8.8.8.8.        8.8.8.8.8.8.        8.8.8.8.8.8.        8.8.8.8.8.8.        8.8.8.8.8.8.8.",
"8.8.8.8.8.8.8.8.    8.8.8.8.8.8.8.8.    8.8.8.8.8.8.8.8.    8.8.8.8.8.8.8.8.8.  8.8.8.8.8.8.8.8.",
"8.8.8.8.8.8.8.8.8.8.8.8.8.8.8.8.8.8.8.8.8.8.8.8.8.8.8.8.8.8.8.8.8.8.8.8.8.8.8.8.8.8.8.8.8.8.8.8.",
"8.8.8.8.8.8.8.8.8.8.8.8.8.8.8.8.8.8.8.8.8.8.8.8.8.8.8.8.8.8.8.8.8.8.8.8.8.8.8.8.8.8.8.8.8.8.8.8.",
"8.8.8.8.8.8.8.8.8.8.8.8.8.8.8.8.8.8.8.8.8.8.8.8.8.8.8.8.8.8.8.8.8.8.8.8.8.8.8.8.8.8.8.8.8.8.8.8.",
"8.8.8.8.8.8.8.8.8.8.8.8.8.8.8.8.8.8.8.8.8.8.8.8.8.8.8.8.8.8.8.8.8.8.8.8.8.8.8.8.8.8.8.8.8.8.8.8.",
"8.8.8.8.8.8.8.8.8.8.8.8.8.8.8.8.8.8.8.8.8.8.8.8.8.8.8.8.8.8.8.8.8.8.8.8.8.8.8.8.8.8.8.8.8.8.8.8.",
"8.8.8.8.8.8.8.8.8.8.8.8.8.8.8.8.8.8.8.8.8.8.8.8.8.8.8.8.8.8.8.8.8.8.8.8.8.8.8.8.8.8.8.8.8.8.8.8."
};
