/* XPM */
static char *result[] = {
/* columns rows colors chars-per-pixel */
"48 48 126 2 ",
"   c #000000",
".  c #090500",
"X  c #0E0800",
"o  c #130A00",
"O  c #1B0F00",
"+  c #1F1100",
"@  c #251400",
"#  c #2B1700",
"$  c #331C00",
"%  c #381E00",
"&  c #301F0A",
"*  c #3D2100",
"=  c #452500",
"-  c #4C2900",
";  c #542E00",
":  c #5C3200",
">  c #643600",
",  c #673800",
"<  c #6B3A00",
"1  c #713D00",
"2  c #764000",
"3  c #794100",
"4  c #584B3B",
"5  c #69553C",
"6  c #414141",
"7  c #554C40",
"8  c #66655F",
"9  c #814600",
"0  c #8B4C00",
"q  c #894F0B",
"w  c #924F00",
"e  c #955100",
"r  c #9D5602",
"t  c #885213",
"y  c #A15700",
"u  c #A45A00",
"i  c #A95C00",
"p  c #B15F00",
"a  c #AD6006",
"s  c #A8610F",
"d  c #B46200",
"f  c #B96400",
"g  c #A96C24",
"h  c #B47834",
"j  c #C56A01",
"k  c #CC6E00",
"l  c #C56F09",
"z  c #CF7000",
"x  c #D47300",
"c  c #DB7600",
"v  c #DE7900",
"b  c #C17316",
"n  c #E47C00",
"m  c #EC7E00",
"M  c #F07E00",
"N  c #956F42",
"B  c #9E7C55",
"V  c #AF7F44",
"C  c #B7803D",
"Z  c #EE8101",
"A  c #ED8408",
"S  c #F18200",
"D  c #F98700",
"F  c #F58807",
"G  c #FD8A02",
"H  c #F18608",
"J  c #F3890C",
"K  c #FC8E0C",
"L  c #F28B13",
"P  c #F28F1B",
"I  c #F79117",
"U  c #FC9113",
"Y  c #F2911E",
"T  c #FB941A",
"R  c #DA8928",
"E  c #E28C27",
"W  c #F29425",
"Q  c #FE9820",
"!  c #F29629",
"~  c #F5992C",
"^  c #FA9D2E",
"/  c #E39436",
"(  c #ED9834",
")  c #F49B33",
"_  c #FA9F32",
"`  c #F29E3B",
"'  c #FEA336",
"]  c #F3A03E",
"[  c #BD8441",
"{  c #8D8577",
"}  c #D08F41",
"|  c #DC9D52",
" . c #E79E4C",
".. c #F4A343",
"X. c #FAA745",
"o. c #FFAC46",
"O. c #F5A64A",
"+. c #F5A94D",
"@. c #F5AB53",
"#. c #F5AE59",
"$. c #FFB354",
"%. c #F6B05D",
"&. c #FFB558",
"*. c #F7B364",
"=. c #F7B76C",
"-. c #F8B76A",
";. c #FBBA6C",
":. c #F7BA72",
">. c #F7BF7D",
",. c #B9AA99",
"<. c #C6A986",
"1. c #D6AE80",
"2. c #F8C282",
"3. c #FFD18E",
"4. c #FBD19F",
"5. c #FBD3A3",
"6. c #FFD9A7",
"7. c #FBDAB2",
"8. c #FFE0B2",
"9. c #F7E0BE",
"0. c #FFE3BA",
"q. c #FBE2C4",
"w. c #FFE9C3",
"e. c #FDEAD5",
"r. c #FBEFDF",
"t. c None",
/* pixels */
"t.t.t.t.t.t.t.t.t.t.t.t.t.t.t.t.t.t.t.t.t.t.t.t.t.t.t.t.t.t.t.t.t.t.t.t.t.t.t.t.t.t.t.t.t.t.t.t.",
"t.t.t.t.t.t.t.t.t.t.t.t.t.t.t.t.t.t.t.t.t.t.t.t.t.t.t.t.t.t.t.t.t.t.t.t.t.t.t.t.t.t.t.t.t.t.t.t.",
"t.t.t.t.t.t.t.t.t.t.t.t.t.t.t.t.t.t.t.t.t.t.t.t.t.t.t.t.t.t.t.t.t.t.t.t.t.t.t.t.t.t.t.t.t.t.t.t.",
"t.t.t.t.t.t.t.t.t.t.t.t.t.t.t.t.t.t.t.t.t.t.t.t.t.t.t.t.t.t.t.t.t.t.t.t.t.t.t.t.t.t.t.t.t.t.t.t.",
"t.t.t.t.t.t.t.t.t.t.t.t.t.t.t.t.t.t.t.t.t.t.t.t.t.t.t.t.t.t.t.t.t.t.t.t.t.t.t.t.t.t.t.t.t.t.t.t.",
"t.t.t.t.t.t.t.t.t.t.t.t.t.t.t.t.t.t.t.e.q.7.5.4.4.5.4.t.t.t.t.t.t.t.t.t.t.t.t.t.t.t.t.t.t.t.t.t.",
"t.t.t.t.t.t.t.t.t.t.t.t.t.t.t.t.r.7.>.+.) W L L P W ` @.;.:.t.t.t.t.t.t.t.t.t.t.t.t.t.t.t.t.t.t.",
"t.t.t.t.t.t.t.t.t.t.t.t.t.t.t.5.O.L S M M M M M M m M M J ! O.} t.t.t.t.t.t.t.t.t.t.t.t.t.t.t.t.",
"t.t.t.t.t.t.t.t.t.t.t.t.t.q.@.H m S S Z S S S S S S S Z S S Z I _ t.t.t.t.t.t.t.t.t.t.t.t.t.t.t.",
"t.t.t.t.t.t.t.t.t.t.t.t.7.) M M S S S S S S Z S S S S S S S S S F I t.t.t.t.t.t.t.t.t.t.t.t.t.t.",
"t.t.t.t.t.t.t.t.t.t.t.7.~ S S S S S S S Z S S S S S S S S S S S S F A t.t.t.t.t.t.t.t.t.t.t.t.t.",
"t.t.t.t.t.t.t.t.t.t.0.) n m S S S S S Z S S S S S S D m m S S S Z Z G j t.t.t.t.t.t.t.t.t.t.t.t.",
"t.t.t.t.t.t.t.t.t.t.h = # = 3 x S S S S S S S S S f > $ % > d Z S Z S G 2 t.t.t.t.t.t.t.t.t.t.t.",
"t.t.t.t.t.t.t.t.t.[           - c S S Z S S S Z 9 X         @ e Z S S S x t.t.t.t.t.t.t.t.t.t.t.",
"t.t.t.t.t.t.t.t. .t.      t.    1 Z S S S S S 0           t.  o f S S S S w t.t.t.t.t.t.t.t.t.t.",
"t.t.t.t.t.t.t.t.t t.  t.t.t.t.t.o x S S S S c @     t.t.t.t.t.t., G S S S k # t.t.t.t.t.t.t.t.t.",
"t.t.t.t.t.t.t.t.t.t.t.t.t.t.t.t.t.r K S S D r     t.t.t.t.t.t.t.t.A H Z S m > t.t.t.t.t.t.t.t.t.",
"t.t.t.t.t.t.t.| t.8 t.t.t.t.t.t.t.t.T S S S 0   6 { t.t.t.t.t.t.t.b K S S S r t.t.t.t.t.t.t.t.t.",
"t.t.t.t.t.t.t.1.<.3.&.o.s t.t.t.t.t.^ S S M j B 5.;.$.R t.t.t.t.t.g K S S S k @ t.t.t.t.t.t.t.t.",
"t.t.t.t.t.t.t.-.^ H M S x t.t.t.t.t.X.S S S J _ L M S S : t.t.t.t.h U M S S v - t.t.t.t.t.t.t.t.",
"t.t.t.t.t.t.2.W M S S D i o t.t.t.t.+.S S S S S S S S v * t.t.t.t.=.J S S S S < t.t.t.t.t.t.t.t.",
"t.t.t.t.t.t.:.L S D G m ;   t.t.t.t.` M S S S S S G G u     t.t.t.;.A S S S D 0   t.t.t.t.t.t.t.",
"t.t.t.t.t.t.#.H k p i ;     t.t.t.5.Y S S S S c f d e +     t.t.t.%.m S S S D i   t.t.t.t.t.t.t.",
"t.t.t.t.t.t.O.S i o         t.t.t.;.S S S S S x %         t.t.t.w.~ M S S S D f o t.t.t.t.t.t.t.",
"t.t.t.t.t.t.` S H q       t.t.t.8.P M Z S S S S l &       t.t.r.-.m S Z S S D k @ t.t.t.t.t.t.t.",
"t.t.t.t.t.:.! M S T [ 5 7 t.,.5.! M S S Z S S S K ( N 4 t.t.9.-.J S S S S S S x % t.t.t.t.t.t.t.",
"t.t.t.t.t.*.P S Z S U ' $.$.' H M S S S S S S Z Z F T o.$.o.L Z S Z Z S Z S S n = t.t.t.t.t.t.t.",
"t.t.t.t.t.*.L M S S S M M M M S S S S Z S S S S Z S S S M M S S S S S S S S S n -   t.t.t.t.t.t.",
"t.t.t.t.t.#.L S S S S S Z S S Z S S S S S S S S S S Z S S S S S S S S S S S S n :   t.t.t.t.t.t.",
"t.t.t.t.t.@.J S S Z Z S S S S S Z S S Z Z S S Z Z S S S S Z Z S S Z Z S S S S Z >   t.t.t.t.t.t.",
"t.t.t.t.t.+.J m S S S S S S S S S S S S S S S S S S S S S S S S S S S S S S S S ,   t.t.t.t.t.t.",
"t.t.t.t.t.O.H M S S Z S Z S S Z S S Z S Z S S Z S S Z S S Z S S S S Z S S S S Z ,   t.t.t.t.t.t.",
"t.t.t.t.t.O.H S S S S S S S S S S S S S S S S S S S S S S S S S S S S S S S S Z ,   t.t.t.t.t.t.",
"t.t.t.t.t...A S Z S Z S S Z Z S S S S S S Z S Z Z S S Z S Z Z S S Z Z S S S S Z ,   t.t.t.t.t.t.",
"t.t.t.t.t...H M S S Z S S S S S S S S S S Z S S S S S S S S Z S S S S S S S S Z ,   t.t.t.t.t.t.",
"t.t.t.t.t.` S S S S S S S S D D S S S S S S S S Z S S Z S D G D S Z S S S S S S ,   t.t.t.t.t.t.",
"t.t.t.t.t./ F Z S S S S D n y w k S S S S S S S S S Z D Z d 0 i n S S S S S S Z :   t.t.t.t.t.t.",
"t.t.t.t.t.E K S S S S S p %     # e m S S S S S S S D z ;     . : x D S S S S n %   t.t.t.t.t.t.",
"t.t.t.t.t.a G S S G D e .         X < x S S S S S G f @           ; v S S S G d .   t.t.t.t.t.t.",
"t.t.t.t.t.t.f v S n 3 .       t.t.t.  - u n S Z c 9 o       t.t.t.. , j Z S c -     t.t.t.t.t.t.",
"t.t.t.t.t.t.O * - $         t.t.t.t.t.  o $ - = O         t.t.t.t.t.  # = = O       t.t.t.t.t.t.",
"t.t.t.t.t.t.t.            t.t.t.t.t.t.t.                t.t.t.t.t.t.t.            t.t.t.t.t.t.t.",
"t.t.t.t.t.t.t.t.      t.t.t.t.t.t.t.t.t.t.t.        t.t.t.t.t.t.t.t.t.t.t.      t.t.t.t.t.t.t.t.",
"t.t.t.t.t.t.t.t.t.t.t.t.t.t.t.t.t.t.t.t.t.t.t.t.t.t.t.t.t.t.t.t.t.t.t.t.t.t.t.t.t.t.t.t.t.t.t.t.",
"t.t.t.t.t.t.t.t.t.t.t.t.t.t.t.t.t.t.t.t.t.t.t.t.t.t.t.t.t.t.t.t.t.t.t.t.t.t.t.t.t.t.t.t.t.t.t.t.",
"t.t.t.t.t.t.t.t.t.t.t.t.t.t.t.t.t.t.t.t.t.t.t.t.t.t.t.t.t.t.t.t.t.t.t.t.t.t.t.t.t.t.t.t.t.t.t.t.",
"t.t.t.t.t.t.t.t.t.t.t.t.t.t.t.t.t.t.t.t.t.t.t.t.t.t.t.t.t.t.t.t.t.t.t.t.t.t.t.t.t.t.t.t.t.t.t.t.",
"t.t.t.t.t.t.t.t.t.t.t.t.t.t.t.t.t.t.t.t.t.t.t.t.t.t.t.t.t.t.t.t.t.t.t.t.t.t.t.t.t.t.t.t.t.t.t.t."
};
