/* XPM */
static char *result[] = {
/* columns rows colors chars-per-pixel */
"48 48 132 2 ",
"   c #000000",
".  c #0B0600",
"X  c #0E0800",
"o  c #130A00",
"O  c #1A0E00",
"+  c #1D1000",
"@  c #241400",
"#  c #2D1800",
"$  c #2F1E09",
"%  c #341C00",
"&  c #391E00",
"*  c #3E2200",
"=  c #432400",
"-  c #492500",
";  c #4D2A00",
":  c #542D00",
">  c #5C3200",
",  c #643600",
"<  c #6B3900",
"1  c #703D00",
"2  c #754000",
"3  c #7A4200",
"4  c #564B3E",
"5  c #3F4040",
"6  c #695741",
"7  c #66625F",
"8  c #814600",
"9  c #864900",
"0  c #8B4B00",
"q  c #874D0A",
"w  c #934F00",
"e  c #955100",
"r  c #9C5501",
"t  c #8F5715",
"y  c #A55900",
"u  c #AC5D00",
"i  c #A65F0D",
"p  c #B56200",
"a  c #BC6500",
"s  c #AB6E26",
"d  c #AE7839",
"f  c #B47833",
"g  c #C56A01",
"h  c #CC6E00",
"j  c #C36E09",
"k  c #D37200",
"l  c #DB7600",
"z  c #DE7800",
"x  c #C27316",
"c  c #E47B00",
"v  c #EB7E00",
"b  c #F07F00",
"n  c #957247",
"m  c #9C7B55",
"M  c #DD861E",
"N  c #ED8101",
"B  c #F18200",
"V  c #F98700",
"C  c #F58807",
"Z  c #FB8A03",
"A  c #F08608",
"S  c #F2890C",
"D  c #FB8D0B",
"F  c #EF8C16",
"G  c #F28B13",
"H  c #FB8F10",
"J  c #FD9315",
"K  c #F2911E",
"L  c #FF9619",
"P  c #ED932B",
"I  c #F39526",
"U  c #FB9722",
"Y  c #FB9822",
"T  c #F3972A",
"R  c #F3992E",
"E  c #FA9C2C",
"W  c #E49331",
"Q  c #ED9731",
"!  c #E29539",
"~  c #ED9B3A",
"^  c #F59C33",
"/  c #FA9D31",
"(  c #F49F3A",
")  c #FDA236",
"_  c #F1A03E",
"`  c #B88548",
"'  c #BD8849",
"]  c #8B8274",
"[  c #D79344",
"{  c #DC9C51",
"}  c #F4A343",
"|  c #FCA743",
" . c #FCAC47",
".. c #F4A649",
"X. c #F5A94E",
"o. c #F8AA4D",
"O. c #F5AB54",
"+. c #F5AF5B",
"@. c #FFB354",
"#. c #F6B05D",
"$. c #FFB65E",
"%. c #D6AD7E",
"&. c #ECAD62",
"*. c #F6B365",
"=. c #FFBB67",
"-. c #F7B66A",
";. c #FBBA6D",
":. c #F7BA74",
">. c #FABB72",
",. c #FFC06F",
"<. c #FFC277",
"1. c #B5ADA4",
"2. c #C4A886",
"3. c #FCC784",
"4. c #FFC882",
"5. c #F9CD9A",
"6. c #FFD190",
"7. c #FED49F",
"8. c #FDD5A4",
"9. c #FAD6AB",
"0. c #FCD8AE",
"q. c #FDDCB3",
"w. c #FBDFBF",
"e. c #FFE0B2",
"r. c #FFE1B8",
"t. c #FFE9C3",
"y. c #F7E5CB",
"u. c #FDEAD4",
"i. c #F7EEDD",
"p. c #FEEDDB",
"a. c #FDF3E9",
"s. c None",
/* pixels */
"s.s.s.s.s.s.s.s.s.s.s.s.s.s.s.s.s.s.s.s.s.s.s.s.s.s.s.s.s.s.s.s.s.s.s.s.s.s.s.s.s.s.s.s.s.s.s.s.",
"s.s.s.s.s.s.s.s.s.s.s.s.s.s.s.s.s.s.s.s.s.s.s.s.s.s.s.s.s.s.s.s.s.s.s.s.s.s.s.s.s.s.s.s.s.s.s.s.",
"s.s.s.s.s.s.s.s.s.s.s.s.s.s.s.s.s.s.s.s.s.s.s.s.s.s.s.s.s.s.s.s.s.s.s.s.s.s.s.s.s.s.s.s.s.s.s.s.",
"s.s.s.s.s.s.s.s.s.s.s.s.s.s.s.s.s.s.s.s.s.s.s.s.s.s.s.s.s.s.s.s.s.s.s.s.s.s.s.s.s.s.s.s.s.s.s.s.",
"s.s.s.s.s.s.s.s.s.s.s.s.s.s.s.s.s.s.s.s.s.s.s.s.s.s.s.s.s.s.s.s.s.s.s.s.s.s.s.s.s.s.s.s.s.s.s.s.",
"s.s.s.s.s.s.s.s.s.s.s.s.s.s.s.s.s.s.s.u.w.9.5.5.5.5.5.s.s.s.s.s.s.s.s.s.s.s.s.s.s.s.s.s.s.s.s.s.",
"s.s.s.s.s.s.s.s.s.s.s.s.s.s.s.s.p.9.:.} I G G G G K R ..*.:.s.s.s.s.s.s.s.s.s.s.s.s.s.s.s.s.s.s.",
"s.s.s.s.s.s.s.s.s.s.s.s.s.s.a.9.} S b v b B b B B b b v A I  .[ s.s.s.s.s.s.s.s.s.s.s.s.s.s.s.s.",
"s.s.s.s.s.s.s.s.s.s.s.s.s.p.:.G b B B B B B B B N B B B B B A U Q s.s.s.s.s.s.s.s.s.s.s.s.s.s.s.",
"s.s.s.s.s.s.s.s.s.s.s.s.q.( N b B N B B B B B B B B B B B N B N D G s.s.s.s.s.s.s.s.s.s.s.s.s.s.",
"s.s.s.s.s.s.s.s.s.s.s.0.Y b B B B B B N B B B B B B B B B B B B B C A s.s.s.s.s.s.s.s.s.s.s.s.s.",
"s.s.s.s.s.s.s.s.s.s.r.^ c N B B B N B B B N B B B B V v v B V B B B C h s.s.s.s.s.s.s.s.s.s.s.s.",
"s.s.s.s.s.s.s.s.s.s.f - % * 3 k V N B N B B N B B a , % % , p N B B B V 3 s.s.s.s.s.s.s.s.s.s.s.",
"s.s.s.s.s.s.s.s.s.`           : l B B B B B B B 0 X         @ r B B B B k s.s.s.s.s.s.s.s.s.s.s.",
"s.s.s.s.s.s.s.s.s.%             0 N B B B B V y .             # h B B B N 3 s.s.s.s.s.s.s.s.s.s.",
"s.s.s.s.s.s.s.s.t s.  s.s.s.s.s.O l B B B B l #     s.s.s.s.s.s.< V B B B h @ s.s.s.s.s.s.s.s.s.",
"s.s.s.s.s.s.s.s.s.s.s.s.s.s.s.s.s.r D B B V r     s.s.s.s.s.s.s.s.A B B B v , s.s.s.s.s.s.s.s.s.",
"s.s.s.s.s.s.s.{ s.7 s.s.s.s.s.s.s.s.L B v V 0   5 ] s.s.s.s.s.s.s.x C B B B r s.s.s.s.s.s.s.s.s.",
"s.s.s.s.s.s.s.2.2.6.@. .i s.s.s.s.s.E B B B g m 8.=.@.P s.s.s.s.s.s D b B B h @ s.s.s.s.s.s.s.s.",
"s.s.s.s.s.s.s.-./ A b B k s.s.s.s.s.| B B B G / G b B N > s.s.s.s.d J B B B c - s.s.s.s.s.s.s.s.",
"s.s.s.s.s.s.3.^ b B B V p O s.s.s.s.o.N B B B B B B B z = s.s.s.s.&.G B B B N , s.s.s.s.s.s.s.s.",
"s.s.s.s.s.s.:.G B V V B ,   s.s.s.s.} b B B N B B Z Z u X   s.s.s.>.B B B B B 0 s.s.s.s.s.s.s.s.",
"s.s.s.s.s.s.+.N h p u :     s.s.s.7.K B N B B z a p e @     s.s.s.+.B B B B V y . s.s.s.s.s.s.s.",
"s.s.s.s.s.s.X.V y o         s.s.s.>.B B B B B k &         s.s.s.t.R b B B B V a o s.s.s.s.s.s.s.",
"s.s.s.s.s.s.( V A q       s.s.s.e.K b B B B B B j $       s.s.i.-.B B B B B V h @ s.s.s.s.s.s.s.",
"s.s.s.s.s.>.I b B U ' 6 s.s.1.r.T b B B B N B B H ~ n 4 s.s.y.>.A B N B N B B k % s.s.s.s.s.s.s.",
"s.s.s.s.s.-.I b N B U @.<.4.$.G b B B N B N B B N S ) =.4.,.R B N B B N B B B z * s.s.s.s.s.s.s.",
"s.s.s.s.s.*.G b B B b B B b v b B N B B B B N B B B B b B b b B B B B B B B B v ;   s.s.s.s.s.s.",
"s.s.s.s.s.+.S B B B B B B B B B B N B B B B N B B B B B B B B B B N B B B B N v >   s.s.s.s.s.s.",
"s.s.s.s.s.O.S B B N B N B N B B B B B B B B B B B B N B B N N B B B B B B B B v ,   s.s.s.s.s.s.",
"s.s.s.s.s.X.A v B B B B B B B N N B B N B N B N N B N B B B B B N B B N N B B N <   s.s.s.s.s.s.",
"s.s.s.s.s...A B B B N B B N B B B B B B B B B B B B B B B N B B B B B B B B B N <   s.s.s.s.s.s.",
"s.s.s.s.s...A B B B B N B B N B N B B B N B B B B B N B B B N B B B B B B B B N <   s.s.s.s.s.s.",
"s.s.s.s.s...B B B N B B B B B B B B B B B B B B B B B B B B B B N B B N B B B N ,   s.s.s.s.s.s.",
"s.s.s.s.s.} N B B N B B B B B N B B B B B B B B B B B B B B B B N N B B B B B B <   s.s.s.s.s.s.",
"s.s.s.s.s._ A B B B B V V V B B B B B B N B Z V B B B N B B B B V V V B B B B N ,   s.s.s.s.s.s.",
"s.s.s.s.s.! C B B B N u 8 y c B B B B B B h 9 e l B B B B B B c r 9 h B B B B N ,   s.s.s.s.s.s.",
"s.s.s.s.s.W C B B B 3 .   . 3 v B B B B g @     > z B B B B l =     * h B B B v -   s.s.s.s.s.s.",
"s.s.s.s.s.M D B Z p         O a V B V c %       . e B B V N >         1 N B Z z @   s.s.s.s.s.s.",
"s.s.s.s.s.3 N v g %     s.s.s.; k N k :       s.s.@ u v v 2       s.s.X e z B 0     s.s.s.s.s.s.",
"s.s.s.s.s.s.= * .     s.s.s.s.s.% * O       s.s.s.s.O = @       s.s.s.s.s.* % .     s.s.s.s.s.s.",
"s.s.s.s.s.s.s.        s.s.s.s.s.s.        s.s.s.s.s.s.        s.s.s.s.s.s.        s.s.s.s.s.s.s.",
"s.s.s.s.s.s.s.s.    s.s.s.s.s.s.s.s.    s.s.s.s.s.s.s.s.    s.s.s.s.s.s.s.s.    s.s.s.s.s.s.s.s.",
"s.s.s.s.s.s.s.s.s.s.s.s.s.s.s.s.s.s.s.s.s.s.s.s.s.s.s.s.s.s.s.s.s.s.s.s.s.s.s.s.s.s.s.s.s.s.s.s.",
"s.s.s.s.s.s.s.s.s.s.s.s.s.s.s.s.s.s.s.s.s.s.s.s.s.s.s.s.s.s.s.s.s.s.s.s.s.s.s.s.s.s.s.s.s.s.s.s.",
"s.s.s.s.s.s.s.s.s.s.s.s.s.s.s.s.s.s.s.s.s.s.s.s.s.s.s.s.s.s.s.s.s.s.s.s.s.s.s.s.s.s.s.s.s.s.s.s.",
"s.s.s.s.s.s.s.s.s.s.s.s.s.s.s.s.s.s.s.s.s.s.s.s.s.s.s.s.s.s.s.s.s.s.s.s.s.s.s.s.s.s.s.s.s.s.s.s.",
"s.s.s.s.s.s.s.s.s.s.s.s.s.s.s.s.s.s.s.s.s.s.s.s.s.s.s.s.s.s.s.s.s.s.s.s.s.s.s.s.s.s.s.s.s.s.s.s."
};
