/* XPM */
static char *result[] = {
/* columns rows colors chars-per-pixel */
"48 48 211 2 ",
"   c black",
".  c #010100",
"X  c #030300",
"o  c #050500",
"O  c #060600",
"+  c #0D0D00",
"@  c #111000",
"#  c #131200",
"$  c #151300",
"%  c #171600",
"&  c #181600",
"*  c #181700",
"=  c #191900",
"-  c #1B1A00",
";  c #1E1D00",
":  c #1F1D00",
">  c #212000",
",  c #252300",
"<  c #262300",
"1  c #262400",
"2  c #2C2A00",
"3  c #2D2C00",
"4  c #2E2D00",
"5  c #302E00",
"6  c #322F00",
"7  c #383500",
"8  c #3C3900",
"9  c #3D3900",
"0  c #3E3A00",
"q  c #433F00",
"w  c #454100",
"e  c #464200",
"r  c #464300",
"t  c #484400",
"y  c #524D00",
"u  c #544F00",
"i  c #585400",
"p  c #5B5600",
"a  c #5B5800",
"s  c #625C00",
"d  c #635D00",
"f  c #656000",
"g  c #696200",
"h  c #6A6300",
"j  c #6D6800",
"k  c #6E6800",
"l  c #746D00",
"z  c #746F00",
"x  c #777000",
"c  c #7C7500",
"v  c #777209",
"b  c #807800",
"n  c #857D00",
"m  c #857E00",
"M  c #898200",
"N  c #8C8400",
"B  c #8E8600",
"V  c #958D00",
"C  c #978F00",
"Z  c #988F00",
"A  c #9A9100",
"S  c #A69D00",
"D  c #A99F00",
"F  c #AFA600",
"G  c #B0A600",
"H  c #B1A700",
"J  c #B3A900",
"K  c #B7AD00",
"L  c #B9AF00",
"P  c #BDB200",
"I  c #BBB831",
"U  c #C1B600",
"Y  c #C2B700",
"T  c #C5BB00",
"R  c #C7BC00",
"E  c #C7BD00",
"W  c #C8BD00",
"Q  c #C9BD00",
"!  c #CABD01",
"~  c #CABF00",
"^  c #C8BE17",
"/  c #C4BC1E",
"(  c #CDC100",
")  c #D0C400",
"_  c #D7CB00",
"`  c #D8CC00",
"'  c #DBD000",
"]  c #DDD100",
"[  c #DED100",
"{  c #C5C01F",
"}  c #E1D500",
"|  c #E0D703",
" . c #E4D700",
".. c #EBDE00",
"X. c #ECDE00",
"o. c #EFE200",
"O. c #F0E300",
"+. c #F1E300",
"@. c #F2E400",
"#. c #F2E500",
"$. c #F3E500",
"%. c #F4E700",
"&. c #F5E700",
"*. c #F5E800",
"=. c #F6E900",
"-. c #F7E900",
";. c #F6EA00",
":. c #F8EA00",
">. c #FAED00",
",. c #FBED00",
"<. c #FEF000",
"1. c #FFF000",
"2. c #FEF100",
"3. c #FFF100",
"4. c #FFF101",
"5. c #FFF200",
"6. c #FFF300",
"7. c #FFF301",
"8. c #FFF102",
"9. c #FFF103",
"0. c #FFF302",
"q. c #FFF400",
"w. c #FFF500",
"e. c #FFF600",
"r. c #FFF700",
"t. c #FFF104",
"y. c #FFF205",
"u. c #FFF106",
"i. c #FFF107",
"p. c #FFF800",
"a. c #FFF900",
"s. c #FFFA00",
"d. c #FFFB00",
"f. c #FFFB02",
"g. c #FFFC00",
"h. c #FFFD00",
"j. c #FFFF05",
"k. c #FFF108",
"l. c #FFF30B",
"z. c #FEF609",
"x. c #FFF20D",
"c. c #FFF808",
"v. c #FFFC0B",
"b. c #F0E913",
"n. c #FFF210",
"m. c #FFF314",
"M. c #FFF617",
"N. c #FFFC10",
"B. c #FFFE10",
"V. c #FFFF11",
"C. c #FFF218",
"Z. c #FFF318",
"A. c #FFF21C",
"S. c #FFF31C",
"D. c #FFF321",
"F. c #FFFA22",
"G. c #FFFF21",
"H. c #FFF529",
"J. c #FFF32C",
"K. c #FFF32D",
"L. c #FFF42D",
"P. c #F8ED31",
"I. c #FFF430",
"U. c #FFF432",
"Y. c #FFF438",
"T. c #FFF43B",
"R. c #FFFC3B",
"E. c #84835C",
"W. c #FFF541",
"Q. c #FFF542",
"!. c #FFF545",
"~. c #FFF549",
"^. c #FFF54B",
"/. c #FFF54C",
"(. c #FFFF4A",
"). c #FFF551",
"_. c #FFF650",
"`. c #FFF657",
"'. c #FFF65C",
"]. c #FFF75C",
"[. c #FFFB58",
"{. c #D0CB72",
"}. c #FFF769",
"|. c #FFF76D",
" X c #FFF76F",
".X c #FFFF6A",
"XX c #FFF772",
"oX c #FFF775",
"OX c #FFF879",
"+X c #FFF97D",
"@X c #FFF87E",
"#X c #FFF87F",
"$X c #FFF786",
"%X c #FFF787",
"&X c #FFF980",
"*X c #FFFF85",
"=X c #FFF88B",
"-X c #FFFA90",
";X c #FFFE90",
":X c #FFF994",
">X c #FFFF97",
",X c #FFFA9D",
"<X c #FFFA9E",
"1X c #FFFBB6",
"2X c #FFFBB8",
"3X c #FFFCC2",
"4X c #FFFCC8",
"5X c #FFFDD4",
"6X c #FFFDD5",
"7X c #FFFDE2",
"8X c None",
/* pixels */
"8X8X8X8X8X8X8X8X8X8X8X8X8X8X8X8X8X8X8X8X8X8X8X8X8X8X8X8X8X8X8X8X8X8X8X8X8X8X8X8X8X8X8X8X8X8X8X8X",
"8X8X8X8X8X8X8X8X8X8X8X8X8X8X8X8X8X8X8X8X8X8X8X8X8X8X8X8X8X8X8X8X8X8X8X8X8X8X8X8X8X8X8X8X8X8X8X8X",
"8X8X8X8X8X8X8X8X8X8X8X8X8X8X8X8X8X8X8X8X8X8X8X8X8X8X8X8X8X8X8X8X8X8X8X8X8X8X8X8X8X8X8X8X8X8X8X8X",
"8X8X8X8X8X8X8X8X8X8X8X8X8X8X8X8X8X8X8X8X8X8X8X8X8X8X8X8X8X8X8X8X8X8X8X8X8X8X8X8X8X8X8X8X8X8X8X8X",
"8X8X8X8X8X8X8X8X8X8X8X8X8X8X8X8X8X8X8X8X8X8X8X8X8X8X8X8X8X8X8X8X8X8X8X8X8X8X8X8X8X8X8X8X8X8X8X8X",
"8X8X8X8X8X8X8X8X8X8X8X8X8X8X8X8X8X8X8X8X8X8X8X8X8X8X8X8X8X3X8X8X8X8X8X8X8X8X8X8X8X8X8X8X8X8X8X8X",
"8X8X8X8X8X8X8X8X8X8X8X8X8X8X7X;Xv 8X8X8X8X8X8X8X8X8X8X8X8X@X!.[.8X8X8X8X8X8X8X8X8X8X8X8X8X8X8X8X",
"8X8X8X8X8X8X8X8X8X8X8X8X8X2X_.c.V 8X8X8X8X8X8X8X8X8X8X8X8XT.3.Z.R.I 8X8X8X8X8X8X8X8X8X8X8X8X8X8X",
"8X8X8X8X8X8X8X8X8X8X8X5X@XA.3.r.~ - 8X8X8X8X8X8X8X8X8X8X$XS.3.3.y.G.{ 8X8X8X8X8X8X8X8X8X8X8X8X8X",
"8X8X8X8X8X8X8X8X8X8X4X~.3.3.3.w.+.i 8X8X8X8X8X8X8X8X8X8X}.9.3.3.3.1.B.b.8X8X8X8X8X8X8X8X8X8X8X8X",
"8X8X8X8X8X8X8X8X8X6X`.3.3.3.3.6.2.C 8X8X8X8X8X8X8X8X8X8X^.3.3.3.3.3.1.v.| 8X8X8X8X8X8X8X8X8X8X8X",
"8X8X8X8X8X8X8X8X8X#Xu.3.3.3.3.3.w.( > 8X8X8X8X8X8X8X8X:XI.3.3.3.3.3.3.4.j.G 8X8X8X8X8X8X8X8X8X8X",
"8X8X8X8X8X8X8X8X<XZ.3.3.3.3.3.3.q.o.i 8X8X8X8X8X8X8X8X%XC.3.3.3.3.3.3.3.7.7.a 8X8X8X8X8X8X8X8X8X",
"8X8X8X8X8X8X8X1XQ.3.3.3.3.3.3.3.6.2.C 8X8X8X8X8X8X8X8X Xu.3.3.3.3.3.3.3.3.r.Q 8X8X8X8X8X8X8X8X8X",
"8X8X8X8X8X8X8XOXi.3.3.3.3.3.3.3.3.w.) < 8X8X8X8X8X8X8X~.3.3.3.3.3.3.3.3.3.q.:.d 8X8X8X8X8X8X8X8X",
"8X8X8X8X8X8X,XK.3.3.3.3.3.3.3.3.3.q.*.g 8X8X8X8X8X8X=XD.3.3.3.3.3.3.3.3.3.5.q.K 8X8X8X8X8X8X8X8X",
"8X8X8X8X8X8XoXk.3.3.3.3.3.3.3.3.3.5.6.S 8X8X8X8X8X8XXXk.3.3.3.3.3.3.3.3.3.3.w.] 3 8X8X8X8X8X8X8X",
"8X8X8X8X8X8X/.3.3.3.3.3.3.3.3.3.3.3.w._ 4 8X8X8X8X8X).3.3.3.3.3.3.3.3.3.3.3.w.#.r 8X8X8X8X8X8X8X",
"8X8X8X8X8X&XJ.3.3.3.3.3.3.3.3.3.3.3.q.&.h 8X8X8X8X-XL.3.3.3.3.3.3.3.3.3.3.3.6.2.f 8X8X8X8X8X8X8X",
"8X8X8X8X8X|.C.3.3.3.3.3.3.3.3.3.3.3.5.6.S 8X8X8X8X+Xn.3.3.3.3.3.3.3.3.3.3.3.5.e.c   8X8X8X8X8X8X",
"8X8X8X8X8X'.x.3.3.3.3.3.3.3.3.3.3.3.3.w.` 5 8X8X8X].4.3.3.3.3.3.3.3.3.3.3.3.5.a.M   8X8X8X8X8X8X",
"8X8X8X8X8X/.i.3.3.3.3.3.3.3.3.3.3.3.3.q.:.z 8X8X>XU.3.3.3.3.3.3.3.3.3.3.3.3.3.a.N   8X8X8X8X8X8X",
"8X8X8X8X8XW.u.3.3.3.3.3.3.3.3.3.3.3.3.5.q.H 8X8X*Xm.3.3.3.3.3.3.3.3.3.3.3.3.3.a.n   8X8X8X8X8X8X",
"8X8X8X8X8XY.i.3.3.3.3.3.3.3.3.3.3.3.3.3.w.[ ; 8X.X8.3.3.3.3.3.3.3.3.3.3.3.3.5.a.l   8X8X8X8X8X8X",
"8X8X8X8X8XP.l.3.3.3.3.3.3.3.3.3.3.3.3.3.q.>.y E.(.3.3.3.3.3.3.3.3.3.3.3.3.3.5.w.p   8X8X8X8X8X8X",
"8X8X8X8X8X/ N.3.3.3.3.3.3.3.3.3.3.3.3.3.5.q.^ {.F.3.3.3.3.3.3.3.3.3.3.3.3.3.q.:.0   8X8X8X8X8X8X",
"8X8X8X8X8X8XV.3.3.3.3.3.3.3.3.3.3.3.3.3.3.3.M.H.t.3.3.3.3.3.3.3.3.3.3.3.3.3.p.` =   8X8X8X8X8X8X",
"8X8X8X8X8X8Xz.0.3.3.3.3.3.3.3.3.3.3.3.3.3.3.3.3.3.3.3.3.3.3.3.3.3.3.3.3.3.3.s.V     8X8X8X8X8X8X",
"8X8X8X8X8X8X! f.3.3.3.3.3.3.3.3.3.3.3.3.3.3.3.3.3.3.3.3.3.3.3.3.3.3.3.3.3.q.=.q   8X8X8X8X8X8X8X",
"8X8X8X8X8X8X8Xr.5.3.3.3.3.3.3.3.3.3.3.3.3.3.3.3.3.3.3.3.3.3.3.3.3.3.3.3.3.s.J O   8X8X8X8X8X8X8X",
"8X8X8X8X8X8X8XU w.5.3.3.3.3.3.3.3.3.3.3.3.3.3.3.3.3.3.3.3.3.3.3.3.3.3.3.w.;.e     8X8X8X8X8X8X8X",
"8X8X8X8X8X8X8X8X..q.3.3.3.3.3.3.3.3.3.3.3.3.3.3.3.3.3.3.3.3.3.3.3.3.3.5.g.Z .   8X8X8X8X8X8X8X8X",
"8X8X8X8X8X8X8X8Xk ..q.5.3.3.3.3.3.3.3.3.3.3.3.3.3.3.3.3.3.3.3.3.3.3.5.s.P *     8X8X8X8X8X8X8X8X",
"8X8X8X8X8X8X8X8X8Xj X.e.3.3.3.3.3.3.3.3.3.3.3.3.3.3.3.3.3.3.3.3.3.5.s.Y *     8X8X8X8X8X8X8X8X8X",
"8X8X8X8X8X8X8X8X8X8Xb O.e.5.3.3.3.3.3.3.3.3.3.3.3.3.3.3.3.3.3.3.5.h.R :       8X8X8X8X8X8X8X8X8X",
"8X8X8X8X8X8X8X8X8X8X+ x ' w.q.3.3.3.3.3.3.3.3.3.3.3.3.3.3.3.3.w.s.E 1       8X8X8X8X8X8X8X8X8X8X",
"8X8X8X8X8X8X8X8X8X8X8XX t F %.p.q.3.3.3.3.3.3.3.3.3.3.3.3.w.d.%.B $       8X8X8X8X8X8X8X8X8X8X8X",
"8X8X8X8X8X8X8X8X8X8X8X8X  & s L -.d.s.r.w.q.6.6.q.w.r.s.d.#.D 9         8X8X8X8X8X8X8X8X8X8X8X8X",
"8X8X8X8X8X8X8X8X8X8X8X8X8X8X  # u A W  .$.,.3.<.>.@.} T m 6           8X8X8X8X8X8X8X8X8X8X8X8X8X",
"8X8X8X8X8X8X8X8X8X8X8X8X8X8X8X      o % 2 8 w q 7 , @ .           8X8X8X8X8X8X8X8X8X8X8X8X8X8X8X",
"8X8X8X8X8X8X8X8X8X8X8X8X8X8X8X8X8X                            8X8X8X8X8X8X8X8X8X8X8X8X8X8X8X8X8X",
"8X8X8X8X8X8X8X8X8X8X8X8X8X8X8X8X8X8X8X8X8X              8X8X8X8X8X8X8X8X8X8X8X8X8X8X8X8X8X8X8X8X",
"8X8X8X8X8X8X8X8X8X8X8X8X8X8X8X8X8X8X8X8X8X8X8X8X8X8X8X8X8X8X8X8X8X8X8X8X8X8X8X8X8X8X8X8X8X8X8X8X",
"8X8X8X8X8X8X8X8X8X8X8X8X8X8X8X8X8X8X8X8X8X8X8X8X8X8X8X8X8X8X8X8X8X8X8X8X8X8X8X8X8X8X8X8X8X8X8X8X",
"8X8X8X8X8X8X8X8X8X8X8X8X8X8X8X8X8X8X8X8X8X8X8X8X8X8X8X8X8X8X8X8X8X8X8X8X8X8X8X8X8X8X8X8X8X8X8X8X",
"8X8X8X8X8X8X8X8X8X8X8X8X8X8X8X8X8X8X8X8X8X8X8X8X8X8X8X8X8X8X8X8X8X8X8X8X8X8X8X8X8X8X8X8X8X8X8X8X",
"8X8X8X8X8X8X8X8X8X8X8X8X8X8X8X8X8X8X8X8X8X8X8X8X8X8X8X8X8X8X8X8X8X8X8X8X8X8X8X8X8X8X8X8X8X8X8X8X",
"8X8X8X8X8X8X8X8X8X8X8X8X8X8X8X8X8X8X8X8X8X8X8X8X8X8X8X8X8X8X8X8X8X8X8X8X8X8X8X8X8X8X8X8X8X8X8X8X"
};
