/* XPM */
static char *result[] = {
/* columns rows colors chars-per-pixel */
"48 48 157 2 ",
"   c black",
".  c #020200",
"X  c #060600",
"o  c #090800",
"O  c #100F00",
"+  c #121100",
"@  c #161500",
"#  c #1B1A00",
"$  c #1C1B00",
"%  c #232100",
"&  c #272500",
"*  c #2A2800",
"=  c #2D2B00",
"-  c #2E2B00",
";  c #2E2C00",
":  c #2F2D00",
">  c #373400",
",  c #3B3800",
"<  c #3C3900",
"1  c #413D00",
"2  c #423F00",
"3  c #433F00",
"4  c #434000",
"5  c #454100",
"6  c #454200",
"7  c #474200",
"8  c #484400",
"9  c #4C4700",
"0  c #4F4A00",
"q  c #504B00",
"w  c #504C00",
"e  c #555000",
"r  c #565200",
"t  c #5B5600",
"y  c #5E5800",
"u  c #5F5A00",
"i  c #605B00",
"p  c #605C00",
"a  c #615C00",
"s  c #666000",
"d  c #6C6700",
"f  c #746E00",
"g  c #7D7600",
"h  c #7F7800",
"j  c #6C6C5C",
"k  c #857D00",
"l  c #898200",
"z  c #8C8400",
"x  c #938B00",
"c  c #989000",
"v  c #9B9200",
"b  c #A39B00",
"n  c #B0A600",
"m  c #B3A900",
"M  c #B4AA00",
"N  c #B6AB00",
"B  c #BDB300",
"V  c #C2B700",
"C  c #C3B900",
"Z  c #C4B900",
"A  c #C6BB00",
"S  c #C8BE00",
"D  c #CABE00",
"F  c #CABF00",
"G  c #C0BB30",
"H  c #CCC100",
"J  c #CDC200",
"K  c #D3C700",
"L  c #D4C800",
"P  c #DCD000",
"I  c #DDD100",
"U  c #E9DE04",
"Y  c #E2DC12",
"T  c #EDE000",
"R  c #EEE100",
"E  c #EFE200",
"W  c #F0E400",
"Q  c #F3E600",
"!  c #F4E700",
"~  c #F5E800",
"^  c #F7E900",
"/  c #F8EA00",
"(  c #FCEF00",
")  c #F4E70C",
"_  c #FEF000",
"`  c #FFF000",
"'  c #FEF100",
"]  c #FFF100",
"[  c #FFF101",
"{  c #FFF200",
"}  c #FFF300",
"|  c #FFF301",
" . c #FFF400",
".. c #FFF500",
"X. c #FFF401",
"o. c #FFF600",
"O. c #FFF700",
"+. c #FFF104",
"@. c #FFF207",
"#. c #FFF800",
"$. c #FFF900",
"%. c #FFFA00",
"&. c #FFFB00",
"*. c #FFFD00",
"=. c #FFFD05",
"-. c #FFF109",
";. c #FFF20C",
":. c #FFF20D",
">. c #FFFD0A",
",. c #F6E917",
"<. c #FFF210",
"1. c #FFF213",
"2. c #FFF214",
"3. c #FFF216",
"4. c #FFF217",
"5. c #FFFD12",
"6. c #FFF218",
"7. c #FFF21B",
"8. c #FFF31B",
"9. c #FFF31E",
"0. c #FFF41C",
"q. c #D0CA21",
"w. c #FFF520",
"e. c #FFF324",
"r. c #FFFF22",
"t. c #FFF329",
"y. c #FFF53F",
"u. c #FFFC3A",
"i. c #FFF440",
"p. c #FFF541",
"a. c #FFF84A",
"s. c #F0E859",
"d. c #FAF655",
"f. c #FFFE5B",
"g. c #FFF661",
"h. c #FFF76C",
"j. c #FFF875",
"k. c #FFFB85",
"l. c #FFF892",
"z. c #FFF992",
"x. c #FFF993",
"c. c #FFF996",
"v. c #FFFB99",
"b. c #FFFA9A",
"n. c #FFF99C",
"m. c #FFFA9C",
"M. c #FFFA9D",
"N. c #FFFD9E",
"B. c #FFFAA3",
"V. c #FFFFA0",
"C. c #FFFFA3",
"Z. c #FFFAA9",
"A. c #FFFCBC",
"S. c #FFFDD0",
"D. c #FFFED6",
"F. c #FFFEDF",
"G. c None",
/* pixels */
"G.G.G.G.G.G.G.G.G.G.G.G.G.G.G.G.G.G.G.G.G.G.G.G.G.G.G.G.G.G.G.G.G.G.G.G.G.G.G.G.G.G.G.G.G.G.G.G.",
"G.G.G.G.G.G.G.G.G.G.G.G.G.G.G.G.G.G.G.G.G.G.G.G.G.G.G.G.G.G.G.G.G.G.G.G.G.G.G.G.G.G.G.G.G.G.G.G.",
"G.G.G.G.G.G.G.G.G.G.G.G.G.G.G.G.G.G.G.G.G.G.G.G.G.G.G.G.G.G.G.G.G.G.G.G.G.G.G.G.G.G.G.G.G.G.G.G.",
"G.G.G.G.G.G.G.G.G.G.G.G.G.G.G.G.G.G.G.G.G.G.G.G.G.G.G.G.G.G.G.G.G.G.G.G.G.G.G.G.G.G.G.G.G.G.G.G.",
"G.G.G.G.G.G.G.G.G.G.G.G.G.G.G.G.G.G.G.G.G.G.G.G.G.G.G.G.G.G.G.G.G.G.G.G.G.G.G.G.G.G.G.G.G.G.G.G.",
"G.G.G.G.G.G.G.G.G.G.G.G.G.G.G.S.A.Z.b.l.x.c.v.G.G.G.G.G.G.G.G.G.G.G.G.G.G.G.G.G.G.G.G.G.G.G.G.G.",
"G.G.G.G.G.G.G.G.G.G.G.G.D.B.h.i.e.2.:.;.<.6.t.p.g.j.G.G.G.G.G.G.G.G.G.G.G.G.G.G.G.G.G.G.G.G.G.G.",
"G.G.G.G.G.G.G.G.G.G.F.n.y.-.] ] ] ] ] ] ] ] ] ] +.9.p.f.G.G.G.G.G.G.G.G.G.G.G.G.G.G.G.G.G.G.G.G.",
"G.G.G.G.G.G.G.G.G.k.a.@.] ] ] ] ] ] ] ] ] ] ] ] ] ] ] 3.u.G G.G.G.G.G.G.G.G.G.G.G.G.G.G.G.G.G.G.",
"G.G.G.G.G.G.G.G.G.d L  .} ] ] ] ] ] ] ] ] ] ] ] ] ] ] ] +.r.q.G.G.G.G.G.G.G.G.G.G.G.G.G.G.G.G.G.",
"G.G.G.G.G.G.G.G.G.G., B _ } ] ] ] ] ] ] ] ] ] ] ] ] ] ] ] ` 5.Y G.G.G.G.G.G.G.G.G.G.G.G.G.G.G.G.",
"G.G.G.G.G.G.G.G.G.G.G.; A ..{ ] ] ] ] ] ] ] ] ] ] ] ] ] ] ] ` >.U G.G.G.G.G.G.G.G.G.G.G.G.G.G.G.",
"G.G.G.G.G.G.G.G.G.G.G.G.7 L } { ] ] ] ] ] ] ] ] ] ] ] ] ] ] ] [ =.N G.G.G.G.G.G.G.G.G.G.G.G.G.G.",
"G.G.G.G.G.G.G.G.G.G.G.G.G.w K } { ] ] ] ] ] ] ] ] ] ] ] ] ] ] ] | | a G.G.G.G.G.G.G.G.G.G.G.G.G.",
"G.G.G.G.G.G.G.G.G.G.G.G.G.G.w K } { ] ] ] ] ] ] ] ] ] ] ] ] ] ] ] o.H G.G.G.G.G.G.G.G.G.G.G.G.G.",
"G.G.G.G.G.G.G.G.G.G.G.G.G.G.G.w L ..} ] ] ] ] ] ] ] ] ] ] ] ] ] ]  ./ p G.G.G.G.G.G.G.G.G.G.G.G.",
"G.G.G.G.G.G.G.G.G.G.G.G.G.G.G.G.3 V ' } ] ] ] ] ] ] ] ] ] ] ] ] ] {  .n G.G.G.G.G.G.G.G.G.G.G.G.",
"G.G.G.G.G.G.G.G.G.G.G.G.G.G.G.G.G.; A ..{ ] ] ] ] ] ] ] ] ] ] ] ] ] ..I - G.G.G.G.G.G.G.G.G.G.G.",
"G.G.G.G.G.G.G.G.G.G.G.G.G.G.G.G.G.G.6 L } { ] ] ] ] ] ] ] ] ] ] ] ]  .Q 8 G.G.G.G.G.G.G.G.G.G.G.",
"G.G.G.G.G.G.G.G.G.G.G.G.G.G.G.G.G.G.G.q K } { ] ] ] ] ] ] ] ] ] ] ] } ' s G.G.G.G.G.G.G.G.G.G.G.",
"G.G.G.G.G.G.G.G.G.G.G.G.G.G.G.G.G.G.G.G.q K } { ] ] ] ] ] ] ] ] ] ] { o.g   G.G.G.G.G.G.G.G.G.G.",
"G.G.G.G.G.G.G.G.G.G.G.G.G.G.G.G.G.G.G.G.G.q K ( { ] ] ] ] ] ] ] ] ] { #.l   G.G.G.G.G.G.G.G.G.G.",
"G.G.G.G.G.G.G.G.G.G.G.G.G.G.G.G.G.G.G.G.G.G.9 ) X.] ] ] ] ] ] ] ] ] ] $.z   G.G.G.G.G.G.G.G.G.G.",
"G.G.G.G.G.G.G.G.G.G.G.G.G.G.G.G.G.G.G.G.G.G.j d.| ] ] ] ] ] ] ] ] ] { $.k   G.G.G.G.G.G.G.G.G.G.",
"G.G.G.G.G.G.G.G.G.G.G.G.G.G.G.G.G.G.G.G.G.G.V.w.] ] ] ] ] ] ] ] ] ] { $.f   G.G.G.G.G.G.G.G.G.G.",
"G.G.G.G.G.G.G.G.G.G.G.G.G.G.G.G.G.G.G.G.G.C.0.] ] ] ] ] ] ] ] ] ] ] {  .t   G.G.G.G.G.G.G.G.G.G.",
"G.G.G.G.G.G.G.G.G.G.G.G.G.G.G.G.G.G.G.G.m.7.] ] ] ] ] ] ] ] ] ] ] ]  .^ <   G.G.G.G.G.G.G.G.G.G.",
"G.G.G.G.G.G.G.G.G.G.G.G.G.G.G.G.G.G.G.M.7.] ] ] ] ] ] ] ] ] ] ] ] ] O.P #   G.G.G.G.G.G.G.G.G.G.",
"G.G.G.G.G.G.G.G.G.G.G.G.G.G.G.G.G.G.z.4.] ] ] ] ] ] ] ] ] ] ] ] ] ] $.v .   G.G.G.G.G.G.G.G.G.G.",
"G.G.G.G.G.G.G.G.G.G.G.G.G.G.G.G.G.m.2.] ] ] ] ] ] ] ] ] ] ] ] ] ]  .~ 1   G.G.G.G.G.G.G.G.G.G.G.",
"G.G.G.G.G.G.G.G.G.G.G.G.G.G.G.G.m.7.] ] ] ] ] ] ] ] ] ] ] ] ] ] ] %.m X   G.G.G.G.G.G.G.G.G.G.G.",
"G.G.G.G.G.G.G.G.G.G.G.G.G.G.G.m.7.] ] ] ] ] ] ] ] ] ] ] ] ] ] ] ..~ 4     G.G.G.G.G.G.G.G.G.G.G.",
"G.G.G.G.G.G.G.G.G.G.G.G.G.G.m.7.] ] ] ] ] ] ] ] ] ] ] ] ] ] ] { $.x     G.G.G.G.G.G.G.G.G.G.G.G.",
"G.G.G.G.G.G.G.G.G.G.G.G.G.m.7.] ] ] ] ] ] ] ] ] ] ] ] ] ] ] { *.D @     G.G.G.G.G.G.G.G.G.G.G.G.",
"G.G.G.G.G.G.G.G.G.G.G.G.z.4.] ] ] ] ] ] ] ] ] ] ] ] ] ] ] { %.S *     G.G.G.G.G.G.G.G.G.G.G.G.G.",
"G.G.G.G.G.G.G.G.G.G.G.m.1.] ] ] ] ] ] ] ] ] ] ] ] ] ] ] { *.Z $       G.G.G.G.G.G.G.G.G.G.G.G.G.",
"G.G.G.G.G.G.G.G.G.G.N.8.] ] ] ] ] ] ] ] ] ] ] ] ] ] ] ..%.C %       G.G.G.G.G.G.G.G.G.G.G.G.G.G.",
"G.G.G.G.G.G.G.G.G.s.,.O. .] ] ] ] ] ] ] ] ] ] ] { ..&.W l +       G.G.G.G.G.G.G.G.G.G.G.G.G.G.G.",
"G.G.G.G.G.G.G.G.G.: y M ! %.#...} { { { { } ..$.%.E b >         G.G.G.G.G.G.G.G.G.G.G.G.G.G.G.G.",
"G.G.G.G.G.G.G.G.G.G.  O 0 c J R _ o.$.$.O._ T F h =           G.G.G.G.G.G.G.G.G.G.G.G.G.G.G.G.G.",
"G.G.G.G.G.G.G.G.G.G.G.      + - 5 r i u e 2 & o           G.G.G.G.G.G.G.G.G.G.G.G.G.G.G.G.G.G.G.",
"G.G.G.G.G.G.G.G.G.G.G.G.G.                            G.G.G.G.G.G.G.G.G.G.G.G.G.G.G.G.G.G.G.G.G.",
"G.G.G.G.G.G.G.G.G.G.G.G.G.G.G.G.G.            G.G.G.G.G.G.G.G.G.G.G.G.G.G.G.G.G.G.G.G.G.G.G.G.G.",
"G.G.G.G.G.G.G.G.G.G.G.G.G.G.G.G.G.G.G.G.G.G.G.G.G.G.G.G.G.G.G.G.G.G.G.G.G.G.G.G.G.G.G.G.G.G.G.G.",
"G.G.G.G.G.G.G.G.G.G.G.G.G.G.G.G.G.G.G.G.G.G.G.G.G.G.G.G.G.G.G.G.G.G.G.G.G.G.G.G.G.G.G.G.G.G.G.G.",
"G.G.G.G.G.G.G.G.G.G.G.G.G.G.G.G.G.G.G.G.G.G.G.G.G.G.G.G.G.G.G.G.G.G.G.G.G.G.G.G.G.G.G.G.G.G.G.G.",
"G.G.G.G.G.G.G.G.G.G.G.G.G.G.G.G.G.G.G.G.G.G.G.G.G.G.G.G.G.G.G.G.G.G.G.G.G.G.G.G.G.G.G.G.G.G.G.G.",
"G.G.G.G.G.G.G.G.G.G.G.G.G.G.G.G.G.G.G.G.G.G.G.G.G.G.G.G.G.G.G.G.G.G.G.G.G.G.G.G.G.G.G.G.G.G.G.G."
};
