/* XPM */
static char *result[] = {
/* columns rows colors chars-per-pixel */
"48 48 156 2 ",
"   c black",
".  c #020200",
"X  c #030300",
"o  c #050500",
"O  c #090900",
"+  c #0C0C00",
"@  c #0E0D00",
"#  c #0E0E00",
"$  c #111100",
"%  c #131200",
"&  c #1A1900",
"*  c #1E1C00",
"=  c #211F00",
"-  c #272400",
";  c #2B2900",
":  c #2C2900",
">  c #2C2A00",
",  c #2E2B00",
"<  c #2F2D00",
"1  c #3B3800",
"2  c #3E3B00",
"3  c #413D00",
"4  c #464200",
"5  c #474300",
"6  c #484400",
"7  c #4A4600",
"8  c #555000",
"9  c #595400",
"0  c #5A5500",
"q  c #5D5800",
"w  c #635C00",
"e  c #676100",
"r  c #676200",
"t  c #686300",
"y  c #6A6400",
"u  c #6E6B00",
"i  c #726C00",
"p  c #787100",
"a  c #7E7700",
"s  c #807900",
"d  c #857E00",
"f  c #867F00",
"g  c #877F08",
"h  c #877F0A",
"j  c #898100",
"k  c #8A8200",
"l  c #8D8500",
"z  c #878108",
"x  c #918900",
"c  c #958E0B",
"v  c #999100",
"b  c #9D980C",
"n  c #8C841E",
"m  c #A39A00",
"M  c #A49B00",
"N  c #ACA200",
"B  c #ACA300",
"V  c #AEA400",
"C  c #BAAF00",
"Z  c #BCB200",
"A  c #B9B10D",
"S  c #BAB10D",
"D  c #BAB30D",
"F  c #C3B900",
"G  c #C4B900",
"H  c #C5BB00",
"J  c #C7BC00",
"K  c #C0B81C",
"L  c #C1B91C",
"P  c #CDC200",
"I  c #CCC002",
"U  c #D4C900",
"Y  c #DACE00",
"T  c #DBCF00",
"R  c #E4D700",
"E  c #E8DB00",
"W  c #E9DC00",
"Q  c #EADD00",
"!  c #ECE000",
"~  c #EDE100",
"^  c #EFE200",
"/  c #F1E400",
"(  c #F3E600",
")  c #F5E700",
"_  c #F6E800",
"`  c #F6E900",
"'  c #F7EA00",
"]  c #F8EA00",
"[  c #FAED00",
"{  c #FBED00",
"}  c #FFF100",
"|  c #FFF200",
" . c #FFF300",
".. c #FFF201",
"X. c #FFF103",
"o. c #FFF202",
"O. c #FFF203",
"+. c #FEF400",
"@. c #FFF400",
"#. c #FFF500",
"$. c #FFF600",
"%. c #FFF700",
"&. c #FFF105",
"*. c #FFF305",
"=. c #FFF106",
"-. c #FFF306",
";. c #FFF800",
":. c #FFF900",
">. c #FFFA00",
",. c #FFFB00",
"<. c #FFFA02",
"1. c #FFFC00",
"2. c #FFF108",
"3. c #FFF20A",
"4. c #FFF30C",
"5. c #FFF20D",
"6. c #FFFC0B",
"7. c #FFFF0D",
"8. c #FFF216",
"9. c #FFF217",
"0. c #FFFD10",
"q. c #FFFF11",
"w. c #FFFE12",
"e. c #FFFF12",
"r. c #FFFE13",
"t. c #FFFF13",
"y. c #FFFF15",
"u. c #FFF318",
"i. c #FFF718",
"p. c #FFF31E",
"a. c #F6EB2F",
"s. c #FFF32A",
"d. c #FFF437",
"f. c #FFF438",
"g. c #FFFB39",
"h. c #FFF541",
"j. c #FFF542",
"k. c #FFF549",
"l. c #FFF54F",
"z. c #FFF65B",
"x. c #FFF76C",
"c. c #FFFB6A",
"v. c #FFF877",
"b. c #FFF879",
"n. c #FFF980",
"m. c #FFFF86",
"M. c #FFF995",
"N. c #FFF996",
"B. c #FFFA96",
"V. c #FFFA9E",
"C. c #FFFAA0",
"Z. c #FFFAA1",
"A. c #FFFDA0",
"S. c #FFFEA7",
"D. c #FFFBB2",
"F. c None",
/* pixels */
"F.F.F.F.F.F.F.F.F.F.F.F.F.F.F.F.F.F.F.F.F.F.F.F.F.F.F.F.F.F.F.F.F.F.F.F.F.F.F.F.F.F.F.F.F.F.F.F.",
"F.F.F.F.F.F.F.F.F.F.F.F.F.F.F.F.F.F.F.F.F.F.F.F.F.F.F.F.F.F.F.F.F.F.F.F.F.F.F.F.F.F.F.F.F.F.F.F.",
"F.F.F.F.F.F.F.F.F.F.F.F.F.F.F.F.F.F.F.F.F.F.F.F.F.F.F.F.F.F.F.F.F.F.F.F.F.F.F.F.F.F.F.F.F.F.F.F.",
"F.F.F.F.F.F.F.F.F.F.F.F.F.F.F.F.F.F.F.F.F.F.F.F.F.F.F.F.F.F.F.F.F.F.F.F.F.F.F.F.F.F.F.F.F.F.F.F.",
"F.F.F.F.F.F.F.F.F.F.F.F.F.F.F.F.F.F.F.F.F.F.F.F.F.F.F.F.F.F.F.F.F.F.F.F.F.F.F.F.F.F.F.F.F.F.F.F.",
"F.F.F.F.F.F.F.F.F.F.F.F.F.F.F.F.F.F.F.F.F.F.F.F.F.F.F.F.F.F.F.F.F.F.F.F.F.F.F.F.F.F.F.F.F.F.F.F.",
"F.F.F.F.F.F.F.F.F.F.F.F.F.F.F.F.F.F.F.F.F.F.F.F.F.F.F.F.F.F.F.F.F.F.F.F.F.F.F.F.F.F.F.F.F.F.F.F.",
"F.F.F.F.F.F.F.F.F.F.F.F.F.F.F.F.F.F.F.F.F.F.F.F.F.F.F.F.F.F.F.F.F.F.F.F.F.F.F.F.F.F.F.F.F.F.F.F.",
"F.F.F.F.F.F.F.F.F.F.F.F.F.F.F.F.F.F.F.F.F.F.F.F.F.F.F.F.F.F.F.F.F.F.F.F.F.F.F.F.F.F.F.F.F.F.F.F.",
"F.F.F.F.F.F.F.F.S.L F.F.F.F.F.F.F.F.F.F.F.F.F.F.F.F.F.F.F.F.F.F.F.F.F.F.F.m.F.F.F.F.F.F.F.F.F.F.",
"F.F.F.F.F.F.F.D.h.7.c F.F.F.F.F.F.F.F.F.F.F.F.F.F.F.F.F.F.F.F.F.F.F.F.F.B.i.P F.F.F.F.F.F.F.F.F.",
"F.F.F.F.F.F.F.b.&...r.h F.F.F.F.F.F.F.F.F.F.F.F.F.F.F.F.F.F.F.F.F.F.F.N.9. .] w F.F.F.F.F.F.F.F.",
"F.F.F.F.F.F.Z.d.} } -.y.g F.F.F.F.F.F.F.F.F.F.F.F.F.F.F.F.F.F.F.F.F.V.9.} |  .N F.F.F.F.F.F.F.F.",
"F.F.F.F.F.F.v.3.} } } *.w.b F.F.F.F.F.F.F.F.F.F.F.F.F.F.F.F.F.F.F.C.p.} } } #.T : F.F.F.F.F.F.F.",
"F.F.F.F.F.F.k.} } } } } O.t.A F.F.F.F.F.F.F.F.F.F.F.F.F.F.F.F.F.N.8.} } } } @.) 7 F.F.F.F.F.F.F.",
"F.F.F.F.F.n.s.} } } } } } X.t.A F.F.F.F.F.F.F.F.F.F.F.F.F.F.F.N.9.} } } } }  .} e F.F.F.F.F.F.F.",
"F.F.F.F.F.x.9.} } } } } } } X.t.c F.F.F.F.F.F.F.F.F.F.F.F.F.N.9.} } } } } } | $.a   F.F.F.F.F.F.",
"F.F.F.F.F.z.5.} } } } } } } } O.r.h F.F.F.F.F.F.F.F.F.F.F.N.9.} } } } } } } | ;.k   F.F.F.F.F.F.",
"F.F.F.F.F.l.2.} } } } } } } } } -.y.z F.F.F.F.F.F.F.F.F.V.8.} } } } } } } } } :.l   F.F.F.F.F.F.",
"F.F.F.F.F.j.=.} } } } } } } } } } *.w.b F.F.F.F.F.F.F.C.p.} } } } } } } } } | :.d   F.F.F.F.F.F.",
"F.F.F.F.F.f.2.} } } } } } } } } } } O.t.D F.F.F.F.F.N.8.} } } } } } } } } } | ;.i   F.F.F.F.F.F.",
"F.F.F.F.F.a.4.} } } } } } } } } } } } X.t.S F.F.F.M.9.} } } } } } } } } } } | @.0   F.F.F.F.F.F.",
"F.F.F.F.F.K 0.} } } } } } } } } } } } } X.q.n F.A.9.} } } } } } } } } } } } @._ 1   F.F.F.F.F.F.",
"F.F.F.F.F.F.e.} } } } } } } } } } } } } } } g.c.u.} } } } } } } } } } } } } %.Y &   F.F.F.F.F.F.",
"F.F.F.F.F.F.6.o.} } } } } } } } } } } } } } | } } } } } } } } } } } } } } } ,.M .   F.F.F.F.F.F.",
"F.F.F.F.F.F.I <.} } } } } } } } } } } } } } } } } } } } } } } } } } } } } @.` 5   F.F.F.F.F.F.F.",
"F.F.F.F.F.F.F.+. .} } } } } } } } } } } } } } } } } } } } } } } } } } } } >.V X   F.F.F.F.F.F.F.",
"F.F.F.F.F.F.F.C #.| } } } } } } } } } } } } } } } } } } } } } } } } } } #.( 2     F.F.F.F.F.F.F.",
"F.F.F.F.F.F.F.F.R  .| } } } } } } } } } } } } } } } } } } } } } } } } | :.l     F.F.F.F.F.F.F.F.",
"F.F.F.F.F.F.F.F.u ^ @.} } } } } } } } } } } } } } } } } } } } } } } } >.G %     F.F.F.F.F.F.F.F.",
"F.F.F.F.F.F.F.F.F.j ' %.} } } } } } } } } } } } } } } } } } } } } } 1.T >     F.F.F.F.F.F.F.F.F.",
"F.F.F.F.F.F.F.F.F.F.f ~ $.| } } } } } } } } } } } } } } } } } } | 1.H ,       F.F.F.F.F.F.F.F.F.",
"F.F.F.F.F.F.F.F.F.F.O y U @.#.} } } } } } } } } } } } } } } } $.:.Z *       F.F.F.F.F.F.F.F.F.F.",
"F.F.F.F.F.F.F.F.F.F.F.. 2 m ^ ;.#.| } } } } } } } } } } | $.,.! s @       F.F.F.F.F.F.F.F.F.F.F.",
"F.F.F.F.F.F.F.F.F.F.F.F.  $ 8 B / :.:.$.@. .| | | @.$.>.:.Q v <         F.F.F.F.F.F.F.F.F.F.F.F.",
"F.F.F.F.F.F.F.F.F.F.F.F.F.F.  + 6 x J W [ @.%.%.@.{ E F p -           F.F.F.F.F.F.F.F.F.F.F.F.F.",
"F.F.F.F.F.F.F.F.F.F.F.F.F.F.F.      # ; 4 q t r 9 3 = o           F.F.F.F.F.F.F.F.F.F.F.F.F.F.F.",
"F.F.F.F.F.F.F.F.F.F.F.F.F.F.F.F.F.                            F.F.F.F.F.F.F.F.F.F.F.F.F.F.F.F.F.",
"F.F.F.F.F.F.F.F.F.F.F.F.F.F.F.F.F.F.F.F.F.            F.F.F.F.F.F.F.F.F.F.F.F.F.F.F.F.F.F.F.F.F.",
"F.F.F.F.F.F.F.F.F.F.F.F.F.F.F.F.F.F.F.F.F.F.F.F.F.F.F.F.F.F.F.F.F.F.F.F.F.F.F.F.F.F.F.F.F.F.F.F.",
"F.F.F.F.F.F.F.F.F.F.F.F.F.F.F.F.F.F.F.F.F.F.F.F.F.F.F.F.F.F.F.F.F.F.F.F.F.F.F.F.F.F.F.F.F.F.F.F.",
"F.F.F.F.F.F.F.F.F.F.F.F.F.F.F.F.F.F.F.F.F.F.F.F.F.F.F.F.F.F.F.F.F.F.F.F.F.F.F.F.F.F.F.F.F.F.F.F.",
"F.F.F.F.F.F.F.F.F.F.F.F.F.F.F.F.F.F.F.F.F.F.F.F.F.F.F.F.F.F.F.F.F.F.F.F.F.F.F.F.F.F.F.F.F.F.F.F.",
"F.F.F.F.F.F.F.F.F.F.F.F.F.F.F.F.F.F.F.F.F.F.F.F.F.F.F.F.F.F.F.F.F.F.F.F.F.F.F.F.F.F.F.F.F.F.F.F.",
"F.F.F.F.F.F.F.F.F.F.F.F.F.F.F.F.F.F.F.F.F.F.F.F.F.F.F.F.F.F.F.F.F.F.F.F.F.F.F.F.F.F.F.F.F.F.F.F.",
"F.F.F.F.F.F.F.F.F.F.F.F.F.F.F.F.F.F.F.F.F.F.F.F.F.F.F.F.F.F.F.F.F.F.F.F.F.F.F.F.F.F.F.F.F.F.F.F.",
"F.F.F.F.F.F.F.F.F.F.F.F.F.F.F.F.F.F.F.F.F.F.F.F.F.F.F.F.F.F.F.F.F.F.F.F.F.F.F.F.F.F.F.F.F.F.F.F.",
"F.F.F.F.F.F.F.F.F.F.F.F.F.F.F.F.F.F.F.F.F.F.F.F.F.F.F.F.F.F.F.F.F.F.F.F.F.F.F.F.F.F.F.F.F.F.F.F."
};
