/* XPM */
static char *result[] = {
/* columns rows colors chars-per-pixel */
"48 48 163 2 ",
"   c black",
".  c #010100",
"X  c #030300",
"o  c #050400",
"O  c #060500",
"+  c #060600",
"@  c #0D0C00",
"#  c #0E0E00",
"$  c #0F0E00",
"%  c #121000",
"&  c #131100",
"*  c #141300",
"=  c #181600",
"-  c #1B1900",
";  c #292700",
":  c #2F2C00",
">  c #323000",
",  c #3D3A00",
"<  c #3E3B00",
"1  c #423E00",
"2  c #423F00",
"3  c #4C4800",
"4  c #4F4A00",
"5  c #524D00",
"6  c #5B5600",
"7  c #5D5800",
"8  c #5E5900",
"9  c #706A01",
"0  c #756F00",
"q  c #766F00",
"w  c #7E7800",
"e  c #837C00",
"r  c #867F00",
"t  c #888100",
"y  c #8F8700",
"u  c #8D8609",
"i  c #918800",
"p  c #928B0A",
"a  c #989000",
"s  c #999100",
"d  c #9B9200",
"f  c #99920A",
"g  c #9C930A",
"h  c #9B940A",
"j  c #A89F00",
"k  c #AAA100",
"l  c #AFA500",
"z  c #B0A600",
"x  c #B7AD00",
"c  c #B9AF00",
"v  c #B9B003",
"b  c #BCB30A",
"n  c #ABA210",
"m  c #B6B017",
"M  c #C6BB00",
"N  c #C7BC00",
"B  c #C6BD1D",
"V  c #CFC301",
"C  c #D4C800",
"Z  c #D7CB00",
"A  c #DBCF00",
"S  c #E1D500",
"D  c #E2D600",
"F  c #E7DB00",
"G  c #E8DB00",
"H  c #E8DB01",
"J  c #EEE100",
"K  c #EFE100",
"L  c #F3E600",
"P  c #F9EC00",
"I  c #F8ED00",
"U  c #FAEC00",
"Y  c #F8EC03",
"T  c #FEF000",
"R  c #FFF000",
"E  c #FFF100",
"W  c #FEF200",
"Q  c #FFF200",
"!  c #FEF300",
"~  c #FFF300",
"^  c #FFF102",
"/  c #FFF202",
"(  c #FFF400",
")  c #FFF500",
"_  c #FFF401",
"`  c #FFF600",
"'  c #FFF700",
"]  c #FFF402",
"[  c #FFF204",
"{  c #FFF205",
"}  c #FFF305",
"|  c #FFF106",
" . c #FFF107",
".. c #FFF207",
"X. c #FFF800",
"o. c #FFFA00",
"O. c #FFFB00",
"+. c #FFFA03",
"@. c #FFFC00",
"#. c #FFFD00",
"$. c #FFF108",
"%. c #FFF109",
"&. c #FFF209",
"*. c #FFF20B",
"=. c #FFF20C",
"-. c #FFF80A",
";. c #FFF210",
":. c #FFF215",
">. c #FFF216",
",. c #FFF217",
"<. c #FFF616",
"1. c #FFFC11",
"2. c #FFFF10",
"3. c #FFFF12",
"4. c #FFFF14",
"5. c #FFFF15",
"6. c #FFFF17",
"7. c #FFF21C",
"8. c #FFF31D",
"9. c #FFF321",
"0. c #FFF325",
"q. c #FFF32D",
"w. c #FFF32E",
"e. c #FDF131",
"r. c #FFF430",
"t. c #FFF433",
"y. c #FFF439",
"u. c #FFF43B",
"i. c #FFF542",
"p. c #FFF544",
"a. c #FFF548",
"s. c #FFF54C",
"d. c #FFF54D",
"f. c #FFF650",
"g. c #FFF65A",
"h. c #FFF65D",
"j. c #FFFF5E",
"k. c #FFF769",
"l. c #FFF76B",
"z. c #FFF771",
"x. c #FFF777",
"c. c #FFF877",
"v. c #FFF87A",
"b. c #FFF881",
"n. c #FFF884",
"m. c #FFF89D",
"M. c #FFF99E",
"N. c #FFFA9E",
"B. c #FFFAA0",
"V. c #FFFAA2",
"C. c #FFFAA5",
"Z. c #FFFAA8",
"A. c #FFFAAF",
"S. c #FFF9B0",
"D. c #FFFBB2",
"F. c #FFFBC3",
"G. c #FFFCCB",
"H. c #FFFCD4",
"J. c #FFFDD5",
"K. c #FFFDD6",
"L. c #FFFDDB",
"P. c #FFFDE3",
"I. c None",
/* pixels */
"I.I.I.I.I.I.I.I.I.I.I.I.I.I.I.I.I.I.I.I.I.I.I.I.I.I.I.I.I.I.I.I.I.I.I.I.I.I.I.I.I.I.I.I.I.I.I.I.",
"I.I.I.I.I.I.I.I.I.I.I.I.I.I.I.I.I.I.I.I.I.I.I.I.I.I.I.I.I.I.I.I.I.I.I.I.I.I.I.I.I.I.I.I.I.I.I.I.",
"I.I.I.I.I.I.I.I.I.I.I.I.I.I.I.I.I.I.I.I.I.I.I.I.I.I.I.I.I.I.I.I.I.I.I.I.I.I.I.I.I.I.I.I.I.I.I.I.",
"I.I.I.I.I.I.I.I.I.I.I.I.I.I.I.I.I.I.I.I.I.I.I.I.I.I.I.I.I.I.I.I.I.I.I.I.I.I.I.I.I.I.I.I.I.I.I.I.",
"I.I.I.I.I.I.I.I.I.I.I.I.I.I.I.I.I.I.I.I.I.I.I.I.I.I.I.I.I.I.I.I.I.I.I.I.I.I.I.I.I.I.I.I.I.I.I.I.",
"I.I.I.I.I.I.I.I.I.I.I.I.I.I.I.I.I.I.I.I.I.I.I.J.F.D.C.B.N.m.N.I.I.I.I.I.I.I.I.I.I.I.I.I.I.I.I.I.",
"I.I.I.I.I.I.I.I.I.I.I.I.I.I.I.I.I.I.I.I.L.A.v.d.w.8.:.:.,.9.t.s.k.c.I.I.I.I.I.I.I.I.I.I.I.I.I.I.",
"I.I.I.I.I.I.I.I.I.I.I.I.I.I.I.I.I.I.P.Z.s.;.E E E E E E E E E E $.0.a.j.I.I.I.I.I.I.I.I.I.I.I.I.",
"I.I.I.I.I.I.I.I.I.I.I.I.I.I.I.I.P.B.p.*.E E E E E E E E E E E E E E _ <.m I.I.I.I.I.I.I.I.I.I.I.",
"I.I.I.I.I.I.I.I.I.I.I.I.I.I.I.H.k.&.R E E E E E E E E E E E E E E ( ) y O   I.I.I.I.I.I.I.I.I.I.",
"I.I.I.I.I.I.I.I.I.I.I.I.I.I.G.f.E E E E E E E E E E E E E E E E ( ) y o     I.I.I.I.I.I.I.I.I.I.",
"I.I.I.I.I.I.I.I.I.I.I.I.I.K.h.E E E E E E E E E E E E E E E E ~ ( y o       I.I.I.I.I.I.I.I.I.I.",
"I.I.I.I.I.I.I.I.I.I.I.I.I.n...E E E E E E E E E E E E E E E Q @.d o       I.I.I.I.I.I.I.I.I.I.I.",
"I.I.I.I.I.I.I.I.I.I.I.I.V.7.E E E E E E E E E E E E E E E ( @.c &       I.I.I.I.I.I.I.I.I.I.I.I.",
"I.I.I.I.I.I.I.I.I.I.I.S.u.E E E E E E E E E E E E E E E ) ) s *     I.I.I.I.I.I.I.I.I.I.I.I.I.I.",
"I.I.I.I.I.I.I.I.I.I.I.z.^ E E E E E E E E E E E E E E ) W t X     I.I.I.I.I.I.I.I.I.I.I.I.I.I.I.",
"I.I.I.I.I.I.I.I.I.I.M.r.E E E E E E E E E E E E E E ) ! e .     I.I.I.I.I.I.I.I.I.I.I.I.I.I.I.I.",
"I.I.I.I.I.I.I.I.I.I.x.%.E E E E E E E E E E E E E ( W e .       I.I.I.I.I.I.I.I.I.I.I.I.I.I.I.I.",
"I.I.I.I.I.I.I.I.I.I.d.E E E E E E E E E E E E E ~ O.i .       I.I.I.I.I.I.I.I.I.I.I.I.I.I.I.I.I.",
"I.I.I.I.I.I.I.I.I.b.q.E E E E E E E E E E E E ( O.l @       I.I.I.I.I.I.I.I.I.I.I.I.I.I.I.I.I.I.",
"I.I.I.I.I.I.I.I.I.l.>.E E E E E E E E E E E ( W y #     I.I.I.I.I.I.I.I.I.I.I.I.I.I.I.I.I.I.I.I.",
"I.I.I.I.I.I.I.I.I.g.=.E E E E E E E E E E ~ I e       I.I.I.I.I.I.I.I.I.I.I.I.I.I.I.I.I.I.I.I.I.",
"I.I.I.I.I.I.I.I.I.d. .E E E E E E E E E E ' M X     I.I.I.I.I.I.I.I.I.I.I.I.I.I.I.I.I.I.I.I.I.I.",
"I.I.I.I.I.I.I.I.I.i.| E E E E E E E E E E ( H 9   I.I.I.I.I.I.I.I.I.I.I.I.I.I.I.I.I.I.I.I.I.I.I.",
"I.I.I.I.I.I.I.I.I.y. .E E E E E E E E E E E ] 2.p I.I.I.I.I.I.I.I.I.I.I.I.I.I.I.I.I.I.I.I.I.I.I.",
"I.I.I.I.I.I.I.I.I.e.=.E E E E E E E E E E E E } 4.f I.I.I.I.I.I.I.I.I.I.I.I.I.I.I.I.I.I.I.I.I.I.",
"I.I.I.I.I.I.I.I.I.B 1.E E E E E E E E E E E E E [ 3.u I.I.I.I.I.I.I.I.I.I.I.I.I.I.I.I.I.I.I.I.I.",
"I.I.I.I.I.I.I.I.I.I.3.E E E E E E E E E E E E E E / 3.g I.I.I.I.I.I.I.I.I.I.I.I.I.I.I.I.I.I.I.I.",
"I.I.I.I.I.I.I.I.I.I.-./ E E E E E E E E E E E E E E [ 4.g I.I.I.I.I.I.I.I.I.I.I.I.I.I.I.I.I.I.I.",
"I.I.I.I.I.I.I.I.I.I.V +.E E E E E E E E E E E E E E E { 4.h I.I.I.I.I.I.I.I.I.I.I.I.I.I.I.I.I.I.",
"I.I.I.I.I.I.I.I.I.I.I.X.Q E E E E E E E E E E E E E E E { 4.h I.I.I.I.I.I.I.I.I.I.I.I.I.I.I.I.I.",
"I.I.I.I.I.I.I.I.I.I.I.N ' Q E E E E E E E E E E E E E E E { 4.h I.I.I.I.I.I.I.I.I.I.I.I.I.I.I.I.",
"I.I.I.I.I.I.I.I.I.I.I.I.D ~ Q E E E E E E E E E E E E E E E [ 3.u I.I.I.I.I.I.I.I.I.I.I.I.I.I.I.",
"I.I.I.I.I.I.I.I.I.I.I.I.7 G ( E E E E E E E E E E E E E E E E / 3.h I.I.I.I.I.I.I.I.I.I.I.I.I.I.",
"I.I.I.I.I.I.I.I.I.I.I.I.I.q K ` E E E E E E E E E E E E E E E E [ 4.h I.I.I.I.I.I.I.I.I.I.I.I.I.",
"I.I.I.I.I.I.I.I.I.I.I.I.I.I.r L ` Q E E E E E E E E E E E E E E E { 6.n I.I.I.I.I.I.I.I.I.I.I.I.",
"I.I.I.I.I.I.I.I.I.I.I.I.I.I.% w S ` ( E E E E E E E E E E E E E E E { 5.b I.I.I.I.I.I.I.I.I.I.I.",
"I.I.I.I.I.I.I.I.I.I.I.I.I.I.I.+ 5 x P O.` Q E E E E E E E E E E ~ X.#.Y v < I.I.I.I.I.I.I.I.I.I.",
"I.I.I.I.I.I.I.I.I.I.I.I.I.I.I.I.  - 8 k F ` o.X.) ( ~ ~ ( ) X.@.( A a 2     I.I.I.I.I.I.I.I.I.I.",
"I.I.I.I.I.I.I.I.I.I.I.I.I.I.I.I.I.I.  X > 0 z Z J P T T U J C j 6 *         I.I.I.I.I.I.I.I.I.I.",
"I.I.I.I.I.I.I.I.I.I.I.I.I.I.I.I.I.I.I.      X = : 1 4 3 , ; $             I.I.I.I.I.I.I.I.I.I.I.",
"I.I.I.I.I.I.I.I.I.I.I.I.I.I.I.I.I.I.I.I.I.                            I.I.I.I.I.I.I.I.I.I.I.I.I.",
"I.I.I.I.I.I.I.I.I.I.I.I.I.I.I.I.I.I.I.I.I.I.I.I.I.              I.I.I.I.I.I.I.I.I.I.I.I.I.I.I.I.",
"I.I.I.I.I.I.I.I.I.I.I.I.I.I.I.I.I.I.I.I.I.I.I.I.I.I.I.I.I.I.I.I.I.I.I.I.I.I.I.I.I.I.I.I.I.I.I.I.",
"I.I.I.I.I.I.I.I.I.I.I.I.I.I.I.I.I.I.I.I.I.I.I.I.I.I.I.I.I.I.I.I.I.I.I.I.I.I.I.I.I.I.I.I.I.I.I.I.",
"I.I.I.I.I.I.I.I.I.I.I.I.I.I.I.I.I.I.I.I.I.I.I.I.I.I.I.I.I.I.I.I.I.I.I.I.I.I.I.I.I.I.I.I.I.I.I.I.",
"I.I.I.I.I.I.I.I.I.I.I.I.I.I.I.I.I.I.I.I.I.I.I.I.I.I.I.I.I.I.I.I.I.I.I.I.I.I.I.I.I.I.I.I.I.I.I.I.",
"I.I.I.I.I.I.I.I.I.I.I.I.I.I.I.I.I.I.I.I.I.I.I.I.I.I.I.I.I.I.I.I.I.I.I.I.I.I.I.I.I.I.I.I.I.I.I.I."
};
