/* XPM */
static char *result[] = {
/* columns rows colors chars-per-pixel */
"48 48 165 2 ",
"   c black",
".  c #020200",
"X  c #030300",
"o  c #070600",
"O  c #0D0D00",
"+  c #0F0D00",
"@  c #0F0E00",
"#  c #121100",
"$  c #131100",
"%  c #131200",
"&  c #141300",
"*  c #191800",
"=  c #2D2A00",
"-  c #363200",
";  c #3A3700",
":  c #3D3A00",
">  c #444000",
",  c #464300",
"<  c #484400",
"1  c #4A4600",
"2  c #4B4700",
"3  c #4C4800",
"4  c #4D4800",
"5  c #575100",
"6  c #575200",
"7  c #5B5500",
"8  c #5C5600",
"9  c #5E5800",
"0  c #645E00",
"q  c #6A6400",
"w  c #746E00",
"e  c #766F00",
"r  c #7C7500",
"t  c #847C00",
"y  c #847D00",
"u  c #857D00",
"i  c #857E00",
"p  c #898200",
"a  c #8C8500",
"s  c #928900",
"d  c #928A00",
"f  c #958D00",
"g  c #999100",
"h  c #9A9100",
"j  c #A19800",
"k  c #AEA500",
"l  c #B0A600",
"z  c #B1A700",
"x  c #B5AB00",
"c  c #B6AC00",
"v  c #BEB400",
"b  c #B4B02E",
"n  c #C3B800",
"m  c #C8BD00",
"M  c #C9BD00",
"N  c #CABF00",
"B  c #CBBF00",
"V  c #C6BE1E",
"C  c #CDC101",
"Z  c #D0C400",
"A  c #D6CA00",
"S  c #D7CB00",
"D  c #D8CC00",
"F  c #D9CC00",
"G  c #D9CD00",
"H  c #DACF00",
"J  c #DCD000",
"K  c #E4DA03",
"L  c #F2E500",
"P  c #F7EA00",
"I  c #F6EB00",
"U  c #F8EA00",
"Y  c #F9EB00",
"T  c #FEF000",
"R  c #FFF000",
"E  c #FEF100",
"W  c #FFF100",
"Q  c #FFF101",
"!  c #FEF200",
"~  c #FFF200",
"^  c #FFF300",
"/  c #FFF201",
"(  c #FFF301",
")  c #FFF202",
"_  c #FFF400",
"`  c #FFF500",
"'  c #FFF600",
"]  c #FFF700",
"[  c #FFF105",
"{  c #FFF204",
"}  c #FFF106",
"|  c #FFF107",
" . c #FFF800",
".. c #FFF900",
"X. c #FFFA00",
"o. c #FFFB00",
"O. c #FFFA02",
"+. c #FFFE05",
"@. c #FFF108",
"#. c #FFF20A",
"$. c #FFF709",
"%. c #FFF20C",
"&. c #FFF30C",
"*. c #FFF20D",
"=. c #FFFC0A",
"-. c #F0EA14",
";. c #FFF210",
":. c #FFF211",
">. c #FFF213",
",. c #FFF216",
"<. c #FFFC10",
"1. c #FFFE11",
"2. c #FFFF11",
"3. c #FFF218",
"4. c #FFF219",
"5. c #FFF319",
"6. c #FFF21C",
"7. c #FFFF1D",
"8. c #D5D121",
"9. c #FFF321",
"0. c #FFF329",
"q. c #FFF32C",
"w. c #FFF32D",
"e. c #FFF42E",
"r. c #FAEF31",
"t. c #FFF439",
"y. c #FFFA3B",
"u. c #FFF542",
"i. c #FFF543",
"p. c #FFF545",
"a. c #FFF546",
"s. c #FFF549",
"d. c #FFF54C",
"f. c #FFF551",
"g. c #FFF657",
"h. c #FFF65C",
"j. c #FFFE5E",
"k. c #FFF765",
"l. c #FFF76D",
"z. c #FFF76E",
"x. c #FFF773",
"c. c #FFF774",
"v. c #FFF776",
"b. c #FFF876",
"n. c #FFF880",
"m. c #FFF980",
"M. c #FFFA99",
"N. c #FFF99A",
"B. c #FFFB9A",
"V. c #FFFA9B",
"C. c #FFFA9F",
"Z. c #FFFAA0",
"A. c #FFFAA3",
"S. c #FFFAA9",
"D. c #FFFBAD",
"F. c #FFFBB6",
"G. c #FFFBB8",
"H. c #FFFCC1",
"J. c #FFFCC8",
"K. c #FFFCD2",
"L. c #FFFDD3",
"P. c #FFFDD4",
"I. c #FFFDD9",
"U. c #FFFDE0",
"Y. c None",
/* pixels */
"Y.Y.Y.Y.Y.Y.Y.Y.Y.Y.Y.Y.Y.Y.Y.Y.Y.Y.Y.Y.Y.Y.Y.Y.Y.Y.Y.Y.Y.Y.Y.Y.Y.Y.Y.Y.Y.Y.Y.Y.Y.Y.Y.Y.Y.Y.Y.Y.",
"Y.Y.Y.Y.Y.Y.Y.Y.Y.Y.Y.Y.Y.Y.Y.Y.Y.Y.Y.Y.Y.Y.Y.Y.Y.Y.Y.Y.Y.Y.Y.Y.Y.Y.Y.Y.Y.Y.Y.Y.Y.Y.Y.Y.Y.Y.Y.Y.",
"Y.Y.Y.Y.Y.Y.Y.Y.Y.Y.Y.Y.Y.Y.Y.Y.Y.Y.Y.Y.Y.Y.Y.Y.Y.Y.Y.Y.Y.Y.Y.Y.Y.Y.Y.Y.Y.Y.Y.Y.Y.Y.Y.Y.Y.Y.Y.Y.",
"Y.Y.Y.Y.Y.Y.Y.Y.Y.Y.Y.Y.Y.Y.Y.Y.Y.Y.Y.Y.Y.Y.Y.Y.Y.Y.Y.Y.Y.Y.Y.Y.Y.Y.Y.Y.Y.Y.Y.Y.Y.Y.Y.Y.Y.Y.Y.Y.",
"Y.Y.Y.Y.Y.Y.Y.Y.Y.Y.Y.Y.Y.Y.Y.Y.Y.Y.Y.Y.Y.Y.Y.Y.Y.Y.Y.Y.Y.Y.Y.Y.Y.Y.Y.Y.Y.Y.Y.Y.Y.Y.Y.Y.Y.Y.Y.Y.",
"Y.Y.Y.Y.Y.Y.Y.Y.Y.Y.Y.Y.Y.Y.Y.Y.Y.Y.Y.Y.Y.Y.Y.Y.Y.Y.Y.Y.Y.Y.Y.Y.Y.Y.Y.Y.Y.Y.Y.Y.Y.Y.Y.Y.Y.Y.Y.Y.",
"Y.Y.Y.Y.Y.Y.Y.Y.Y.Y.Y.Y.Y.Y.Y.Y.Y.Y.Y.Y.Y.Y.Y.Y.Y.Y.Y.Y.Y.Y.Y.Y.Y.Y.Y.Y.Y.Y.Y.Y.Y.Y.Y.Y.Y.Y.Y.Y.",
"Y.Y.Y.Y.Y.Y.Y.Y.Y.Y.Y.Y.Y.Y.Y.Y.Y.Y.Y.Y.Y.Y.Y.Y.Y.Y.Y.Y.Y.Y.Y.Y.Y.Y.Y.Y.Y.Y.Y.Y.Y.Y.Y.Y.Y.Y.Y.Y.",
"Y.Y.Y.Y.Y.Y.Y.Y.Y.Y.Y.Y.Y.Y.Y.Y.Y.Y.Y.Y.Y.Y.Y.Y.Y.Y.Y.Y.Y.Y.Y.Y.Y.Y.Y.Y.Y.Y.Y.Y.Y.Y.Y.Y.Y.Y.Y.Y.",
"Y.Y.Y.Y.Y.Y.Y.Y.Y.Y.Y.Y.Y.Y.Y.Y.Y.Y.Y.L.H.D.C.B.M.N.V.Y.Y.Y.Y.Y.Y.Y.Y.Y.Y.Y.Y.Y.Y.Y.Y.Y.Y.Y.Y.Y.",
"Y.Y.Y.Y.Y.Y.Y.Y.Y.Y.Y.Y.Y.Y.Y.Y.I.S.c.a.0.3.:.;.>.6.e.a.k.b.Y.Y.Y.Y.Y.Y.Y.Y.Y.Y.Y.Y.Y.Y.Y.Y.Y.Y.",
"Y.Y.Y.Y.Y.Y.Y.Y.Y.Y.Y.Y.Y.Y.U.A.p.%.W W W W W W W W W W } 9.p.j.Y.Y.Y.Y.Y.Y.Y.Y.Y.Y.Y.Y.Y.Y.Y.Y.",
"Y.Y.Y.Y.Y.Y.Y.Y.Y.Y.Y.Y.Y.G.f.#.W W W W W W W W W W W W W W Q 5.y.b Y.Y.Y.Y.Y.Y.Y.Y.Y.Y.Y.Y.Y.Y.",
"Y.Y.Y.Y.Y.Y.Y.Y.Y.Y.Y.K.z.,.W W W W W W W W W W W W W W W W W W { 7.8.Y.Y.Y.Y.Y.Y.Y.Y.Y.Y.Y.Y.Y.",
"Y.Y.Y.Y.Y.Y.Y.Y.Y.Y.J.s.W W W W W W W W W W W W W W W W W W W W W R 1.-.Y.Y.Y.Y.Y.Y.Y.Y.Y.Y.Y.Y.",
"Y.Y.Y.Y.Y.Y.Y.Y.Y.P.g.W W W W W W W W W W W W W W W W W W W W W W W R =.K Y.Y.Y.Y.Y.Y.Y.Y.Y.Y.Y.",
"Y.Y.Y.Y.Y.Y.Y.Y.Y.n.} W W W W W W W W W W W W W W W W W W W W W W W W Q +.k Y.Y.Y.Y.Y.Y.Y.Y.Y.Y.",
"Y.Y.Y.Y.Y.Y.Y.Y.Z.4.W W W W W W W W W W W W W W W W W W W W W W W W W W ( / 7 Y.Y.Y.Y.Y.Y.Y.Y.Y.",
"Y.Y.Y.Y.Y.Y.Y.F.i.W W W W W W W W W W W W W W W W W W W W W W W W W W W W ' m Y.Y.Y.Y.Y.Y.Y.Y.Y.",
"Y.Y.Y.Y.Y.Y.Y.x.[ W W W W W W W W W W W W W W W W W W W W W W W W W W W W ^ Y q Y.Y.Y.Y.Y.Y.Y.Y.",
"Y.Y.Y.Y.Y.Y.V.w.W W W W W W W W W W W W W W W W W W W W W W W W W W W W W ~ _ c Y.Y.Y.Y.Y.Y.Y.Y.",
"Y.Y.Y.Y.Y.Y.v.@.W W W W W W W W W W W W W ~  .' W W W W W W W W W W W W W W ` J = Y.Y.Y.Y.Y.Y.Y.",
"Y.Y.Y.Y.Y.Y.d.W W W W W W W W W W W W W ^ _ m Z ~ ~ W W W W W W W W W W W W _ L , Y.Y.Y.Y.Y.Y.Y.",
"Y.Y.Y.Y.Y.m.q.W W W W W W W W W W W W ^ ..l % ; A _ ~ W W W W W W W W W W W ^ T 0 Y.Y.Y.Y.Y.Y.Y.",
"Y.Y.Y.Y.Y.l.3.W W W W W W W W W W W _ o.z %     6 G ' ^ W W W W W W W W W W ~ ` r   Y.Y.Y.Y.Y.Y.",
"Y.Y.Y.Y.Y.h.*.W W W W W W W W W W ` ^ h $     Y.Y.2 M E ^ W W W W W W W W W ~  .p   Y.Y.Y.Y.Y.Y.",
"Y.Y.Y.Y.Y.d.| W W W W W W W W W ` ^ u       Y.Y.Y.Y.- v E ^ W W W W W W W W W ..a   Y.Y.Y.Y.Y.Y.",
"Y.Y.Y.Y.Y.u.} W W W W W W W W _ ! y .       Y.Y.Y.Y.Y.- B ` ~ W W W W W W W ~ ..i   Y.Y.Y.Y.Y.Y.",
"Y.Y.Y.Y.Y.t.| W W W W W W W ^ o.d .       Y.Y.Y.Y.Y.Y.Y.4 F _ ~ W W W W W W ~  .w   Y.Y.Y.Y.Y.Y.",
"Y.Y.Y.Y.Y.r.&.W W W W W W ^ ..z @       Y.Y.Y.Y.Y.Y.Y.Y.Y.6 S _ ~ W W W W W ~ ` 8   Y.Y.Y.Y.Y.Y.",
"Y.Y.Y.Y.Y.V <.W W W W W _ o.z %       Y.Y.Y.Y.Y.Y.Y.Y.Y.Y.Y.5 G ` ^ W W W W _ U :   Y.Y.Y.Y.Y.Y.",
"Y.Y.Y.Y.Y.Y.2.W W W W ` ^ g #     Y.Y.Y.Y.Y.Y.Y.Y.Y.Y.Y.Y.Y.Y.1 m E ^ W W W  .S *   Y.Y.Y.Y.Y.Y.",
"Y.Y.Y.Y.Y.Y.$.) W W ` ^ u       Y.Y.Y.Y.Y.Y.Y.Y.Y.Y.Y.Y.Y.Y.Y.Y.- v E ^ W W X.f     Y.Y.Y.Y.Y.Y.",
"Y.Y.Y.Y.Y.Y.C O.W _ ! t .       Y.Y.Y.Y.Y.Y.Y.Y.Y.Y.Y.Y.Y.Y.Y.Y.Y.- N ` ~ _ P >   Y.Y.Y.Y.Y.Y.Y.",
"Y.Y.Y.Y.Y.Y.Y.] _ o.s .       Y.Y.Y.Y.Y.Y.Y.Y.Y.Y.Y.Y.Y.Y.Y.Y.Y.Y.Y.3 D _ o.x o   Y.Y.Y.Y.Y.Y.Y.",
"Y.Y.Y.Y.Y.Y.Y.n o.z +       Y.Y.Y.Y.Y.Y.Y.Y.Y.Y.Y.Y.Y.Y.Y.Y.Y.Y.Y.Y.Y.6 H I <     Y.Y.Y.Y.Y.Y.Y.",
"Y.Y.Y.Y.Y.Y.Y.Y.j &       Y.Y.Y.Y.Y.Y.Y.Y.Y.Y.Y.Y.Y.Y.Y.Y.Y.Y.Y.Y.Y.Y.Y.9 e .   Y.Y.Y.Y.Y.Y.Y.Y.",
"Y.Y.Y.Y.Y.Y.Y.Y.O     Y.Y.Y.Y.Y.Y.Y.Y.Y.Y.Y.Y.Y.Y.Y.Y.Y.Y.Y.Y.Y.Y.Y.Y.Y.Y.X     Y.Y.Y.Y.Y.Y.Y.Y.",
"Y.Y.Y.Y.Y.Y.Y.Y.Y.  Y.Y.Y.Y.Y.Y.Y.Y.Y.Y.Y.Y.Y.Y.Y.Y.Y.Y.Y.Y.Y.Y.Y.Y.Y.Y.Y.Y.  Y.Y.Y.Y.Y.Y.Y.Y.Y.",
"Y.Y.Y.Y.Y.Y.Y.Y.Y.Y.Y.Y.Y.Y.Y.Y.Y.Y.Y.Y.Y.Y.Y.Y.Y.Y.Y.Y.Y.Y.Y.Y.Y.Y.Y.Y.Y.Y.Y.Y.Y.Y.Y.Y.Y.Y.Y.Y.",
"Y.Y.Y.Y.Y.Y.Y.Y.Y.Y.Y.Y.Y.Y.Y.Y.Y.Y.Y.Y.Y.Y.Y.Y.Y.Y.Y.Y.Y.Y.Y.Y.Y.Y.Y.Y.Y.Y.Y.Y.Y.Y.Y.Y.Y.Y.Y.Y.",
"Y.Y.Y.Y.Y.Y.Y.Y.Y.Y.Y.Y.Y.Y.Y.Y.Y.Y.Y.Y.Y.Y.Y.Y.Y.Y.Y.Y.Y.Y.Y.Y.Y.Y.Y.Y.Y.Y.Y.Y.Y.Y.Y.Y.Y.Y.Y.Y.",
"Y.Y.Y.Y.Y.Y.Y.Y.Y.Y.Y.Y.Y.Y.Y.Y.Y.Y.Y.Y.Y.Y.Y.Y.Y.Y.Y.Y.Y.Y.Y.Y.Y.Y.Y.Y.Y.Y.Y.Y.Y.Y.Y.Y.Y.Y.Y.Y.",
"Y.Y.Y.Y.Y.Y.Y.Y.Y.Y.Y.Y.Y.Y.Y.Y.Y.Y.Y.Y.Y.Y.Y.Y.Y.Y.Y.Y.Y.Y.Y.Y.Y.Y.Y.Y.Y.Y.Y.Y.Y.Y.Y.Y.Y.Y.Y.Y.",
"Y.Y.Y.Y.Y.Y.Y.Y.Y.Y.Y.Y.Y.Y.Y.Y.Y.Y.Y.Y.Y.Y.Y.Y.Y.Y.Y.Y.Y.Y.Y.Y.Y.Y.Y.Y.Y.Y.Y.Y.Y.Y.Y.Y.Y.Y.Y.Y.",
"Y.Y.Y.Y.Y.Y.Y.Y.Y.Y.Y.Y.Y.Y.Y.Y.Y.Y.Y.Y.Y.Y.Y.Y.Y.Y.Y.Y.Y.Y.Y.Y.Y.Y.Y.Y.Y.Y.Y.Y.Y.Y.Y.Y.Y.Y.Y.Y.",
"Y.Y.Y.Y.Y.Y.Y.Y.Y.Y.Y.Y.Y.Y.Y.Y.Y.Y.Y.Y.Y.Y.Y.Y.Y.Y.Y.Y.Y.Y.Y.Y.Y.Y.Y.Y.Y.Y.Y.Y.Y.Y.Y.Y.Y.Y.Y.Y.",
"Y.Y.Y.Y.Y.Y.Y.Y.Y.Y.Y.Y.Y.Y.Y.Y.Y.Y.Y.Y.Y.Y.Y.Y.Y.Y.Y.Y.Y.Y.Y.Y.Y.Y.Y.Y.Y.Y.Y.Y.Y.Y.Y.Y.Y.Y.Y.Y."
};
