/* XPM */
static char *result[] = {
/* columns rows colors chars-per-pixel */
"48 48 171 2 ",
"   c black",
".  c #010100",
"X  c #030300",
"o  c #060600",
"O  c #0A0A00",
"+  c #0D0C00",
"@  c #111000",
"#  c #121200",
"$  c #131200",
"%  c #161500",
"&  c #181700",
"*  c #1B1A00",
"=  c #1F1D00",
"-  c #201E00",
";  c #242200",
":  c #262400",
">  c #2B2900",
",  c #2E2B00",
"<  c #2F2C00",
"1  c #393600",
"2  c #3D3A00",
"3  c #413D00",
"4  c #413E00",
"5  c #454100",
"6  c #464200",
"7  c #494400",
"8  c #4E4900",
"9  c #4F4B00",
"0  c #524D00",
"q  c #565100",
"w  c #575200",
"e  c #5B5600",
"r  c #5E5900",
"t  c #5F5900",
"y  c #605C00",
"u  c #666000",
"i  c #716A00",
"p  c #736C00",
"a  c #746E00",
"s  c #756F00",
"d  c #7D7700",
"f  c #7F7800",
"g  c #847D00",
"h  c #857E00",
"j  c #898200",
"k  c #8B8400",
"l  c #8C8400",
"z  c #958C00",
"x  c #978E00",
"c  c #9B9300",
"v  c #A49B00",
"b  c #ADA300",
"n  c #B2A800",
"m  c #B4AA00",
"M  c #B5AB00",
"N  c #BFB400",
"B  c #C2B800",
"V  c #C5BB00",
"C  c #C8BC00",
"Z  c #CABD01",
"A  c #C1B71D",
"S  c #CBC000",
"D  c #CDC200",
"F  c #D0C400",
"G  c #DACE00",
"H  c #DCCF00",
"J  c #DDD100",
"K  c #DFDA12",
"L  c #E5DB05",
"P  c #E8DB00",
"I  c #EDE000",
"U  c #EEE100",
"Y  c #EFE200",
"T  c #F0E300",
"R  c #F1E400",
"E  c #F2E500",
"W  c #F3E500",
"Q  c #F3E600",
"!  c #F5E800",
"~  c #F6E900",
"^  c #F8EA00",
"/  c #FEF000",
"(  c #FFF000",
")  c #FFF100",
"_  c #FFF101",
"`  c #FFF200",
"'  c #FFF300",
"]  c #FFF301",
"[  c #FFF102",
"{  c #FFF302",
"}  c #FFF400",
"|  c #FFF500",
" . c #FFF600",
".. c #FFF700",
"X. c #FFF104",
"o. c #FFF105",
"O. c #FFF106",
"+. c #FFF107",
"@. c #FFF800",
"#. c #FFF900",
"$. c #FFFA00",
"%. c #FFFB00",
"&. c #FFFB02",
"*. c #FFFD00",
"=. c #FFFE05",
"-. c #FFF108",
";. c #FFF10A",
":. c #FFF30B",
">. c #FFF70A",
",. c #FFF20C",
"<. c #FFF20D",
"1. c #FFFE0B",
"2. c #FFF210",
"3. c #FFF216",
"4. c #FFF217",
"5. c #FFF317",
"6. c #FFFD10",
"7. c #FFFD11",
"8. c #FFFF11",
"9. c #FFF218",
"0. c #FFF21A",
"q. c #FFF21B",
"w. c #FFF31F",
"e. c #C8C120",
"r. c #C3C033",
"t. c #FFF325",
"y. c #FFFF22",
"u. c #FFF32B",
"i. c #FFF32C",
"p. c #FFF42E",
"a. c #F7EC31",
"s. c #FFF538",
"d. c #FFFB3A",
"f. c #FFF540",
"g. c #FFF541",
"h. c #FFF542",
"j. c #FFF543",
"k. c #FFF544",
"l. c #FFF54B",
"z. c #FFF54C",
"x. c #FFF54D",
"c. c #FFF654",
"v. c #FFF65D",
"b. c #FFFD5A",
"n. c #FFF662",
"m. c #FFF76C",
"M. c #FFF76E",
"N. c #FFF775",
"B. c #FFF874",
"V. c #FFF87C",
"C. c #FFF97F",
"Z. c #FFF886",
"A. c #FFF992",
"S. c #FFF993",
"D. c #FFF999",
"F. c #FFF99A",
"G. c #FFF99D",
"H. c #FFFA9C",
"J. c #FFFA9D",
"K. c #FFFAA4",
"L. c #FFFAAB",
"P. c #FFFBB5",
"I. c #FFFBB6",
"U. c #FFFBBD",
"Y. c #FFFCC5",
"T. c #FFFDD1",
"R. c #FFFCD3",
"E. c #FFFED7",
"W. c #FFFDDD",
"Q. c #FFFEDE",
"!. c None",
/* pixels */
"!.!.!.!.!.!.!.!.!.!.!.!.!.!.!.!.!.!.!.!.!.!.!.!.!.!.!.!.!.!.!.!.!.!.!.!.!.!.!.!.!.!.!.!.!.!.!.!.",
"!.!.!.!.!.!.!.!.!.!.!.!.!.!.!.!.!.!.!.!.!.!.!.!.!.!.!.!.!.!.!.!.!.!.!.!.!.!.!.!.!.!.!.!.!.!.!.!.",
"!.!.!.!.!.!.!.!.!.!.!.!.!.!.!.!.!.!.!.!.!.!.!.!.!.!.!.!.!.!.!.!.!.!.!.!.!.!.!.!.!.!.!.!.!.!.!.!.",
"!.!.!.!.!.!.!.!.!.!.!.!.!.!.!.!.!.!.!.!.!.!.!.!.!.!.!.!.!.!.!.!.!.!.!.!.!.!.!.!.!.!.!.!.!.!.!.!.",
"!.!.!.!.!.!.!.!.!.!.!.!.!.!.!.!.!.!.!.!.!.!.!.!.!.!.!.!.!.!.!.!.!.!.!.!.!.!.!.!.!.!.!.!.!.!.!.!.",
"!.!.!.!.!.!.!.!.!.!.!.!.!.!.!.!.!.!.!.T.U.L.H.A.S.D.F.!.!.!.!.!.!.!.!.!.!.!.!.!.!.!.!.!.!.!.!.!.",
"!.!.!.!.!.!.!.!.!.!.!.!.!.!.!.!.E.K.M.h.t.3.,.;.2.0.u.k.n.B.!.!.!.!.!.!.!.!.!.!.!.!.!.!.!.!.!.!.",
"!.!.!.!.!.!.!.!.!.!.!.!.!.!.Q.J.f.;.) ) ) ) ) ) ) ) ) ) o.w.j.b.!.!.!.!.!.!.!.!.!.!.!.!.!.!.!.!.",
"!.!.!.!.!.!.!.!.!.!.!.!.!.P.z.-.) ) ) ) ) ) ) ) ) ) ) ) ) ) ) 5.d.r.!.!.!.!.!.!.!.!.!.!.!.!.!.!.",
"!.!.!.!.!.!.!.!.!.!.!.W.Z.q.) ) ) ) ) ) ) ) ) ) ) ) ) ) ) ) ) ) X.y.e.!.!.!.!.!.!.!.!.!.!.!.!.!.",
"!.!.!.!.!.!.!.!.!.!.Y.x.[ ) ) ) ) ) ) ) ) ) ) ) ) ) ) ) ) ) ) ) ) ( 7.K !.!.!.!.!.!.!.!.!.!.!.!.",
"!.!.!.!.!.!.!.!.!.R.c.) ) ) ) ) ) ) ) ) ) ) ) ) ) ) ) ) ) ) ) ) ) ) ( 1.L !.!.!.!.!.!.!.!.!.!.!.",
"!.!.!.!.!.!.!.!.!.V.o.) ) ) ) ) ) ) ) ) ) ) ) ) ) ) ) ) ) ) ) ) ) ) ) _ =.n !.!.!.!.!.!.!.!.!.!.",
"!.!.!.!.!.!.!.!.J.4.) ) ) ) ) ) ) ) ) ) ) ) ) ) ) ) ) ) ) ) ) ) ) ) ) ) ] ] t !.!.!.!.!.!.!.!.!.",
"!.!.!.!.!.!.!.I.g.) ) ) ) ) ) ) ) ) ) ) ) ) ) ) ) ) ) ) ) ) ) ) ) ) ) ) )  .S !.!.!.!.!.!.!.!.!.",
"!.!.!.!.!.!.!.V.+.) ) ) ) ) ) ) ) ) ) ) ) ) ) ) ) ) ) ) ) ) ) ) ) ) ) ) ) } ^ y !.!.!.!.!.!.!.!.",
"!.!.!.!.!.!.G.p.) ) ) ) ) ) ) ) ) ) ) ) ) ) ) ) ) ) ) ) ) ) ) ) ) ) ) ) ) ` } m !.!.!.!.!.!.!.!.",
"!.!.!.!.!.!.N.+.) ) ) ) ) ) ) ) ) ) ) ) ) ) ) ) ) ) ) ) ) ) ) ) ) ) ) ) ) ) | J , !.!.!.!.!.!.!.",
"!.!.!.!.!.!.l.) ) ) ) ) ) ) ) ) ) ) ) ) ) ) ) ) ) ) ) ) ) ) ) ) ) ) ) ) ) ) } W 7 !.!.!.!.!.!.!.",
"!.!.!.!.!.C.i.) ) ) ) ) ) ) ) ) ) ) ) ) ) ) ) ) ) ) ) ) ) ) ) ) ) ) ) ) ) ) ' / u !.!.!.!.!.!.!.",
"!.!.!.!.!.m.9.) ) ) ) ) ) ) ) ) ) ) ) ) ) ) ) ) ) ) ) ) ) ) ) ) ) ) ) ) ) ) `  .d   !.!.!.!.!.!.",
"!.!.!.!.!.v.<.) ) ) ) ) ) ) ) ) ) ) ) ) ) ) ) ) ) ) ) ) ) ) ) ) ) ) ) ) ) ) ` @.j   !.!.!.!.!.!.",
"!.!.!.!.!.z.-.) ) ) ) ) ) ) ) ) ) ) ) ) ) ) ) ) ) ) ) ) ) ) ) ) ) ) ) ) ) ) ) #.l   !.!.!.!.!.!.",
"!.!.!.!.!.g.O.) ) ) ) ) ) ) ) ) ) ) ) ) ) ) ) ) ) ) ) ) ) ) ) ) ) ) ) ) ) ) ) #.h   !.!.!.!.!.!.",
"!.!.!.!.!.s.-.) ) ) ) ) ) ) ) ) ) ) ) ) ) ) ) ) ) ) ) ) ) ) ) ) ) ) ) ) ) ) ` @.a   !.!.!.!.!.!.",
"!.!.!.!.!.a.:.) ) ) ) ) ) ) ) ) ) ) ) ) ) ) ) ) ) ) ) ) ) ) ) ) ) ) ) ) ) ) ` | e   !.!.!.!.!.!.",
"!.!.!.!.!.A 6.) ) ) ) ) ) ) ) ) ) ) ) ) ) ) ) ) ) ) ) ) ) ) ) ) ) ) ) ) ) ) } ^ 2   !.!.!.!.!.!.",
"!.!.!.!.!.!.8.) ) ) ) ) ) ) ) ) ) ) ) ) ) ) ) ) ) ) ) ) ) ) ) ) ) ) ) ) ) ) ..H *   !.!.!.!.!.!.",
"!.!.!.!.!.!.>.{ ) ) ) ) ) ) ) ) ) ) ) ) ) ) ) ) ) ) ) ) ) ) ) ) ) ) ) ) ) ) #.x .   !.!.!.!.!.!.",
"!.!.!.!.!.!.Z &.) ) ) ) ) ) ) ) ) ) ) ) ) ) ) ) ) ) ) ) ) ) ) ) ) ) ) ) ) | ~ 4   !.!.!.!.!.!.!.",
"!.!.!.!.!.!.!. .' ) ) ) ) ) ) ) ) ) ) ) ) ) ) ) ) ) ) ) ) ) ) ) ) ) ) ) ) $.m o   !.!.!.!.!.!.!.",
"!.!.!.!.!.!.!.N | ` ) ) ) ) ) ) ) ) ) ) ) ) ) ) ) ) ) ) ) ) ) ) ) ) ) ) | ~ 5     !.!.!.!.!.!.!.",
"!.!.!.!.!.!.!.!.P } ) ) ) ) ) ) ) ) ) ) ) ) ) ) ) ) ) ) ) ) ) ) ) ) ) ` $.z     !.!.!.!.!.!.!.!.",
"!.!.!.!.!.!.!.!.s R | ) ) ) ) ) ) ) ) ) ) ) ) ) ) ) ) ) ) ) ) ) ) ) ` %.C &     !.!.!.!.!.!.!.!.",
"!.!.!.!.!.!.!.!.!.i I  .) ) ) ) ) ) ) ) ) ) ) ) ) ) ) ) ) ) ) ) ) ) $.B -     !.!.!.!.!.!.!.!.!.",
"!.!.!.!.!.!.!.!.!.!.f Y  .` ) ) ) ) ) ) ) ) ) ) ) ) ) ) ) ) ) ) ` *.V =       !.!.!.!.!.!.!.!.!.",
"!.!.!.!.!.!.!.!.!.!.+ p G | | ) ) ) ) ) ) ) ) ) ) ) ) ) ) ) )  .$.V ;       !.!.!.!.!.!.!.!.!.!.",
"!.!.!.!.!.!.!.!.!.!.!.X 6 b Q @.} ) ) ) ) ) ) ) ) ) ) ) ` | %.E k $       !.!.!.!.!.!.!.!.!.!.!.",
"!.!.!.!.!.!.!.!.!.!.!.!.  % r M ! $.@.| ' ` ` ` ` ' | #.$.T v 1         !.!.!.!.!.!.!.!.!.!.!.!.",
"!.!.!.!.!.!.!.!.!.!.!.!.!.!.  @ 0 c F Y / ..#.#.../ U D g <           !.!.!.!.!.!.!.!.!.!.!.!.!.",
"!.!.!.!.!.!.!.!.!.!.!.!.!.!.!.      # > 3 9 w q 8 2 : O           !.!.!.!.!.!.!.!.!.!.!.!.!.!.!.",
"!.!.!.!.!.!.!.!.!.!.!.!.!.!.!.!.!.                            !.!.!.!.!.!.!.!.!.!.!.!.!.!.!.!.!.",
"!.!.!.!.!.!.!.!.!.!.!.!.!.!.!.!.!.!.!.!.!.            !.!.!.!.!.!.!.!.!.!.!.!.!.!.!.!.!.!.!.!.!.",
"!.!.!.!.!.!.!.!.!.!.!.!.!.!.!.!.!.!.!.!.!.!.!.!.!.!.!.!.!.!.!.!.!.!.!.!.!.!.!.!.!.!.!.!.!.!.!.!.",
"!.!.!.!.!.!.!.!.!.!.!.!.!.!.!.!.!.!.!.!.!.!.!.!.!.!.!.!.!.!.!.!.!.!.!.!.!.!.!.!.!.!.!.!.!.!.!.!.",
"!.!.!.!.!.!.!.!.!.!.!.!.!.!.!.!.!.!.!.!.!.!.!.!.!.!.!.!.!.!.!.!.!.!.!.!.!.!.!.!.!.!.!.!.!.!.!.!.",
"!.!.!.!.!.!.!.!.!.!.!.!.!.!.!.!.!.!.!.!.!.!.!.!.!.!.!.!.!.!.!.!.!.!.!.!.!.!.!.!.!.!.!.!.!.!.!.!.",
"!.!.!.!.!.!.!.!.!.!.!.!.!.!.!.!.!.!.!.!.!.!.!.!.!.!.!.!.!.!.!.!.!.!.!.!.!.!.!.!.!.!.!.!.!.!.!.!."
};
