/* XPM */
static char *result[] = {
/* columns rows colors chars-per-pixel */
"48 48 215 2 ",
"   c black",
".  c #020200",
"X  c #040400",
"o  c #080700",
"O  c #090900",
"+  c #0C0B00",
"@  c #0E0E00",
"#  c #0F0E00",
"$  c #101000",
"%  c #131200",
"&  c #151400",
"*  c #161500",
"=  c #1A1800",
"-  c #1A1900",
";  c #1B1900",
":  c #1C1A00",
">  c #1D1B00",
",  c #211F00",
"<  c #252300",
"1  c #262500",
"2  c #2B2800",
"3  c #2C2900",
"4  c #2D2B00",
"5  c #333000",
"6  c #363300",
"7  c #3A3700",
"8  c #3C3900",
"9  c #3D3900",
"0  c #222327",
"q  c #403D00",
"w  c #444000",
"e  c #454200",
"r  c #464200",
"t  c #474300",
"y  c #484400",
"u  c #4A4600",
"i  c #4B4700",
"p  c #4E4A00",
"a  c #4F4B00",
"s  c #565200",
"d  c #5B5500",
"f  c #5B5600",
"g  c #5D5800",
"h  c #5E5900",
"j  c #645E00",
"k  c #686200",
"l  c #6C6700",
"z  c #6D6800",
"x  c #746E00",
"c  c #756E00",
"v  c #7C7500",
"b  c #7F7800",
"n  c #63655E",
"m  c #807900",
"M  c #867E00",
"N  c #878000",
"B  c #8A8300",
"V  c #8B8300",
"C  c #8C8400",
"Z  c #908800",
"A  c #978F00",
"S  c #988F00",
"D  c #9D9400",
"F  c #A29900",
"G  c #A69D00",
"H  c #AAA000",
"J  c #AAA100",
"K  c #ADA400",
"L  c #ABA30C",
"P  c #B0A600",
"I  c #B1A700",
"U  c #B4AA00",
"Y  c #B6AC00",
"T  c #B8AE00",
"R  c #BAB000",
"E  c #B0AC2A",
"W  c #C1B600",
"Q  c #C4B900",
"!  c #C6BB00",
"~  c #C8BD00",
"^  c #C8BE00",
"/  c #CDC200",
"(  c #CEC200",
")  c #CEC300",
"_  c #D2C700",
"`  c #D3C700",
"'  c #D5C900",
"]  c #D7CB00",
"[  c #DBCF00",
"{  c #DDD100",
"}  c #DED200",
"|  c #DFD505",
" . c #E0D400",
".. c #E3D600",
"X. c #E7DB00",
"o. c #E9DD00",
"O. c #ECDF00",
"+. c #EEE100",
"@. c #EFE200",
"#. c #F0E300",
"$. c #F1E400",
"%. c #F2E400",
"&. c #F2E500",
"*. c #F7E900",
"=. c #F7EA00",
"-. c #F7EB00",
";. c #F9EB00",
":. c #F9EC00",
">. c #F9ED00",
",. c #FBEE00",
"<. c #FCEE00",
"1. c #FEF000",
"2. c #FFF000",
"3. c #FEF100",
"4. c #FFF100",
"5. c #FFF101",
"6. c #FFF200",
"7. c #FFF300",
"8. c #FFF201",
"9. c #FFF301",
"0. c #FFF102",
"q. c #FFF400",
"w. c #FFF500",
"e. c #FFF600",
"r. c #FFF700",
"t. c #FFF105",
"y. c #FEF305",
"u. c #FFF107",
"i. c #FFF800",
"p. c #FFF900",
"a. c #FFF901",
"s. c #FFFA00",
"d. c #FFFB00",
"f. c #FFFC00",
"g. c #FFFD00",
"h. c #FFFF05",
"j. c #FFF10A",
"k. c #FFF20B",
"l. c #FFF20C",
"z. c #FFF20F",
"x. c #FFF50F",
"c. c #FFFD0C",
"v. c #EBE412",
"b. c #FFF210",
"n. c #FFF212",
"m. c #FFF215",
"M. c #FFFD10",
"N. c #FFF31B",
"B. c #FFF41A",
"V. c #FFF21C",
"C. c #FFF31F",
"Z. c #FFF61F",
"A. c #FFFF1B",
"S. c #E2DD22",
"D. c #E8DD34",
"F. c #FFF320",
"G. c #FFF324",
"H. c #FFF326",
"J. c #FFF327",
"K. c #FFF42D",
"L. c #FFF332",
"P. c #FFF535",
"I. c #FFFA38",
"U. c #FFFC39",
"Y. c #FFFE3E",
"T. c #C2BE66",
"R. c #FFF541",
"E. c #FFF542",
"W. c #FFF547",
"Q. c #FFF54A",
"!. c #FFF54B",
"~. c #FFF54F",
"^. c #FFF551",
"/. c #FFF658",
"(. c #FFF65D",
"). c #FFF65E",
"_. c #FFFB5C",
"`. c #FFF763",
"'. c #FFFA61",
"]. c #FFF768",
"[. c #FFFF6C",
"{. c #FFF775",
"}. c #FFF877",
"|. c #FFF879",
" X c #FFFF7C",
".X c #FFFF82",
"XX c #FFF884",
"oX c #FFF999",
"OX c #FFFA99",
"+X c #FFF99A",
"@X c #FFF99B",
"#X c #FFF89D",
"$X c #FFFA9E",
"%X c #C8C5A2",
"&X c #F7F2A4",
"*X c #FFFAA2",
"=X c #FFFAA3",
"-X c #FFF9A4",
";X c #FFFAA7",
":X c #FFFAA8",
">X c #FFFAAD",
",X c #FFFAAE",
"<X c #FFFBB0",
"1X c #FFFBB4",
"2X c #FFFBC1",
"3X c #FFFFC4",
"4X c #FFFCC8",
"5X c #FFFCCC",
"6X c #FFFCD1",
"7X c #FFFCD3",
"8X c #FFFDD4",
"9X c #FFFDDC",
"0X c #FFFDE2",
"qX c #FFFFE6",
"wX c None",
/* pixels */
"wXwXwXwXwXwXwXwXwXwXwXwXwXwXwXwXwXwXwXwXwXwXwXwXwXwXwXwXwXwXwXwXwXwXwXwXwXwXwXwXwXwXwXwXwXwXwXwX",
"wXwXwXwXwXwXwXwXwXwXwXwXwXwXwXwXwXwXwXwXwXwXwXwXwXwXwXwXwXwXwXwXwXwXwXwXwXwXwXwXwXwXwXwXwXwXwXwX",
"wXwXwXwXwXwXwXwXwXwXwXwXwXwXwXwXwXwXwXwXwXwXwXwXwXwXwXwXwXwXwXwXwXwXwXwXwXwXwXwXwXwXwXwXwXwXwXwX",
"wXwXwXwXwXwXwXwXwXwXwXwXwXwXwXwXwXwXwXwXwXwXwXwXwXwXwXwXwXwXwXwXwXwXwXwXwXwXwXwXwXwXwXwXwXwXwXwX",
"wXwXwXwXwXwXwXwXwXwXwXwXwXwXwXwXwXwX8X2X<X=X+XOX#X$XwXwXwXwXwXwXwXwXwXwXwXwXwXwXwXwXwXwXwXwXwXwX",
"wXwXwXwXwXwXwXwXwXwXwXwXwXwXwX9X,X|.!.K.V.n.b.m.F.L.Q.].}.wXwXwXwXwXwXwXwXwXwXwXwXwXwXwXwXwXwXwX",
"wXwXwXwXwXwXwXwXwXwXwXwXwX0X:XQ.z.4.4.4.4.4.4.4.4.4.4.u.G.W._.wXwXwXwXwXwXwXwXwXwXwXwXwXwXwXwXwX",
"wXwXwXwXwXwXwXwXwXwXwXwX>X^.l.4.4.4.4.4.4.4.4.4.4.4.4.4.4.5.B.I.E wXwXwXwXwXwXwXwXwXwXwXwXwXwXwX",
"wXwXwXwXwXwXwXwXwXwX7X].j.4.4.4.4.4.4.4.4.4.4.4.4.4.4.4.4.4.4.8.A.S.wXwXwXwXwXwXwXwXwXwXwXwXwXwX",
"wXwXwXwXwXwXwXwXwX5X~.4.4.4.4.4.4.4.4.4.4.4.4.4.4.4.4.4.4.4.4.4.2.M.v.wXwXwXwXwXwXwXwXwXwXwXwXwX",
"wXwXwXwXwXwXwXwX8X(.4.4.4.4.4.4.4.4.4.4.4.4.4.4.4.4.4.4.4.4.4.4.4.2.c.| wXwXwXwXwXwXwXwXwXwXwXwX",
"wXwXwXwXwXwXwXwXXXu.4.4.4.4.4.4.4.4.4.4.4.4.4.4.4.4.4.4.4.4.4.4.4.4.5.h.J wXwXwXwXwXwXwXwXwXwXwX",
"wXwXwXwXwXwXwX*XN.4.4.4.4.4.4.4.4.4.4.4.4.4.4.4.4.4.4.4.4.4.4.4.4.4.4.9.8.s wXwXwXwXwXwXwXwXwXwX",
"wXwXwXwXwXwX1XR.4.4.4.4.4.4.4.4.4.4.4.4.4.4.4.4.4.4.4.4.4.4.4.4.4.4.4.4.e.~ wXwXwXwXwXwXwXwXwXwX",
"wXwXwXwXwXwX[.a.w.6.4.4.4.4.4.4.4.4.4.4.4.4.4.4.4.4.4.4.4.4.4.4.4.4.4.4.7.<.z wXwXwXwXwXwXwXwXwX",
"wXwXwXwXwXD.L Q #.r.p.w.6.4.4.4.4.4.4.4.4.4.4.4.4.4.4.4.4.4.4.4.4.4.4.4.6.q.U wXwXwXwXwXwXwXwXwX",
"wXwXwXwXwXwX  # 7 b W O.w.p.r.7.4.4.4.4.4.4.4.4.4.4.4.4.4.4.4.4.4.4.4.4.4.w.[ 3 wXwXwXwXwXwXwXwX",
"wXwXwXwXwXwXwX      + 5 l H { 3.s.r.q.6.4.4.4.4.4.4.4.4.4.4.4.4.4.4.4.4.4.q.%.r wXwXwXwXwXwXwXwX",
"wXwXwXwXwXwXwXwXwX        . , h F ] :.p.d.r.7.6.4.4.4.4.4.4.4.4.4.4.4.4.4.7.1.j wXwXwXwXwXwXwXwX",
"wXwXwXwXwXwXwXwXwXwXwXwX          : i m I } ,.i.p.q.4.4.4.4.4.4.4.4.4.4.4.6.e.v   wXwXwXwXwXwXwX",
"wXwXwXwXwXwXwXwXwXwXwXwXwXwXwXwX          ; p V ! @.1.4.4.4.4.4.4.4.4.4.4.6.p.B   wXwXwXwXwXwXwX",
"wXwXwXwXwXwXwXwXwXwXwXwXwXwXwXwXwXwXwX          % D y.6.4.4.4.4.4.4.4.4.4.4.p.C   wXwXwXwXwXwXwX",
"wXwXwXwXwXwXwXwXwXwXwXwXwXwXwXwXwXwXwXwXwXwXwX0 n T.Z.4.4.4.4.4.4.4.4.4.4.4.p.M   wXwXwXwXwXwXwX",
"wXwXwXwXwXwXwXwXwXwXwXwXwXwXwXwXwXwXwXwXwXwX%X&X XU.u.4.4.4.4.4.4.4.4.4.4.6.p.c   wXwXwXwXwXwXwX",
"wXwXwXwXwXwXwXwXwXwXwXwXwXwXwXwXwXwXwXqX3X.XY.x.4.4.4.4.4.4.4.4.4.4.4.4.4.6.w.g   wXwXwXwXwXwXwX",
"wXwXwXwXwXwXwXwXwXwXwXwXwXwXwXwX4X-X{.E.m.4.4.4.4.4.4.4.4.4.4.4.4.4.4.4.4.q.*.8   wXwXwXwXwXwXwX",
"wXwXwXwXwXwXwXwXwXwXwXwXwX4X@X/.C.0.4.4.4.4.4.4.4.4.4.4.4.4.4.4.4.4.4.4.4.i.` &   wXwXwXwXwXwXwX",
"wXwXwXwXwXwXwXwXwXwX4XoX).J.t.4.4.4.4.4.4.4.4.4.4.4.4.4.4.4.4.4.4.4.4.4.4.s.S     wXwXwXwXwXwXwX",
"wXwXwXwXwXwXwX6X;X`.H.t.4.4.4.4.4.4.4.4.4.4.4.4.4.4.4.4.4.4.4.4.4.4.4.4.q.=.e   wXwXwXwXwXwXwXwX",
"wXwXwXwXwXwX'.P.k.4.4.4.4.4.4.4.4.4.4.4.4.4.4.4.4.4.4.4.4.4.4.4.4.4.4.4.s.T o   wXwXwXwXwXwXwXwX",
"wXwXwXwXwXwX( e.6.4.4.4.4.4.4.4.4.4.4.4.4.4.4.4.4.4.4.4.4.4.4.4.4.4.4.e.>.u     wXwXwXwXwXwXwXwX",
"wXwXwXwXwXwXwX..7.6.4.4.4.4.4.4.4.4.4.4.4.4.4.4.4.4.4.4.4.4.4.4.4.4.7.i.Z .   wXwXwXwXwXwXwXwXwX",
"wXwXwXwXwXwXwXd X.q.4.4.4.4.4.4.4.4.4.4.4.4.4.4.4.4.4.4.4.4.4.4.4.6.s.P O     wXwXwXwXwXwXwXwXwX",
"wXwXwXwXwXwXwXwXx +.e.4.4.4.4.4.4.4.4.4.4.4.4.4.4.4.4.4.4.4.4.4.6.s.^ >     wXwXwXwXwXwXwXwXwXwX",
"wXwXwXwXwXwXwXwXwXN &.e.6.4.4.4.4.4.4.4.4.4.4.4.4.4.4.4.4.4.4.6.g./ <       wXwXwXwXwXwXwXwXwXwX",
"wXwXwXwXwXwXwXwXwX$ v  .e.q.4.4.4.4.4.4.4.4.4.4.4.4.4.4.4.4.w.s.) 2       wXwXwXwXwXwXwXwXwXwXwX",
"wXwXwXwXwXwXwXwXwXwXX a Y =.p.w.6.4.4.4.4.4.4.4.4.4.4.6.e.f.-.A =       wXwXwXwXwXwXwXwXwXwXwXwX",
"wXwXwXwXwXwXwXwXwXwXwX  : k R $.i.s.i.w.q.7.7.q.w.i.f.e.o.K w         wXwXwXwXwXwXwXwXwXwXwXwXwX",
"wXwXwXwXwXwXwXwXwXwXwXwXwX  o 6 x K ' O.;.1.1.;.O._ G f -         wXwXwXwXwXwXwXwXwXwXwXwXwXwXwX",
"wXwXwXwXwXwXwXwXwXwXwXwXwXwX      . * 4 q y t 9 1 @             wXwXwXwXwXwXwXwXwXwXwXwXwXwXwXwX",
"wXwXwXwXwXwXwXwXwXwXwXwXwXwXwXwX                            wXwXwXwXwXwXwXwXwXwXwXwXwXwXwXwXwXwX",
"wXwXwXwXwXwXwXwXwXwXwXwXwXwXwXwXwXwXwXwX              wXwXwXwXwXwXwXwXwXwXwXwXwXwXwXwXwXwXwXwXwX",
"wXwXwXwXwXwXwXwXwXwXwXwXwXwXwXwXwXwXwXwXwXwXwXwXwXwXwXwXwXwXwXwXwXwXwXwXwXwXwXwXwXwXwXwXwXwXwXwX",
"wXwXwXwXwXwXwXwXwXwXwXwXwXwXwXwXwXwXwXwXwXwXwXwXwXwXwXwXwXwXwXwXwXwXwXwXwXwXwXwXwXwXwXwXwXwXwXwX",
"wXwXwXwXwXwXwXwXwXwXwXwXwXwXwXwXwXwXwXwXwXwXwXwXwXwXwXwXwXwXwXwXwXwXwXwXwXwXwXwXwXwXwXwXwXwXwXwX",
"wXwXwXwXwXwXwXwXwXwXwXwXwXwXwXwXwXwXwXwXwXwXwXwXwXwXwXwXwXwXwXwXwXwXwXwXwXwXwXwXwXwXwXwXwXwXwXwX",
"wXwXwXwXwXwXwXwXwXwXwXwXwXwXwXwXwXwXwXwXwXwXwXwXwXwXwXwXwXwXwXwXwXwXwXwXwXwXwXwXwXwXwXwXwXwXwXwX",
"wXwXwXwXwXwXwXwXwXwXwXwXwXwXwXwXwXwXwXwXwXwXwXwXwXwXwXwXwXwXwXwXwXwXwXwXwXwXwXwXwXwXwXwXwXwXwXwX"
};
