/* XPM */
static char *result[] = {
/* columns rows colors chars-per-pixel */
"48 48 229 2 ",
"   c black",
".  c #010100",
"X  c #040400",
"o  c #050500",
"O  c #060600",
"+  c #070600",
"@  c #090700",
"#  c #090800",
"$  c #0A0900",
"%  c #0B0A00",
"&  c #0B0B00",
"*  c #0C0B00",
"=  c #100F00",
"-  c #111000",
";  c #131100",
":  c #131300",
">  c #151400",
",  c #171600",
"<  c #1E1C00",
"1  c #201E00",
"2  c #211F00",
"3  c #252300",
"4  c #2B2800",
"5  c #2B2900",
"6  c #2F2D00",
"7  c #302D00",
"8  c #373400",
"9  c #3C3900",
"0  c #3F3C00",
"q  c #444000",
"w  c #454100",
"e  c #464200",
"r  c #494500",
"t  c #4A4600",
"y  c #504C00",
"u  c #585400",
"i  c #5A5500",
"p  c #5C5700",
"a  c #615C00",
"s  c #635E00",
"d  c #645F00",
"f  c #696301",
"g  c #6D6600",
"h  c #767000",
"j  c #777000",
"k  c #787200",
"l  c #7B7400",
"z  c #7A7500",
"x  c #7F7800",
"c  c #807800",
"v  c #827B00",
"b  c #807802",
"n  c #867E00",
"m  c #8B8300",
"M  c #8B8400",
"N  c #8C8500",
"B  c #8D8500",
"V  c #8E8704",
"C  c #938B00",
"Z  c #938C03",
"A  c #999100",
"S  c #9A9200",
"D  c #A19A01",
"F  c #A39B00",
"G  c #A59C00",
"H  c #ADA300",
"J  c #AEA400",
"K  c #AEA500",
"L  c #B1A700",
"P  c #B5AA00",
"I  c #B5AB00",
"U  c #B8AE00",
"Y  c #BEB300",
"T  c #BAB119",
"R  c #C1B500",
"E  c #C1B807",
"W  c #CBBF00",
"Q  c #C9BE05",
"!  c #CEC200",
"~  c #CFC400",
"^  c #D1C501",
"/  c #D1C600",
"(  c #D2C700",
")  c #D0C305",
"_  c #D3C900",
"`  c #D5C900",
"'  c #D6CA00",
"]  c #D6CA05",
"[  c #DACE00",
"{  c #D8CD04",
"}  c #DBCE06",
"|  c #DDD100",
" . c #E3D600",
".. c #E4D800",
"X. c #E5D800",
"o. c #E7DA00",
"O. c #E8DC00",
"+. c #EADD00",
"@. c #E9DC06",
"#. c #EEE100",
"$. c #F1E400",
"%. c #F2E400",
"&. c #F3E500",
"*. c #F4E700",
"=. c #F5E700",
"-. c #F4E800",
";. c #F6E800",
":. c #F6E900",
">. c #F7EA00",
",. c #F6E907",
"<. c #F9EC00",
"1. c #FAEC00",
"2. c #FDF000",
"3. c #FDF101",
"4. c #FEF000",
"5. c #FFF000",
"6. c #FFF100",
"7. c #FFF101",
"8. c #FFF200",
"9. c #FEF300",
"0. c #FFF300",
"q. c #FFF201",
"w. c #FFF301",
"e. c #FFF103",
"r. c #FFF202",
"t. c #FFF302",
"y. c #FFF303",
"u. c #FFF400",
"i. c #FFF500",
"p. c #FFF501",
"a. c #FFF600",
"s. c #FFF700",
"d. c #FFF601",
"f. c #FFF106",
"g. c #FFF107",
"h. c #FFF800",
"j. c #FFF900",
"k. c #FFFA00",
"l. c #FFFB00",
"z. c #FFFA03",
"x. c #FFFC00",
"c. c #FFFD00",
"v. c yellow",
"b. c #FFF905",
"n. c #FFFB05",
"m. c #FFF906",
"M. c #FFFB06",
"N. c #FFFC04",
"B. c #FFFF04",
"V. c #FFFF05",
"C. c #FFFF06",
"Z. c #FFFF07",
"A. c #FFF108",
"S. c #FCF308",
"D. c #FDF308",
"F. c #FFF209",
"G. c #FFF10A",
"H. c #FFF20A",
"J. c #FDF408",
"K. c #FFF40B",
"L. c #FFF20C",
"P. c #FFF20D",
"I. c #FFF20F",
"U. c #FFF90A",
"Y. c #FFFA0A",
"T. c #FFFF08",
"R. c #FFFE09",
"E. c #FFFF09",
"W. c #FFFD0C",
"Q. c #E9E113",
"!. c #FFF213",
"~. c #FFF215",
"^. c #FFF216",
"/. c #FFFD11",
"(. c #FFFF11",
"). c #FFFE12",
"_. c #FFF219",
"`. c #FFF31C",
"'. c #FFFF1B",
"]. c #DDD622",
"[. c #D6D234",
"{. c #FFF320",
"}. c #FFF325",
"|. c #FFF327",
" X c #FFF32C",
".X c #F4E930",
"XX c #FFF431",
"oX c #FFF433",
"OX c #FFF434",
"+X c #FFF436",
"@X c #FFF437",
"#X c #FFFC32",
"$X c #FFF539",
"%X c #FFF542",
"&X c #FFF546",
"*X c #FFF54D",
"=X c #FFF64E",
"-X c #FFF550",
";X c #FFF552",
":X c #FFF654",
">X c #FFFA57",
",X c #FFF65B",
"<X c #FFF65F",
"1X c #FFF76F",
"2X c #FFF86A",
"3X c #FFF86C",
"4X c #FFF772",
"5X c #FFF778",
"6X c #FFF879",
"7X c #FFF97F",
"8X c #FFF880",
"9X c #FFF989",
"0X c #FFF99E",
"qX c #FFF99F",
"wX c #FFFA9E",
"eX c #FFFAA0",
"rX c #FFFAA6",
"tX c #FFFAAF",
"yX c #FFFBB4",
"uX c #FFFBB6",
"iX c #FFFCC6",
"pX c #FFFCCA",
"aX c #FFFDD6",
"sX c #FFFDD7",
"dX c #FFFED7",
"fX c #FFFDD8",
"gX c #FFFDDD",
"hX c #FFFDE4",
"jX c None",
/* pixels */
"jXjXjXjXjXjXjXjXjXjXjXjXjXjXjXjXjXjXjXjXjXjXjXjXjXjXjXjXjXjXjXjXjXjXjXjXjXjXjXjXjXjXjXjXjXjXjXjX",
"jXjXjXjXjXjXjXjXjXjXjXjXjXjXjXjXjXjXjXjXjXjXjXjXjXjXjXjXjXjXjXjXjXjXjXjXjXjXjXjXjXjXjXjXjXjXjXjX",
"jXjXjXjXjXjXjXjXjXjXjXjXjXjXjXjXjXjXjXjXjXjXjXjXjXjXjXjXjXjXjXjXjXjXjXjXjXjXjXjXjXjXjXjXjXjXjXjX",
"jXjXjXjXjXjXjXjXjXjXjXjXjXjXjXjXjXjXjXjXjXjXjXjXjXjXjXjXjXjXjXjXjXjXjXjXjXjXjXjXjXjXjXjXjXjXjXjX",
"jXjXjXjXjXjXjXjXjXjXjXjXjXjXjXjXjXjXjXjXjXjXjXjXjXjXjXjXjXjXjXjXjXjXjXjXjXjXjXjXjXjXjXjXjXjXjXjX",
"jXjXjXjXjXjXjXjXjXjXjXjXjXjXjXjXjXjXjXaXiXuXrXwXwXqXwXjXjXjXjXjXjXjXjXjXjXjXjXjXjXjXjXjXjXjXjXjX",
"jXjXjXjXjXjXjXjXjXjXjXjXjXjXjXjXgXyX8X;XoX{.^.~._.}.@X-X3X5XjXjXjXjXjXjXjXjXjXjXjXjXjXjXjXjXjXjX",
"jXjXjXjXjXjXjXjXjXjXjXjXjXjXfXeX=X!.6.6.6.6.6.6.6.6.6.6.H.|.&X>XjXjXjXjXjXjXjXjXjXjXjXjXjXjXjXjX",
"jXjXjXjXjXjXjXjXjXjXjXjXhXwX+X6.6.6.6.6.6.6.6.6.6.6.6.6.6.6.6.I.#X[.jXjXjXjXjXjXjXjXjXjXjXjXjXjX",
"jXjXjXjXjXjXjXjXjXjXjXdX1XP.6.6.6.6.6.6.6.6.6.6.6.6.6.6.6.6.6.6.7.'.].jXjXjXjXjXjXjXjXjXjXjXjXjX",
"jXjXjXjXjXjXjXjXjXjXpX:X6.6.6.6.6.6.6.6.6.6.6.6.6.6.6.6.6.6.6.6.6.5.).Q.jXjXjXjXjXjXjXjXjXjXjXjX",
"jXjXjXjXjXjXjXjXjXsX<X6.6.6.6.6.6.6.6.6.6.6.6.6.6.6.6.6.6.6.6.6.6.6.5.W.{ jXjXjXjXjXjXjXjXjXjXjX",
"jXjXjXjXjXjXjXjXjX9XF.6.6.6.6.6.6.6.6.6.6.6.6.6.6.6.6.6.6.6.6.6.6.6.6.7.V.F jXjXjXjXjXjXjXjXjXjX",
"jXjXjXjXjXjXjXjXwX`.6.6.6.6.6.6.6.6.6.6.6.6.6.6.6.6.6.6.6.6.6.6.6.6.6.6.w.3.u jXjXjXjXjXjXjXjXjX",
"jXjXjXjXjXjXjXtXOX6.6.6.6.6.6.6.6.6.6.6.6.6.6.6.6.6.6.6.6.6.6.6.6.6.6.6.6.s.' jXjXjXjXjXjXjXjXjX",
"jXjXjXjXjXjXjX4Xe.6.6.6.6.6.6.6.6.6.6.6.6.6.6.6.6.6.6.6.6.6.6.6.6.6.6.6.6.0.1.g jXjXjXjXjXjXjXjX",
"jXjXjXjXjXjX0XXX6.6.6.6.6.6.6.6.6.6.6.6.6.6.6.6.6.6.6.6.6.6.6.6.6.6.6.6.6.8.0.L jXjXjXjXjXjXjXjX",
"jXjXjXjXjXjX6XG.6.6.6.6.6.6.6.6.6.6.6.6.6.6.0.0.6.6.6.6.6.6.6.6.6.6.6.6.6.6.i.[ 5 jXjXjXjXjXjXjX",
"jXjXjXjXjXjX-X6.6.6.6.6.6.6.6.6.6.6.6.6.6.6.>.:.6.6.6.6.6.6.6.6.6.6.6.6.6.6.u.%.w jXjXjXjXjXjXjX",
"jXjXjXjXjX7X X6.6.6.6.6.6.6.6.6.6.6.6.6.8.4.m J d.6.6.6.6.6.6.6.6.6.6.6.6.6.0.4.d jXjXjXjXjXjXjX",
"jXjXjXjXjX2X~.6.6.6.6.6.6.6.6.6.6.6.6.6.a.X.; f Z.6.6.6.6.6.6.6.6.6.6.6.6.6.8.a.x   jXjXjXjXjXjX",
"jXjXjXjXjX,XL.6.6.6.6.6.6.6.6.6.6.6.6.6.j.I   7 J.t.6.6.6.6.6.6.6.6.6.6.6.6.8.j.m   jXjXjXjXjXjX",
"jXjXjXjXjX*XA.6.6.6.6.6.6.6.6.6.6.6.6.8.s.k   o ] b.6.6.6.6.6.6.6.6.6.6.6.6.6.j.N   jXjXjXjXjXjX",
"jXjXjXjXjX%Xf.6.6.6.6.6.6.6.6.6.6.6.6.i.&.9   jXV E.6.6.6.6.6.6.6.6.6.6.6.6.6.j.n   jXjXjXjXjXjX",
"jXjXjXjXjX$Xg.6.6.6.6.6.6.6.6.6.6.6.6.h.W =   jXjXY.r.6.6.6.6.6.6.6.6.6.6.6.8.j.h   jXjXjXjXjXjX",
"jXjXjXjXjX.XK.6.6.6.6.6.6.6.6.6.6.6.8.h.N     jXjX} m.6.6.6.6.6.6.6.6.6.6.6.8.i.p   jXjXjXjXjXjX",
"jXjXjXjXjXT /.6.6.6.6.6.6.6.6.6.6.6.u.;.q   jXjXjXb T.6.6.6.6.6.6.6.6.6.6.6.i.=.8   jXjXjXjXjXjX",
"jXjXjXjXjXjX(.6.6.6.6.6.6.6.6.6.6.6.h./ >   jXjXjXjXS.y.6.6.6.6.6.6.6.6.6.6.h.` ,   jXjXjXjXjXjX",
"jXjXjXjXjXjXU.r.6.6.6.6.6.6.6.6.6.6.j.A     jXjXjXjX) M.6.6.6.6.6.6.6.6.6.6.k.S .   jXjXjXjXjXjX",
"jXjXjXjXjXjX^ z.6.6.6.6.6.6.6.6.6.0.2.i     jXjXjXjXb T.6.6.6.6.6.6.6.6.6.u.<.t   jXjXjXjXjXjXjX",
"jXjXjXjXjXjXjXj.0.6.6.6.6.6.6.6.6.a. .3   jXjXjXjXjXjXD.y.6.6.6.6.6.6.6.6.l.Y $   jXjXjXjXjXjXjX",
"jXjXjXjXjXjXjXR i.8.6.6.6.6.6.6.6.j.H X   jXjXjXjXjXjXQ n.6.6.6.6.6.6.6.a.-.r     jXjXjXjXjXjXjX",
"jXjXjXjXjXjXjXjX| 0.8.6.6.6.6.6.0.9.s     jXjXjXjXjXjXjXC.6.6.6.6.6.6.0.s.c     jXjXjXjXjXjXjXjX",
"jXjXjXjXjXjXjXjXa +.u.6.6.6.6.6.a.o.4   jXjXjXjXjXjXjXjX,.p.6.6.6.6.8.k.P *     jXjXjXjXjXjXjXjX",
"jXjXjXjXjXjXjXjXjXz $.a.6.6.6.6.j.U +   jXjXjXjXjXjXjXjXE N.6.6.6.6.k.! 1     jXjXjXjXjXjXjXjXjX",
"jXjXjXjXjXjXjXjXjXjXB *.a.8.6.8.s.l     jXjXjXjXjXjXjXjXZ T.6.6.8.x.( 4       jXjXjXjXjXjXjXjXjX",
"jXjXjXjXjXjXjXjXjXjX: v ..h.a.i.*.0     jXjXjXjXjXjXjXjXjXR.q.s.c._ 6       jXjXjXjXjXjXjXjXjXjX",
"jXjXjXjXjXjXjXjXjXjXjX@ y K #.v.~ -   jXjXjXjXjXjXjXjXjXjX@.B.O.C <       jXjXjXjXjXjXjXjXjXjXjX",
"jXjXjXjXjXjXjXjXjXjXjXjX  % e G j     jXjXjXjXjXjXjXjXjXjXM D 2         jXjXjXjXjXjXjXjXjXjXjXjX",
"jXjXjXjXjXjXjXjXjXjXjXjXjXjX  # O     jXjXjXjXjXjXjXjXjXjXjX&       jXjXjXjXjXjXjXjXjXjXjXjXjXjX",
"jXjXjXjXjXjXjXjXjXjXjXjXjXjXjX      jXjXjXjXjXjXjXjXjXjXjXjXjX    jXjXjXjXjXjXjXjXjXjXjXjXjXjXjX",
"jXjXjXjXjXjXjXjXjXjXjXjXjXjXjXjXjXjXjXjXjXjXjXjXjXjXjXjXjXjXjXjXjXjXjXjXjXjXjXjXjXjXjXjXjXjXjXjX",
"jXjXjXjXjXjXjXjXjXjXjXjXjXjXjXjXjXjXjXjXjXjXjXjXjXjXjXjXjXjXjXjXjXjXjXjXjXjXjXjXjXjXjXjXjXjXjXjX",
"jXjXjXjXjXjXjXjXjXjXjXjXjXjXjXjXjXjXjXjXjXjXjXjXjXjXjXjXjXjXjXjXjXjXjXjXjXjXjXjXjXjXjXjXjXjXjXjX",
"jXjXjXjXjXjXjXjXjXjXjXjXjXjXjXjXjXjXjXjXjXjXjXjXjXjXjXjXjXjXjXjXjXjXjXjXjXjXjXjXjXjXjXjXjXjXjXjX",
"jXjXjXjXjXjXjXjXjXjXjXjXjXjXjXjXjXjXjXjXjXjXjXjXjXjXjXjXjXjXjXjXjXjXjXjXjXjXjXjXjXjXjXjXjXjXjXjX",
"jXjXjXjXjXjXjXjXjXjXjXjXjXjXjXjXjXjXjXjXjXjXjXjXjXjXjXjXjXjXjXjXjXjXjXjXjXjXjXjXjXjXjXjXjXjXjXjX",
"jXjXjXjXjXjXjXjXjXjXjXjXjXjXjXjXjXjXjXjXjXjXjXjXjXjXjXjXjXjXjXjXjXjXjXjXjXjXjXjXjXjXjXjXjXjXjXjX"
};
