/* XPM */
static char *result[] = {
/* columns rows colors chars-per-pixel */
"48 48 209 2 ",
"   c black",
".  c #010100",
"X  c #040406",
"o  c #080700",
"O  c #080800",
"+  c #090800",
"@  c #090900",
"#  c #0B0B00",
"$  c #0D0C00",
"%  c #0F0E00",
"&  c #121100",
"*  c #161400",
"=  c #191700",
"-  c #1E1C00",
";  c #211F00",
":  c #232100",
">  c #252300",
",  c #272400",
"<  c #282500",
"1  c #2E2B00",
"2  c #302E00",
"3  c #353200",
"4  c #383500",
"5  c #393600",
"6  c #3A3700",
"7  c #3B3800",
"8  c #3C3900",
"9  c #3D3A00",
"0  c #323222",
"q  c #413E00",
"w  c #4A4600",
"e  c #4C4800",
"r  c #504C00",
"t  c #5B5600",
"y  c #5D5800",
"u  c #676100",
"i  c #6A6400",
"p  c #746E00",
"a  c #7D7600",
"s  c #7F7900",
"d  c #706E2C",
"f  c #807A00",
"g  c #827B00",
"h  c #847D00",
"j  c #857E00",
"k  c #8C8500",
"l  c #8E8600",
"z  c #948C00",
"x  c #958D00",
"c  c #9C9300",
"v  c #A39900",
"b  c #A29A00",
"n  c #B3A800",
"m  c #B3A900",
"M  c #B4AA00",
"N  c #B6AD00",
"B  c #BCB100",
"V  c #BCB200",
"C  c #BCB31B",
"Z  c #C0B600",
"A  c #C1B600",
"S  c #C1B700",
"D  c #C5BA00",
"F  c #C8BD00",
"G  c #C2BA0C",
"H  c #CBC100",
"J  c #D3C700",
"K  c #D1C704",
"L  c #D5C801",
"P  c #D6CB00",
"I  c #D8CD00",
"U  c #DBCF00",
"Y  c #DED200",
"T  c #DFD300",
"R  c #D2C71D",
"E  c #E1D400",
"W  c #E2D600",
"Q  c #E5D900",
"!  c #EADD00",
"~  c #EBDE00",
"^  c #ECDF00",
"/  c #E7DF14",
"(  c #EDE000",
")  c #EEE100",
"_  c #F0E400",
"`  c #F3E600",
"'  c #F5E800",
"]  c #F6E900",
"[  c #F7EA00",
"{  c #F8EB00",
"}  c #F9EC00",
"|  c #FBED00",
" . c #FEF000",
".. c #FFF000",
"X. c #FFF100",
"o. c #FFF001",
"O. c #FFF101",
"+. c #FFF200",
"@. c #FFF300",
"#. c #FFF301",
"$. c #FFF102",
"%. c #FFF103",
"&. c #FFF202",
"*. c #FFF400",
"=. c #FFF500",
"-. c #FFF600",
";. c #FFF700",
":. c #FFF601",
">. c #FFF104",
",. c #FFF106",
"<. c #FFF800",
"1. c #FFF900",
"2. c #FFFA00",
"3. c #FFFB00",
"4. c #FFFA02",
"5. c #FFFC00",
"6. c #FFFE00",
"7. c #FFFF05",
"8. c #FFF108",
"9. c #FFF10A",
"0. c #FFF10B",
"q. c #FFF20A",
"w. c #FFF20D",
"e. c #FFF40C",
"r. c #FFF90B",
"t. c #FFFA0E",
"y. c #FFFE0C",
"u. c #FFF210",
"i. c #FFF211",
"p. c #FFF212",
"a. c #FFF216",
"s. c #FFFA13",
"d. c #FFFD10",
"f. c #FFFF12",
"g. c #FFFE13",
"h. c #FFF31A",
"j. c #FFF31B",
"k. c #FFF31E",
"l. c #FFF21F",
"z. c #FFFF1D",
"x. c #DDD622",
"c. c #CECC35",
"v. c #F4E92E",
"b. c #FFF323",
"n. c #FFF325",
"m. c #FFF328",
"M. c #FFF329",
"N. c #FFF42F",
"B. c #FFFF2A",
"V. c #FFF433",
"C. c #FFF434",
"Z. c #FFF437",
"A. c #FFFF35",
"S. c #FFF438",
"D. c #FFF539",
"F. c #FFF43B",
"G. c #94914D",
"H. c #D2CD5E",
"J. c #FFF541",
"K. c #FFF542",
"L. c #FFFF40",
"P. c #FFF549",
"I. c #FFF54D",
"U. c #FFF54F",
"Y. c #FFFF48",
"T. c #FFF551",
"R. c #FFF651",
"E. c #FEF854",
"W. c #FFF65A",
"Q. c #FFF65B",
"!. c #FFF65C",
"~. c #FFFD58",
"^. c #FFF85D",
"/. c #FFF660",
"(. c #FFF764",
"). c #FFF76B",
"_. c #FFF76D",
"`. c #FFFF69",
"'. c #FFF770",
"]. c #FFF774",
"[. c #FFF775",
"{. c #FFF77E",
"}. c #FFF87A",
"|. c #FFF87B",
" X c #FFF883",
".X c #FFF887",
"XX c #FFFF84",
"oX c #FFF889",
"OX c #FFF98B",
"+X c #FFF994",
"@X c #FFFF94",
"#X c #FFF9A1",
"$X c #FFFAA0",
"%X c #FFFBA0",
"&X c #FFFAA1",
"*X c #FFFAA3",
"=X c #FFFBA3",
"-X c #FFFAA5",
";X c #FFFBAB",
":X c #FFFBB1",
">X c #FFFBBB",
",X c #FFFCCA",
"<X c #FFFCCE",
"1X c #FFFCCF",
"2X c #FFFCD5",
"3X c #FFFDD7",
"4X c #FFFED9",
"5X c #FFFDE6",
"6X c None",
/* pixels */
"6X6X6X6X6X6X6X6X6X6X6X6X6X6X6X6X6X6X6X6X6X6X6X6X6X6X6X6X6X6X6X6X6X6X6X6X6X6X6X6X6X6X6X6X6X6X6X6X",
"6X6X6X6X6X6X6X6X6X6X6X6X6X6X6X6X6X6X6X6X6X6X6X6X6X6X6X6X6X6X6X6X6X6X6X6X6X6X6X6X6X6X6X6X6X6X6X6X",
"6X6X6X6X6X6X6X6X6X6X6X6X6X6X6X6X6X6X6X6X6X6X6X6X6X6X6X6X6X6X6X6X6X6X6X6X6X6X6X6X6X6X6X6X6X6X6X6X",
"6X6X6X6X6X6X6X6X6X6X6X6X6X6X6X6X6X6X6X6X6X6X6X6X6X6X6X6X6X6X6X6X6X6X6X6X6X6X6X6X6X6X6X6X6X6X6X6X",
"6X6X6X6X6X6X6X6X6X6X6X6X6X6X6X6X6X6X6X6X6X6X6X6X6X6X6X6X6X6X6X6X6X6X6X6X6X6X6X6X6X6X6X6X6X6X6X6X",
"6X6X6X6X6X6X6X6X6X6X6X6X6X6X6X6X6X6X6X6X6X,X>X;X*X&X=X#X6X6X6X6X6X6X6X6X6X6X6X6X6X6X6X6X6X6X6X6X",
"6X6X6X6X6X6X6X6X6X6X6X6X6X6X6X6X6X1X$X].R.Z.n.j.h.k.m.Z.P./.'.6X6X6X6X6X6X6X6X6X6X6X6X6X6X6X6X6X",
"6X6X6X6X6X6X6X6X6X6X6X6X6X6X6X2XOXN.$.....X.X.X.X.X.X.X.X.X.a.D.E.6X6X6X6X6X6X6X6X6X6X6X6X6X6X6X",
"6X6X6X6X6X6X6X6X6X6X6X6X6X5X-XF.O.X.X.X.X.X.X.X.X.X.X.X.X.X.X.X.u.A.c.6X6X6X6X6X6X6X6X6X6X6X6X6X",
"6X6X6X6X6X6X6X6X6X6X6X6X4X[.u.X.X.X.X.X.X.X.X.X.X.X.X.X.X.X.X.X.X.$.z.x.6X6X6X6X6X6X6X6X6X6X6X6X",
"6X6X6X6X6X6X6X6X6X6X6X<XW.$.X.X.X.X.X.X.X.X.X.X.X.X.X.X.X.X.X.X.X.X...g./ 6X6X6X6X6X6X6X6X6X6X6X",
"6X6X6X6X6X6X6X6X6X6X3X(.X.X.X.X.X.X.X.X.X.X.X.X.X.X.X.X.X.X.X.X.X.X.X.o.y.K 6X6X6X6X6X6X6X6X6X6X",
"6X6X6X6X6X6X6X6X6X6X.Xq.X.X.X.X.X.X.X.X.X.X.X.X.X.X.X.X.X.X.X.X.X.X.X.X.O.7.v 6X6X6X6X6X6X6X6X6X",
"6X6X6X6X6X6X6X6X6X+Xi.X.X.X.X.X.X.X.X.X.X.X.X.X.X.X.X.X.X.X.X.X.X.X.X.X.X.#.:.i 6X6X6X6X6X6X6X6X",
"6X6X6X6X6X6X6X6X:XS.X.X.X.X.X.X.X.X.X.X.X.X.X.X.X.X.X.X.X.X.X.X.X.X.X.X.X.+.1.U 6X6X6X6X6X6X6X6X",
"6X6X6X6X6X6X6X6X[.>.X.X.X.X.X.X.X.X.X.X.X.X.X.X.X.X.X.X.X.X.X.X.X.X.X.*.1.2.{ Z 8 6X6X6X6X6X6X6X",
"6X6X6X6X6X6X6X%XC.X.X.X.X.X.X.X.X.X.X.X.X.X.X.X.X.X.X.X.X.X.X.X.@.<.5.} F g 6 @ . 6X6X6X6X6X6X6X",
"6X6X6X6X6X6X6X|.0.X.X.X.X.X.X.X.X.X.X.X.X.X.X.X.X.X.X.X.+.-.3.5. .P x q +         6X6X6X6X6X6X6X",
"6X6X6X6X6X6X6XU.X.X.X.X.X.X.X.X.X.X.X.X.X.X.X.X.X.+.-.3.1.( S k w &             6X6X6X6X6X6X6X6X",
"6X6X6X6X6X6X{.M.X.X.X.X.X.X.X.X.X.X.X.X.X.X.+.=.3.<.^ M i :               6X6X6X6X6X6X6X6X6X6X6X",
"6X6X6X6X6X6X).a.X.X.X.X.X.X.X.X.X.X.X.X.*.2.3.) m i <               6X6X6X6X6X6X6X6X6X6X6X6X6X6X",
"6X6X6X6X6X6X!.w.X.X.X.X.X.X.X.X.X.X.X.X.` D a 1               6X6X6X6X6X6X6X6X6X6X6X6X6X6X6X6X6X",
"6X6X6X6X6X6XI.8.X.X.X.X.X.X.X.X.X.X.@.] g               6X6X6X6X6X6X6X6X6X6X6X6X6X6X6X6X6X6X6X6X",
"6X6X6X6X6X6XK.,.X.X.X.X.X.X.X.X.X.X.+.| G d 0 X   6X6X6X6X6X6X6X6X6X6X6X6X6X6X6X6X6X6X6X6X6X6X6X",
"6X6X6X6X6X6XD.8.X.X.X.X.X.X.X.X.X.X.X.X.s.L.^.H.G.6X6X6X6X6X6X6X6X6X6X6X6X6X6X6X6X6X6X6X6X6X6X6X",
"6X6X6X6X6X6Xv.e.X.X.X.X.X.X.X.X.X.X.X.X.X.X.@.t.B.Y.`.XX@X6X6X6X6X6X6X6X6X6X6X6X6X6X6X6X6X6X6X6X",
"6X6X6X6X6X6XC d.X.X.X.X.X.X.X.X.X.X.X.X.X.X.X.X.X.X.%.a.V.Q.}.oX6X6X6X6X6X6X6X6X6X6X6X6X6X6X6X6X",
"6X6X6X6X6X6X6Xf.X.X.X.X.X.X.X.X.X.X.X.X.X.X.X.X.X.X.X.X.X.X.p.N.T.'..X6X6X6X6X6X6X6X6X6X6X6X6X6X",
"6X6X6X6X6X6X6Xr.&.X.X.X.X.X.X.X.X.X.X.X.X.X.X.X.X.X.X.X.X.X.X.X.X.9.b.P._. X6X6X6X6X6X6X6X6X6X6X",
"6X6X6X6X6X6X6XL 4.X.X.X.X.X.X.X.X.X.X.X.X.X.X.X.X.X.X.X.X.X.X.X.X.X.X.X.8.l.J.~.R 6X6X6X6X6X6X6X",
"6X6X6X6X6X6X6X6X;.@.X.X.X.X.X.X.X.X.X.X.X.X.X.X.X.X.X.X.X.X.X.X.X.X.X.X.X.X.1.A * 6X6X6X6X6X6X6X",
"6X6X6X6X6X6X6X6Xn =.+.X.X.X.X.X.X.X.X.X.X.X.X.X.X.X.X.X.X.X.X.X.X.X.X.X.X.-._ 5     6X6X6X6X6X6X",
"6X6X6X6X6X6X6X6X6XE @.+.X.X.X.X.X.X.X.X.X.X.X.X.X.X.X.X.X.X.X.X.X.X.X.X.@.<.j     6X6X6X6X6X6X6X",
"6X6X6X6X6X6X6X6X6Xu ^ *.X.X.X.X.X.X.X.X.X.X.X.X.X.X.X.X.X.X.X.X.X.X.X.X.2.B %     6X6X6X6X6X6X6X",
"6X6X6X6X6X6X6X6X6X6Xf ` -.X.X.X.X.X.X.X.X.X.X.X.X.X.X.X.X.X.X.X.X.X.X.2.J >     6X6X6X6X6X6X6X6X",
"6X6X6X6X6X6X6X6X6X6X6Xz [ ;.+.X.X.X.X.X.X.X.X.X.X.X.X.X.X.X.X.X.X.+.6.I 2       6X6X6X6X6X6X6X6X",
"6X6X6X6X6X6X6X6X6X6X6X* s Y *.=.+.X.X.X.X.X.X.X.X.X.X.X.X.X.X.X.;.<.H 3       6X6X6X6X6X6X6X6X6X",
"6X6X6X6X6X6X6X6X6X6X6X6X  4 c ! ;.-.+.X.X.X.X.X.X.X.X.X.X.+.;.3.Q p #       6X6X6X6X6X6X6X6X6X6X",
"6X6X6X6X6X6X6X6X6X6X6X6X6X  $ e b ~ <.1.;.*.@.+.+.@.*.;.3.;.W l ,         6X6X6X6X6X6X6X6X6X6X6X",
"6X6X6X6X6X6X6X6X6X6X6X6X6X6X6X  o 9 h V E ' X.-.-.X.' T N i -         6X6X6X6X6X6X6X6X6X6X6X6X6X",
"6X6X6X6X6X6X6X6X6X6X6X6X6X6X6X6X      O ; 7 r y t e 3 =             6X6X6X6X6X6X6X6X6X6X6X6X6X6X",
"6X6X6X6X6X6X6X6X6X6X6X6X6X6X6X6X6X6X                            6X6X6X6X6X6X6X6X6X6X6X6X6X6X6X6X",
"6X6X6X6X6X6X6X6X6X6X6X6X6X6X6X6X6X6X6X6X6X                6X6X6X6X6X6X6X6X6X6X6X6X6X6X6X6X6X6X6X",
"6X6X6X6X6X6X6X6X6X6X6X6X6X6X6X6X6X6X6X6X6X6X6X6X6X6X6X6X6X6X6X6X6X6X6X6X6X6X6X6X6X6X6X6X6X6X6X6X",
"6X6X6X6X6X6X6X6X6X6X6X6X6X6X6X6X6X6X6X6X6X6X6X6X6X6X6X6X6X6X6X6X6X6X6X6X6X6X6X6X6X6X6X6X6X6X6X6X",
"6X6X6X6X6X6X6X6X6X6X6X6X6X6X6X6X6X6X6X6X6X6X6X6X6X6X6X6X6X6X6X6X6X6X6X6X6X6X6X6X6X6X6X6X6X6X6X6X",
"6X6X6X6X6X6X6X6X6X6X6X6X6X6X6X6X6X6X6X6X6X6X6X6X6X6X6X6X6X6X6X6X6X6X6X6X6X6X6X6X6X6X6X6X6X6X6X6X",
"6X6X6X6X6X6X6X6X6X6X6X6X6X6X6X6X6X6X6X6X6X6X6X6X6X6X6X6X6X6X6X6X6X6X6X6X6X6X6X6X6X6X6X6X6X6X6X6X"
};
