/* XPM */
static char *result[] = {
/* columns rows colors chars-per-pixel */
"48 48 116 2 ",
"   c #000000",
".  c #080506",
"X  c #0B0709",
"o  c #0D090A",
"O  c #110B0D",
"+  c #150E10",
"@  c #190E11",
"#  c #1B1215",
"$  c #211619",
"%  c #25181C",
"&  c #291B1F",
"*  c #2D1D21",
"=  c #301F24",
"-  c #342227",
";  c #3B262C",
":  c #3F292F",
">  c #3F2A31",
",  c #402A2F",
"<  c #442D33",
"1  c #492E36",
"2  c #4D3239",
"3  c #52363E",
"4  c #563840",
"5  c #5B3C45",
"6  c #564248",
"7  c #67444D",
"8  c #69454F",
"9  c #6D4952",
"0  c #734C57",
"q  c #764E59",
"w  c #784F5A",
"e  c #7D525E",
"r  c #7F5460",
"t  c #815461",
"y  c #875865",
"u  c #895A67",
"i  c #8E5D6A",
"p  c #915F6D",
"a  c #94616F",
"s  c #846B73",
"d  c #956270",
"f  c #9C6775",
"g  c #9E6877",
"h  c #A66D7C",
"j  c #AA6F7F",
"k  c #AC7181",
"l  c #B47686",
"z  c #B57788",
"x  c #B57A8A",
"c  c #BB7B8C",
"v  c #BF7E90",
"b  c #C27F91",
"n  c #A0858C",
"m  c #AF8390",
"M  c #AB8D95",
"N  c #BE8998",
"B  c #A6979B",
"V  c #BC96A2",
"C  c #C58395",
"Z  c #C98497",
"A  c #CA8498",
"S  c #CE8A9D",
"D  c #D28A9E",
"F  c #D68DA1",
"G  c #D98FA3",
"H  c #DD91A6",
"J  c #DE93A8",
"K  c #D99FAF",
"L  c #E496AB",
"P  c #E69AAE",
"I  c #E99AAF",
"U  c #EB9CB2",
"Y  c #F19EB5",
"T  c #C6ACB2",
"R  c #E1A4B4",
"E  c #EAA7B9",
"W  c #E4ADBC",
"Q  c #ECACBE",
"!  c #F3A0B7",
"~  c #F5A2B9",
"^  c #FAA4BC",
"/  c #F3A9BE",
"(  c #F8A9BF",
")  c #E6B0BF",
"_  c #F5AEC1",
"`  c #FCACC2",
"'  c #E6B1C0",
"]  c #EBB1C1",
"[  c #F4B3C5",
"{  c #FCB1C6",
"}  c #F4B8C7",
"|  c #F5B7C8",
" . c #F8B7C9",
".. c #F5BBCB",
"X. c #FABCCD",
"o. c #FEBED0",
"O. c #DBC0C7",
"+. c #F3C1CE",
"@. c #EECDD7",
"#. c #F7C4D2",
"$. c #FBC3D3",
"%. c #F5C8D5",
"&. c #F8CBD7",
"*. c #F7CDD8",
"=. c #FACEDB",
"-. c #F5D3DD",
";. c #F9D3DD",
":. c #FDD4E1",
">. c #FADCE4",
",. c #FBE0E7",
"<. c #FDE4EB",
"1. c #FCE9EE",
"2. c #FCEDF2",
"3. c #FEF1F4",
"4. c white",
"5. c None",
/* pixels */
"5.5.5.5.5.5.5.5.5.5.5.5.5.5.5.5.5.5.5.5.5.5.5.5.5.5.5.5.5.5.5.5.5.5.5.5.5.5.5.5.5.5.5.5.5.5.5.5.",
"5.5.5.5.5.5.5.5.5.5.5.5.5.5.5.5.5.5.5.5.5.5.5.5.5.5.5.5.5.5.5.5.5.5.5.5.5.5.5.5.5.5.5.5.5.5.5.5.",
"5.5.5.5.5.5.5.5.5.5.5.5.5.5.5.5.5.5.5.5.5.5.5.5.5.5.5.5.5.5.5.5.5.5.5.5.5.5.5.5.5.5.5.5.5.5.5.5.",
"5.5.5.5.5.5.5.5.5.5.5.5.5.5.5.5.5.5.5.5.5.5.5.5.5.5.5.5.5.5.5.5.5.5.5.5.5.5.5.5.5.5.5.5.5.5.5.5.",
"5.5.5.5.5.5.5.5.5.5.5.5.5.5.5.5.5.5.5.5.5.5.5.5.5.5.5.5.5.5.5.5.5.5.5.5.5.5.5.5.5.5.5.5.5.5.5.5.",
"5.5.5.5.5.5.5.5.5.5.5.5.5.5.5.5.5.5.5.5.1.<.>.>.>.>.>.5.5.5.5.5.5.5.5.5.5.5.5.5.5.5.5.5.5.5.5.5.",
"5.5.5.5.5.5.5.5.5.5.5.5.5.5.5.5.2.>.&...[ / / ~ / / _ ..#.%.5.5.5.5.5.5.5.5.5.5.5.5.5.5.5.5.5.5.",
"5.5.5.5.5.5.5.5.5.5.5.5.5.5.2.;.[ ! Y U Y Y Y Y Y Y Y Y Y /  .) 5.5.5.5.5.5.5.5.5.5.5.5.5.5.5.5.",
"5.5.5.5.5.5.5.5.5.5.5.5.5.2. .Y Y Y Y Y Y Y Y Y Y Y Y Y Y U Y ` Q 5.5.5.5.5.5.5.5.5.5.5.5.5.5.5.",
"5.5.5.5.5.5.5.5.5.5.5.5.1.[ Y Y Y Y Y ! Y Y Y Y Y Y Y Y Y Y Y Y ^ ` 5.5.5.5.5.5.5.5.5.5.5.5.5.5.",
"5.5.5.5.5.5.5.5.5.5.5.1.| Y Y Y Y Y ! U Y Y ! Y Y Y Y Y Y Y Y Y Y / ! 5.5.5.5.5.5.5.5.5.5.5.5.5.",
"5.5.5.5.5.5.5.5.5.5.1...Y Y Y Y Y Y Y Y Y Y U Y Y Y Y Y Y Y Y Y Y Y ^ Z 5.5.5.5.5.5.5.5.5.5.5.5.",
"5.5.5.5.5.5.5.5.5.5.%.Y Y Y Y Y Y Y Y Y Y Y Y ! Y Y Y Y Y Y Y Y Y Y Y ^ t 5.5.5.5.5.5.5.5.5.5.5.",
"5.5.5.5.5.5.5.5.5.;.~ Y Y ^ ^ ^ ^ Y Y Y Y Y Y Y Y Y Y Y ~ ^ ^ ^ ~ ~ Y ~ L 5.5.5.5.5.5.5.5.5.5.5.",
"5.5.5.5.5.5.5.5.,.} U Y Y Z p p k L ~ Y Y Y Y Y Y Y ! ~ G h i f D Y ! Y ! i 5.5.5.5.5.5.5.5.5.5.",
"5.5.5.5.5.5.5.5.=.! Y L 8 O     . 2 b Y Y Y Y Y Y ! Y a %       * f U Y ^ b 5.5.5.5.5.5.5.5.5.5.",
"5.5.5.5.5.5.5.5.| Y I 3             < D ~ Y Y Y Y ~ i             # k ! ! P : 5.5.5.5.5.5.5.5.5.",
"5.5.5.5.5.5.5.;./ ^ u         5.5.5.  y ~ Y Y Y ~ F +       5.5.5.  1 L ! Y e 5.5.5.5.5.5.5.5.5.",
"5.5.5.5.5.5.5.&.~ G *     5.5.5.5.5.5.- ! ! Y Y ^ d       5.5.5.5.5.5.z ^ ! k O 5.5.5.5.5.5.5.5.",
"5.5.5.5.5.5.5...^ k     5.5.5.5.5.5.5.5.L ^ Y Y Y 4     5.5.5.5.5.5.5.9 ` ^ D ; 5.5.5.5.5.5.5.5.",
"5.5.5.5.5.5.;.[ Y p     5.5.5.5.5.5.5.5.N ` Y Y L :   5.5.5.5.5.5.5.5.5.{ Y I 5 5.5.5.5.5.5.5.5.",
"5.5.5.5.5.5.*./ Y p   5.5.5.5.5.5.5.5.5.m ` Y ^ J >   5.5.5.5.5.5.5.5.5. .Y Y t   5.5.5.5.5.5.5.",
"5.5.5.5.5.5.$.! ~ f o 5.5.5.5.5.5.5.5.5.V { Y Y L 3   5.5.5.5.5.5.5.5.5.X.! Y h o 5.5.5.5.5.5.5.",
"5.5.5.5.5.5...Y ~ b $ 5.5.4.-.+.$.5.5.5.:./ Y Y Y q   5.5.2.%.+.R 5.5.5.$.Y Y c # 5.5.5.5.5.5.5.",
"5.5.5.5.5.5.| Y ~ L 5 5.5.:.P L U S 5.5.=.~ Y Y ~ k   5.<.E I U P 5 5.T $.Y Y A * 5.5.5.5.5.5.5.",
"5.5.5.5.5.&._ Y Y ! Z 5.M _ I P U z @ 5.$.Y U Y Y U 1 5.X.I P U D 2 5.@./ Y ^ D , 5.5.5.5.5.5.5.",
"5.5.5.5.5.#./ Y Y Y ^ z n _ P I U z 6 O.` Y Y Y Y ^ J s Q P P U D 7 B $.Y Y Y L 2   5.5.5.5.5.5.",
"5.5.5.5.5.#./ Y Y Y Y _ ' E P P P J W X.Y Y Y Y Y Y ^ ] W U P P L K $.! Y Y Y I 5   5.5.5.5.5.5.",
"5.5.5.5.5.$./ U Y Y Y Y / Y U I U ~ / Y Y ! U Y ! U Y ! ! U U U Y / ! Y Y Y ! U 7   5.5.5.5.5.5.",
"5.5.5.5.5.+.! Y Y Y Y Y Y Y Y Y ! U Y Y Y Y ! Y Y ! Y Y Y Y Y U Y Y Y Y Y Y Y Y 9   5.5.5.5.5.5.",
"5.5.5.5.5...! Y Y Y Y Y Y Y Y Y Y Y Y Y Y Y Y Y Y Y Y ! Y Y Y Y Y Y Y Y Y Y Y Y 0   5.5.5.5.5.5.",
"5.5.5.5.5...! Y Y Y Y Y Y Y Y Y Y Y Y Y Y Y Y Y Y Y Y Y Y Y Y Y Y Y Y Y Y Y ! Y q   5.5.5.5.5.5.",
"5.5.5.5.5...! Y Y Y U Y ! Y Y Y Y Y Y Y Y Y Y Y Y Y Y Y Y Y Y Y Y Y Y Y Y Y ~ ~ t   5.5.5.5.5.5.",
"5.5.5.5.5.| ! U ! Y Y Y Y Y Y Y Y Y Y Y ! Y Y Y Y Y Y Y Y Y Y Y Y Y Y Y Y Y Y Y t   5.5.5.5.5.5.",
"5.5.5.5.5...! Y Y Y Y Y Y Y Y Y Y Y Y Y Y Y Y Y Y Y Y Y Y Y Y Y Y Y ! Y Y Y Y ~ e   5.5.5.5.5.5.",
"5.5.5.5.5.} / ! Y Y ! ^ ` ^ ! Y Y Y Y Y Y ^ ` ^ ~ Y Y Y Y Y Y Y ^ ^ ^ Y Y Y Y Y w   5.5.5.5.5.5.",
"5.5.5.5.5.} ! U Y Y U z p k I Y Y Y Y Y Y C d f F Y Y Y Y Y ~ J g d A Y Y Y Y Y 9   5.5.5.5.5.5.",
"5.5.5.5.5.[ ! Y Y Y 0 .     i U Y Y Y ^ a o     < D ~ Y Y ^ G ;     & c ! Y Y U 3   5.5.5.5.5.5.",
"5.5.5.5.5.C ` ! ^ d         % b ~ Y ^ D O         r Y Y ~ Y 4         3 L ~ ^ G &   5.5.5.5.5.5.",
"5.5.5.5.5.5.! ~ l #     5.5.5.4 D Y I 5       5.5.# b Y Y t       5.5.5.y L ~ y     5.5.5.5.5.5.",
"5.5.5.5.5.5.4 3 O       5.5.5.5.> 4 =       5.5.5.5.- 4 :       5.5.5.5.5.3 1 .     5.5.5.5.5.5.",
"5.5.5.5.5.5.5.        5.5.5.5.5.5.        5.5.5.5.5.5.        5.5.5.5.5.5.        5.5.5.5.5.5.5.",
"5.5.5.5.5.5.5.5.    5.5.5.5.5.5.5.5.    5.5.5.5.5.5.5.5.    5.5.5.5.5.5.5.5.      5.5.5.5.5.5.5.",
"5.5.5.5.5.5.5.5.5.5.5.5.5.5.5.5.5.5.5.5.5.5.5.5.5.5.5.5.5.5.5.5.5.5.5.5.5.5.5.5.5.5.5.5.5.5.5.5.",
"5.5.5.5.5.5.5.5.5.5.5.5.5.5.5.5.5.5.5.5.5.5.5.5.5.5.5.5.5.5.5.5.5.5.5.5.5.5.5.5.5.5.5.5.5.5.5.5.",
"5.5.5.5.5.5.5.5.5.5.5.5.5.5.5.5.5.5.5.5.5.5.5.5.5.5.5.5.5.5.5.5.5.5.5.5.5.5.5.5.5.5.5.5.5.5.5.5.",
"5.5.5.5.5.5.5.5.5.5.5.5.5.5.5.5.5.5.5.5.5.5.5.5.5.5.5.5.5.5.5.5.5.5.5.5.5.5.5.5.5.5.5.5.5.5.5.5.",
"5.5.5.5.5.5.5.5.5.5.5.5.5.5.5.5.5.5.5.5.5.5.5.5.5.5.5.5.5.5.5.5.5.5.5.5.5.5.5.5.5.5.5.5.5.5.5.5."
};
