/* XPM */
static char *result[] = {
/* columns rows colors chars-per-pixel */
"48 48 108 2 ",
"   c #000000",
".  c #0A0507",
"X  c #0B0708",
"o  c #0D0909",
"O  c #120C0E",
"+  c #160F11",
"@  c #180E10",
"#  c #1C1215",
"$  c #211519",
"%  c #23181A",
"&  c #291B1F",
"*  c #2E1E22",
"=  c #322126",
"-  c #362429",
";  c #3A262C",
":  c #3E282F",
">  c #363737",
",  c #442C33",
"<  c #4D323A",
"1  c #53363E",
"2  c #5A3B44",
"3  c #50494B",
"4  c #64424C",
"5  c #68444E",
"6  c #6B4751",
"7  c #724B56",
"8  c #764D59",
"9  c #7E535F",
"0  c #6E5F63",
"q  c #7C5560",
"w  c #726E6E",
"e  c #80545F",
"r  c #825662",
"t  c #875965",
"y  c #895A67",
"u  c #8D5D6A",
"i  c #915E6D",
"p  c #996473",
"a  c #867076",
"s  c #A26B7A",
"d  c #A86E7E",
"f  c #967C84",
"g  c #AE7283",
"h  c #B17586",
"j  c #B67788",
"k  c #B77889",
"l  c #BB7B8D",
"z  c #BF7F90",
"x  c #868183",
"c  c #96888C",
"v  c #BB8392",
"b  c #B18994",
"n  c #BD919E",
"m  c #C58194",
"M  c #C98497",
"N  c #CE869A",
"B  c #CE899C",
"V  c #D48B9E",
"C  c #D68DA1",
"Z  c #D98EA3",
"A  c #CC93A3",
"S  c #C59AA6",
"D  c #DC91A6",
"F  c #DB9FB0",
"G  c #E495AB",
"H  c #E799AE",
"J  c #E899AF",
"K  c #E29EB1",
"L  c #EC9CB2",
"P  c #F19EB5",
"I  c #CEA4B0",
"U  c #D4A2B2",
"Y  c #C4BEBF",
"T  c #EDA4B9",
"R  c #E9A8BA",
"E  c #F3A0B7",
"W  c #F4A2B9",
"Q  c #FAA4BC",
"!  c #F2AABE",
"~  c #E2B0BE",
"^  c #EEAFC0",
"/  c #F3ACC0",
"(  c #FCACC2",
")  c #F5B3C5",
"_  c #FAB3C6",
"`  c #F5B6C8",
"'  c #FFB3C9",
"]  c #F5BBCB",
"[  c #FABCCD",
"{  c #FFBFD1",
"}  c #DAC3C9",
"|  c #E2C4CC",
" . c #F6C4D2",
".. c #FCC3D3",
"X. c #F7CBD7",
"o. c #F8C9D7",
"O. c #F7CDD8",
"+. c #FCCDDB",
"@. c #FDD1DE",
"#. c #FFD6E3",
"$. c #F6DBE2",
"%. c #FBDAE3",
"&. c #F2E6EA",
"*. c #FCE3EA",
"=. c #F4EDF1",
"-. c #FEECF2",
";. c #FDF3F7",
":. c None",
/* pixels */
":.:.:.:.:.:.:.:.:.:.:.:.:.:.:.:.:.:.:.:.:.:.:.:.:.:.:.:.:.:.:.:.:.:.:.:.:.:.:.:.:.:.:.:.:.:.:.:.",
":.:.:.:.:.:.:.:.:.:.:.:.:.:.:.:.:.:.:.:.:.:.:.:.:.:.:.:.:.:.:.:.:.:.:.:.:.:.:.:.:.:.:.:.:.:.:.:.",
":.:.:.:.:.:.:.:.:.:.:.:.:.:.:.:.:.:.:.:.:.:.:.:.:.:.:.:.:.:.:.:.:.:.:.:.:.:.:.:.:.:.:.:.:.:.:.:.",
":.:.:.:.:.:.:.:.:.:.:.:.:.:.:.:.:.:.:.:.:.:.:.:.:.:.:.:.:.:.:.:.:.:.:.:.:.:.:.:.:.:.:.:.:.:.:.:.",
":.:.:.:.:.:.:.:.:.:.:.:.:.:.:.:.:.:.:.:.:.:.:.:.:.:.:.:.:.:.:.:.:.:.:.:.:.:.:.:.:.:.:.:.:.:.:.:.",
":.:.:.:.:.:.:.:.:.:.:.:.:.:.:.:.:.:.:.-.*.%.%.%.%.%.%.:.:.:.:.:.:.:.:.:.:.:.:.:.:.:.:.:.:.:.:.:.",
":.:.:.:.:.:.:.:.:.:.:.:.:.:.:.:.;.*.X.` / W W W W ! / ]  .o.:.:.:.:.:.:.:.:.:.:.:.:.:.:.:.:.:.:.",
":.:.:.:.:.:.:.:.:.:.:.:.:.:.;.%.] W L P P P T P P L P P E ! [ U :.:.:.:.:.:.:.:.:.:.:.:.:.:.:.:.",
":.:.:.:.:.:.:.:.:.:.:.:.:.-. .E P P P P P P P P P P P P P P P ' U :.:.:.:.:.:.:.:.:.:.:.:.:.:.:.",
":.:.:.:.:.:.:.:.:.:.:.:.*.) P P P P P P P P P P P P P P P P P P ( T :.:.:.:.:.:.:.:.:.:.:.:.:.:.",
":.:.:.:.:.:.:.:.:.:.:.*._ P P P P P P P P P P P P P P P W P P P P Q Q :.:.:.:.:.:.:.:.:.:.:.:.:.",
":.:.:.:.:.:.:.:.:.:.-.` G L W W P P P P P P P P P W W J J P W P P P Q V :.:.:.:.:.:.:.:.:.:.:.:.",
":.:.:.:.:.:.:.:.:.-.n < * , y D P P P P P P P P W l 2 = - 2 j L P P P Q y :.:.:.:.:.:.:.:.:.:.:.",
":.:.:.:.:.:.:.:.:.b .         2 V P P P P P P W p O         @ p W P P W D :.:.:.:.:.:.:.:.:.:.:.",
":.:.:.:.:.:.:.:.~ @             e P W P P P W j o             * Z P P P W r :.:.:.:.:.:.:.:.:.:.",
":.:.:.:.:.:.:.:.:.:.  :.:.:.:.:.@ N W P P W G ;     :.:.:.:.:.:.i Q P P W m :.:.:.:.:.:.:.:.:.:.",
":.:.:.:.:.:.:.:.:.:.:.:.:.:.:.:.:.u ( P P Q g     :.:.:.:.:.:.:.:.Q E L W L , :.:.:.:.:.:.:.:.:.",
":.:.:.:.:.:.:.I :.w c :.:.:.:.:.:.:.( P P W p   > x :.:.:.:.:.:.:.K W E P P e :.:.:.:.:.:.:.:.:.",
":.:.:.:.:.:.:.| } %.o...v :.:.:.:.:.` W P P M f %.@...R :.:.:.:.:.A Q P P W h O :.:.:.:.:.:.:.:.",
":.:.:.:.:.:.:.X.! L G L V :.:.:.:.:.[ P L E E ) T G L H 4 :.:.:.:.n _ P P W N = :.:.:.:.:.:.:.:.",
":.:.:.:.:.:.@.^ G K J P l % :.:.:.:.[ E P P L L H H T D < :.:.:.:. .W E P P G 2 :.:.:.:.:.:.:.:.",
":.:.:.:.:.:.O.T L L E L 6   :.:.:.:.` P P P L H L E W s O   :.:.:.+.E L P P P r   :.:.:.:.:.:.:.",
":.:.:.:.:.:. .L m g g 2     :.:.:.*./ P P P E D g g 9 O     :.:.:.] P P P P P s O :.:.:.:.:.:.:.",
":.:.:.:.:.:. .E y           :.:.:.+.E P P P W C ,           :.:.-.Q P P P P W k # :.:.:.:.:.:.:.",
":.:.:.:.:.:.` P L q       :.:.:.-./ P P P P P E B -       :.:.=. .P P P P P W M * :.:.:.:.:.:.:.",
":.:.:.:.:.:.) P P ' S 0 :.:.Y -./ P P P P P P P ( ^ a 3 :.:.&.+.P P P P P P W C : :.:.:.:.:.:.:.",
":.:.:.:.:. .! P P P ' ..#.#...P P P E P P P P P L W ..+.#.+.` P P P P P P P P G <   :.:.:.:.:.:.",
":.:.:.:.:. .! P P P P L P P P P P P L P P P P P E P P P P P P P P P P P P P P J 2   :.:.:.:.:.:.",
":.:.:.:.:. .W L T P P P P P P P P P P P P L E P P P P P P P P P P P P P P P P L 4   :.:.:.:.:.:.",
":.:.:.:.:.[ W P P P P P P P P P P P P P P P P P P P P P P P P P P P P E P P P P 7   :.:.:.:.:.:.",
":.:.:.:.:.] W T P P P P P P P P P P P P E P L E P P P P P P P P P P P P P P P P 7   :.:.:.:.:.:.",
":.:.:.:.:.] E P P P P P P P P P P P P P P P P P P P P P P P P P P P P P P P W P 8   :.:.:.:.:.:.",
":.:.:.:.:.] E P E P P P P P P P P P P P P P P W P P P P P P P P P P P P P P W P r   :.:.:.:.:.:.",
":.:.:.:.:.` W L P P P P P P P P P P P P P P P P P P P P P P P P P P P P P P P W e   :.:.:.:.:.:.",
":.:.:.:.:.] E P L P P P P P E P P P P P P P P P P P P P P P P P P P P P P P P P e   :.:.:.:.:.:.",
":.:.:.:.:.` E P E P E W Q W E P P P P P P W Q Q W P P P P P P P Q Q W P P P P P 8   :.:.:.:.:.:.",
":.:.:.:.:.` E P P P P j r s J W P P P P W m t i C P P P P P P G i y m P P P P P 6   :.:.:.:.:.:.",
":.:.:.:.:.` W P W E t .   . p P P P P Q d #     1 Z P P P W G 1     - m W P P L 2   :.:.:.:.:.:.",
":.:.:.:.:.A ( P Q g .       * N W W Q D #         i W W Q P 6         4 J W Q G *   :.:.:.:.:.:.",
":.:.:.:.:.:.L L g $       :.:.2 N L D 2       :.:.% l J J r .     :.:.:.y D P r     :.:.:.:.:.:.",
":.:.:.:.:.:., :       :.:.:.:.:.* , #       :.:.:.:.% , &       :.:.:.:.:.: -       :.:.:.:.:.:.",
":.:.:.:.:.:.:.        :.:.:.:.:.:.        :.:.:.:.:.:.        :.:.:.:.:.:.        :.:.:.:.:.:.:.",
":.:.:.:.:.:.:.:.    :.:.:.:.:.:.:.:.    :.:.:.:.:.:.:.:.    :.:.:.:.:.:.:.:.    :.:.:.:.:.:.:.:.",
":.:.:.:.:.:.:.:.:.:.:.:.:.:.:.:.:.:.:.:.:.:.:.:.:.:.:.:.:.:.:.:.:.:.:.:.:.:.:.:.:.:.:.:.:.:.:.:.",
":.:.:.:.:.:.:.:.:.:.:.:.:.:.:.:.:.:.:.:.:.:.:.:.:.:.:.:.:.:.:.:.:.:.:.:.:.:.:.:.:.:.:.:.:.:.:.:.",
":.:.:.:.:.:.:.:.:.:.:.:.:.:.:.:.:.:.:.:.:.:.:.:.:.:.:.:.:.:.:.:.:.:.:.:.:.:.:.:.:.:.:.:.:.:.:.:.",
":.:.:.:.:.:.:.:.:.:.:.:.:.:.:.:.:.:.:.:.:.:.:.:.:.:.:.:.:.:.:.:.:.:.:.:.:.:.:.:.:.:.:.:.:.:.:.:.",
":.:.:.:.:.:.:.:.:.:.:.:.:.:.:.:.:.:.:.:.:.:.:.:.:.:.:.:.:.:.:.:.:.:.:.:.:.:.:.:.:.:.:.:.:.:.:.:."
};
