/* XPM */
static char *result[] = {
/* columns rows colors chars-per-pixel */
"48 48 115 2 ",
"   c #000000",
".  c #090607",
"X  c #0B0708",
"o  c #0C0909",
"O  c #120C0E",
"+  c #160F11",
"@  c #180E10",
"#  c #1C1215",
"$  c #22161A",
"%  c #26191C",
"&  c #291B1F",
"*  c #2C1D21",
"=  c #301F24",
"-  c #322125",
";  c #352328",
":  c #38242B",
">  c #3F292F",
",  c #422B32",
"<  c #4A2F37",
"1  c #4E333A",
"2  c #52353D",
"3  c #553840",
"4  c #5B3C44",
"5  c #603F48",
"6  c #58444A",
"7  c #65434D",
"8  c #69454F",
"9  c #6C4752",
"0  c #6D4852",
"q  c #724B56",
"w  c #764E59",
"e  c #7E525E",
"r  c #666060",
"t  c #815461",
"y  c #875966",
"u  c #895A67",
"i  c #8D5C6A",
"p  c #905E6C",
"a  c #94616F",
"s  c #836B73",
"d  c #956270",
"f  c #9B6674",
"g  c #9F6877",
"h  c #A26B7B",
"j  c #A96F7F",
"k  c #AA6F80",
"l  c #AA7080",
"z  c #B37586",
"x  c #B57788",
"c  c #B57A8A",
"v  c #BB7B8D",
"b  c #C27F91",
"n  c #A1858D",
"m  c #AF8390",
"M  c #AC8D96",
"N  c #BE8496",
"B  c #BF8998",
"V  c #A8999D",
"C  c #BD98A3",
"Z  c #BCA5AB",
"A  c #C68194",
"S  c #C98497",
"D  c #CB8699",
"F  c #CB889A",
"G  c #D28A9D",
"H  c #D58CA0",
"J  c #D98EA3",
"K  c #DE92A7",
"L  c #DE94A8",
"P  c #E495AB",
"I  c #E699AE",
"U  c #E99AAF",
"Y  c #E79BB0",
"T  c #EB9CB2",
"R  c #F19EB5",
"E  c #D5A3B1",
"W  c #DAA0B0",
"Q  c #E2A2B4",
"!  c #E9A0B4",
"~  c #EAA6B8",
"^  c #E5ADBC",
"/  c #E9A9BB",
"(  c #F3A0B7",
")  c #F5A2B9",
"_  c #FAA4BC",
"`  c #F4A9BE",
"'  c #EAB0BF",
"]  c #F5AEC2",
"[  c #FCACC3",
"{  c #E7B2C0",
"}  c #EDB3C3",
"|  c #EEB8C7",
" . c #F4B4C6",
".. c #FDB0C6",
"X. c #F6B7C9",
"o. c #F5BBCB",
"O. c #FBBBCD",
"+. c #DAC0C6",
"@. c #F4C1CF",
"#. c #F7C4D3",
"$. c #FCC3D3",
"%. c #F7C8D6",
"&. c #F4CED8",
"*. c #FACDD9",
"=. c #FAD3DE",
"-. c #EADEE2",
";. c #F9D7E0",
":. c #FBDBE4",
">. c #FBE0E7",
",. c #FBE4EB",
"<. c #FCE9EE",
"1. c #FCECF1",
"2. c #FEF1F4",
"3. c #FFFBFF",
"4. c None",
/* pixels */
"4.4.4.4.4.4.4.4.4.4.4.4.4.4.4.4.4.4.4.4.4.4.4.4.4.4.4.4.4.4.4.4.4.4.4.4.4.4.4.4.4.4.4.4.4.4.4.4.",
"4.4.4.4.4.4.4.4.4.4.4.4.4.4.4.4.4.4.4.4.4.4.4.4.4.4.4.4.4.4.4.4.4.4.4.4.4.4.4.4.4.4.4.4.4.4.4.4.",
"4.4.4.4.4.4.4.4.4.4.4.4.4.4.4.4.4.4.4.4.4.4.4.4.4.4.4.4.4.4.4.4.4.4.4.4.4.4.4.4.4.4.4.4.4.4.4.4.",
"4.4.4.4.4.4.4.4.4.4.4.4.4.4.4.4.4.4.4.4.4.4.4.4.4.4.4.4.4.4.4.4.4.4.4.4.4.4.4.4.4.4.4.4.4.4.4.4.",
"4.4.4.4.4.4.4.4.4.4.4.4.4.4.4.4.4.4.4.4.4.4.4.4.4.4.4.4.4.4.4.4.4.4.4.4.4.4.4.4.4.4.4.4.4.4.4.4.",
"4.4.4.4.4.4.4.4.4.4.4.4.4.4.4.4.4.4.4.<.,.:.=.=.;.;.;.4.4.4.4.4.4.4.4.4.4.4.4.4.4.4.4.4.4.4.4.4.",
"4.4.4.4.4.4.4.4.4.4.4.4.4.4.4.4.2.:.#.X.` ( ! ( ( ` ] X.@.%.4.4.4.4.4.4.4.4.4.4.4.4.4.4.4.4.4.4.",
"4.4.4.4.4.4.4.4.4.4.4.4.4.4.2.=.X.( T R R R R R T R R T ( ` O.E 4.4.4.4.4.4.4.4.4.4.4.4.4.4.4.4.",
"4.4.4.4.4.4.4.4.4.4.4.4.4.1.O.R R R R ( R R R R R R R R R R R [ / 4.4.4.4.4.4.4.4.4.4.4.4.4.4.4.",
"4.4.4.4.4.4.4.4.4.4.4.4.<.X.R R R R R T R R R R R R R R R R R T [ ] 4.4.4.4.4.4.4.4.4.4.4.4.4.4.",
"4.4.4.4.4.4.4.4.4.4.4.<.X.R R R R R R ( R R R R R R R R R R R ( R _ T 4.4.4.4.4.4.4.4.4.4.4.4.4.",
"4.4.4.4.4.4.4.4.4.4.,. .R R R R R R R R R R R R R R R R R R R R R ( _ H 4.4.4.4.4.4.4.4.4.4.4.4.",
"4.4.4.4.4.4.4.4.4.<.#.R R R R R R R R R R R R R R R R R R R R R R R R _ d 4.4.4.4.4.4.4.4.4.4.4.",
"4.4.4.4.4.4.4.4.4.=.( R R R _ _ _ R R R R R R R R R R R ) _ [ _ _ R R ( P 4.4.4.4.4.4.4.4.4.4.4.",
"4.4.4.4.4.4.4.4.>. .T ) R A d p l P ) R R R R R R R ) _ J h i f G R R ( ( u 4.4.4.4.4.4.4.4.4.4.",
"4.4.4.4.4.4.4.4.*.( ) P 9 O     . 1 b R R R R R R R R d %       * f T ( ( A 4.4.4.4.4.4.4.4.4.4.",
"4.4.4.4.4.4.4.4.O.R P 2             , G ) R R R R ) i             # j R ) P , 4.4.4.4.4.4.4.4.4.",
"4.4.4.4.4.4.4.=.` R q       4.4.4.4.4.0 _ R R R _ S o       4.4.4.4.- K ) R y 4.4.4.4.4.4.4.4.4.",
"4.4.4.4.4.4.4.%.) G #     4.4.4.4.4.4.4.T ) R R _ y     4.4.4.4.4.4.4.l [ _ z @ 4.4.4.4.4.4.4.4.",
"4.4.4.4.4.4.4.o._ k .   4.4.4.4.4.4.4.4.I _ R R R 3     4.4.4.4.4.4.4.0 [ R G : 4.4.4.4.4.4.4.4.",
"4.4.4.4.4.4.=.] R p .   4.4.4.4.4.4.4.4.S ] R R P >   4.4.4.4.4.4.4.4.4.[ ) P 5 4.4.4.4.4.4.4.4.",
"4.4.4.4.4.4.&.` _ u   4.4.4.4.4.4.4.4.4.m ..R R L ,   4.4.4.4.4.4.4.4.4.O.R R t   4.4.4.4.4.4.4.",
"4.4.4.4.4.4.#.( ( h . 4.4.4.4.4.4.4.4.4.C ..R _ P 2   4.4.4.4.4.4.4.4.4.O.( R h o 4.4.4.4.4.4.4.",
"4.4.4.4.4.4.o.R _ A * 4.4.3.@.} X.N 4.4.;.) R R R t   4.-.:.| } Q 4.4.4.$.R ) v $ 4.4.4.4.4.4.4.",
"4.4.4.4.4.4.X.R ) U 9 4.4.*.P U T F 4.4.*.( R R _ c   4.:.! U U I 7 4.Z O.R _ D = 4.4.4.4.4.4.4.",
"4.4.4.4.4.%.] R R ) F 4.M ] I I T c @ r $.R R R R T < 4.O.U U T G 1 4.&.` R R J > 4.4.4.4.4.4.4.",
"4.4.4.4.4.#.` T T ( _ c n ` U U T x 6 +.[ R R R R ) L s { I U T G 9 V $.R R R P 1   4.4.4.4.4.4.",
"4.4.4.4.4.#.` R R R ( [ { ~ I I I L ^ O.T R R R R R _ } / Y I Y P W #.( R R R U 4   4.4.4.4.4.4.",
"4.4.4.4.4.#.` T R R R ! ) T T T T ( ` R T ( R R R R R ) ( T T T R ` R R R R R T 8   4.4.4.4.4.4.",
"4.4.4.4.4.O.( R R R R R R R R R R R R R ( R R R R R R R R R R R R R R R R R ( R q   4.4.4.4.4.4.",
"4.4.4.4.4.o.` R R R R R R R R R R R R R R R R R R R R R R R R T R R R R R R R R q   4.4.4.4.4.4.",
"4.4.4.4.4.o.R R R R R R R ( T R R R R R R R R R R R R R R R R R R R R R R R ) R w   4.4.4.4.4.4.",
"4.4.4.4.4.o.( R R R R R ( R R R R R R R R R R R R R R R R R R R R R R R R R ) _ t   4.4.4.4.4.4.",
"4.4.4.4.4.o.( T R R R R R R ( T R R R R R R R R R R R R R R R R R R R R R R R R t   4.4.4.4.4.4.",
"4.4.4.4.4.o.R R R R R R R R R R R R R R R R R R R R R T R R R R R R R R R R R R e   4.4.4.4.4.4.",
"4.4.4.4.4.o.) R R R R R R ) _ _ _ R R R R R R R R R R ( ( _ _ _ ( R R R R R R R w   4.4.4.4.4.4.",
"4.4.4.4.4.X.R R R R R R _ H e q z T ) R R R R R R R R R U g 0 i P ( R R R R R R 7   4.4.4.4.4.4.",
"4.4.4.4.4.Q ` R R R R _ c %     + t P ( R R R R R ( _ F <       8 J R R R R R U ,   4.4.4.4.4.4.",
"4.4.4.4.4.h [ R R ) _ z #         o q J ) ( R R ) _ z %         . 0 L R R R _ b O   4.4.4.4.4.4.",
"4.4.4.4.4.4.b T _ R h +       4.4.4.. 4 b T _ ) I f O       4.4.4.. q F _ _ J <     4.4.4.4.4.4.",
"4.4.4.4.4.4.% 1 5 , .       4.4.4.4.4.  $ < 5 4 =         4.4.4.4.4.  ; 4 4 $       4.4.4.4.4.4.",
"4.4.4.4.4.4.4.            4.4.4.4.4.4.4.                4.4.4.4.4.4.4.            4.4.4.4.4.4.4.",
"4.4.4.4.4.4.4.4.      4.4.4.4.4.4.4.4.4.4.4.        4.4.4.4.4.4.4.4.4.4.4.      4.4.4.4.4.4.4.4.",
"4.4.4.4.4.4.4.4.4.4.4.4.4.4.4.4.4.4.4.4.4.4.4.4.4.4.4.4.4.4.4.4.4.4.4.4.4.4.4.4.4.4.4.4.4.4.4.4.",
"4.4.4.4.4.4.4.4.4.4.4.4.4.4.4.4.4.4.4.4.4.4.4.4.4.4.4.4.4.4.4.4.4.4.4.4.4.4.4.4.4.4.4.4.4.4.4.4.",
"4.4.4.4.4.4.4.4.4.4.4.4.4.4.4.4.4.4.4.4.4.4.4.4.4.4.4.4.4.4.4.4.4.4.4.4.4.4.4.4.4.4.4.4.4.4.4.4.",
"4.4.4.4.4.4.4.4.4.4.4.4.4.4.4.4.4.4.4.4.4.4.4.4.4.4.4.4.4.4.4.4.4.4.4.4.4.4.4.4.4.4.4.4.4.4.4.4.",
"4.4.4.4.4.4.4.4.4.4.4.4.4.4.4.4.4.4.4.4.4.4.4.4.4.4.4.4.4.4.4.4.4.4.4.4.4.4.4.4.4.4.4.4.4.4.4.4."
};
