/* XPM */
static char *result[] = {
/* columns rows colors chars-per-pixel */
"48 48 111 2 ",
"   c #000000",
".  c #080506",
"X  c #0D090A",
"o  c #120C0D",
"O  c #160E10",
"+  c #1C1215",
"@  c #24171B",
"#  c #26191C",
"$  c #2A1C1F",
"%  c #2D1E22",
"&  c #322125",
"*  c #372428",
"=  c #3D282E",
"-  c #323333",
";  c #432C32",
":  c #482F36",
">  c #4D3239",
",  c #51353D",
"<  c #553A42",
"1  c #5A3B44",
"2  c #5F3E48",
"3  c #603E48",
"4  c #65434C",
"5  c #68444E",
"6  c #6C4751",
"7  c #6D4954",
"8  c #714A55",
"9  c #764E59",
"0  c #794F5B",
"q  c #7E535F",
"w  c #7F5360",
"e  c #757173",
"r  c #825562",
"t  c #875965",
"y  c #895A67",
"u  c #8C5C69",
"i  c #905F6D",
"p  c #94616F",
"a  c #966371",
"s  c #9A6674",
"d  c #9E6977",
"f  c #9F717D",
"g  c #A46C7B",
"h  c #A96E7F",
"j  c #AE7283",
"k  c #AC7886",
"l  c #B27586",
"z  c #B9798B",
"x  c #C17F91",
"c  c #928D8D",
"v  c #B5808F",
"b  c #A58A90",
"n  c #C58194",
"m  c #CA8497",
"M  c #CB8598",
"N  c #C58A9B",
"B  c #D28A9E",
"V  c #D78DA2",
"C  c #D98EA3",
"Z  c #CE9CAB",
"A  c #D494A4",
"S  c #DD91A6",
"D  c #DF93A8",
"F  c #E596AC",
"G  c #E799AF",
"H  c #E898AF",
"J  c #E39DB0",
"K  c #ED9DB3",
"L  c #F19EB5",
"P  c #C5A1AA",
"I  c #D9A7B4",
"U  c #C6BABD",
"Y  c #E2A4B5",
"T  c #EBA1B5",
"R  c #EFA6BA",
"E  c #F3A0B7",
"W  c #F4A2B9",
"Q  c #F9A3BB",
"!  c #F3A9BD",
"~  c #E3B0BE",
"^  c #F4AEC1",
"/  c #FCAAC1",
"(  c #EEB4C4",
")  c #E6B8C5",
"_  c #EEB8C7",
"`  c #EFBCCA",
"'  c #F4B3C5",
"]  c #FCB2C7",
"[  c #F5B7C8",
"{  c #FCB4C8",
"}  c #F5BBCB",
"|  c #FCBCCE",
" . c #FFBFD1",
".. c #DAC1C8",
"X. c #F9C0CE",
"o. c #F6C4D2",
"O. c #FAC6D5",
"+. c #F7C9D5",
"@. c #FDCDDA",
"#. c #F3D4DD",
"$. c #F9D4DE",
"%. c #FDD5E2",
"&. c #F6DAE2",
"*. c #FBDAE3",
"=. c #FAE0E6",
"-. c #FBE3EB",
";. c #FBE8EE",
":. c #FCEDF1",
">. c #FEF3F5",
",. c #FFFBFF",
"<. c None",
/* pixels */
"<.<.<.<.<.<.<.<.<.<.<.<.<.<.<.<.<.<.<.<.<.<.<.<.<.<.<.<.<.<.<.<.<.<.<.<.<.<.<.<.<.<.<.<.<.<.<.<.",
"<.<.<.<.<.<.<.<.<.<.<.<.<.<.<.<.<.<.<.<.<.<.<.<.<.<.<.<.<.<.<.<.<.<.<.<.<.<.<.<.<.<.<.<.<.<.<.<.",
"<.<.<.<.<.<.<.<.<.<.<.<.<.<.<.<.<.<.<.<.<.<.<.<.<.<.<.<.<.<.<.<.<.<.<.<.<.<.<.<.<.<.<.<.<.<.<.<.",
"<.<.<.<.<.<.<.<.<.<.<.<.<.<.<.<.<.<.<.<.<.<.<.<.<.<.<.<.<.<.<.<.<.<.<.<.<.<.<.<.<.<.<.<.<.<.<.<.",
"<.<.<.<.<.<.<.<.<.<.<.<.<.<.<.<.<.<.<.<.<.<.<.<.<.<.<.<.<.<.<.<.<.<.<.<.<.<.<.<.<.<.<.<.<.<.<.<.",
"<.<.<.<.<.<.<.<.<.<.<.<.<.<.<.<.<.<.<.;.;.*.*.$.%.*.*.<.<.<.<.<.<.<.<.<.<.<.<.<.<.<.<.<.<.<.<.<.",
"<.<.<.<.<.<.<.<.<.<.<.<.<.<.<.<.>.-.+.' ! W W W W R ^ ' O.+.<.<.<.<.<.<.<.<.<.<.<.<.<.<.<.<.<.<.",
"<.<.<.<.<.<.<.<.<.<.<.<.<.<.>.*.[ W L L L L K L L K L L E ! | P <.<.<.<.<.<.<.<.<.<.<.<.<.<.<.<.",
"<.<.<.<.<.<.<.<.<.<.<.<.<.:.o.L L L L L L E L L E L L L L L L ] Y <.<.<.<.<.<.<.<.<.<.<.<.<.<.<.",
"<.<.<.<.<.<.<.<.<.<.<.<.:.[ L L L L L L L L L L L L K E L L L L / R <.<.<.<.<.<.<.<.<.<.<.<.<.<.",
"<.<.<.<.<.<.<.<.<.<.<.-.^ L L L L L W L L L L L L L L L L L L L E / E <.<.<.<.<.<.<.<.<.<.<.<.<.",
"<.<.<.<.<.<.<.<.<.<.;.' L L W Q L F H E W L L L L L L L L L Q W F F Q S <.<.<.<.<.<.<.<.<.<.<.<.",
"<.<.<.<.<.<.<.<.<.;.o.L L L F u ; $ * 6 B L L L L L L L L Q n 5 % % , l u <.<.<.<.<.<.<.<.<.<.<.",
"<.<.<.<.<.<.<.<.<.$.E L W H >           : M L L L L L L W g +         O p <.<.<.<.<.<.<.<.<.<.<.",
"<.<.<.<.<.<.<.<.-.[ L L Q t               5 H E L L L Q x O             @ q <.<.<.<.<.<.<.<.<.<.",
"<.<.<.<.<.<.<.<.$.E L W B +     <.<.<.<.<.X n W L L L L <       <.<.<.<.<.> <.<.<.<.<.<.<.<.<.<.",
"<.<.<.<.<.<.<.<.[ L L Q t     <.<.<.<.<.<.<.8 / L L Q x o     <.<.<.<.<.<.<.7 <.<.<.<.<.<.<.<.<.",
"<.<.<.<.<.<.<.$.W L L L 1   <.<.<.<.<.<.<.<.<.^ L L Q s     <.<.<.<.<.,.<.<.f <.<.<.<.<.<.<.<.<.",
"<.<.<.<.<.<.<.+.L L E H >   <.<.<.<.:.o._ X.b ~ W L Q y     <.<.<.<.&.} } ) Z % <.<.<.<.<.<.<.<.",
"<.<.<.<.<.<.<.} L L E H <   <.<.<.;._ F F K ( ' E L W i . <.<.<.<.#.T F G R F = <.<.<.<.<.<.<.<.",
"<.<.<.<.<.<.$.' L L L L 9   <.<.<.o.T F J H G T L L Q j o <.<.<.<.( H J H H C < <.<.<.<.<.<.<.<.",
"<.<.<.<.<.<.@.! L L L L j X <.<.<.A T E E K G K L L W B * <.<.<.<.T K E L L J r   <.<.<.<.<.<.<.",
"<.<.<.<.<.<.O.W L L L L F 1 <.<.<.<.q d s d D E L L L L a <.<.<.<.1 i g g M L g X <.<.<.<.<.<.<.",
"<.<.<.<.<.<.} L L L L L W n <.<.<.<.      < ^ E L L L L K 3 <.<.<.<..   . z / z + <.<.<.<.<.<.<.",
"<.<.<.<.<.<.' L E L L L L / k <.<.<.<.  - ..{ L L L L L W W <.<.<.<.<.  e O.Q m % <.<.<.<.<.<.<.",
"<.<.<.<.<.<.' L L L L L L L ] I <.<.<.c #. .K L L L L L L W { P <.<.<.U *.! L V = <.<.<.<.<.<.<.",
"<.<.<.<.<.+.^ L L L L L L L L /  .@.%.@.^ K L L L L L L L L E { O.@.%.| L L Q F >   <.<.<.<.<.<.",
"<.<.<.<.<.+.W L L K E L K L L L L L L K L L L L L L L L E L E K K L L L L L L H <   <.<.<.<.<.<.",
"<.<.<.<.<.o.! L L K E L L L L L L L L L L L L L L L L L K L L E L L L L L L L K 5   <.<.<.<.<.<.",
"<.<.<.<.<.} E L L L L L L L L L L L L L L L L L E L L L L L L L L L E L L L L L 8   <.<.<.<.<.<.",
"<.<.<.<.<.} E L L L L L L L L L L L L L L E L E K L L L L L L K L L L L L L L L 9   <.<.<.<.<.<.",
"<.<.<.<.<.} E L L L L L L L L L L L L L L K L L L L L L L E L L L L L L L E L L 9   <.<.<.<.<.<.",
"<.<.<.<.<.[ E L E L L L L L L L L L E L L L L L L L L L L L L L L L L L L L E L r   <.<.<.<.<.<.",
"<.<.<.<.<.} W K L L L L L L L L L L L L L L L L L L L E L L L L L L L L L L L W r   <.<.<.<.<.<.",
"<.<.<.<.<.} E L L L K L L L L L L L L L L L L E L L L L L L L L L L L L L L L E q   <.<.<.<.<.<.",
"<.<.<.<.<.} W L L L W Q Q Q L E L L L L L W Q Q W L L L L L L L Q Q W E L L E L 9   <.<.<.<.<.<.",
"<.<.<.<.<.[ W K L E L j q s H L L L L L W n w y B E L L L L W F y q n K L L E L 6   <.<.<.<.<.<.",
"<.<.<.<.<.' W L L E w .   . a K L L L Q g O     > V Q L L W D :     & n W L L H <   <.<.<.<.<.<.",
"<.<.<.<.<.N / E Q g .       % M W L Q C +         u W L L L 5         2 F E Q F %   <.<.<.<.<.<.",
"<.<.<.<.<.<.Q Q m @       <.<.4 S Q L 5       <.<.# M W Q a .     <.<.. a K Q a .   <.<.<.<.<.<.",
"<.<.<.<.<.<.> , +     <.<.<.<.<.= , *       <.<.<.<.& , ; .     <.<.<.<.<.> : X     <.<.<.<.<.<.",
"<.<.<.<.<.<.<.        <.<.<.<.<.<.        <.<.<.<.<.<.        <.<.<.<.<.<.        <.<.<.<.<.<.<.",
"<.<.<.<.<.<.<.<.    <.<.<.<.<.<.<.<.    <.<.<.<.<.<.<.<.    <.<.<.<.<.<.<.<.    <.<.<.<.<.<.<.<.",
"<.<.<.<.<.<.<.<.<.<.<.<.<.<.<.<.<.<.<.<.<.<.<.<.<.<.<.<.<.<.<.<.<.<.<.<.<.<.<.<.<.<.<.<.<.<.<.<.",
"<.<.<.<.<.<.<.<.<.<.<.<.<.<.<.<.<.<.<.<.<.<.<.<.<.<.<.<.<.<.<.<.<.<.<.<.<.<.<.<.<.<.<.<.<.<.<.<.",
"<.<.<.<.<.<.<.<.<.<.<.<.<.<.<.<.<.<.<.<.<.<.<.<.<.<.<.<.<.<.<.<.<.<.<.<.<.<.<.<.<.<.<.<.<.<.<.<.",
"<.<.<.<.<.<.<.<.<.<.<.<.<.<.<.<.<.<.<.<.<.<.<.<.<.<.<.<.<.<.<.<.<.<.<.<.<.<.<.<.<.<.<.<.<.<.<.<.",
"<.<.<.<.<.<.<.<.<.<.<.<.<.<.<.<.<.<.<.<.<.<.<.<.<.<.<.<.<.<.<.<.<.<.<.<.<.<.<.<.<.<.<.<.<.<.<.<."
};
