/* XPM */
static char *result[] = {
/* columns rows colors chars-per-pixel */
"48 48 112 2 ",
"   c #000000",
".  c #090607",
"X  c #0A0708",
"o  c #0E090B",
"O  c #120C0D",
"+  c #140E11",
"@  c #1A1114",
"#  c #221619",
"$  c #24181C",
"%  c #291B1F",
"&  c #2C1D21",
"*  c #301F24",
"=  c #322126",
"-  c #342328",
";  c #39262B",
":  c #3E282E",
">  c #313333",
",  c #442C33",
"<  c #482E36",
"1  c #493036",
"2  c #4C3239",
"3  c #52363E",
"4  c #573942",
"5  c #5B3C45",
"6  c #603F47",
"7  c #603E48",
"8  c #63444C",
"9  c #68444E",
"0  c #6A4650",
"q  c #6D4853",
"w  c #724B56",
"e  c #764E59",
"r  c #7E535F",
"t  c #767273",
"y  c #825562",
"u  c #865865",
"i  c #895A67",
"p  c #8D5D6A",
"a  c #915F6D",
"s  c #94616F",
"d  c #966472",
"f  c #9A6574",
"g  c #9F6B7A",
"h  c #9D707B",
"j  c #A26C7A",
"k  c #AD7182",
"l  c #AD7885",
"z  c #B37587",
"x  c #B57C8B",
"c  c #BA7A8C",
"v  c #C07D90",
"b  c #908B8C",
"n  c #C58194",
"m  c #CA8498",
"M  c #D0899D",
"N  c #D68CA1",
"B  c #DA8FA3",
"V  c #C49EA9",
"C  c #CC99A8",
"Z  c #DD92A7",
"A  c #DF93A9",
"S  c #E496AB",
"D  c #E69AAF",
"F  c #E898AE",
"G  c #E79BB0",
"H  c #EC9CB2",
"J  c #F19EB5",
"K  c #C7A8B0",
"L  c #DAA7B4",
"P  c #DEABB9",
"I  c #C6BABD",
"U  c #E0A3B5",
"Y  c #E9A1B5",
"T  c #EDA6B9",
"R  c #EFACBF",
"E  c #F3A0B7",
"W  c #F4A2B9",
"Q  c #F9A4BC",
"!  c #F4A9BD",
"~  c #F9A8BF",
"^  c #D7BCC4",
"/  c #F3ACC0",
"(  c #FCACC2",
")  c #EDB4C4",
"_  c #E6B8C5",
"`  c #EFBBC9",
"'  c #F4B2C4",
"]  c #FCB2C6",
"[  c #F5B6C8",
"{  c #FBB6C9",
"}  c #F5BBCC",
"|  c #FBBDCE",
" . c #F0C2CF",
".. c #F7C4D2",
"X. c #FCC4D4",
"o. c #F6CBD7",
"O. c #F8CAD6",
"+. c #F3CED8",
"@. c #FCCCDA",
"#. c #F5D1DB",
"$. c #FBD1DE",
"%. c #F2D8DF",
"&. c #F9D7E0",
"*. c #F6DAE2",
"=. c #FADBE3",
"-. c #FBE0E7",
";. c #FBE4EB",
":. c #FCE9EE",
">. c #FDEEF2",
",. c #FDF5F6",
"<. c #FFFAFE",
"1. c None",
/* pixels */
"1.1.1.1.1.1.1.1.1.1.1.1.1.1.1.1.1.1.1.1.1.1.1.1.1.1.1.1.1.1.1.1.1.1.1.1.1.1.1.1.1.1.1.1.1.1.1.1.",
"1.1.1.1.1.1.1.1.1.1.1.1.1.1.1.1.1.1.1.1.1.1.1.1.1.1.1.1.1.1.1.1.1.1.1.1.1.1.1.1.1.1.1.1.1.1.1.1.",
"1.1.1.1.1.1.1.1.1.1.1.1.1.1.1.1.1.1.1.1.1.1.1.1.1.1.1.1.1.1.1.1.1.1.1.1.1.1.1.1.1.1.1.1.1.1.1.1.",
"1.1.1.1.1.1.1.1.1.1.1.1.1.1.1.1.1.1.1.1.1.1.1.1.1.1.1.1.1.1.1.1.1.1.1.1.1.1.1.1.1.1.1.1.1.1.1.1.",
"1.1.1.1.1.1.1.1.1.1.1.1.1.1.1.1.1.1.1.1.1.1.1.1.1.1.1.1.1.1.1.1.1.1.1.1.1.1.1.1.1.1.1.1.1.1.1.1.",
"1.1.1.1.1.1.1.1.1.1.1.1.1.1.1.1.1.1.1.>.:.-.=.=.*.*.=.1.1.1.1.1.1.1.1.1.1.1.1.1.1.1.1.1.1.1.1.1.",
"1.1.1.1.1.1.1.1.1.1.1.1.1.1.1.1.,.;.O.[ / W W ! ! ! ' } ..O.1.1.1.1.1.1.1.1.1.1.1.1.1.1.1.1.1.1.",
"1.1.1.1.1.1.1.1.1.1.1.1.1.1.,.=.} ! J J J J H J J J J H W / | P 1.1.1.1.1.1.1.1.1.1.1.1.1.1.1.1.",
"1.1.1.1.1.1.1.1.1.1.1.1.1.:.} J J J J J J J J J J J J J J J J ( U 1.1.1.1.1.1.1.1.1.1.1.1.1.1.1.",
"1.1.1.1.1.1.1.1.1.1.1.1.;.' J J J J J J J J J E J J J J J J J H ~ ( 1.1.1.1.1.1.1.1.1.1.1.1.1.1.",
"1.1.1.1.1.1.1.1.1.1.1.;./ J J J J J W J J J J J J J J J J J J J J ~ ~ 1.1.1.1.1.1.1.1.1.1.1.1.1.",
"1.1.1.1.1.1.1.1.1.1.;.[ J J J Q J F S W W J J J J J J J J J Q W S S Q B 1.1.1.1.1.1.1.1.1.1.1.1.",
"1.1.1.1.1.1.1.1.1.:...J J E S a , % = 0 M J J J J J J J J Q n 9 & & 3 z p 1.1.1.1.1.1.1.1.1.1.1.",
"1.1.1.1.1.1.1.1.1.&.W J W S 1           < m J J J J J J Q j +         + p 1.1.1.1.1.1.1.1.1.1.1.",
"1.1.1.1.1.1.1.1.-.[ J J J w               4 S J J J J Q k O             @ w 1.1.1.1.1.1.1.1.1.1.",
"1.1.1.1.1.1.1.1.o.E J W n O     1.1.1.1.1.1.x Q J J J F ,     1.1.1.1.1.1.< 1.1.1.1.1.1.1.1.1.1.",
"1.1.1.1.1.1.1.1.' J J Q y     1.1.1.1.1.1.1.q ( J J Q v o     1.1.1.1.1.1.1.w 1.1.1.1.1.1.1.1.1.",
"1.1.1.1.1.1.1.$.W J J J 5   1.1.1.1.1.1.>.1.1.' J J Q f     1.1.1.1.1.<.1.1.h 1.1.1.1.1.1.1.1.1.",
"1.1.1.1.1.1.1.o.E J W F 2   1.1.1.1.>.+.) ..K _ W J Q u     1.1.1.<.*.` } _ C 1.1.1.1.1.1.1.1.1.",
"1.1.1.1.1.1.1.} J J J D 4   1.1.1.1. .D D G ! ! J J Q a   1.1.1.1.#.Y S D T D : 1.1.1.1.1.1.1.1.",
"1.1.1.1.1.1.$.' J J J J y   1.1.1.X.T G D G D F J J Q z @ 1.1.1.1.) D D F H S 7 1.1.1.1.1.1.1.1.",
"1.1.1.1.1.1.O.W J J J J c + 1.1.1.j G H E H D J J J E Z < 1.1.1.1.A H E J D D i   1.1.1.1.1.1.1.",
"1.1.1.1.1.1...W J J J W D 6 1.1.1.1.q d j z S Y J J E J f 1.1.1.1.4 p j j n J j o 1.1.1.1.1.1.1.",
"1.1.1.1.1.1.} J J J J J W n 1.1.1.1.1.    8 ! E J J J J G 7 1.1.1.1.    . x ( c @ 1.1.1.1.1.1.1.",
"1.1.1.1.1.1.[ J J J J J J ~ l 1.1.1.1.  > ^ ] J J J J J W W 1.1.1.1.1.  t O.Q m & 1.1.1.1.1.1.1.",
"1.1.1.1.1.1.' J J J J J J J ] L 1.1.1.b *.| H J J J J J J W { V 1.1.1.I =.~ J M : 1.1.1.1.1.1.1.",
"1.1.1.1.1.O./ J E J J J J J J ~ | X.@.@.W H J J J J J J J J W ] | @.@.| J J J S 2   1.1.1.1.1.1.",
"1.1.1.1.1...W J H E J J J J J J J J J H J W J J J J J J J J J J J J J J J J Q F 5   1.1.1.1.1.1.",
"1.1.1.1.1...W J J J J J J J J J J J J J J J J J J J J J H J E J E J J J J J J H 0   1.1.1.1.1.1.",
"1.1.1.1.1.} W J J J J J J J J J J J J J J J H W J J J E J J J J J J J J J J E J w   1.1.1.1.1.1.",
"1.1.1.1.1.} W H J J J J J J J J J J J J J J E J J J E H J J J J J J J J J J J J w   1.1.1.1.1.1.",
"1.1.1.1.1.} E E J J J J J J J J J J J J J E H J J J J J J J J J J J J J J J E J e   1.1.1.1.1.1.",
"1.1.1.1.1.[ W E H E J J J J J J J J J J J J J E J J J J J J J J J J J J J J J J y   1.1.1.1.1.1.",
"1.1.1.1.1.} W H J J J J J J H E J J J J J J H J J J J J J J J J J J J J J J J W y   1.1.1.1.1.1.",
"1.1.1.1.1.} E J J J J J J J E J J J J J J J J J H E J J J J J J J J J J J J Q J y   1.1.1.1.1.1.",
"1.1.1.1.1.[ E J J E H E J E Q ~ Q J J J J J J J E J J J J Q ~ Q E J J J J J J J e   1.1.1.1.1.1.",
"1.1.1.1.1.[ E J J J J J Q S a i v J E J J J J J J J J Q H z u j D J J J J J J J 9   1.1.1.1.1.1.",
"1.1.1.1.1.R W J J J J Q n ;     # s G Q J J J J J E Q B 4 .   . e S Q J J J J H 1   1.1.1.1.1.1.",
"1.1.1.1.1.g ( E W W Q k #         + e N Q W W E W Q k &         o w B W J J ( c O   1.1.1.1.1.1.",
"1.1.1.1.1.1.k Z J S u .       1.1.1.  , k Z J H B r .       1.1.1.  5 c H J v ;     1.1.1.1.1.1.",
"1.1.1.1.1.1.+ ; < %         1.1.1.1.1.  O = < : @         1.1.1.1.1.  $ , , O       1.1.1.1.1.1.",
"1.1.1.1.1.1.1.            1.1.1.1.1.1.1.                1.1.1.1.1.1.1.            1.1.1.1.1.1.1.",
"1.1.1.1.1.1.1.1.      1.1.1.1.1.1.1.1.1.1.1.        1.1.1.1.1.1.1.1.1.1.1.      1.1.1.1.1.1.1.1.",
"1.1.1.1.1.1.1.1.1.1.1.1.1.1.1.1.1.1.1.1.1.1.1.1.1.1.1.1.1.1.1.1.1.1.1.1.1.1.1.1.1.1.1.1.1.1.1.1.",
"1.1.1.1.1.1.1.1.1.1.1.1.1.1.1.1.1.1.1.1.1.1.1.1.1.1.1.1.1.1.1.1.1.1.1.1.1.1.1.1.1.1.1.1.1.1.1.1.",
"1.1.1.1.1.1.1.1.1.1.1.1.1.1.1.1.1.1.1.1.1.1.1.1.1.1.1.1.1.1.1.1.1.1.1.1.1.1.1.1.1.1.1.1.1.1.1.1.",
"1.1.1.1.1.1.1.1.1.1.1.1.1.1.1.1.1.1.1.1.1.1.1.1.1.1.1.1.1.1.1.1.1.1.1.1.1.1.1.1.1.1.1.1.1.1.1.1.",
"1.1.1.1.1.1.1.1.1.1.1.1.1.1.1.1.1.1.1.1.1.1.1.1.1.1.1.1.1.1.1.1.1.1.1.1.1.1.1.1.1.1.1.1.1.1.1.1."
};
