/* XPM */
static char *result[] = {
/* columns rows colors chars-per-pixel */
"48 48 102 2 ",
"   c #000000",
".  c #090506",
"X  c #0E090A",
"o  c #120C0D",
"O  c #160D11",
"+  c #1B1214",
"@  c #1F1518",
"#  c #23171B",
"$  c #25191C",
"%  c #281B1E",
"&  c #2E1F23",
"*  c #321E24",
"=  c #322126",
"-  c #372529",
";  c #3A272C",
":  c #3D282E",
">  c #40292F",
",  c #432D33",
"<  c #493137",
"1  c #4C3239",
"2  c #53363E",
"3  c #4E3B40",
"4  c #543740",
"5  c #573941",
"6  c #5B3C45",
"7  c #64424B",
"8  c #6B4751",
"9  c #724B56",
"0  c #774E59",
"q  c #784E5A",
"w  c #7C525D",
"e  c #80545F",
"r  c #835662",
"t  c #875966",
"y  c #885866",
"u  c #8D5B69",
"i  c #8A616B",
"p  c #8B6D76",
"a  c #956371",
"s  c #9A6575",
"d  c #9E6877",
"f  c #A36C7B",
"g  c #A86C7D",
"h  c #9E7882",
"j  c #AA7281",
"k  c #A17984",
"l  c #B57687",
"z  c #B57788",
"x  c #B6798A",
"c  c #BB7B8D",
"v  c #C17F91",
"b  c #AD838F",
"n  c #BB8895",
"m  c #C48193",
"M  c #C98397",
"N  c #CC869A",
"B  c #C08D9B",
"V  c #CC889B",
"C  c #D18A9D",
"Z  c #D48DA1",
"A  c #D98FA4",
"S  c #D294A5",
"D  c #DC91A6",
"F  c #DC97AB",
"G  c #D399A9",
"H  c #DE9DAF",
"J  c #E395AB",
"K  c #E79AAF",
"L  c #E999AF",
"P  c #ED9CB3",
"I  c #F19EB5",
"U  c #DAA7B5",
"Y  c #D2AAB5",
"T  c #E6A6B8",
"R  c #EFA8BC",
"E  c #F3A0B7",
"W  c #F4A2B9",
"Q  c #FAA4BC",
"!  c #F2A9BD",
"~  c #F8A9BF",
"^  c #F4ADC1",
"/  c #FCACC3",
"(  c #F4B4C5",
")  c #FBB1C6",
"_  c #F5B6C8",
"`  c #FFB5CA",
"'  c #F5BBCB",
"]  c #FBBBCD",
"[  c #FFBED1",
"{  c #F7C4D2",
"}  c #FFC7D7",
"|  c #F6C9D6",
" . c #F8C9D6",
".. c #F7CCD8",
"X. c #F8CFDA",
"o. c #F8D3DD",
"O. c #FAD6E1",
"+. c #FADBE4",
"@. c #FDE5EC",
"#. c #FDEDF2",
"$. c #FEF2F5",
"%. c None",
/* pixels */
"%.%.%.%.%.%.%.%.%.%.%.%.%.%.%.%.%.%.%.%.%.%.%.%.%.%.%.%.%.%.%.%.%.%.%.%.%.%.%.%.%.%.%.%.%.%.%.%.",
"%.%.%.%.%.%.%.%.%.%.%.%.%.%.%.%.%.%.%.%.%.%.%.%.%.%.%.%.%.%.%.%.%.%.%.%.%.%.%.%.%.%.%.%.%.%.%.%.",
"%.%.%.%.%.%.%.%.%.%.%.%.%.%.%.%.%.%.%.%.%.%.%.%.%.%.%.%.%.%.%.%.%.%.%.%.%.%.%.%.%.%.%.%.%.%.%.%.",
"%.%.%.%.%.%.%.%.%.%.%.%.%.%.%.%.%.%.%.%.%.%.%.%.%.%.%.%.%.%.%.%.%.%.%.%.%.%.%.%.%.%.%.%.%.%.%.%.",
"%.%.%.%.%.%.%.%.%.%.%.%.%.%.%.%.%.%.%.%.%.%.%.%.%.%.%.%.%.%.%.%.%.%.%.%.%.%.%.%.%.%.%.%.%.%.%.%.",
"%.%.%.%.%.%.%.%.%.%.%.%.%.%.%.%.%.%.%.#.@.+.O.O.O.O.O.%.%.%.%.%.%.%.%.%.%.%.%.%.%.%.%.%.%.%.%.%.",
"%.%.%.%.%.%.%.%.%.%.%.%.%.%.%.%.$.@.{ ( ! W E W ! ! ^ _ {  .%.%.%.%.%.%.%.%.%.%.%.%.%.%.%.%.%.%.",
"%.%.%.%.%.%.%.%.%.%.%.%.%.%.$.O._ W P I I I P I I I I I E ! ' U %.%.%.%.%.%.%.%.%.%.%.%.%.%.%.%.",
"%.%.%.%.%.%.%.%.%.%.%.%.%.#.' E I I I I I I I I I I I I I I I / T %.%.%.%.%.%.%.%.%.%.%.%.%.%.%.",
"%.%.%.%.%.%.%.%.%.%.%.%.#.' P P I I Q I I I I I I I I E I I I I / ^ %.%.%.%.%.%.%.%.%.%.%.%.%.%.",
"%.%.%.%.%.%.%.%.%.%.%.O.S K K K K N c L E I I I I E J l D P K K D m K %.%.%.%.%.%.%.%.%.%.%.%.%.",
"%.%.%.%.%.%.%.%.%.%.+.8 0 R K K P j ; x W I I I I P 7 - H P K P C < a J %.%.%.%.%.%.%.%.%.%.%.%.",
"%.%.%.%.%.%.%.%.%.$.k   h ) K K I x X 6 W I I I Q m   3 _ K K P D : @ P s %.%.%.%.%.%.%.%.%.%.%.",
"%.%.%.%.%.%.%.%.%...*   i ~ P E E w   # I E I I Q r   : ! P T W z o   j E %.%.%.%.%.%.%.%.%.%.%.",
"%.%.%.%.%.%.%.%.#.B .   # f V V i o   o F W I E P 2   . e c C c =     7 ) u %.%.%.%.%.%.%.%.%.%.",
"%.%.%.%.%.%.%.%.O.a     %.o # +       %.n / I W J :   %.%.# # o       %.` m %.%.%.%.%.%.%.%.%.%.",
"%.%.%.%.%.%.%.%.] u . %.%.%.          %.b ) I Q J ,   %.%.%.        %.%.] P < %.%.%.%.%.%.%.%.%.",
"%.%.%.%.%.%.%.o.^ g X %.%.%.%.%.%.%.%.%.Y ) I I L 6   %.%.%.%.%.%.%.%.%.} E y %.%.%.%.%.%.%.%.%.",
"%.%.%.%.%.%.%. .I N & %.%.%.%.%.%.%.%.%.+.W I E I r   %.%.%.%.%.%.%.%.%.' E l O %.%.%.%.%.%.%.%.",
"%.%.%.%.%.%.%.' I P 9 %.%.%.%.%.%.%.%.%. .I I I I v X %.%.%.%.%.%.%.%.@.( I C - %.%.%.%.%.%.%.%.",
"%.%.%.%.%.%.o.( I I C % %.%.%.%.%.%.%.%._ I I I W P 7 %.%.%.%.%.%.%.%.o.W I J 6 %.%.%.%.%.%.%.%.",
"%.%.%.%.%.%.X.W I I Q v %.%.%.%.%.%.%.O.E I I I I I K %.%.%.%.%.%.%.#._ I I I e   %.%.%.%.%.%.%.",
"%.%.%.%.%.%.{ I I I I / G %.%.%.%.%.+.( I P I I I I Q R p %.%.%.%.@.] I I I I f X %.%.%.%.%.%.%.",
"%.%.%.%.%.%.] I I I I I Q [ ..o.X.' W P I I I I I I I W ` } X.o.{ ! I I I I Q c @ %.%.%.%.%.%.%.",
"%.%.%.%.%.%._ I I I I P I I I I I I I E I P I I I I I I I I I I I I I I I I Q N & %.%.%.%.%.%.%.",
"%.%.%.%.%. .^ I I I E I I I I I I I I I I E I I I I I I I I I I I I I I I I I A > %.%.%.%.%.%.%.",
"%.%.%.%.%.{ ^ I E P I I I I I I I I I I I I I I I I I I I I I I I I I I I P W J 1   %.%.%.%.%.%.",
"%.%.%.%.%.{ ! I I I I I I I I I I I I P E I I I I I I I I I I I I I I I I I W J 6   %.%.%.%.%.%.",
"%.%.%.%.%.{ W I I I P I I I I I I P I I I I P I E I I I I I P I I I I I I I I P 7   %.%.%.%.%.%.",
"%.%.%.%.%.' W I I I E I I I I I I I I I I I E I I P I I I I I I I I I I I I I I 9   %.%.%.%.%.%.",
"%.%.%.%.%.' W P I I I I I I I I I I I I I I I I I I I E I I I I I E I I I I I I 0   %.%.%.%.%.%.",
"%.%.%.%.%.' W I I I I I I I I I I I I I I I I I I I I I I I I I I I I I I I I I 0   %.%.%.%.%.%.",
"%.%.%.%.%._ W P P E E P I I I E I I I I I I I I I I I I I I I I I I I I I I I I r . %.%.%.%.%.%.",
"%.%.%.%.%.' W E I I I I I I I I I I I I I I I I I I I I I I I I I I I I I I W I w   %.%.%.%.%.%.",
"%.%.%.%.%._ E I I I E I I I I I I I I I I I I I I I I I I I I I I I I I I I W I w   %.%.%.%.%.%.",
"%.%.%.%.%.' W I I I P I I W Q Q Q I I I I I I I I I I I I Q Q Q E I I E I I I I 9   %.%.%.%.%.%.",
"%.%.%.%.%._ E P I I I I Q C r w x P I I I I I I I I I W L g 0 a J E I I I I I I 7   %.%.%.%.%.%.",
"%.%.%.%.%.T Q I I I I Q c &     + t J W I I I I I I Q C <       8 D I I I I I L ,   %.%.%.%.%.%.",
"%.%.%.%.%.g / E I E Q x +         o q A Q E I I W Q c %         . 9 D W I I Q v O   %.%.%.%.%.%.",
"%.%.%.%.%.%.N K Q I g +       %.%.%.. 6 v P Q Q P d o       %.%.%.. 9 C Q Q J 1     %.%.%.%.%.%.",
"%.%.%.%.%.%.$ , 6 , .       %.%.%.%.%.  @ , 6 2 =         %.%.%.%.%.. = 2 5 $       %.%.%.%.%.%.",
"%.%.%.%.%.%.%.            %.%.%.%.%.%.%.              %.%.%.%.%.%.%.%.%.          %.%.%.%.%.%.%.",
"%.%.%.%.%.%.%.%.      %.%.%.%.%.%.%.%.%.%.%.        %.%.%.%.%.%.%.%.%.%.%.      %.%.%.%.%.%.%.%.",
"%.%.%.%.%.%.%.%.%.%.%.%.%.%.%.%.%.%.%.%.%.%.%.%.%.%.%.%.%.%.%.%.%.%.%.%.%.%.%.%.%.%.%.%.%.%.%.%.",
"%.%.%.%.%.%.%.%.%.%.%.%.%.%.%.%.%.%.%.%.%.%.%.%.%.%.%.%.%.%.%.%.%.%.%.%.%.%.%.%.%.%.%.%.%.%.%.%.",
"%.%.%.%.%.%.%.%.%.%.%.%.%.%.%.%.%.%.%.%.%.%.%.%.%.%.%.%.%.%.%.%.%.%.%.%.%.%.%.%.%.%.%.%.%.%.%.%.",
"%.%.%.%.%.%.%.%.%.%.%.%.%.%.%.%.%.%.%.%.%.%.%.%.%.%.%.%.%.%.%.%.%.%.%.%.%.%.%.%.%.%.%.%.%.%.%.%.",
"%.%.%.%.%.%.%.%.%.%.%.%.%.%.%.%.%.%.%.%.%.%.%.%.%.%.%.%.%.%.%.%.%.%.%.%.%.%.%.%.%.%.%.%.%.%.%.%."
};
