/* XPM */
static char *result[] = {
/* columns rows colors chars-per-pixel */
"48 48 101 2 ",
"   c #000000",
".  c #0A0607",
"X  c #0C0709",
"o  c #0D090A",
"O  c #120C0E",
"+  c #150E10",
"@  c #1C1315",
"#  c #22161A",
"$  c #25191C",
"%  c #291B1F",
"&  c #2E1F23",
"*  c #311E23",
"=  c #342227",
"-  c #352429",
";  c #3A262C",
":  c #3F292F",
">  c #422C32",
",  c #4D323A",
"<  c #4A383D",
"1  c #54373F",
"2  c #543740",
"3  c #563841",
"4  c #5C3C45",
"5  c #63424B",
"6  c #6C4751",
"7  c #6F4954",
"8  c #734B56",
"9  c #764E59",
"0  c #7E535E",
"q  c #825561",
"w  c #865865",
"e  c #8B5967",
"r  c #8C5D6A",
"t  c #8B616D",
"y  c #92606E",
"u  c #946270",
"i  c #9A6574",
"p  c #966C78",
"a  c #99747E",
"s  c #A26A7A",
"d  c #AB7282",
"f  c #A37B87",
"g  c #B37486",
"h  c #B67788",
"j  c #B57888",
"k  c #BB7B8D",
"l  c #BE7F90",
"z  c #C17F92",
"x  c #AE838E",
"c  c #BA8695",
"v  c #BF8C9A",
"b  c #C48294",
"n  c #CC8699",
"m  c #CF8A9D",
"M  c #D28A9E",
"N  c #D68DA1",
"B  c #D88EA2",
"V  c #D695A7",
"C  c #DB91A5",
"Z  c #DE94A9",
"A  c #D299A9",
"S  c #E495AB",
"D  c #E79AAF",
"F  c #E89AAF",
"G  c #E79BB0",
"H  c #ED9CB2",
"J  c #F19EB5",
"K  c #CEA4B0",
"L  c #EBA2B6",
"P  c #E7A6B8",
"I  c #E3AEBC",
"U  c #EBAABC",
"Y  c #F3A0B7",
"T  c #F4A2B9",
"R  c #FAA4BC",
"E  c #F3A9BD",
"W  c #F8A9BF",
"Q  c #F2ACC0",
"!  c #FBACC2",
"~  c #F4B3C5",
"^  c #FBB1C6",
"/  c #F5B7C8",
"(  c #FFB4CA",
")  c #F5BBCB",
"_  c #FABACC",
"`  c #FFBDD0",
"'  c #F6C0CF",
"]  c #F7C4D2",
"[  c #FCC5D4",
"{  c #F6C9D6",
"}  c #F8C9D6",
"|  c #F7CCD8",
" . c #FACCD9",
".. c #F9D4DE",
"X. c #FDD6E3",
"o. c #FADCE4",
"O. c #FFDFE9",
"+. c #FDE6ED",
"@. c #FDEDF1",
"#. c #FEF1F4",
"$. c None",
/* pixels */
"$.$.$.$.$.$.$.$.$.$.$.$.$.$.$.$.$.$.$.$.$.$.$.$.$.$.$.$.$.$.$.$.$.$.$.$.$.$.$.$.$.$.$.$.$.$.$.$.",
"$.$.$.$.$.$.$.$.$.$.$.$.$.$.$.$.$.$.$.$.$.$.$.$.$.$.$.$.$.$.$.$.$.$.$.$.$.$.$.$.$.$.$.$.$.$.$.$.",
"$.$.$.$.$.$.$.$.$.$.$.$.$.$.$.$.$.$.$.$.$.$.$.$.$.$.$.$.$.$.$.$.$.$.$.$.$.$.$.$.$.$.$.$.$.$.$.$.",
"$.$.$.$.$.$.$.$.$.$.$.$.$.$.$.$.$.$.$.$.$.$.$.$.$.$.$.$.$.$.$.$.$.$.$.$.$.$.$.$.$.$.$.$.$.$.$.$.",
"$.$.$.$.$.$.$.$.$.$.$.$.$.$.$.$.$.$.$.$.+.+.o.o.o.o.$.$.$.$.$.$.$.$.$.$.$.$.$.$.$.$.$.$.$.$.$.$.",
"$.$.$.$.$.$.$.$.$.$.$.$.$.$.$.$.@.o.] Q U T T Y T E Q ~ ' { $.$.$.$.$.$.$.$.$.$.$.$.$.$.$.$.$.$.",
"$.$.$.$.$.$.$.$.$.$.$.$.$.$.#.X.~ J J J J J J J J J J J H E _ I $.$.$.$.$.$.$.$.$.$.$.$.$.$.$.$.",
"$.$.$.$.$.$.$.$.$.$.$.$.$.@.) J J J J J J J J J J J J J J J J ! U $.$.$.$.$.$.$.$.$.$.$.$.$.$.$.",
"$.$.$.$.$.$.$.$.$.$.$.$.@./ J J J J T J J J J J J J J J J J J H ! ! $.$.$.$.$.$.$.$.$.$.$.$.$.$.",
"$.$.$.$.$.$.$.$.$.$.$.+.P S S F G B N H J J J J J J H n S G F F Z Z G $.$.$.$.$.$.$.$.$.$.$.$.$.",
"$.$.$.$.$.$.$.$.$.$.+.p q L D G H d 3 b T J J J J J w 1 V H D G m 4 h m $.$.$.$.$.$.$.$.$.$.$.$.",
"$.$.$.$.$.$.$.$.$.#.f   a ~ D D H h X 5 R J J J R z   < _ G G H C ; # H i $.$.$.$.$.$.$.$.$.$.$.",
"$.$.$.$.$.$.$.$.$.{ *   t ! H H T 0   $ H Y J J R q   : E H H T j O   d T $.$.$.$.$.$.$.$.$.$.$.",
"$.$.$.$.$.$.$.$.+.v     $ s m N y O   o Z R J J H 2   . 0 k N l =     5 ( r $.$.$.$.$.$.$.$.$.$.",
"$.$.$.$.$.$.$.$.X.u     $.O $ @       $.c ! J J S :   $.$.# $ o       $.( z $.$.$.$.$.$.$.$.$.$.",
"$.$.$.$.$.$.$.$.` e   $.$.$.          $.x ( J T Z >   $.$.          $.$._ D > $.$.$.$.$.$.$.$.$.",
"$.$.$.$.$.$.$...W s o $.$.$.$.    $.$.$.K ! J T S 3   $.$.$.$.    $.$.$.[ T 0 $.$.$.$.$.$.$.$.$.",
"$.$.$.$.$.$.$.{ T n & $.$.$.$.$.$.$.$.$.X.E J J J q   $.$.$.$.$.$.$.$.$._ J g + $.$.$.$.$.$.$.$.",
"$.$.$.$.$.$.$.) J F 8 $.$.$.$.$.$.$.$.$.} Y J J R k o $.$.$.$.$.$.$.$.O.~ J N ; $.$.$.$.$.$.$.$.",
"$.$.$.$.$.$...~ J J M $ $.$.$.$.$.$.$.$.~ J J J J J 5 $.$.$.$.$.$.$.$...E J S 4 $.$.$.$.$.$.$.$.",
"$.$.$.$.$.$. .E J J R z $.$.$.$.$.$.$.o.Y J J J J T D $.$.$.$.$.$.$.@.) J J H q   $.$.$.$.$.$.$.",
"$.$.$.$.$.$.] T J J J ! A $.$.$.$.$.+.~ J J J J J J R Q $.$.$.$.$.#.] J J J J s o $.$.$.$.$.$.$.",
"$.$.$.$.$.$.) J J J J J ! [ ..o.o. .Q J J J J J J J J T `  .X.o. .~ J J J J T h @ $.$.$.$.$.$.$.",
"$.$.$.$.$.$.~ J J J J J J J L T Y H J J J J H J J J J J J L T T J J J J J J Y n & $.$.$.$.$.$.$.",
"$.$.$.$.$.{ Q J J J J J J J J J J T J J J J J J J J J J J J J J J J J J J J R B : $.$.$.$.$.$.$.",
"$.$.$.$.$.} Q J J T J J H J Y J J H J J J Y H J J H J J J J J J J J J J J J J S ,   $.$.$.$.$.$.",
"$.$.$.$.$.] E J J H J J J J J J J J J J J J J Y J J J J J J J J J L J J J J Y S 4   $.$.$.$.$.$.",
"$.$.$.$.$.] T J J J J J J J J J J J J J J J J J J J J J J J J J J J J J J J Y H 5   $.$.$.$.$.$.",
"$.$.$.$.$.' E J J J J J J J J J J J H J J J J H J J J J J J J J J J J J J J J J 8   $.$.$.$.$.$.",
"$.$.$.$.$.) Y J J J J J J J J J J J J J J J J Y J J J J H J J J J J J J J J Y J 8   $.$.$.$.$.$.",
"$.$.$.$.$./ Y J H Y J Y Y H J J J J J J J J J J J J H Y J J J Y J J J J J J J J 9   $.$.$.$.$.$.",
"$.$.$.$.$./ Y J J J J J J J J J J J J J J Y H J J J J J J J J J J J J J J J Y J q   $.$.$.$.$.$.",
"$.$.$.$.$.) T J J J J J J J J J J J J J J J J J J J J J J J J J J J J J J J Y J q   $.$.$.$.$.$.",
"$.$.$.$.$./ Y H J J Y J J J J J J J J J J J J J J J J J J J J J J J J J J J J Y q   $.$.$.$.$.$.",
"$.$.$.$.$.) Y J J J Y R R R Y J J J J J J R R R T J J J J J J Y R R R J J J J J 9   $.$.$.$.$.$.",
"$.$.$.$.$./ Y J J Y H s 7 y S Y J J J J J h 9 q n Y J J J J R B q 9 h H J J Y J 6   $.$.$.$.$.$.",
"$.$.$.$.$.~ T J T J 8       r H J J J R i o     > N Y J J R B :     % k J J J H 2   $.$.$.$.$.$.",
"$.$.$.$.$.b ! Y R i         # n R T R M O         q R J J J 4         3 S R R C %   $.$.$.$.$.$.",
"$.$.$.$.$.$.T T k @       $.$.4 N J F 4       $.$.@ b J T w       $.$.$.r S R e     $.$.$.$.$.$.",
"$.$.$.$.$.$.4 3 O       $.$.$.$.> 4 =       $.$.$.$.- 4 >       $.$.$.$.$.1 , .     $.$.$.$.$.$.",
"$.$.$.$.$.$.$.        $.$.$.$.$.$.        $.$.$.$.$.$.        $.$.$.$.$.$.        $.$.$.$.$.$.$.",
"$.$.$.$.$.$.$.$.    $.$.$.$.$.$.$.$.    $.$.$.$.$.$.$.$.    $.$.$.$.$.$.$.$.    $.$.$.$.$.$.$.$.",
"$.$.$.$.$.$.$.$.$.$.$.$.$.$.$.$.$.$.$.$.$.$.$.$.$.$.$.$.$.$.$.$.$.$.$.$.$.$.$.$.$.$.$.$.$.$.$.$.",
"$.$.$.$.$.$.$.$.$.$.$.$.$.$.$.$.$.$.$.$.$.$.$.$.$.$.$.$.$.$.$.$.$.$.$.$.$.$.$.$.$.$.$.$.$.$.$.$.",
"$.$.$.$.$.$.$.$.$.$.$.$.$.$.$.$.$.$.$.$.$.$.$.$.$.$.$.$.$.$.$.$.$.$.$.$.$.$.$.$.$.$.$.$.$.$.$.$.",
"$.$.$.$.$.$.$.$.$.$.$.$.$.$.$.$.$.$.$.$.$.$.$.$.$.$.$.$.$.$.$.$.$.$.$.$.$.$.$.$.$.$.$.$.$.$.$.$.",
"$.$.$.$.$.$.$.$.$.$.$.$.$.$.$.$.$.$.$.$.$.$.$.$.$.$.$.$.$.$.$.$.$.$.$.$.$.$.$.$.$.$.$.$.$.$.$.$.",
"$.$.$.$.$.$.$.$.$.$.$.$.$.$.$.$.$.$.$.$.$.$.$.$.$.$.$.$.$.$.$.$.$.$.$.$.$.$.$.$.$.$.$.$.$.$.$.$."
};
