/* XPM */
static char *result[] = {
/* columns rows colors chars-per-pixel */
"48 48 110 2 ",
"   c #000000",
".  c #090506",
"X  c #0D080A",
"o  c #120C0E",
"O  c #160F11",
"+  c #1B1214",
"@  c #24171B",
"#  c #281A1E",
"$  c #2E1D22",
"%  c #301F24",
"&  c #352227",
"*  c #352328",
"=  c #38252A",
"-  c #3D292E",
";  c #3F2A30",
":  c #393939",
">  c #462E35",
",  c #482F36",
"<  c #4C2F38",
"1  c #4D323A",
"2  c #52363E",
"3  c #573941",
"4  c #5C3D46",
"5  c #603F47",
"6  c #613F49",
"7  c #554D4F",
"8  c #63414B",
"9  c #68444E",
"0  c #724B56",
"q  c #764E59",
"w  c #7D535F",
"e  c #7F5661",
"r  c #705E62",
"t  c #737072",
"y  c #835662",
"u  c #865864",
"i  c #895A67",
"p  c #8D5D6B",
"a  c #915F6D",
"s  c #93606E",
"d  c #886F76",
"f  c #976472",
"g  c #996473",
"h  c #A26B7A",
"j  c #A96F7F",
"k  c #957C83",
"l  c #A57582",
"z  c #AC7282",
"x  c #B17585",
"c  c #B77889",
"v  c #BB7B8D",
"b  c #BF7F90",
"n  c #8A8586",
"m  c #998B8F",
"M  c #A9828D",
"N  c #BF929E",
"B  c #C78396",
"V  c #C98497",
"C  c #CB8599",
"Z  c #CE899C",
"A  c #D0899C",
"S  c #D68EA1",
"D  c #D88EA3",
"F  c #C893A1",
"G  c #C598A4",
"H  c #CB99A6",
"J  c #DC91A6",
"K  c #E495AB",
"L  c #E799AE",
"P  c #E999AF",
"I  c #E29EB1",
"U  c #EC9CB2",
"Y  c #F19EB5",
"T  c #DCA7B6",
"R  c #C6BABE",
"E  c #E6A5B7",
"W  c #EFA0B5",
"Q  c #EDA5B9",
"!  c #ECABBC",
"~  c #F3A0B7",
"^  c #F4A2B9",
"/  c #FAA4BC",
"(  c #F3AABE",
")  c #EEAEC0",
"_  c #F3AEC1",
"`  c #FCACC2",
"'  c #F4B3C5",
"]  c #F8B3C6",
"[  c #F5B7C8",
"{  c #FEB4C9",
"}  c #F6BBCB",
"|  c #FCBBCD",
" . c #DCC5CC",
".. c #E3C5CD",
"X. c #F8C0CF",
"o. c #F7C4D3",
"O. c #FDC4D4",
"+. c #F7C9D6",
"@. c #FACAD7",
"#. c #FBCDDA",
"$. c #F9D2DB",
"%. c #F6DBE2",
"&. c #FADAE4",
"*. c #F2E1E7",
"=. c #FDE4EB",
"-. c #FCE9EE",
";. c #F4EFF2",
":. c #FFECF3",
">. c #FDF1F5",
",. c None",
/* pixels */
",.,.,.,.,.,.,.,.,.,.,.,.,.,.,.,.,.,.,.,.,.,.,.,.,.,.,.,.,.,.,.,.,.,.,.,.,.,.,.,.,.,.,.,.,.,.,.,.",
",.,.,.,.,.,.,.,.,.,.,.,.,.,.,.,.,.,.,.,.,.,.,.,.,.,.,.,.,.,.,.,.,.,.,.,.,.,.,.,.,.,.,.,.,.,.,.,.",
",.,.,.,.,.,.,.,.,.,.,.,.,.,.,.,.,.,.,.,.,.,.,.,.,.,.,.,.,.,.,.,.,.,.,.,.,.,.,.,.,.,.,.,.,.,.,.,.",
",.,.,.,.,.,.,.,.,.,.,.,.,.,.,.,.,.,.,.,.,.,.,.,.,.,.,.,.,.,.,.,.,.,.,.,.,.,.,.,.,.,.,.,.,.,.,.,.",
",.,.,.,.,.,.,.,.,.,.,.,.,.,.,.,.,.,.,.,.,.,.,.,.,.,.,.,.,.,.,.,.,.,.,.,.,.,.,.,.,.,.,.,.,.,.,.,.",
",.,.,.,.,.,.,.,.,.,.,.,.,.,.,.,.,.,.,.>.-.=.&.&.&.&.&.,.,.,.,.,.,.,.,.,.,.,.,.,.,.,.,.,.,.,.,.,.",
",.,.,.,.,.,.,.,.,.,.,.,.,.,.,.,.>.=.$.} _ ^ ^ ( ( ( ' } +.+.,.,.,.,.,.,.,.,.,.,.,.,.,.,.,.,.,.,.",
",.,.,.,.,.,.,.,.,.,.,.,.,.,.:.&.} ( U Y Y Y U Y Y Y Y Y ~ _ | T ,.,.,.,.,.,.,.,.,.,.,.,.,.,.,.,.",
",.,.,.,.,.,.,.,.,.,.,.,.,.-.[ Y Y Y ~ Y Y Y Y Y Y Y Y Y Y Y Y ( _ ,.,.,.,.,.,.,.,.,.,.,.,.,.,.,.",
",.,.,.,.,.,.,.,.,.,.,.,.=.] Y Y Y Y Y Y Y Y Y Y Y Y Y Y Y Y Y Y ^ { ,.,.,.,.,.,.,.,.,.,.,.,.,.,.",
",.,.,.,.,.,.,.,.,.,.,.=.] Y Y Y Y Y ~ Y Y Y Y Y U Y Y Y / Y Y Y Y / ^ ,.,.,.,.,.,.,.,.,.,.,.,.,.",
",.,.,.,.,.,.,.,.,.,.:.[ K P ^ ^ Y Y U Y Y Y Y Y Y / ^ P P Y / Y Y Y / A ,.,.,.,.,.,.,.,.,.,.,.,.",
",.,.,.,.,.,.,.,.,.:.G , $ - i J Y Y Y Y Y Y Y ~ / v 3 % % 4 x U Y Y Y / u ,.,.,.,.,.,.,.,.,.,.,.",
",.,.,.,.,.,.,.,.,.M .         2 Z Y Y Y Y Y Y Y p o         + a Y Y Y / J ,.,.,.,.,.,.,.,.,.,.,.",
",.,.,.,.,.,.,.,.H ,.      ,.    8 P Y Y Y Y / f           ,.  + Z Y Y Y ^ a ,.,.,.,.,.,.,.,.,.,.",
",.,.,.,.,.,.,.,.,.,.  ,.,.,.,.,.,.C / Y Y ~ K $     ,.,.,.,.,.,.p / Y Y / V ,.,.,.,.,.,.,.,.,.,.",
",.,.,.,.,.,.,.,.,.,.,.,.,.,.,.,.,.p ` Y Y / z .   ,.,.,.,.,.,.,.,./ ~ Y ~ L , ,.,.,.,.,.,.,.,.,.",
",.,.,.,.,.,.,.,.,.t m ,.,.,.,.,.,.,.` Y Y ^ g   : n ,.,.,.,.,.,.,.I ^ Y ^ Y y ,.,.,.,.,.,.,.,.,.",
",.,.,.,.,.,.,... .&.O.O.l ,.,.,.,.,.{ ~ Y Y V k %.#.O.E ,.,.,.,.,.F ` Y Y ^ x o ,.,.,.,.,.,.,.,.",
",.,.,.,.,.,.,.+.( P L U S ,.,.,.,.,.| ~ Y U ~ ] Q L P L 8 ,.,.,.,.G ` Y Y ^ A % ,.,.,.,.,.,.,.,.",
",.,.,.,.,.,.$.! L L L W z O ,.,.,.,.} Y Y Y Y L P I U D ; ,.,.,.,.@.( Y Y Y P 6 ,.,.,.,.,.,.,.,.",
",.,.,.,.,.,.@.Q P W ^ U 8   ,.,.,.,.[ Y Y Y U U U ~ ^ g .   ,.,.,.@.Y Y Y Y Y y   ,.,.,.,.,.,.,.",
",.,.,.,.,.,.X.Y N z j 4     ,.,.,.=._ Y Y Y Y J x z w o     ,.,.,.} Y Y Y Y Y h o ,.,.,.,.,.,.,.",
",.,.,.,.,.,.| Y i           ,.,.,.$.Y Y Y Y ^ D >           ,.,.:./ Y Y Y Y ^ v + ,.,.,.,.,.,.,.",
",.,.,.,.,.,.[ ~ U e .     ,.,.,.:._ Y Y Y Y Y ~ Z =       ,.,.;.X.Y Y Y Y Y ^ V $ ,.,.,.,.,.,.,.",
",.,.,.,.,.+.' Y Y { G r 7 ,.R =._ Y Y Y Y Y Y Y ` ) d 7 ,.,.*.#.Y Y Y Y Y Y ^ S - ,.,.,.,.,.,.,.",
",.,.,.,.,.o.( Y Y Y ` | O.O.{ Y Y Y Y Y Y Y Y Y W ^ { O.@.| ( Y Y Y Y Y Y Y ^ K 2   ,.,.,.,.,.,.",
",.,.,.,.,.o.^ Y Y Y Y Y Y Y Y Y Y Y Y Y Y Y Y Y U ~ Y Y Y Y Y Y Y Y Y Y Y Y Y P 4   ,.,.,.,.,.,.",
",.,.,.,.,.o.^ U Y Y Y Y Y Y Y Y Y Y Y U Y Y Y Y Y Y Y Y Y Y Y Y Y Y Y Y Y Y Y U 9   ,.,.,.,.,.,.",
",.,.,.,.,.X.^ Y Y ~ Y Y Y Y Y Y Y Y Y Y Y Y Y Y Y Y Y Y Y Y Y Y Y Y Y Y Y Y Y Y 0   ,.,.,.,.,.,.",
",.,.,.,.,.} ^ U ~ U Y Y Y Y Y Y Y Y Y Y Y Y Y Y Y Y Y Y Y Y Y Y Y Y Y Y Y Y Y Y 0   ,.,.,.,.,.,.",
",.,.,.,.,.} ~ ~ Y Y Y Y Y Y Y Y Y Y Y Y Y Y Y Y Y Y Y Y Y Y Y Y ^ Y Y Y Y Y ^ Y q   ,.,.,.,.,.,.",
",.,.,.,.,.[ ^ ~ Y U Y Y Y U ~ Y Y Y Y Y Y Y Y Y ~ Y Y Y Y Y Y Y Y Y Y Y Y Y / Y y   ,.,.,.,.,.,.",
",.,.,.,.,.} ^ U Y ~ Y Y Y Y Y Y Y Y Y Y Y Y Y Y Y Y Y Y Y Y Y Y Y Y Y Y Y Y Y Y y   ,.,.,.,.,.,.",
",.,.,.,.,.[ ^ Y Y Y Y Y Y Y ~ Y Y Y Y Y Y Y Y Y Y Y Y Y Y Y Y Y U Y Y Y Y Y Y Y w   ,.,.,.,.,.,.",
",.,.,.,.,.} ~ Y ~ Y Y Y Y ^ / / / Y Y Y Y Y U Y Y Y Y Y Y / / / ^ Y Y ~ Y Y Y Y q   ,.,.,.,.,.,.",
",.,.,.,.,.[ ^ U Y Y Y Y / J g s B Y ^ Y Y Y Y Y Y Y Y / U v p j U ^ Y Y Y Y Y Y 9   ,.,.,.,.,.,.",
",.,.,.,.,.E / Y Y Y Y ^ v >     @ a K ^ Y Y Y Y U ~ / C 4 .   . q D ^ Y Y Y Y P >   ,.,.,.,.,.,.",
",.,.,.,.,.g ` ^ ^ ^ / h o         . 6 A / ^ Y ^ / / h +           8 D / ^ Y ` c X   ,.,.,.,.,.,.",
",.,.,.,.,.,.c J Y P p X       ,.,.,.  , z K Y Y J y .       ,.,.,.  5 v U Y C =     ,.,.,.,.,.,.",
",.,.,.,.,.,.+ - 1 %         ,.,.,.,.,.  O * 1 > +         ,.,.,.,.,.  # , > o       ,.,.,.,.,.,.",
",.,.,.,.,.,.,.            ,.,.,.,.,.,.,.                ,.,.,.,.,.,.,.            ,.,.,.,.,.,.,.",
",.,.,.,.,.,.,.,.      ,.,.,.,.,.,.,.,.,.,.,.        ,.,.,.,.,.,.,.,.,.,.,.      ,.,.,.,.,.,.,.,.",
",.,.,.,.,.,.,.,.,.,.,.,.,.,.,.,.,.,.,.,.,.,.,.,.,.,.,.,.,.,.,.,.,.,.,.,.,.,.,.,.,.,.,.,.,.,.,.,.",
",.,.,.,.,.,.,.,.,.,.,.,.,.,.,.,.,.,.,.,.,.,.,.,.,.,.,.,.,.,.,.,.,.,.,.,.,.,.,.,.,.,.,.,.,.,.,.,.",
",.,.,.,.,.,.,.,.,.,.,.,.,.,.,.,.,.,.,.,.,.,.,.,.,.,.,.,.,.,.,.,.,.,.,.,.,.,.,.,.,.,.,.,.,.,.,.,.",
",.,.,.,.,.,.,.,.,.,.,.,.,.,.,.,.,.,.,.,.,.,.,.,.,.,.,.,.,.,.,.,.,.,.,.,.,.,.,.,.,.,.,.,.,.,.,.,.",
",.,.,.,.,.,.,.,.,.,.,.,.,.,.,.,.,.,.,.,.,.,.,.,.,.,.,.,.,.,.,.,.,.,.,.,.,.,.,.,.,.,.,.,.,.,.,.,."
};
