/* XPM */
static char *result[] = {
/* columns rows colors chars-per-pixel */
"48 48 120 2 ",
"   c #000000",
".  c #0B0001",
"X  c #130001",
"o  c #1C0002",
"O  c #220002",
"+  c #2C0003",
"@  c #2F060A",
"#  c #310004",
"$  c #390005",
"%  c #2E1012",
"&  c #430005",
"*  c #4E0006",
"=  c #540007",
"-  c #5A0007",
";  c #5D0108",
":  c #610007",
">  c #630008",
",  c #6D0009",
"<  c #710009",
"1  c #7C0009",
"2  c #760B13",
"3  c #8B0007",
"4  c #83000A",
"5  c #8C000B",
"6  c #94000B",
"7  c #98000A",
"8  c #84161E",
"9  c #9D111C",
"0  c #A3000D",
"q  c #AA000C",
"w  c #B6000E",
"e  c #BB000F",
"r  c #AD0311",
"t  c #B40513",
"y  c #A4101B",
"u  c #BA111E",
"i  c #8B242D",
"p  c #982129",
"a  c #AA2E38",
"s  c #CA000F",
"d  c #C50010",
"f  c #CC0010",
"g  c #D40011",
"h  c #DC0112",
"j  c #E6000E",
"k  c #E9000E",
"l  c #E60012",
"z  c #EA0012",
"x  c #E70719",
"c  c #EB0618",
"v  c #E70A1B",
"b  c #EC0B1C",
"n  c #F10013",
"m  c #F2091C",
"M  c #CB1B28",
"N  c #D91020",
"B  c #E70F20",
"V  c #EC0F20",
"C  c #E81324",
"Z  c #E81728",
"A  c #EB1D2D",
"S  c #F41224",
"D  c #F91325",
"F  c #F41C2D",
"G  c #DC232F",
"H  c #C4303B",
"J  c #DB303D",
"K  c #EA2433",
"L  c #EA2C3B",
"P  c #F82536",
"I  c #F22C3C",
"U  c #FA2838",
"Y  c #EC303F",
"T  c #EB3543",
"R  c #E13946",
"E  c #ED3C4A",
"W  c #F63A48",
"Q  c #A74A52",
"!  c #C6444E",
"~  c #ED414F",
"^  c #F7404F",
"/  c #E24752",
"(  c #ED4552",
")  c #ED4A57",
"_  c #EE4C58",
"`  c #F64A58",
"'  c #F6535F",
"]  c #EE5661",
"[  c #EF5A66",
"{  c #EF5E6A",
"}  c #F75C68",
"|  c #EF606C",
" . c #F0616B",
".. c #EF6872",
"X. c #F06C77",
"o. c #F16E79",
"O. c #F1747D",
"+. c #EC878F",
"@. c #F3838C",
"#. c #FF8A94",
"$. c #F5959B",
"%. c #FE919A",
"&. c #F5989F",
"*. c #F597A0",
"=. c #F59CA4",
"-. c #FB9DA5",
";. c #F6A4AA",
":. c #FDA7AE",
">. c #F7A8B0",
",. c #FBAAB0",
"<. c #F8B2B7",
"1. c #FFB5BB",
"2. c #FBBAC0",
"3. c #F9C2C6",
"4. c #F9C3C9",
"5. c #FACCD1",
"6. c #FAD1D4",
"7. c #FBDBDE",
"8. c #FCE3E7",
"9. c None",
/* pixels */
"9.9.9.9.9.9.9.9.9.9.9.9.9.9.9.9.9.9.9.9.9.9.9.9.9.9.9.9.9.9.9.9.9.9.9.9.9.9.9.9.9.9.9.9.9.9.9.9.",
"9.9.9.9.9.9.9.9.9.9.9.9.9.9.9.9.9.9.9.9.9.9.9.9.9.9.9.9.9.9.9.9.9.9.9.9.9.9.9.9.9.9.9.9.9.9.9.9.",
"9.9.9.9.9.9.9.9.9.9.9.9.9.9.9.9.9.9.9.9.9.9.9.9.9.9.9.9.9.9.9.9.9.9.9.9.9.9.9.9.9.9.9.9.9.9.9.9.",
"9.9.9.9.9.9.9.9.9.9.9.9.9.9.9.9.9.9.9.9.9.9.9.9.9.9.9.9.9.9.9.9.9.9.9.9.9.9.9.9.9.9.9.9.9.9.9.9.",
"9.9.9.9.9.9.9.9.9.9.9.9.9.9.9.9.9.9.9.9.3.<.>.;.;.=.=.9.9.9.9.9.9.9.9.9.9.9.9.9.9.9.9.9.9.9.9.9.",
"9.9.9.9.9.9.9.9.9.9.9.9.9.9.9.9.6.&. .T A C B B B Z K E { X.9.9.9.9.9.9.9.9.9.9.9.9.9.9.9.9.9.9.",
"9.9.9.9.9.9.9.9.9.9.9.9.9.9.8.=.T l j j j j j j j j j j l A ~ / 9.9.9.9.9.9.9.9.9.9.9.9.9.9.9.9.",
"9.9.9.9.9.9.9.9.9.9.9.9.9.5.| v j j l l l l l l l l l l l j l F T 9.9.9.9.9.9.9.9.9.9.9.9.9.9.9.",
"9.9.9.9.9.9.9.9.9.9.9.9.1.E j j l z z l l l l l l l l z l l l j b F 9.9.9.9.9.9.9.9.9.9.9.9.9.9.",
"9.9.9.9.9.9.9.9.9.9.9.:.G j l l l f f l z l l l l l l s h l l l h g h 9.9.9.9.9.9.9.9.9.9.9.9.9.",
"9.9.9.9.9.9.9.9.9.9.,.8 3 C l z z 7 = d l l l l l z 6 = N z l z h , w e 9.9.9.9.9.9.9.9.9.9.9.9.",
"9.9.9.9.9.9.9.9.9.9.i   a F j l z q . , z l l l z e . % Y l l l l = + x 4 9.9.9.9.9.9.9.9.9.9.9.",
"9.9.9.9.9.9.9.9.9.+.O   9 m z z z ,   O l l l l z ,   @ C z z n f O   t h 9.9.9.9.9.9.9.9.9.9.9.",
"9.9.9.9.9.9.9.9.1.!     # q f g 4 .   9.u m l l h &   . 3 e g d &     2 D 1 9.9.9.9.9.9.9.9.9.9.",
"9.9.9.9.9.9.9.9.%.y     9.X O o       9.p F j z g +   9.9.O O .     9.9.U e 9.9.9.9.9.9.9.9.9.9.",
"9.9.9.9.9.9.9.9.} 7   9.9.9.          9.9.U l z f #   9.9.          9.9.W h = 9.9.9.9.9.9.9.9.9.",
"9.9.9.9.9.9.9.$.I q   9.9.9.9.    9.9.9.Q I j z g &   9.9.9.9.    9.9.9.` l 5 9.9.9.9.9.9.9.9.9.",
"9.9.9.9.9.9.9.X.c s O 9.9.9.9.9.9.9.9.9.#.K j z l 1   9.9.9.9.9.9.9.9.9.( k e + 9.9.9.9.9.9.9.9.",
"9.9.9.9.9.9.9.) k j ; 9.9.9.9.9.9.9.9.9.@.v j l l w o 9.9.9.9.9.9.9.9.-.L k g * 9.9.9.9.9.9.9.9.",
"9.9.9.9.9.9.@.L j z d 9.9.9.9.9.9.9.9.9.] j l l l l 1 9.9.9.9.9.9.9.9.@.v z l , 9.9.9.9.9.9.9.9.",
"9.9.9.9.9.9.O.Z j l z r 9.9.9.9.9.9.9.;.C j l l l z l ; 9.9.9.9.9.9.4.E j l z 5 9.9.9.9.9.9.9.9.",
"9.9.9.9.9.9.| l j z z S H 9.9.9.9.9.<.Y j l l l l j b K 9.9.9.9.9.7.[ l l l z 0 . 9.9.9.9.9.9.9.",
"9.9.9.9.9.9._ l l l l l F ] @.;.;.O.A l j l l l l l l b ^ O.*.>.*._ l l l l z e X 9.9.9.9.9.9.9.",
"9.9.9.9.9.9.T l l l l l j l x v l l j l l l l l l l l l l l v v j j l l l l z f O 9.9.9.9.9.9.9.",
"9.9.9.9.9.X.K j l l l l l l j j l l l l l l l l l l l l l l j j l l l l l l z g # 9.9.9.9.9.9.9.",
"9.9.9.9.9.X.A j l l l l l l l l l l l l l l l l l l l l l l l l l l l l l l l h & 9.9.9.9.9.9.9.",
"9.9.9.9.9.| Z j l l l l l l l l l l l l l l l l l l l l l l l l l l l l l l z h *   9.9.9.9.9.9.",
"9.9.9.9.9.[ b l l l l l l l l l l l l l l l l l l l l l l l l l l l l l l l z l =   9.9.9.9.9.9.",
"9.9.9.9.9.] v l l l l l l l l l l l l l l l l l l l l l l l l z l l l l l l l l ;   9.9.9.9.9.9.",
"9.9.9.9.9._ v l l l l l l l l l l l l l l l l l l l l l l l l l l l l l l l l l :   9.9.9.9.9.9.",
"9.9.9.9.9._ x j l l l l l l l z l l l l l l l l l l l l l l l l l l l l l l z l >   9.9.9.9.9.9.",
"9.9.9.9.9.) l j l l l l l l l l l l l l l l l l l l l l l l l l l l l l l l l z >   9.9.9.9.9.9.",
"9.9.9.9.9.( x j z l l l l l l l l l l l l l l l l l l l l l l l l l l l l l z l :   9.9.9.9.9.9.",
"9.9.9.9.9.~ x j l l l z l l l l l l l l l l l z l l l l l l l l l l l l l l z l :   9.9.9.9.9.9.",
"9.9.9.9.9.~ x j l l l z n n z l l l l l l z n z z l l l l l z z z n z z l l l l >   9.9.9.9.9.9.",
"9.9.9.9.9.R x l l z h 7 , 5 g z l l l z z e , 4 f l l l l l z f 4 , e l l l l l -   9.9.9.9.9.9.",
"9.9.9.9.9.J v l l l :       < h z l l n q o     * f z l l z f +     # e z l z l &   9.9.9.9.9.9.",
"9.9.9.9.9.M m z z q         X q z l z f O         5 l l z l &         : h z z g O   9.9.9.9.9.9.",
"9.9.9.9.9.4 l z d +     9.9.9.& g z g *       9.9.O r l l <       9.9.. 6 h n 7     9.9.9.9.9.9.",
"9.9.9.9.9.9.- = o     9.9.9.9.9.& - +       9.9.9.9.+ = $       9.9.9.9.X = * X     9.9.9.9.9.9.",
"9.9.9.9.9.9.9.        9.9.9.9.9.9.        9.9.9.9.9.9.        9.9.9.9.9.9.        9.9.9.9.9.9.9.",
"9.9.9.9.9.9.9.9.    9.9.9.9.9.9.9.9.    9.9.9.9.9.9.9.9.    9.9.9.9.9.9.9.9.9.  9.9.9.9.9.9.9.9.",
"9.9.9.9.9.9.9.9.9.9.9.9.9.9.9.9.9.9.9.9.9.9.9.9.9.9.9.9.9.9.9.9.9.9.9.9.9.9.9.9.9.9.9.9.9.9.9.9.",
"9.9.9.9.9.9.9.9.9.9.9.9.9.9.9.9.9.9.9.9.9.9.9.9.9.9.9.9.9.9.9.9.9.9.9.9.9.9.9.9.9.9.9.9.9.9.9.9.",
"9.9.9.9.9.9.9.9.9.9.9.9.9.9.9.9.9.9.9.9.9.9.9.9.9.9.9.9.9.9.9.9.9.9.9.9.9.9.9.9.9.9.9.9.9.9.9.9.",
"9.9.9.9.9.9.9.9.9.9.9.9.9.9.9.9.9.9.9.9.9.9.9.9.9.9.9.9.9.9.9.9.9.9.9.9.9.9.9.9.9.9.9.9.9.9.9.9.",
"9.9.9.9.9.9.9.9.9.9.9.9.9.9.9.9.9.9.9.9.9.9.9.9.9.9.9.9.9.9.9.9.9.9.9.9.9.9.9.9.9.9.9.9.9.9.9.9.",
"9.9.9.9.9.9.9.9.9.9.9.9.9.9.9.9.9.9.9.9.9.9.9.9.9.9.9.9.9.9.9.9.9.9.9.9.9.9.9.9.9.9.9.9.9.9.9.9."
};
