/* XPM */
static char *result[] = {
/* columns rows colors chars-per-pixel */
"48 48 122 2 ",
"   c #000000",
".  c #0A0001",
"X  c #130001",
"o  c #1C0002",
"O  c #230002",
"+  c #2C0003",
"@  c #2F060A",
"#  c #320004",
"$  c #3B0105",
"%  c #2F1113",
"&  c #420005",
"*  c #4E0006",
"=  c #530007",
"-  c #5D0007",
";  c #5D0209",
":  c #610007",
">  c #640008",
",  c #6B0008",
"<  c #730009",
"1  c #7C000A",
"2  c #770B13",
"3  c #7F3439",
"4  c #84010B",
"5  c #8B000B",
"6  c #92000C",
"7  c #9C000B",
"8  c #9D111C",
"9  c #A4000D",
"0  c #AE0009",
"q  c #B4000E",
"w  c #BC000F",
"e  c #AF0513",
"r  c #B40513",
"t  c #B30917",
"y  c #A3101B",
"u  c #B9111E",
"i  c #88222A",
"p  c #98212A",
"a  c #AF303A",
"s  c #C3000F",
"d  c #CB000E",
"f  c #C50111",
"g  c #CB0010",
"h  c #D30011",
"j  c #DC0112",
"k  c #E6000E",
"l  c #E9000E",
"z  c #E60012",
"x  c #EA0012",
"c  c #E70719",
"v  c #EB0619",
"b  c #E70B1C",
"n  c #EC0A1B",
"m  c #F10013",
"M  c #F40619",
"N  c #F3091C",
"B  c #CA1A24",
"V  c #DE1A2A",
"C  c #E70F20",
"Z  c #ED0F20",
"A  c #F30E20",
"S  c #E91324",
"D  c #E71C2B",
"F  c #E91B2B",
"G  c #F11526",
"H  c #FA1325",
"J  c #F3192A",
"K  c #F31F30",
"L  c #C52C38",
"P  c #DA2635",
"I  c #E92232",
"U  c #EA2837",
"Y  c #EA2A39",
"T  c #F42334",
"R  c #F02B3B",
"E  c #F92C3C",
"W  c #EA313F",
"Q  c #F1303F",
"!  c #DD3542",
"~  c #EC3644",
"^  c #EC3C4A",
"/  c #F63D4B",
"(  c #FA3F4D",
")  c #C6454F",
"_  c #D54450",
"`  c #EC424F",
"'  c #ED4552",
"]  c #ED4A56",
"[  c #EE4C59",
"{  c #F24351",
"}  c #F54B58",
"|  c #EE535F",
" . c #C95E65",
".. c #EE5662",
"X. c #EE5966",
"o. c #EF5E69",
"O. c #F75663",
"+. c #F75F6B",
"@. c #F0626D",
"#. c #F16A75",
"$. c #F16F7B",
"%. c #F1747E",
"&. c #F37F88",
"*. c #F3838C",
"=. c #EC8991",
"-. c #F38B94",
";. c #FF8A93",
":. c #F5949C",
">. c #FE939B",
",. c #F597A0",
"<. c #F59BA2",
"1. c #F99DA5",
"2. c #F6A4AB",
"3. c #F7BABF",
"4. c #FCBEC3",
"5. c #F9C6CA",
"6. c #FACED1",
"7. c #FAD1D4",
"8. c #FBD7D9",
"9. c #FBDEE0",
"0. c #FDE6E8",
"q. c None",
/* pixels */
"q.q.q.q.q.q.q.q.q.q.q.q.q.q.q.q.q.q.q.q.q.q.q.q.q.q.q.q.q.q.q.q.q.q.q.q.q.q.q.q.q.q.q.q.q.q.q.q.",
"q.q.q.q.q.q.q.q.q.q.q.q.q.q.q.q.q.q.q.q.q.q.q.q.q.q.q.q.q.q.q.q.q.q.q.q.q.q.q.q.q.q.q.q.q.q.q.q.",
"q.q.q.q.q.q.q.q.q.q.q.q.q.q.q.q.q.q.q.q.q.q.q.q.q.q.q.q.q.q.q.q.q.q.q.q.q.q.q.q.q.q.q.q.q.q.q.q.",
"q.q.q.q.q.q.q.q.q.q.q.q.q.q.q.q.q.q.q.q.q.q.q.q.q.q.q.q.q.q.q.q.q.q.q.q.q.q.q.q.q.q.q.q.q.q.q.q.",
"q.q.q.q.q.q.q.q.q.q.q.q.q.q.q.q.q.q.q.q.q.q.q.q.q.q.q.q.q.q.q.q.q.q.q.q.q.q.q.q.q.q.q.q.q.q.q.q.",
"q.q.q.q.q.q.q.q.q.q.q.q.q.q.q.q.q.q.q.6.4.2.:.:.:.:.,.q.q.q.q.q.q.q.q.q.q.q.q.q.q.q.q.q.q.q.q.q.",
"q.q.q.q.q.q.q.q.q.q.q.q.q.q.q.q.8.2.#.~ I C b b C F U ` @.%.q.q.q.q.q.q.q.q.q.q.q.q.q.q.q.q.q.q.",
"q.q.q.q.q.q.q.q.q.q.q.q.q.q.0.2.^ c k k k k k z k k k k c I { _ q.q.q.q.q.q.q.q.q.q.q.q.q.q.q.q.",
"q.q.q.q.q.q.q.q.q.q.q.q.q.7.#.b k k z z z z z z z z z z z k c I ~ q.q.q.q.q.q.q.q.q.q.q.q.q.q.q.",
"q.q.q.q.q.q.q.q.q.q.q.q.5.` k k k z x z z z z z z z x x z z z k S J q.q.q.q.q.q.q.q.q.q.q.q.q.q.",
"q.q.q.q.q.q.q.q.q.q.q.-.B k z z z s w z x z z z z x j 0 h z z x j w j q.q.q.q.q.q.q.q.q.q.q.q.q.",
"q.q.q.q.q.q.q.q.q.q.:.; 4 G z x x 9 $ r z z z z z x < $ V x z x j > 7 g q.q.q.q.q.q.q.q.q.q.q.q.",
"q.q.q.q.q.q.q.q.q.q.i   a K k z x 9   , x z z z x w . % Q l x z z = + x 4 q.q.q.q.q.q.q.q.q.q.q.",
"q.q.q.q.q.q.q.q.q.=.O   y M x x x ,   O j x z z x <   @ S x x m g O   r j q.q.q.q.q.q.q.q.q.q.q.",
"q.q.q.q.q.q.q.q.q.)     # 9 f h 4 .   q.u N z z j &   . 4 w h w &     2 H 1 q.q.q.q.q.q.q.q.q.q.",
"q.q.q.q.q.q.q.q.>.y     q.X O o       q.p J k x h +   q.q.O O .     q.q.E w q.q.q.q.q.q.q.q.q.q.",
"q.q.q.q.q.q.q.q.O.7   q.q.q.          q.q.E l x d #   q.q.          q.q./ j ; q.q.q.q.q.q.q.q.q.",
"q.q.q.q.q.q.q.:.J 0 . q.q.q.q.q.q.q.q.q. .Y k x j *   q.q.q.q.q.q.q.q.q.} x 7 q.q.q.q.q.q.q.q.q.",
"q.q.q.q.q.q.q.#.c d O q.q.q.q.q.q.q.q.q.;.I k x z 1   q.q.q.q.q.q.q.q.q.' l s O q.q.q.q.q.q.q.q.",
"q.q.q.q.q.q.q.] l z : q.q.q.q.q.q.q.q.q.*.b z z z q o q.q.q.q.q.q.q.q.1.Y l h * q.q.q.q.q.q.q.q.",
"q.q.q.q.q.q.*.Y k x w o q.q.q.q.q.q.q.q...k z z z z 1 q.q.q.q.q.q.q.q.*.b x z < q.q.q.q.q.q.q.q.",
"q.q.q.q.q.q.%.S z z x e q.q.q.q.q.q.q.<.S k z z z x z ; q.q.q.q.q.q.5.^ k z x 5 q.q.q.q.q.q.q.q.",
"q.q.q.q.q.q.o.c z z z G L q.q.q.q.9.,.U k z z z z z v D 3 q.q.q.q.5.[ z k z x 9 . q.q.q.q.q.q.q.",
"q.q.q.q.q.q.' z k z z k G ( #.-.*.' b k z z z z z z z v E +.*.-.#.U k k z z x w X q.q.q.q.q.q.q.",
"q.q.q.q.q.q.~ k z z z z z k z z k k k z z z z z z z z z k z z z k k z z z z x d + q.q.q.q.q.q.q.",
"q.q.q.q.q.$.U k z z z z z z z z z z x z z z z z z z z z z z z z z z z z z z x h # q.q.q.q.q.q.q.",
"q.q.q.q.q.#.D k z z z z z z z z z z z z z z z z z z z z z z z z z z z z z z x j & q.q.q.q.q.q.q.",
"q.q.q.q.q.@.S x z z z z z z z z z z z z z z z z z z z z z z z z z z z z z z x j *   q.q.q.q.q.q.",
"q.q.q.q.q.X.b z z z z z z z z z z z z z z z z z z z z z z z z z z z z z z z x j =   q.q.q.q.q.q.",
"q.q.q.q.q.| b z z z z z z z z z z z z z z z z z z z z z z z z z z z z z z z z z ;   q.q.q.q.q.q.",
"q.q.q.q.q.[ b k z z z z z z z z z z z z z z z z z z z z z z z z z z z z z z x z >   q.q.q.q.q.q.",
"q.q.q.q.q.] c k z z z z z z z z z z z z z z z z z z z z z z z z z z z z z z z x >   q.q.q.q.q.q.",
"q.q.q.q.q.' c z z z z z z z z z z z z z z z z z z z z z z z z z z z z z z z x z :   q.q.q.q.q.q.",
"q.q.q.q.q.' c k z z z z z z z z z z z z z z z z z z z z x z z z z z z z z z z z >   q.q.q.q.q.q.",
"q.q.q.q.q.` c z z z z z z x z z z z z z z z z z z z z z z z z z z z z z z z z z >   q.q.q.q.q.q.",
"q.q.q.q.q.^ c z z z z z z x x m x x z z z z z z z z z z x x m x x z z z z z z z >   q.q.q.q.q.q.",
"q.q.q.q.q.! v z z z z z x g 4 < r z x z z z z z z z z x j 7 < 6 h x z z z z x z =   q.q.q.q.q.q.",
"q.q.q.q.q.P n z z z z x 9 O     o 5 j x z z z z z z x d $       = f x z z z x j $   q.q.q.q.q.q.",
"q.q.q.q.q.t M z x x m 9 X         X 1 h x x x z x m s $           - j x z z m s .   q.q.q.q.q.q.",
"q.q.q.q.q.q.s z x x 6 X       q.q.q.. ; 0 z x x j 6 O       q.q.q.. < g x m j :     q.q.q.q.q.q.",
"q.q.q.q.q.q.+ & = &         q.q.q.q.q.  o $ = = +         q.q.q.q.q.  # * = +       q.q.q.q.q.q.",
"q.q.q.q.q.q.q.          q.q.q.q.q.q.q.q.q.              q.q.q.q.q.q.q.            q.q.q.q.q.q.q.",
"q.q.q.q.q.q.q.q.      q.q.q.q.q.q.q.q.q.q.q.        q.q.q.q.q.q.q.q.q.q.q.      q.q.q.q.q.q.q.q.",
"q.q.q.q.q.q.q.q.q.q.q.q.q.q.q.q.q.q.q.q.q.q.q.q.q.q.q.q.q.q.q.q.q.q.q.q.q.q.q.q.q.q.q.q.q.q.q.q.",
"q.q.q.q.q.q.q.q.q.q.q.q.q.q.q.q.q.q.q.q.q.q.q.q.q.q.q.q.q.q.q.q.q.q.q.q.q.q.q.q.q.q.q.q.q.q.q.q.",
"q.q.q.q.q.q.q.q.q.q.q.q.q.q.q.q.q.q.q.q.q.q.q.q.q.q.q.q.q.q.q.q.q.q.q.q.q.q.q.q.q.q.q.q.q.q.q.q.",
"q.q.q.q.q.q.q.q.q.q.q.q.q.q.q.q.q.q.q.q.q.q.q.q.q.q.q.q.q.q.q.q.q.q.q.q.q.q.q.q.q.q.q.q.q.q.q.q.",
"q.q.q.q.q.q.q.q.q.q.q.q.q.q.q.q.q.q.q.q.q.q.q.q.q.q.q.q.q.q.q.q.q.q.q.q.q.q.q.q.q.q.q.q.q.q.q.q."
};
