/* XPM */
static char *result[] = {
/* columns rows colors chars-per-pixel */
"48 48 127 2 ",
"   c #000000",
".  c #0B0001",
"X  c #120001",
"o  c #1A0002",
"O  c #230003",
"+  c #2A0003",
"@  c #2C090A",
"#  c #320004",
"$  c #3D0005",
"%  c #3F3F3F",
"&  c #440004",
"*  c #4B0006",
"=  c #540007",
"-  c #5C0007",
";  c #5E0008",
":  c #6B0007",
">  c #640008",
",  c #6D0008",
"<  c #730009",
"1  c #7D010A",
"2  c #543D3F",
"3  c #664043",
"4  c #635D5D",
"5  c #83000A",
"6  c #8C000B",
"7  c #92000B",
"8  c #9B010D",
"9  c #8B0A14",
"0  c #9E0E17",
"q  c #88151E",
"w  c #A4000D",
"e  c #AD000E",
"r  c #B2000E",
"t  c #BB010F",
"y  c #BB0917",
"u  c #BD1724",
"i  c #A62530",
"p  c #AD323B",
"a  c #C4000F",
"s  c #DB000B",
"d  c #C60010",
"f  c #CB0010",
"g  c #D30011",
"h  c #DC0011",
"j  c #E6000D",
"k  c #E8000C",
"l  c #E60012",
"z  c #EA0012",
"x  c #E70719",
"c  c #EC0618",
"v  c #E60B1C",
"b  c #EB0C1D",
"n  c #F30013",
"m  c #F00518",
"M  c #F20B1C",
"N  c #D81E2C",
"B  c #E81223",
"V  c #EA1B2C",
"C  c #F31324",
"Z  c #F51C2D",
"A  c #DA2F3C",
"S  c #EB2535",
"D  c #EB2C3B",
"F  c #F22334",
"G  c #F22E3E",
"H  c #E5313F",
"J  c #EC323F",
"K  c #A83942",
"L  c #EC3745",
"P  c #E33A47",
"I  c #EC3947",
"U  c #EC3E4C",
"Y  c #F23443",
"T  c #F83746",
"R  c #91474D",
"E  c #98565B",
"W  c #BC4A53",
"Q  c #8B7478",
"!  c #D0434E",
"~  c #D44D59",
"^  c #ED404E",
"/  c #F4414F",
"(  c #ED4451",
")  c #EE4A57",
"_  c #EE4D59",
"`  c #F34755",
"'  c #FF4654",
"]  c #F04956",
"[  c #EE545F",
"{  c #EE5966",
"}  c #FD5361",
"|  c #FD5864",
" . c #F05C68",
".. c #F95D69",
"X. c #E7656F",
"o. c #F0626D",
"O. c #F16773",
"+. c #FC6672",
"@. c #F16B75",
"#. c #FF6873",
"$. c #F26F79",
"%. c #F2727C",
"&. c #FE707B",
"*. c #CE7A81",
"=. c #FC7782",
"-. c #B6A2A4",
";. c #C0858A",
":. c #F2878E",
">. c #FE818B",
",. c #FF939B",
"<. c #F59BA2",
"1. c #FB9DA5",
"2. c #FBA5AB",
"3. c #F7ACB2",
"4. c #F9ABB1",
"5. c #FFB1B7",
"6. c #FFB7BD",
"7. c #FEBABF",
"8. c #F8BFC3",
"9. c #FFC0C5",
"0. c #F6CBCF",
"q. c #FCD0D4",
"w. c #FBD5D9",
"e. c #FBDADD",
"r. c #FDE3E4",
"t. c #FBE8EA",
"y. c None",
/* pixels */
"y.y.y.y.y.y.y.y.y.y.y.y.y.y.y.y.y.y.y.y.y.y.y.y.y.y.y.y.y.y.y.y.y.y.y.y.y.y.y.y.y.y.y.y.y.y.y.y.",
"y.y.y.y.y.y.y.y.y.y.y.y.y.y.y.y.y.y.y.y.y.y.y.y.y.y.y.y.y.y.y.y.y.y.y.y.y.y.y.y.y.y.y.y.y.y.y.y.",
"y.y.y.y.y.y.y.y.y.y.y.y.y.y.y.y.y.y.y.y.y.y.y.y.y.y.y.y.y.y.y.y.y.y.y.y.y.y.y.y.y.y.y.y.y.y.y.y.",
"y.y.y.y.y.y.y.y.y.y.y.y.y.y.y.y.y.y.y.y.y.y.y.y.y.y.y.y.y.y.y.y.y.y.y.y.y.y.y.y.y.y.y.y.y.y.y.y.",
"y.y.y.y.y.y.y.y.y.y.y.y.y.y.y.y.y.y.y.y.y.y.y.y.y.y.y.y.y.y.y.y.y.y.y.y.y.y.y.y.y.y.y.y.y.y.y.y.",
"y.y.y.y.y.y.y.y.y.y.y.y.y.y.y.y.y.y.y.q.9.3.<.<.<.<.<.y.y.y.y.y.y.y.y.y.y.y.y.y.y.y.y.y.y.y.y.y.",
"y.y.y.y.y.y.y.y.y.y.y.y.y.y.y.y.e.3.%.^ S V v B B V D ) O.%.y.y.y.y.y.y.y.y.y.y.y.y.y.y.y.y.y.y.",
"y.y.y.y.y.y.y.y.y.y.y.y.y.y.t.3.( v k j j j j j j j k j v S ` ! y.y.y.y.y.y.y.y.y.y.y.y.y.y.y.y.",
"y.y.y.y.y.y.y.y.y.y.y.y.y.w.%.B k j l l l l l l l l l l l j x F H y.y.y.y.y.y.y.y.y.y.y.y.y.y.y.",
"y.y.y.y.y.y.y.y.y.y.y.y.3.L j j l l l l l l l l l l l l l l j j M V y.y.y.y.y.y.y.y.y.y.y.y.y.y.",
"y.y.y.y.y.y.y.y.y.y.y.4.S k z l l l l l l l l l l z l l z l l l l c v y.y.y.y.y.y.y.y.y.y.y.y.y.",
"y.y.y.y.y.y.y.y.y.y.6.J s j z z l l l l l l l l l z z l h z z l l l m t y.y.y.y.y.y.y.y.y.y.y.y.",
"y.y.y.y.y.y.y.y.y.y.p & + $ < f l l l l l l l z z r ; # # > r l l l l z < y.y.y.y.y.y.y.y.y.y.y.",
"y.y.y.y.y.y.y.y.y.W .         * g z l l l l z l 5 .         o 8 l l l z f y.y.y.y.y.y.y.y.y.y.y.",
"y.y.y.y.y.y.y.y.y.#             5 l l l l l z 8 .             + d l l l l < y.y.y.y.y.y.y.y.y.y.",
"y.y.y.y.y.y.y.y.q y.  y.y.y.y.y.O f z l l z g +     y.y.y.y.y.y., z l l z t y.y.y.y.y.y.y.y.y.y.",
"y.y.y.y.y.y.y.y.y.y.y.y.y.y.y.y.y.8 M l l z 8     y.y.y.y.y.y.y.y.v l l z h ; y.y.y.y.y.y.y.y.y.",
"y.y.y.y.y.y.y.~ y.4 y.y.y.y.y.y.y.y.Z l l z 5   % Q y.y.y.y.y.y.y.u c l l z 8 y.y.y.y.y.y.y.y.y.",
"y.y.y.y.y.y.y.*.;.,.| ' 0 y.y.y.y.y.G j l l t E 2.#.} A y.y.y.y.y.i M j l z t O y.y.y.y.y.y.y.y.",
"y.y.y.y.y.y.y.@.Y l j z d y.y.y.y.y./ z l j B Y B k j x - y.y.y.y.K C l l z g * y.y.y.y.y.y.y.y.",
"y.y.y.y.y.y.:.D k j l z e o y.y.y.y.` l l l l j j l z h & y.y.y.y.X.B j l z l , y.y.y.y.y.y.y.y.",
"y.y.y.y.y.y.%.B j z n z -   y.y.y.y.^ j l l l z z n n e .   y.y.y.=.x j l l l 6 y.y.y.y.y.y.y.y.",
"y.y.y.y.y.y.{ x a e w =     y.y.y.1.V j l l l g r e 6 O     y.y.y.o.l l l l z w . y.y.y.y.y.y.y.",
"y.y.y.y.y.y.) j w X         y.y.y.$.l l l l z a #         y.y.y.9.D j l l l z t X y.y.y.y.y.y.y.",
"y.y.y.y.y.y.L j l 9       y.y.y.5.V j l l l l l y @       y.y.r.O.l l l l l z f O y.y.y.y.y.y.y.",
"y.y.y.y.y.%.S j x Z W 3 y.y.-.6.D j l z l l l l C P R 2 y.y.0.%.x j l l l l z g # y.y.y.y.y.y.y.",
"y.y.y.y.y.O.V l l l F } =.>...V j l l l l l l l l b T +.>.&.D z l l l l z l z h $ y.y.y.y.y.y.y.",
"y.y.y.y.y.o.V j l l j j l j k j l l l l l l l l l j j j j k j l l l l l l l z h *   y.y.y.y.y.y.",
"y.y.y.y.y.{ v l l l l l l l l l l l l l l l l l l l l l l l l l l l l l l l l h =   y.y.y.y.y.y.",
"y.y.y.y.y.[ v l l l l l l l l l l l l l l l l l l l l l l l l l l l l l l l z l ;   y.y.y.y.y.y.",
"y.y.y.y.y._ x l l l l l l l l l l l l l l l l l l l l l l l l l l l l l l l z l >   y.y.y.y.y.y.",
"y.y.y.y.y._ x j l l l l l l l l l l l l l l l l l l l l l l l l l l l l l l z l >   y.y.y.y.y.y.",
"y.y.y.y.y.) x j l l l l l l l l l l l l l l l l l l l l l l l l l l l l l l z l >   y.y.y.y.y.y.",
"y.y.y.y.y.( x j l l l l l l l l l l l l l l l l l l l l l l l l l l l l l l l l >   y.y.y.y.y.y.",
"y.y.y.y.y.^ x l l l l z l l l l l l l l l z l l l l l l l l l z l z l l l l z l >   y.y.y.y.y.y.",
"y.y.y.y.y.^ x z l l z z n z z l l l l l l z z n z l l l l l l z z z z z l l l l >   y.y.y.y.y.y.",
"y.y.y.y.y.P x z l l l w 1 8 h l l l l l z d 5 6 g l l l l l z g 7 5 d l l l l l -   y.y.y.y.y.y.",
"y.y.y.y.y.A x l z l < .   . 1 h z l l z t O     ; g l l l z f &     $ d l l z h &   y.y.y.y.y.y.",
"y.y.y.y.y.N M l n e         o r z z n g #       . 6 z z z z =         , l z z h O   y.y.y.y.y.y.",
"y.y.y.y.y.1 h l t #     y.y.y.& d l f *       y.y.O e h h ,       y.y.X 6 g l 7 .   y.y.y.y.y.y.",
"y.y.y.y.y.y.& $ .     y.y.y.y.y.# $ o       y.y.y.y.o $ O       y.y.y.y.y.$ # .     y.y.y.y.y.y.",
"y.y.y.y.y.y.y.        y.y.y.y.y.y.        y.y.y.y.y.y.        y.y.y.y.y.y.        y.y.y.y.y.y.y.",
"y.y.y.y.y.y.y.y.    y.y.y.y.y.y.y.y.    y.y.y.y.y.y.y.y.    y.y.y.y.y.y.y.y.    y.y.y.y.y.y.y.y.",
"y.y.y.y.y.y.y.y.y.y.y.y.y.y.y.y.y.y.y.y.y.y.y.y.y.y.y.y.y.y.y.y.y.y.y.y.y.y.y.y.y.y.y.y.y.y.y.y.",
"y.y.y.y.y.y.y.y.y.y.y.y.y.y.y.y.y.y.y.y.y.y.y.y.y.y.y.y.y.y.y.y.y.y.y.y.y.y.y.y.y.y.y.y.y.y.y.y.",
"y.y.y.y.y.y.y.y.y.y.y.y.y.y.y.y.y.y.y.y.y.y.y.y.y.y.y.y.y.y.y.y.y.y.y.y.y.y.y.y.y.y.y.y.y.y.y.y.",
"y.y.y.y.y.y.y.y.y.y.y.y.y.y.y.y.y.y.y.y.y.y.y.y.y.y.y.y.y.y.y.y.y.y.y.y.y.y.y.y.y.y.y.y.y.y.y.y.",
"y.y.y.y.y.y.y.y.y.y.y.y.y.y.y.y.y.y.y.y.y.y.y.y.y.y.y.y.y.y.y.y.y.y.y.y.y.y.y.y.y.y.y.y.y.y.y.y."
};
