/* XPM */
static char *result[] = {
/* columns rows colors chars-per-pixel */
"48 48 124 2 ",
"   c #000000",
".  c #0C0001",
"X  c #130001",
"o  c #1C0002",
"O  c #230003",
"+  c #2D0004",
"@  c #350004",
"#  c #3E0005",
"$  c #420005",
"%  c #4C0006",
"&  c #530006",
"*  c #5C0005",
"=  c #5E0008",
"-  c #680004",
";  c #640008",
":  c #6B0008",
">  c #730006",
",  c #740009",
"<  c #7C040B",
"1  c #7C0A13",
"2  c #592629",
"3  c #73262B",
"4  c #715E60",
"5  c #85000B",
"6  c #8C000B",
"7  c #93000C",
"8  c #9B000C",
"9  c #A4000D",
"0  c #AB000D",
"q  c #B3000E",
"w  c #BB000F",
"e  c #BE0110",
"r  c #BE101D",
"t  c #9F1923",
"y  c #9C202A",
"u  c #8A343A",
"i  c #C2000F",
"p  c #D5000F",
"a  c #D8000F",
"s  c #C40010",
"d  c #CC0010",
"f  c #D30011",
"g  c #DC0112",
"h  c #D80918",
"j  c #E5000D",
"k  c #EC000E",
"l  c #E60012",
"z  c #EA0012",
"x  c #E70718",
"c  c #EA0619",
"v  c #E7091A",
"b  c #EB0B1C",
"n  c #F10013",
"m  c #F10518",
"M  c #F10A1C",
"N  c #CE1927",
"B  c #E70F20",
"V  c #E81425",
"C  c #EA1C2C",
"Z  c #F61122",
"A  c #F3192A",
"S  c #D82836",
"D  c #DB2F3C",
"F  c #EB2434",
"G  c #EA2837",
"H  c #EB2B3A",
"J  c #F42434",
"K  c #F92738",
"L  c #F52C3C",
"P  c #E5303F",
"I  c #EB3443",
"U  c #E23947",
"Y  c #EC3947",
"T  c #EE3E4C",
"R  c #F33543",
"E  c #F23846",
"W  c #9D454B",
"Q  c #AB4B53",
"!  c #DD4551",
"~  c #DF525D",
"^  c #ED414F",
"/  c #ED4552",
"(  c #EE4956",
")  c #E14C58",
"_  c #EE4D5A",
"`  c #F44956",
"'  c #F74B59",
"]  c #F84C5A",
"[  c #EE505C",
"{  c #F0515D",
"}  c #EE5460",
"|  c #EF5B67",
" . c #EF5F6B",
".. c #F05C66",
"X. c #EF616C",
"o. c #F0616C",
"O. c #EF6872",
"+. c #F06570",
"@. c #FC6572",
"#. c #F16C76",
"$. c #F26F79",
"%. c #F1727C",
"&. c #FC7580",
"*. c #B68488",
"=. c #F3848D",
"-. c #FF878E",
";. c #E28B92",
":. c #F38A92",
">. c #FD8993",
",. c #E49299",
"<. c #F5939B",
"1. c #F69BA3",
"2. c #F6A1A7",
"3. c #F6A2A9",
"4. c #F6A9AF",
"5. c #F7B4B8",
"6. c #F8B7BC",
"7. c #FAB9BE",
"8. c #F9BFC4",
"9. c #FAC9CC",
"0. c #FAD0D3",
"q. c #FCE1E5",
"w. c #FFE7EA",
"e. c None",
/* pixels */
"e.e.e.e.e.e.e.e.e.e.e.e.e.e.e.e.e.e.e.e.e.e.e.e.e.e.e.e.e.e.e.e.e.e.e.e.e.e.e.e.e.e.e.e.e.e.e.e.",
"e.e.e.e.e.e.e.e.e.e.e.e.e.e.e.e.e.e.e.e.e.e.e.e.e.e.e.e.e.e.e.e.e.e.e.e.e.e.e.e.e.e.e.e.e.e.e.e.",
"e.e.e.e.e.e.e.e.e.e.e.e.e.e.e.e.e.e.e.e.e.e.e.e.e.e.e.e.e.e.e.e.e.e.e.e.e.e.e.e.e.e.e.e.e.e.e.e.",
"e.e.e.e.e.e.e.e.e.e.e.e.e.e.e.e.e.e.e.e.e.e.e.e.e.e.e.e.e.e.e.e.e.e.e.e.e.e.e.e.e.e.e.e.e.e.e.e.",
"e.e.e.e.e.e.e.e.e.e.e.e.e.e.e.e.e.e.e.e.e.e.e.e.e.e.e.e.e.e.e.e.e.e.e.e.e.e.e.e.e.e.e.e.e.e.e.e.",
"e.e.e.e.e.e.e.e.e.e.e.e.e.e.e.e.e.e.e.e.9.7.4.3.3.3.3.e.e.e.e.e.e.e.e.e.e.e.e.e.e.e.e.e.e.e.e.e.",
"e.e.e.e.e.e.e.e.e.e.e.e.e.e.e.e.0.2.%.` I F C V C H I ( o.#.e.e.e.e.e.e.e.e.e.e.e.e.e.e.e.e.e.e.",
"e.e.e.e.e.e.e.e.e.e.e.e.e.e.q.<.P l j j j j j j j j j j l C ^ ! e.e.e.e.e.e.e.e.e.e.e.e.e.e.e.e.",
"e.e.e.e.e.e.e.e.e.e.e.e.e.9...v j l l l l l l l l l l l j j l C R e.e.e.e.e.e.e.e.e.e.e.e.e.e.e.",
"e.e.e.e.e.e.e.e.e.e.e.e.7.Y k j l l l l l l l l l l l l l l l l B A e.e.e.e.e.e.e.e.e.e.e.e.e.e.",
"e.e.e.e.e.e.e.e.e.e.e.6.P j l l l l l l l l l l l l l l l l l l l c h e.e.e.e.e.e.e.e.e.e.e.e.e.",
"e.e.e.e.e.e.e.e.e.e.8.^ j l l l l l l l l l l l l l l l l l l l l z m 0 e.e.e.e.e.e.e.e.e.e.e.e.",
"e.e.e.e.e.e.e.e.e.e.o.l k l l l l l l l l l l l l l l l l l l l l l z z : e.e.e.e.e.e.e.e.e.e.e.",
"e.e.e.e.e.e.e.e.e.<.v j l z n n n z l l l l l l l l l l z n n n z l l z f e.e.e.e.e.e.e.e.e.e.e.",
"e.e.e.e.e.e.e.e.5.[ j z l w 7 5 q a z l l l l l l l l z d 8 5 7 s l l l l < e.e.e.e.e.e.e.e.e.e.",
"e.e.e.e.e.e.e.e.<.V k d = .     . & i l l l l l l l z 8 O       o 6 l l l e e.e.e.e.e.e.e.e.e.e.",
"e.e.e.e.e.e.e.e.| k f $             % d l l l l l z 9 .           X 0 l l g * e.e.e.e.e.e.e.e.e.",
"e.e.e.e.e.e.e.<.G k ,         e.e.e.  7 l l l l z f O       e.e.e.  & l l l 6 e.e.e.e.e.e.e.e.e.",
"e.e.e.e.e.e.e.%.v p O     e.e.e.e.e.e.@ v x l l n 5     e.e.e.e.e.e.e.e z z e O e.e.e.e.e.e.e.e.",
"e.e.e.e.e.e.e./ k q     e.e.e.e.e.e.e.e.s M l l l $     e.e.e.e.e.e.e.1 Z z g % e.e.e.e.e.e.e.e.",
"e.e.e.e.e.e.=.G k 8     e.e.e.e.e.e.e.e.y A l l f +   e.e.e.e.e.e.e.e.e.K l l , e.e.e.e.e.e.e.e.",
"e.e.e.e.e.e.%.V k 8   e.e.e.e.e.e.e.e.e.3 K k z d +   e.e.e.e.e.e.e.e.e.E l l 6 e.e.e.e.e.e.e.e.",
"e.e.e.e.e.e. .x z 9 . e.e.e.e.e.e.e.e.e.W L j z f $   e.e.e.e.e.e.e.e.e.` l z 9 . e.e.e.e.e.e.e.",
"e.e.e.e.e.e.( k z w o e.e.w.1.+.] e.e.e.-.F j l l :   e.e.7.%...R e.e.e.( k l w X e.e.e.e.e.e.e.",
"e.e.e.e.e.e.Y k z g % e.e.&.x j c w e.e.>.V j l l 9 . e.<.C j l c > e.;.E j z d O e.e.e.e.e.e.e.",
"e.e.e.e.e.%.G j l z q e.Q A j l z 9 X 4 @.k l l l l - e.R j l k a * e.:.b j l f @ e.e.e.e.e.e.e.",
"e.e.e.e.e.O.C j l l z t Q A k l l 0 2 ,.C j l l l l g u P k l l f < *.' j l l g $ e.e.e.e.e.e.e.",
"e.e.e.e.e.X.V l l l l J ) C j l k h ~ E l l l l l l v T P l l l j S { x l l l l %   e.e.e.e.e.e.",
"e.e.e.e.e...B j l l l l v x l l l v b l l l l l l l l x v l l l l b z l l l l l &   e.e.e.e.e.e.",
"e.e.e.e.e.} v l l l l l l l l l l j j l l l l l l l l l l l l l l l l l l l l l =   e.e.e.e.e.e.",
"e.e.e.e.e._ v l l l l l l l l l l l l l l l l l l l l l l l l l l l l l l l l l ;   e.e.e.e.e.e.",
"e.e.e.e.e.( x l l l l l l l l l l l l l l l l l l l l l l l l l l l l l l l l l ;   e.e.e.e.e.e.",
"e.e.e.e.e./ x l l l l l l l l l l l l l l l l l l l l l l l l l l l l l l l l l ; . e.e.e.e.e.e.",
"e.e.e.e.e./ x j l l l l l l l l l l l l l l l l l l l l l l l l l l l l l l l l ;   e.e.e.e.e.e.",
"e.e.e.e.e.^ x l l l l l l l l l l l l l l l l l l l l l l l l l l l l l l l l l ;   e.e.e.e.e.e.",
"e.e.e.e.e.^ x k l l l n n n l l l l l l l z n n z l l l l l l z n n z l l l l l ;   e.e.e.e.e.e.",
"e.e.e.e.e.U c l l l l 0 6 8 g l l l l l l s 6 8 f z l l l l l f 8 7 i l l l l l =   e.e.e.e.e.e.",
"e.e.e.e.e.D b l l l =     . : g z l l n 9 o     & f z l l z s +     + w z l l l $   e.e.e.e.e.e.",
"e.e.e.e.e.N M l n 9         X 9 z l z d O         5 l l n l $         = l l z f O   e.e.e.e.e.e.",
"e.e.e.e.e., l z w +     e.e.e.# d z f %       e.e.o 9 l l :       e.e.e.6 g n 8     e.e.e.e.e.e.",
"e.e.e.e.e.e.& % o     e.e.e.e.e.# & O       e.e.e.e.O & @       e.e.e.e.X % % X     e.e.e.e.e.e.",
"e.e.e.e.e.e.e.        e.e.e.e.e.e.        e.e.e.e.e.e.        e.e.e.e.e.e.        e.e.e.e.e.e.e.",
"e.e.e.e.e.e.e.e.    e.e.e.e.e.e.e.e.    e.e.e.e.e.e.e.e.    e.e.e.e.e.e.e.e.    e.e.e.e.e.e.e.e.",
"e.e.e.e.e.e.e.e.e.e.e.e.e.e.e.e.e.e.e.e.e.e.e.e.e.e.e.e.e.e.e.e.e.e.e.e.e.e.e.e.e.e.e.e.e.e.e.e.",
"e.e.e.e.e.e.e.e.e.e.e.e.e.e.e.e.e.e.e.e.e.e.e.e.e.e.e.e.e.e.e.e.e.e.e.e.e.e.e.e.e.e.e.e.e.e.e.e.",
"e.e.e.e.e.e.e.e.e.e.e.e.e.e.e.e.e.e.e.e.e.e.e.e.e.e.e.e.e.e.e.e.e.e.e.e.e.e.e.e.e.e.e.e.e.e.e.e.",
"e.e.e.e.e.e.e.e.e.e.e.e.e.e.e.e.e.e.e.e.e.e.e.e.e.e.e.e.e.e.e.e.e.e.e.e.e.e.e.e.e.e.e.e.e.e.e.e.",
"e.e.e.e.e.e.e.e.e.e.e.e.e.e.e.e.e.e.e.e.e.e.e.e.e.e.e.e.e.e.e.e.e.e.e.e.e.e.e.e.e.e.e.e.e.e.e.e."
};
