/* XPM */
static char *result[] = {
/* columns rows colors chars-per-pixel */
"48 48 128 2 ",
"   c #000000",
".  c #0C0001",
"X  c #140002",
"o  c #1B0002",
"O  c #220003",
"+  c #2B0003",
"@  c #340004",
"#  c #3C0005",
"$  c #420005",
"%  c #4C0006",
"&  c #540007",
"*  c #5A0006",
"=  c #5C0008",
"-  c #6A0002",
";  c #640008",
":  c #6B0009",
">  c #730009",
",  c #7B010A",
"<  c #7B0913",
"1  c #58262A",
"2  c #71262B",
"3  c #736060",
"4  c #87000B",
"5  c #8B000B",
"6  c #93000C",
"7  c #9B000C",
"8  c #A4000D",
"9  c #AC000C",
"0  c #B2000E",
"q  c #BC000F",
"w  c #AD0915",
"e  c #B00A1A",
"r  c #BD111E",
"t  c #A01925",
"y  c #99202A",
"u  c #8E363B",
"i  c #C2000F",
"p  c #CE000E",
"a  c #D3000F",
"s  c #D8000F",
"d  c #C40110",
"f  c #CB0010",
"g  c #D40011",
"h  c #DC0112",
"j  c #D80918",
"k  c #E6000D",
"l  c #EC000F",
"z  c #E60012",
"x  c #EA0012",
"c  c #E70719",
"v  c #EA0719",
"b  c #E70A1B",
"n  c #EB0A1C",
"m  c #F00114",
"M  c #F50518",
"N  c #E70F20",
"B  c #EB0E20",
"V  c #E81324",
"C  c #E81728",
"Z  c #EA1D2D",
"A  c #F61022",
"S  c #F3192A",
"D  c #D92634",
"F  c #D92836",
"G  c #EB2333",
"H  c #EA2837",
"J  c #EB2E3D",
"K  c #F42434",
"L  c #F32A3A",
"P  c #FA2838",
"I  c #E5303E",
"U  c #DE3542",
"Y  c #EC3543",
"T  c #EC3E4C",
"R  c #F23443",
"E  c #F23847",
"W  c #F53948",
"Q  c #9F454C",
"!  c #AB4B52",
"~  c #D84550",
"^  c #DF525D",
"/  c #ED414E",
"(  c #F1424F",
")  c #ED4552",
"_  c #E04C57",
"`  c #ED4955",
"'  c #EE4D5A",
"]  c #F04654",
"[  c #F44956",
"{  c #F64A58",
"}  c #EE535F",
"|  c #F0505D",
" . c #EF5A66",
".. c #EF5F6B",
"X. c #FA5A67",
"o. c #EE606B",
"O. c #F0636E",
"+. c #EF6772",
"@. c #FC6571",
"#. c #F16C77",
"$. c #F16E79",
"%. c #F1717B",
"&. c #BC7F82",
"*. c #F67B85",
"=. c #B88489",
"-. c #F3858D",
";. c #E28D93",
":. c #FC8790",
">. c #F38D95",
",. c #FF8893",
"<. c #E49399",
"1. c #F4949B",
"2. c #F8939B",
"3. c #F5989F",
"4. c #F59DA4",
"5. c #F6A0A7",
"6. c #F6A2AA",
"7. c #F8B1B7",
"8. c #F8B6BB",
"9. c #F8B9BD",
"0. c #F8BDC2",
"q. c #FBCCCF",
"w. c #F6CFD3",
"e. c #FACDD2",
"r. c #FBD4D7",
"t. c #FFD5DA",
"y. c #FCE6E8",
"u. c None",
/* pixels */
"u.u.u.u.u.u.u.u.u.u.u.u.u.u.u.u.u.u.u.u.u.u.u.u.u.u.u.u.u.u.u.u.u.u.u.u.u.u.u.u.u.u.u.u.u.u.u.u.",
"u.u.u.u.u.u.u.u.u.u.u.u.u.u.u.u.u.u.u.u.u.u.u.u.u.u.u.u.u.u.u.u.u.u.u.u.u.u.u.u.u.u.u.u.u.u.u.u.",
"u.u.u.u.u.u.u.u.u.u.u.u.u.u.u.u.u.u.u.u.u.u.u.u.u.u.u.u.u.u.u.u.u.u.u.u.u.u.u.u.u.u.u.u.u.u.u.u.",
"u.u.u.u.u.u.u.u.u.u.u.u.u.u.u.u.u.u.u.u.u.u.u.u.u.u.u.u.u.u.u.u.u.u.u.u.u.u.u.u.u.u.u.u.u.u.u.u.",
"u.u.u.u.u.u.u.u.u.u.u.u.u.u.u.u.u.u.u.u.u.u.u.u.u.u.u.u.u.u.u.u.u.u.u.u.u.u.u.u.u.u.u.u.u.u.u.u.",
"u.u.u.u.u.u.u.u.u.u.u.u.u.u.u.u.u.u.u.q.8.6.1.>.1.1.3.u.u.u.u.u.u.u.u.u.u.u.u.u.u.u.u.u.u.u.u.u.",
"u.u.u.u.u.u.u.u.u.u.u.u.u.u.u.u.r.4.O.Y Z N b b b C G / o.%.u.u.u.u.u.u.u.u.u.u.u.u.u.u.u.u.u.u.",
"u.u.u.u.u.u.u.u.u.u.u.u.u.u.y.5.Y b k k k k k z k k k k c Z ( ~ u.u.u.u.u.u.u.u.u.u.u.u.u.u.u.u.",
"u.u.u.u.u.u.u.u.u.u.u.u.u.r.o.b k k z z z z z z z z z z z k z Z R u.u.u.u.u.u.u.u.u.u.u.u.u.u.u.",
"u.u.u.u.u.u.u.u.u.u.u.u.9.T k k z z z z z z z z z z z z z z z x B C u.u.u.u.u.u.u.u.u.u.u.u.u.u.",
"u.u.u.u.u.u.u.u.u.u.u.9.Y k z z z z z z z z z z z z z z z z z z z n j u.u.u.u.u.u.u.u.u.u.u.u.u.",
"u.u.u.u.u.u.u.u.u.u.7.J k z z z z z z z z z z z z z z z z z z z z z M d u.u.u.u.u.u.u.u.u.u.u.u.",
"u.u.u.u.u.u.u.u.u.u.' k k z x z z z z z z z z z z z z z z z z z z z z x , u.u.u.u.u.u.u.u.u.u.u.",
"u.u.u.u.u.u.u.u.u.1.b k x x m x x x z z z z z z z z z z x m m x x z z x f u.u.u.u.u.u.u.u.u.u.u.",
"u.u.u.u.u.u.u.u.u. .k x z q 5 5 9 s x x z z z z z z x x f 7 5 6 d z x z x , u.u.u.u.u.u.u.u.u.u.",
"u.u.u.u.u.u.u.u.1.C l p * .     . & q z x z z z z z x 7 o       o 4 z x x q u.u.u.u.u.u.u.u.u.u.",
"u.u.u.u.u.u.u.u. .l a $             % f z z z z z x 7 .           X 9 x x h & u.u.u.u.u.u.u.u.u.",
"u.u.u.u.u.u.u.>.G l =       u.u.u.u.  , x z z z x d o       u.u.u.u.# h x x 7 u.u.u.u.u.u.u.u.u.",
"u.u.u.u.u.u.u.#.x f X     u.u.u.u.u.u.u.z x z z x >     u.u.u.u.u.u.u.0 x x d + u.u.u.u.u.u.u.u.",
"u.u.u.u.u.u.u.` l 0     u.u.u.u.u.u.u.u.r n z x z $     u.u.u.u.u.u.u.< A x g % u.u.u.u.u.u.u.u.",
"u.u.u.u.u.u.-.H l 7     u.u.u.u.u.u.u.u.y S z x g @   u.u.u.u.u.u.u.u.u.K z z > u.u.u.u.u.u.u.u.",
"u.u.u.u.u.u.%.V l 7   u.u.u.u.u.u.u.u.u.2 P k x f +   u.u.u.u.u.u.u.u.u.E z x 5 u.u.u.u.u.u.u.u.",
"u.u.u.u.u.u...c x 8 . u.u.u.u.u.u.u.u.u.Q L k x g $   u.u.u.u.u.u.u.u.u.{ z x 8 . u.u.u.u.u.u.u.",
"u.u.u.u.u.u.) l x f o u.u.t.%./ W e u.u.,.G k x z >   u.w.2.` T L u.u.u.] k x q X u.u.u.u.u.u.u.",
"u.u.u.u.u.u.Y k z z & u.&.X.k k x q u.u.:.n k z z 0 X u.*.b k l x , u.;.J l x p O u.u.u.u.u.u.u.",
"u.u.u.u.u.%.H k z x q u.! S k z x 8 X 3 @.z z z z z - u.R k z k s & u.>.N k x g @ u.u.u.u.u.u.u.",
"u.u.u.u.u.+.Z k z z x t ! S k z z 9 1 <.G k z z z z j u I z z x s , =.{ k z x s $ u.u.u.u.u.u.u.",
"u.u.u.u.u...C z z x x G _ Z z z k j ^ E k z z z z z v T I z k z k D } c z z x h %   u.u.u.u.u.u.",
"u.u.u.u.u. .b z z z z z b c z z z c n z k z z z z z z v b z z z z n z z z z x h &   u.u.u.u.u.u.",
"u.u.u.u.u.} b z z z z z k z z z z k k z z z z z z z z z k z z z z z z z z z x z =   u.u.u.u.u.u.",
"u.u.u.u.u.' b k z z z z x z z z z z z z z z z z z z z z z z z z z z z z z z z z ;   u.u.u.u.u.u.",
"u.u.u.u.u.` c z z z z z z z z z z z z z z z z z z z z z z z z z z z z z z z x z :   u.u.u.u.u.u.",
"u.u.u.u.u.) c z z z z z z z z z z z z z z z z z z z z z z z z z z z z z z z z z ;   u.u.u.u.u.u.",
"u.u.u.u.u.) c k z z z z z z z z z z z z z z z z z z z z z z z z z z z z z z x z ;   u.u.u.u.u.u.",
"u.u.u.u.u./ c z z z z z z z z x z z z z z z z z z z z z z z x z z z z z z z z z ;   u.u.u.u.u.u.",
"u.u.u.u.u.T c k z z z z z x m x x z z z z z z z z z z z x m x x x z z z z z x z ;   u.u.u.u.u.u.",
"u.u.u.u.u.U c x z z x x x p , : 9 z x z z z z z z z x x h 6 : 5 g z z z z z z z &   u.u.u.u.u.u.",
"u.u.u.u.u.D n z z z x x 8 o     o 4 h x z z z z z x x p #       & i x z z z x h @   u.u.u.u.u.u.",
"u.u.u.u.u.w M x z x x 7 .         X , g x x x z x m q @           & g x z x m i .   u.u.u.u.u.u.",
"u.u.u.u.u.u.i h x z 5 X       u.u.u.. * 9 h x x h 5 o       u.u.u.. > f x x h *     u.u.u.u.u.u.",
"u.u.u.u.u.u.+ % = $         u.u.u.u.u.  o $ = & +         u.u.u.u.u.. # & * +       u.u.u.u.u.u.",
"u.u.u.u.u.u.u.            u.u.u.u.u.u.u.u.              u.u.u.u.u.u.u.            u.u.u.u.u.u.u.",
"u.u.u.u.u.u.u.u.      u.u.u.u.u.u.u.u.u.u.u.        u.u.u.u.u.u.u.u.u.u.u.      u.u.u.u.u.u.u.u.",
"u.u.u.u.u.u.u.u.u.u.u.u.u.u.u.u.u.u.u.u.u.u.u.u.u.u.u.u.u.u.u.u.u.u.u.u.u.u.u.u.u.u.u.u.u.u.u.u.",
"u.u.u.u.u.u.u.u.u.u.u.u.u.u.u.u.u.u.u.u.u.u.u.u.u.u.u.u.u.u.u.u.u.u.u.u.u.u.u.u.u.u.u.u.u.u.u.u.",
"u.u.u.u.u.u.u.u.u.u.u.u.u.u.u.u.u.u.u.u.u.u.u.u.u.u.u.u.u.u.u.u.u.u.u.u.u.u.u.u.u.u.u.u.u.u.u.u.",
"u.u.u.u.u.u.u.u.u.u.u.u.u.u.u.u.u.u.u.u.u.u.u.u.u.u.u.u.u.u.u.u.u.u.u.u.u.u.u.u.u.u.u.u.u.u.u.u.",
"u.u.u.u.u.u.u.u.u.u.u.u.u.u.u.u.u.u.u.u.u.u.u.u.u.u.u.u.u.u.u.u.u.u.u.u.u.u.u.u.u.u.u.u.u.u.u.u."
};
