/* XPM */
static char *a0174e1e68ad4d59bf55a34cab95af02[] = {
/* columns rows colors chars-per-pixel */
"48 48 127 2 ",
"   c None",
".  c #000000",
"X  c #0A0001",
"o  c #120001",
"O  c #1A0002",
"+  c #220003",
"@  c #2B0003",
"#  c #2E090C",
"$  c #330004",
"%  c #3A0005",
"&  c #430004",
"*  c #4C0006",
"=  c #550007",
"-  c #5C0007",
";  c #5D0008",
":  c #640008",
">  c #6C0008",
",  c #740009",
"<  c #7B000A",
"1  c #583B3D",
"2  c #683C40",
"3  c gray26",
"4  c #544141",
"5  c #635E60",
"6  c #85000A",
"7  c #8A000B",
"8  c #94000C",
"9  c #9C000C",
"0  c #8B0B15",
"q  c #990410",
"w  c #9F0D19",
"e  c #80111A",
"r  c #A3000D",
"t  c #AB000D",
"y  c #B3000E",
"u  c #BC010F",
"i  c #A60613",
"p  c #BD0917",
"a  c #BD1725",
"s  c #A42530",
"d  c #AE343D",
"f  c #C2000F",
"g  c #DA000B",
"h  c #C70010",
"j  c #CB0010",
"k  c #D40011",
"l  c #DC0011",
"z  c #E6000D",
"x  c #E8000D",
"c  c #E60012",
"v  c #EA0012",
"b  c #E00718",
"n  c #EC0719",
"m  c #E70B1C",
"M  c #EA0B1D",
"N  c #F20114",
"B  c #F3081A",
"V  c #F20E20",
"C  c #E71021",
"Z  c #E91324",
"A  c #EA1C2C",
"S  c #F21324",
"D  c #F41A2B",
"F  c #DA2634",
"G  c #DC2E3B",
"H  c #EA2433",
"J  c #EB2837",
"K  c #EB2B3A",
"L  c #F62131",
"P  c #F22F3E",
"I  c #EA303F",
"U  c #DE3543",
"Y  c #E53341",
"T  c #EC3644",
"R  c #EC3E4B",
"E  c #F43544",
"W  c #F83544",
"Q  c #904147",
"!  c #9A575C",
"~  c #B34048",
"^  c #B8414A",
"/  c #B54951",
"(  c #8D7879",
")  c #CB404A",
"_  c #DD4A56",
"`  c #D54F5A",
"'  c #F4424F",
"]  c #ED4451",
"[  c #EE4A56",
"{  c #EE4E5A",
"}  c #F14654",
"|  c #FB4553",
" . c #EE525E",
".. c #FA515E",
"X. c #EE5966",
"o. c #EF5F6B",
"O. c #FC5563",
"+. c #FD5865",
"@. c #F05D68",
"#. c #F0636E",
"$. c #F16772",
"%. c #F26B75",
"&. c #FF6873",
"*. c #F26E79",
"=. c #F2737C",
"-. c #CF7E84",
";. c #F27C85",
":. c #B7979B",
">. c #C2868B",
",. c #F4828C",
"<. c #FF929B",
"1. c #F69FA6",
"2. c #FB9DA4",
"3. c #F6A6AD",
"4. c #FBA4AA",
"5. c #F7AFB5",
"6. c #FBADB4",
"7. c #FFB0B7",
"8. c #F7B2B8",
"9. c #F8B4B9",
"0. c #FFB9BF",
"q. c #F5BCC0",
"w. c #FCC2C6",
"e. c #F9C4C8",
"r. c #FBD4D8",
"t. c #FCDDE1",
"y. c #FFE3E6",
/* pixels */
"                                                                                                ",
"                                                                                                ",
"                                                                                                ",
"                                                                                                ",
"                                                                                                ",
"                                      r.e.9.3.1.1.1.1.                                          ",
"                                t.8.;.{ I A Z Z A H T  .%.=.                                    ",
"                              3.[ Z z z z z z z z z z z m J } )                                 ",
"                          e. .b z z c c c c c c c c c c c z c A P                               ",
"                        5.K z z c c c c c c c c c c c c c c c z M D                             ",
"                      5.J x c c c c c c c c c c c c c v v v c c c n b                           ",
"                    0.T g c v v c c c c c c c c c v v l l v v v c c B y                         ",
"                    d & @ % , h v c c c c c c v v t - $ $ - t c v c c v >                       ",
"                  / X . . . . & j v c c c c v c < X . . . . + 8 c c c v h                       ",
"                _   . . .   . . > c v c c c v < . . . . .   . O y v c c v 6                     ",
"                e   .           O j v c c v j + . .             : v c c v f +                   ",
"                                  q B c c v 8 . .                 b v c v l -                   ",
"              `   5                 D c c v 6 . 3 (               a n c c v 8                   ",
"              -.>.<.+.| w           P c c c u ! 4.&.O.G           s V c c v u +                 ",
"              %.P c z v h           ' c c c M E Z z z c =         ~ S z c v k *                 ",
"            ,.H z c c v r o         [ c c c c z z c v l %         *.M z c v c ,                 ",
"            =.C x v N c * .         R z c c c c v v N t X .       =.b c c c v 7 .               ",
"            @.b f t r = . .       2.A z c c c k t t 7 + . .       #.z c c c v r X               ",
"            [ c 9 o . . . .       *.c c c c v h $ . . . .       w.K z c c c v u O               ",
"            T z c 0 . . .       7.A z c c c c c p # . . .     y.$.c c c c c v h +               ",
"          *.J z v D ^ 2 4   :.6.J z c c c c c c V Y Q 1     q.$.m z c c c c v k $               ",
"          $.A z c c S W ..O.E b z c c c c c c c c n L | O.| Z z c c c c c c v l &               ",
"          o.Z z c c c z z z z c c c c c c c c c c c z z z z z c c c c c c c v l * .             ",
"          X.m z c c c c c c c c c c c c c c c c c c c c c c c c c c c c c c v c = .             ",
"           .m c c c c c c c c c c c c c c c c c c c c c c c c c c c c c c c v c ; .             ",
"          { m c c c c c c c c c c c c c c c c c c c c c c c c c c c c c c c v c : .             ",
"          [ b c c c c c c c c c c c c c c c c c c c c c c c c c c c c c c c v c : .             ",
"          ] b c c c c c c c c c c c c c c c c c c c c c c c c c c c c c c c v c : .             ",
"          ] b c c c c c c c c c c c c c c c c c c c c c c c c c c c c c c c v c : .             ",
"          ] b c c c c c c c c c c c c c c c c c c c c c c c c c c c c c c c v c : .             ",
"          R b c c c c c c v v N v c c c c c c c c c c c v v N v v c c c c c v c : .             ",
"          U n c c c c c v k 9 7 f v v c c c c c c c c v c t 6 r l v c c c c v c = .             ",
"          F n c c c v v t % . . @ 8 l v c c c c c c v h * X . X - h v c c c v l % .             ",
"          i B v v v v 7 X . . . . X > h v v v v v v t + . . . . . * k v v v N u X .             ",
"            y k v c < X . . .       X * 9 k v c j < o . . .       . : u c v j * . .             ",
"            O % * $ . . . .           . o @ * & O . . . .           . @ & & O . . .             ",
"              . . . . . .               . . . . . . . .               . . . . . .               ",
"                . . .                       . . . .                       . . .                 ",
"                                                                                                ",
"                                                                                                ",
"                                                                                                ",
"                                                                                                ",
"                                                                                                "
};
