/* XPM */
static char *result[] = {
/* columns rows colors chars-per-pixel */
"48 48 84 1 ",
"  c #001427",
". c #001429",
"X c #021333",
"o c #04143B",
"O c #051344",
"+ c #01164B",
"@ c #09134F",
"# c #00184B",
"$ c #001753",
"% c #0A1354",
"& c #01175B",
"* c #0C135C",
"= c #041764",
"- c #0D1362",
"; c #001964",
": c #061769",
"> c #08176E",
", c #08186F",
"< c #0A1772",
"1 c #0C177A",
"2 c #0C1878",
"3 c #0F1781",
"4 c #101782",
"5 c #13178B",
"6 c #15188E",
"7 c #161792",
"8 c #181796",
"9 c #171894",
"0 c #1A179A",
"q c #002F81",
"w c #042F8D",
"e c #003283",
"r c #03338C",
"t c #062F92",
"y c #033493",
"u c #093294",
"i c #033598",
"p c #0C329A",
"a c #0F32A1",
"s c #1031A2",
"d c #1431AA",
"f c #1932B3",
"g c #1E32BB",
"h c #0C55B4",
"j c #2232C3",
"k c #2732C9",
"l c #2A32CD",
"z c #2E32D2",
"x c #3032D5",
"c c #2F7FCD",
"v c #2680C7",
"b c #2A83C7",
"n c #2A83C9",
"m c #2E88CD",
"M c #3082CE",
"N c #3483D3",
"B c #3C82DC",
"V c #3D9DDD",
"C c #4383E4",
"Z c #4683E8",
"A c #4C83ED",
"S c #5083EF",
"D c #5483F2",
"F c #5C83F5",
"G c #4CBDED",
"H c #53BEEE",
"J c #55BDF1",
"K c #5BBEF4",
"L c #61BEF7",
"P c #64BEF9",
"I c #6BBEFB",
"U c #73BEFC",
"Y c #7BBEFD",
"T c #4EC0ED",
"R c #52C1ED",
"E c #5BC3ED",
"W c #56C1F1",
"Q c #58C2F1",
"! c #5FCCF2",
"~ c #62CDF3",
"^ c #65D1F3",
"/ c #69D5F5",
"( c #6ED9F5",
") c None",
/* pixels */
")/~QJJKK~IIIUYYYYUIPPLLLKJHGGGGGGGTGGGTTTTGGT!/)",
"/HVNNNBBVAAADFFFFFSAZCBcccNcncvbvvmvvcbmvvvvvVR/",
"!Vhiupsdggjllxxxzzkjgfdssutreeeeqeqqe2eeeeeeyhV~",
"Rmy;$&:<22468000087541>::&$+$+++++$+++##++++;iNK",
"Gbq+ooOO@@%*--=*-**%@@OooXXXXX.X.X..X.X....o$wcJ",
"Hne+....XXXoooo#oooXXXXX...................X&ucJ",
"Rbe+..... .. .......  .     . .  .  ..  ...o=pcJ",
"Rbq+X... .      ....   ....................O:sBK",
"Rbe+......... ........ ....... .......... .O<dCK",
"Tbe+X.............................. .... .X@1fCK",
"Tm2#X. ......... ........................ X@4jZP",
"Tme#........... .. ....... . ..... ... ...o%5jAI",
"Tme#X................ ..... ............ .o*7lSI",
"Tb2#X. ........... .............. ........o*0zDU",
"Tbe#................................. ....o*0zFY",
"Tbe#X. ....  .......... ....... ..........o-0xFY",
"Tbe+X......  ....... ....... ........... .o-0xFY",
"Tme+............. ...................  ...o-0zFY",
"Rnr+X. .......... ............... ........o*7lSU",
"HMe$X. ................. ..... ...........X*7kSI",
"RMr$X... ...... ....... .......... .... ..X%5jAP",
"KMu&o.......................... ..........X@1gZP",
"KNp&o. ............. ... ..................@2fC~",
"QBs=o. ... .. .... ....... ........ ..... XO,dBQ",
"LBs<O.................. ........... .......o:aNK",
"~Cf1@..... ..... ............ .............o&pNK",
"PCg1@X.... ... .......... ... .............X&uNK",
"PAj4%X. ........... ............. ..... ...X$rnJ",
"USk7*o  ............ .......................$eNR",
"UDz8*o  ........... ....... .... ..........X#enH",
"YDx0-o. . .. .................. ............+emH",
"YFx0-o. ...... ......... ............ .....X+ebG",
"YFx0-o.......... ....... ........ .. .... .X+emT",
"YFx0-o....................... ........... ..+ebT",
"YFz8*o....... .................. ........ .X+ebT",
"~Dl7*o. ............ .... ..................+ebG",
"UAk5%X............. ................... ...X+enT",
"PZg5%X ......................  .............+enT",
"PAf1@X..... .. .......... .......... .... .X#enT",
"Lcd<O.... ....... ................ .........#ebT",
"KBh:#. ...................... ....   ...  .X+ebT",
"KBu=o. .. .. .  ....  ..  ............ .. ..+ebR",
"Hci&X........ ....... ...X.XXoooooooXXX.....+ebT",
"Kcr$o....X.X.XX..X.XXXXooO@@%**----***@@OOoo+ebT",
"EMr&########+++++++$$$&=:214578000007511<:&&;ymR",
"^Vhy2eee2ee2qeeeeeeeerupsdfgjklxxxxlkjgfdsptihV^",
"(EVmvvvvmmvvmvvvvnnnnNNNBBCAASDFFFFDSAZCBcNNNV!(",
")(~TGGTGTTGGGGGGGGGGGJJJKKLLPIUYYYYUIPLLKLQJQ~()"
};
